<svg width="136" height="136" viewBox="0 0 136 136" fill="none" xmlns="http://www.w3.org/2000/svg">
<path id="Vector" opacity="0.15" d="M136 67.9905C136 68.1543 135.991 68.3181 135.987 68.4819L67.2019 136C65.5553 135.981 63.9244 135.899 62.3093 135.767L135.843 63.5748C135.937 65.0331 136 66.5008 136 67.9811V67.9905ZM119.226 101.326L86.4951 133.452C89.2184 132.683 91.8788 131.77 94.451 130.68L130.103 95.6756C130.446 94.9039 130.78 94.126 131.095 93.3417C131.832 91.5024 132.502 89.6283 133.078 87.7165L119.219 101.323L119.226 101.326ZM119.226 90.8252L73.4199 135.789C74.1377 135.732 74.8556 135.672 75.5671 135.591C76.817 135.452 78.0543 135.276 79.2822 135.071L134.823 80.5512C135.181 78.6236 135.474 76.6646 135.666 74.6835L119.222 90.8252H119.226ZM119.226 112.252L109.163 122.132C112.088 119.902 114.821 117.436 117.343 114.772C117.985 114.094 118.612 113.405 119.226 112.706C119.928 111.902 120.614 111.08 121.278 110.239L119.226 112.255V112.252ZM135.342 58.6173C135.144 57.1591 134.911 55.7134 134.621 54.2866L75.5671 112.258L72.998 114.775L53.7363 133.685L53.05 134.356C53.2798 134.406 53.5065 134.466 53.7363 134.517C54.9264 134.769 56.1259 134.995 57.3381 135.187L135.342 58.6173ZM53.7395 117.294L130.742 41.7102C130.248 40.5291 129.719 39.3669 129.162 38.2236L37.1035 128.595C38.2369 129.175 39.3892 129.726 40.5573 130.243L53.7426 117.298L53.7395 117.294ZM53.7395 127.792L132.486 50.4819L133.447 49.537C133.081 48.2362 132.678 46.9512 132.241 45.685L44.4738 131.83C45.7332 132.296 47.0146 132.715 48.3085 133.105L53.7332 127.78L53.7395 127.792ZM53.7395 106.362L127.096 34.3465C126.486 33.2756 125.847 32.2205 125.179 31.1874L30.1236 124.491C30.7092 124.885 31.3105 125.26 31.9055 125.635C32.3495 125.912 32.7965 126.192 33.2499 126.463L53.7332 106.35L53.7395 106.362ZM31.9118 95.8677L112.601 16.6614C111.691 15.8709 110.763 15.1024 109.812 14.3591L13.5884 108.816C14.3125 109.78 15.0681 110.721 15.8394 111.644L31.9087 95.8677H31.9118ZM31.9118 106.365L117.976 21.8677C117.16 20.9858 116.323 20.1291 115.463 19.2913L18.4274 114.539C18.4967 114.611 18.5659 114.683 18.6352 114.759C19.3908 115.556 20.1653 116.334 20.9555 117.093L31.8961 106.35L31.9118 106.365ZM31.9118 117.294L121.798 29.0646L122.95 27.9307C122.238 26.9543 121.505 25.9968 120.743 25.0583L31.9118 112.261L29.3428 114.778L24.0913 119.937C25.0138 120.715 25.952 121.474 26.9122 122.205L31.9118 117.298V117.294ZM31.3861 10.6709C23.8615 15.4898 17.3506 21.7449 12.2377 29.0614C11.9449 29.4803 11.6521 29.8961 11.3688 30.3213L31.3861 10.6709ZM10.0811 42.0819L50.7328 2.17008C48.0882 2.86299 45.5159 3.71969 43.0098 4.71181L5.20425 41.8236C4.17159 44.2961 3.29634 46.8472 2.55962 49.4614L10.0779 42.0787L10.0811 42.0819ZM64 0.0850394C62.0701 0.198425 60.1621 0.393701 58.2794 0.661417L0.884691 57.0016C0.582448 58.8756 0.362062 60.778 0.214089 62.6992L64 0.0850394ZM31.9118 84.9354L106.377 11.8268C105.366 11.1339 104.337 10.4598 103.288 9.82047L10.0779 101.313L9.20582 102.167C9.49233 102.658 9.77883 103.153 10.0779 103.638C10.4242 104.202 10.7832 104.753 11.1452 105.304L31.9055 84.9197L31.9118 84.9354ZM10.0811 74.4378L84.0079 1.87402C82.6131 1.53701 81.1995 1.24724 79.7702 0.995276L0.799685 78.5165C1.02007 79.9465 1.30028 81.3575 1.61196 82.7591L10.0811 74.4441V74.4378ZM10.0811 84.9386L92.1338 4.3811C90.8902 3.90866 89.6309 3.45827 88.3495 3.05827L2.72649 87.1055C3.10429 88.3969 3.51043 89.6756 3.96065 90.9354L10.0748 84.9323L10.0811 84.9386ZM10.0811 95.8677L99.7623 7.83937C99.6332 7.77323 99.501 7.70709 99.3719 7.6378C98.717 7.29764 98.0653 6.95118 97.3979 6.63307C97.0516 6.46614 96.6958 6.31811 96.3432 6.15433L5.65132 95.1842C6.16135 96.3496 6.70287 97.4961 7.27588 98.6299L10.0811 95.874V95.8677ZM74.4998 0.277165C72.8973 0.125984 71.279 0.0409449 69.6482 0L0 68.3685C0.00629673 69.5591 0.0440771 70.7402 0.110193 71.9181C0.13538 72.3496 0.176309 72.7748 0.207792 73.2031L74.4998 0.277165Z" fill="#EE75B8"/>
</svg>
