<svg width="125" height="103" viewBox="0 0 125 103" fill="none" xmlns="http://www.w3.org/2000/svg">
<path d="M109.208 45.5723C109.208 45.5723 113.922 36.6117 114.824 35.3997C115.726 34.1876 117.022 34.9427 115.766 37.6766C115.766 37.6766 118.049 34.0897 118.993 33.1218C119.936 32.153 120.967 33.2251 120.647 34.017C120.647 34.017 121.23 33.4908 121.83 33.9577C122.43 34.4246 121.93 35.3853 121.93 35.3853C121.93 35.3853 122.746 34.6904 123.324 35.3269C123.901 35.9635 123.36 36.9969 123.36 36.9969C123.36 36.9969 124.058 36.4923 124.721 37.0867C125.384 37.6811 124.745 38.9471 124.065 40.1286C123.385 41.3102 117.359 50.9082 117.359 50.9082L109.208 45.5723Z" fill="#F6A36B"/>
<path d="M116.529 39.8647C116.611 39.8647 116.692 39.8198 116.733 39.7417C118.323 36.7437 120.788 34.2028 120.812 34.1777C120.902 34.0861 120.9 33.9398 120.809 33.85C120.717 33.7611 120.57 33.7629 120.481 33.8536C120.456 33.8796 117.947 36.4654 116.324 39.5244C116.264 39.6375 116.307 39.7776 116.42 39.8377C116.455 39.8566 116.492 39.8647 116.529 39.8647Z" fill="#323232"/>
<path d="M118.301 41.293C118.402 41.293 118.495 41.2257 118.523 41.1233C118.998 39.403 122.3 35.4211 122.333 35.3807C122.414 35.2828 122.401 35.1365 122.303 35.0548C122.205 34.9731 122.059 34.9856 121.978 35.0844C121.84 35.2505 118.578 39.184 118.077 40.9994C118.043 41.1224 118.116 41.2499 118.239 41.284C118.259 41.2894 118.28 41.2921 118.301 41.2921V41.293Z" fill="#323232"/>
<path d="M119.982 42.6497C120.086 42.6497 120.181 42.5788 120.206 42.4729C120.546 41.0767 123.513 37.1774 123.543 37.1379C123.621 37.0364 123.602 36.891 123.5 36.8128C123.398 36.7356 123.254 36.7545 123.176 36.8559C123.051 37.0193 120.119 40.8729 119.757 42.3624C119.726 42.4863 119.803 42.612 119.927 42.6426C119.945 42.6471 119.964 42.6488 119.982 42.6488V42.6497Z" fill="#323232"/>
<path d="M120.899 43.3887C120.967 43.3887 121.033 43.3591 121.079 43.3025C121.159 43.2028 121.143 43.0574 121.044 42.9775L116.04 38.9417C115.941 38.8609 115.796 38.877 115.716 38.9767C115.636 39.0763 115.651 39.2218 115.751 39.3017L120.754 43.3375C120.797 43.3725 120.848 43.3887 120.899 43.3887Z" fill="#323232"/>
<path d="M114.599 46.929C114.674 46.929 114.746 46.8931 114.791 46.8267C114.93 46.622 115.041 46.3858 115.154 46.0635C115.728 44.4168 115.61 42.5772 114.83 41.0185C114.773 40.9045 114.634 40.8578 114.52 40.9152C114.406 40.9727 114.36 41.1119 114.417 41.2259C115.13 42.6526 115.242 44.4043 114.717 45.9118C114.619 46.1946 114.524 46.3975 114.408 46.5681C114.336 46.674 114.364 46.8177 114.47 46.8895C114.509 46.9164 114.554 46.929 114.599 46.929Z" fill="#323232"/>
<g clip-path="url(#clip0_42_2706)">
<path d="M56.4172 31.0191C55.8263 31.5767 54.9691 31.7715 54.1577 31.7455C51.7752 31.6674 49.704 29.9256 47.326 29.7595C46.155 29.6778 44.9741 29.9929 43.9438 30.5567C41.6484 31.8128 40.1124 34.3708 40.1187 36.9898C40.1258 39.6097 41.6932 42.174 44.0362 43.3394C45.4834 44.0586 47.1296 44.2534 48.7418 44.3567C51.6605 44.5425 54.649 44.4527 57.4188 43.5136C60.1886 42.5744 62.7387 40.6952 63.9806 38.043C64.662 36.5885 64.9265 34.9751 65.0933 33.3769C65.348 30.9419 65.044 26.6188 61.9039 26.0657C60.7822 25.8682 59.2883 26.4976 58.4939 27.2634C57.417 28.3014 57.4923 30.0028 56.4163 31.0191H56.4172Z" fill="#562A2F"/>
<path d="M79.4398 18.2705C80.2961 12.404 76.9184 6.94684 70.3674 6.10466C63.6514 5.24093 57.286 9.87831 56.87 16.8142C56.8323 17.4355 56.8449 18.0604 56.9014 18.6799C57.1255 21.1247 58.2096 23.5049 60.0011 25.1812C62.9664 27.9547 67.5384 28.1154 70.9466 27.7688C75.395 27.3163 78.8785 22.1169 79.4398 18.2705Z" fill="#562A2F"/>
<path d="M85.8079 81.5823L91.0444 210.26H73.9568L66.5629 114.628L58.319 210.26H42.5952C42.5952 210.26 42.5504 108.159 44.7517 94.8381C46.3585 85.1171 50.4015 81.5823 50.4015 81.5823H85.807H85.8079Z" fill="#F6A36B"/>
<path d="M85.8081 81.5823L96.8765 162.784C96.8765 162.784 62.4896 169.109 34.2546 162.784C34.2546 162.784 37.6691 109.062 43.9834 92.8143C47.6167 83.466 50.4026 81.5823 50.4026 81.5823H85.8081Z" fill="#F095B0"/>
<path d="M90.1139 163.798C89.8529 163.832 89.5848 163.866 89.3113 163.9V160.258H78.0403V165.023C77.774 165.042 77.5077 165.062 77.2378 165.081V160.258H65.9668V165.57C65.6996 165.574 65.4333 165.578 65.1643 165.581V160.258H53.8933V165.351C53.6261 165.337 53.3589 165.323 53.0908 165.306V160.258H41.8198V164.169C41.5526 164.129 41.2845 164.091 41.0173 164.05V160.258H34.4268C34.4447 160.006 34.4636 159.739 34.4842 159.454H41.0173V148.168H35.3809C35.4042 147.903 35.4275 147.635 35.4508 147.365H41.0173V136.079H36.5223C36.5501 135.811 36.5779 135.544 36.6057 135.275H41.0173V123.989H37.8897C37.9229 123.722 37.957 123.453 37.991 123.186H41.0182V111.9H39.5889C39.6319 111.63 39.675 111.363 39.7189 111.096H41.0182V103.899C41.2782 102.608 41.5463 101.37 41.8207 100.195V111.096H53.0917V99.8103H41.9112C41.9758 99.5391 42.0412 99.2707 42.1067 99.0067H53.0917V87.7208H46.2116C46.3515 87.4398 46.4887 87.174 46.6232 86.9172H53.0908V81.5813H53.8933V86.9172H65.1643V81.5813H65.9668V86.9172H77.2378V81.5813H78.0403V86.9172H86.5353L86.6447 87.7208H78.0403V99.0067H88.1834L88.2927 99.8103H78.0403V111.096H89.3113V107.28L90.1139 113.168V123.186H91.4795L91.5889 123.989H90.1139V135.275H93.1275L93.2369 136.079H90.1139V147.365H94.7747L94.8841 148.168H90.113V159.454H96.4219L96.5312 160.258H90.113V163.797L90.1139 163.798ZM53.0908 111.901H41.8198V123.187H53.0908V111.901ZM53.0908 123.99H41.8198V135.276H53.0908V123.99ZM53.0908 136.08H41.8198V147.366H53.0908V136.08ZM53.0908 148.169H41.8198V159.455H53.0908V148.169ZM65.1643 87.7217H53.8933V99.0076H65.1643V87.7217ZM65.1643 99.8112H53.8933V111.097H65.1643V99.8112ZM65.1643 111.901H53.8933V123.187H65.1643V111.901ZM65.1643 123.99H53.8933V135.276H65.1643V123.99ZM65.1643 136.08H53.8933V147.366H65.1643V136.08ZM65.1643 148.169H53.8933V159.455H65.1643V148.169ZM77.2378 87.7217H65.9668V99.0076H77.2378V87.7217ZM77.2378 99.8112H65.9668V111.097H77.2378V99.8112ZM77.2378 111.901H65.9668V123.187H77.2378V111.901ZM77.2378 123.99H65.9668V135.276H77.2378V123.99ZM77.2378 136.08H65.9668V147.366H77.2378V136.08ZM77.2378 148.169H65.9668V159.455H77.2378V148.169ZM89.3113 111.901H78.0403V123.187H89.3113V111.901ZM89.3113 123.99H78.0403V135.276H89.3113V123.99ZM89.3113 136.08H78.0403V147.366H89.3113V136.08ZM89.3113 148.169H78.0403V159.455H89.3113V148.169Z" fill="#FFC4D7"/>
<path d="M41.3687 44.4725L36.2811 76.5139L55.0087 72.7268L62.3174 35.6718H51.6651C46.5389 35.6718 42.173 39.4032 41.3687 44.4725Z" fill="#FFBAB2"/>
<path d="M85.8079 81.5823H50.4024L44.7875 47.8268C43.7295 41.4638 48.6297 35.6718 55.0722 35.6718H81.139C87.5815 35.6718 92.4818 41.4638 91.4237 47.8268L85.8088 81.5823H85.8079Z" fill="#FFBAB2"/>
<path d="M108.789 44.626L117.967 49.8173L103.476 76.6818C101.8 79.7884 97.9829 81.0274 94.8061 79.4975C91.2042 77.7628 89.956 73.2458 92.1556 69.904L108.789 44.626H108.789Z" fill="#FFBAB2"/>
<path d="M95.7411 42.9775L103.033 66.1806L91.3214 75.3602L86.0186 59.902L73.8922 35.6718H85.7953C90.3477 35.6718 94.3737 38.6293 95.7402 42.9775H95.7411Z" fill="#FFBAB2"/>
<path d="M56.7877 50.7402H82.1802V85.513H56.7877V50.7402Z" fill="#F5F5F5"/>
<path d="M68.8944 70.4067L73.2593 75.3602C73.2593 75.3602 78.8419 75.0836 80.3205 69.2207L82.4707 69.5161C83.267 69.6256 83.9054 68.8445 83.6193 68.0921C83.6149 68.0795 83.6104 68.0679 83.605 68.0553C83.605 68.0553 85.0208 67.3101 84.2309 65.957C84.2309 65.957 85.3239 64.9793 84.3483 63.8848C84.3483 63.8848 85.3589 62.7499 84.1789 61.8027C82.9989 60.8554 78.4214 59.5527 76.4048 59.989C74.8742 60.3194 68.8953 70.4067 68.8953 70.4067H68.8944Z" fill="#F6A36B"/>
<path d="M84.3477 64.1164C84.4463 64.1164 84.5368 64.0535 84.5682 63.9548C84.6068 63.8327 84.5395 63.7025 84.4176 63.6639L78.982 61.9364C78.8592 61.8978 78.7301 61.9652 78.6915 62.0873C78.653 62.2094 78.7202 62.3396 78.8422 62.3782L84.2777 64.1056C84.301 64.1128 84.3243 64.1164 84.3477 64.1164Z" fill="#323232"/>
<path d="M84.2298 66.1887C84.332 66.1887 84.4252 66.1205 84.453 66.0163C84.4862 65.8924 84.4118 65.7658 84.2889 65.7335L78.9009 64.3041C78.7772 64.2718 78.6507 64.3454 78.6185 64.4684C78.5853 64.5923 78.6597 64.7189 78.7826 64.7512L84.1706 66.1806C84.1903 66.186 84.21 66.1887 84.2298 66.1887Z" fill="#323232"/>
<path d="M83.6184 68.3237C83.7206 68.3237 83.8138 68.2555 83.8416 68.1523C83.8748 68.0284 83.8013 67.9018 83.6776 67.8685L79.4982 66.7543C79.3745 66.7229 79.2481 66.7947 79.2149 66.9186C79.1817 67.0425 79.2552 67.1691 79.379 67.2023L83.5583 68.3166C83.578 68.3219 83.5987 68.3246 83.6184 68.3246V68.3237Z" fill="#323232"/>
<path d="M71.3636 66.1806L73.8931 76.4268L44.436 84.3144C41.0296 85.2266 37.5093 83.2971 36.4405 79.9329C35.2282 76.1189 37.6519 72.11 41.5891 71.4177L71.3645 66.1797L71.3636 66.1806Z" fill="#FFBAB2"/>
<path d="M88.306 66.7992C88.4172 66.7992 88.5149 66.7193 88.5337 66.6053L91.1385 50.9468C91.1591 50.8202 91.074 50.7017 90.9484 50.6802C90.8229 50.6577 90.7027 50.7448 90.6821 50.8705L88.0773 66.529C88.0567 66.6556 88.1419 66.7741 88.2674 66.7956C88.28 66.7983 88.2925 66.7992 88.306 66.7992Z" fill="#323232"/>
<path d="M93.4449 68.3237C93.5202 68.3237 93.5947 68.2869 93.6395 68.2187L100.503 57.6384C100.573 57.5316 100.543 57.3879 100.435 57.3179C100.328 57.2479 100.185 57.2784 100.115 57.3861L93.2512 67.9664C93.1813 68.0732 93.2118 68.2169 93.3194 68.2869C93.358 68.312 93.4019 68.3246 93.4449 68.3246V68.3237Z" fill="#323232"/>
<path d="M42.0654 71.5658C42.0789 71.5658 42.0923 71.5649 42.1058 71.5623L56.7312 68.9899C56.8567 68.9675 56.941 68.8481 56.9195 68.7215C56.8971 68.5958 56.7778 68.5123 56.6514 68.5329L42.026 71.1052C41.9004 71.1277 41.8162 71.2471 41.8377 71.3737C41.8574 71.4859 41.9551 71.5649 42.0654 71.5649V71.5658Z" fill="#323232"/>
<path d="M50.6929 70.0485C50.8005 70.0485 50.8973 69.9731 50.9197 69.8627L56.3221 43.2038C56.3472 43.0781 56.2665 42.956 56.141 42.9308C56.0145 42.9075 55.8935 42.9865 55.8684 43.1122L50.466 69.7711C50.4409 69.8968 50.5216 70.0189 50.6471 70.044C50.6624 70.0467 50.6785 70.0485 50.6938 70.0485H50.6929Z" fill="#323232"/>
<path d="M63.0102 25.4533L62.3171 35.6717L70.4104 42.4181L73.8921 35.6717L73.4716 29.2404C73.4716 29.2404 66.3019 22.8774 63.0102 25.4533Z" fill="#F6A36B"/>
<path d="M63.5584 26.9384C63.5584 26.9384 65.019 32.3147 73.7202 33.0276L73.4898 28.7144L63.0114 25.4534L63.5593 26.9384H63.5584Z" fill="#F37D3D"/>
<path d="M78.0054 21.0763C78.0054 25.9965 74.1784 30.255 68.6478 29.5152C65.0155 29.0295 62.7747 26.1177 62.1049 22.7966C61.6772 20.6741 61.3185 17.8854 61.696 15.744C62.7021 10.0436 68.5671 9.56143 68.5671 9.56143C71.6848 9.18613 73.8449 9.92506 75.3396 11.2593C77.9883 13.6062 78.0054 17.9375 78.0054 21.0763Z" fill="#F6A36B"/>
<path d="M73.357 22.521C73.3785 22.521 73.4009 22.5174 73.4233 22.5111L74.7316 22.1179C74.7979 22.0981 74.8517 22.0487 74.8786 21.985C74.9055 21.9203 74.9019 21.8485 74.8687 21.7866L73.2763 18.7994C73.2162 18.6863 73.0754 18.6441 72.9633 18.7043C72.8504 18.7644 72.8082 18.9045 72.8683 19.0176L74.3281 21.7551L73.2897 22.0667C73.1669 22.1035 73.0978 22.2328 73.1346 22.3549C73.1651 22.4555 73.2565 22.5201 73.3561 22.5201L73.357 22.521Z" fill="#323232"/>
<path d="M69.5469 19.919C69.1775 19.919 68.878 19.5447 68.878 19.0831C68.878 18.6214 69.1775 18.2472 69.5469 18.2472C69.9163 18.2472 70.2158 18.6214 70.2158 19.0831C70.2158 19.5447 69.9163 19.919 69.5469 19.919Z" fill="black"/>
<path d="M76.0059 19.9423C75.6365 19.9423 75.337 19.5681 75.337 19.1064C75.337 18.6448 75.6365 18.2705 76.0059 18.2705C76.3753 18.2705 76.6748 18.6448 76.6748 19.1064C76.6748 19.5681 76.3753 19.9423 76.0059 19.9423Z" fill="black"/>
<path d="M77.0566 17.238C77.0566 17.3314 76.5689 17.238 75.9672 17.238C75.3655 17.238 74.8778 17.3314 74.8778 17.238C74.8778 17.1446 75.3655 16.9004 75.9672 16.9004C76.5689 16.9004 77.0566 17.1446 77.0566 17.238Z" fill="#562A2F"/>
<path d="M70.5444 17.238C70.5444 17.3314 70.0566 17.238 69.455 17.238C68.8533 17.238 68.3656 17.3314 68.3656 17.238C68.3656 17.1446 68.8533 16.9004 69.455 16.9004C70.0566 16.9004 70.5444 17.1446 70.5444 17.238Z" fill="#562A2F"/>
<path d="M68.5085 23.9683L73.8921 24.2861C73.8921 24.2861 73.3953 26.8701 71.2003 26.9374C69.0053 27.0048 68.5085 23.9683 68.5085 23.9683Z" fill="#F15F62"/>
<path d="M77.8251 16.9004L72.6253 11.3796C72.6253 11.3796 69.3256 17.9949 60.8854 17.7228C60.8854 17.7228 60.021 7.93631 69.3552 8.02699C78.6895 8.11768 77.8251 16.9004 77.8251 16.9004Z" fill="#562A2F"/>
<path d="M64.2217 20.2305C64.2217 21.5037 63.4317 22.5847 62.3136 23.0094C61.9791 23.1378 61.6196 23.2087 61.2475 23.2087C59.6093 23.2087 58.2795 21.8772 58.2795 20.2305C58.2795 18.5839 59.6093 17.2587 61.2475 17.2587C61.3757 17.2587 61.5048 17.265 61.6267 17.2847C63.091 17.4715 64.2217 18.7186 64.2217 20.2305Z" fill="#F6A36B"/>
<path d="M61.5382 21.4013H61.5409C61.6682 21.3995 61.7704 21.2945 61.7695 21.167C61.7453 19.2465 60.4084 18.433 60.351 18.3998C60.2407 18.3352 60.099 18.372 60.0345 18.4815C59.9699 18.5911 60.0058 18.7329 60.1152 18.7985C60.1627 18.8272 61.2862 19.5221 61.3068 21.1733C61.3086 21.2999 61.4118 21.4022 61.5382 21.4022V21.4013Z" fill="#323232"/>
<path d="M61.4008 20.4649C61.4537 20.4649 61.5075 20.4469 61.5505 20.4092C61.6473 20.3266 61.659 20.1803 61.5756 20.0833C60.9731 19.3776 59.8881 19.6487 59.8424 19.6604C59.7186 19.6927 59.6442 19.8184 59.6765 19.9423C59.7088 20.0662 59.8352 20.1408 59.958 20.1084C59.967 20.1066 60.8108 19.8992 61.225 20.3832C61.2707 20.437 61.3353 20.464 61.4008 20.464V20.4649Z" fill="#323232"/>
</g>
<path d="M15.7315 0H14.2673V8.5195H15.7315V0Z" fill="#F095B0"/>
<path d="M15.7315 21.4805H14.2673V30H15.7315V21.4805Z" fill="#F095B0"/>
<path d="M0 14.2679V15.7321H8.51918V14.2679H0Z" fill="#F095B0"/>
<path d="M21.4808 14.2667V15.731H30V14.2667H21.4808Z" fill="#F095B0"/>
<path d="M5.89559 23.0669L6.93096 24.1023L12.9549 18.0781L11.9196 17.0427L5.89559 23.0669Z" fill="#F095B0"/>
<path d="M17.0428 11.9206L18.0781 12.956L24.1021 6.93177L23.0667 5.89636L17.0428 11.9206Z" fill="#F095B0"/>
<path d="M6.93154 5.89565L5.89617 6.93106L11.9201 12.9553L12.9555 11.9198L6.93154 5.89565Z" fill="#F095B0"/>
<path d="M18.0789 17.0447L17.0435 18.0802L23.0675 24.1044L24.1029 23.0689L18.0789 17.0447Z" fill="#F095B0"/>
<defs>
<clipPath id="clip0_42_2706">
<rect width="90.3851" height="96.9986" fill="white" transform="matrix(-1 0 0 1 124.64 6.00146)"/>
</clipPath>
</defs>
</svg>
