<svg width="60" height="85" viewBox="0 0 60 85" fill="none" xmlns="http://www.w3.org/2000/svg">
<g id="&#236;&#151;&#180;&#234;&#184;&#176;&#234;&#181;&#172;" clip-path="url(#clip0_245_296)">
<path id="Vector" d="M29.9999 64.5276C27.2874 56.3549 14.17 47.7147 14.17 47.7147C-25.2025 10.4497 29.9999 0 29.9999 0C29.9999 0 85.2024 10.4497 45.8299 47.7147C45.8299 47.7147 32.7125 56.3549 29.9999 64.5276Z" fill="#FFEC70"/>
<path id="Vector_2" d="M29.089 0.915039C29.089 0.915039 -13.4414 15.0038 28.6436 60.9091C28.6436 60.9091 7.83393 21.3671 29.089 0.915039Z" fill="#88CC2D"/>
<path id="Vector_3" d="M29.9595 0.915039C29.9595 0.915039 72.4898 15.9186 30.4048 61.8036C30.4048 61.8036 51.2145 21.3671 29.9595 0.915039Z" fill="#88CC2D"/>
<path id="Vector_4" d="M39.0082 84.9999H20.0001L18.1985 71.3584H40.8301L39.0082 84.9999Z" fill="#88CC2D"/>
</g>
<defs>
<clipPath id="clip0_245_296">
<rect width="60" height="85" fill="white"/>
</clipPath>
</defs>
</svg>
