<svg width="343" height="265" viewBox="0 0 343 265" fill="none" xmlns="http://www.w3.org/2000/svg">
<g clip-path="url(#clip0_56_6931)">
<path d="M213.338 244.186C212.936 242.589 210.688 233.499 211.119 227.237C211.3 224.613 211.904 223.17 212.886 222.178C213.899 221.155 215.482 220.441 216.06 220.18C216.992 219.76 217.815 219.51 218.412 219.358L219.805 239.837L213.337 244.186H213.338Z" fill="#ABC78E"/>
<path d="M219.821 219.83C220.208 220.1 220.82 220.564 221.465 221.243C222.727 222.57 223.007 223.544 223.462 223.481C223.912 223.419 224 222.414 224.522 220.304C225.094 217.99 225.38 216.833 226.054 215.833C226.575 215.059 227.538 214.067 229.463 213.365L230.506 231.784L220.863 239.25L219.821 219.83Z" fill="#ABC78E"/>
<path d="M230.522 212.895C231.286 212.727 231.888 212.801 232.285 212.897C234.923 213.529 235.769 216.861 235.807 217.019C236.373 216.326 236.999 215.619 237.689 214.91C240.044 212.493 242.481 210.751 244.628 209.494L245.444 217.027L231.33 230.902L230.523 212.895H230.522Z" fill="#ABC78E"/>
<path d="M245.45 209.494C245.928 209.179 246.87 208.656 248.154 208.555C250.323 208.385 251.876 209.543 252.266 209.853L246.032 216.556L245.45 209.494Z" fill="#ABC78E"/>
<path d="M252.971 210.441C253.288 210.927 253.515 211.403 253.674 211.854C255.214 216.189 251.627 220.793 250.964 221.62L242.268 221.26L252.971 210.441Z" fill="#ABC78E"/>
<path d="M241.561 221.907L250.375 222.327C249.952 222.903 249.447 223.521 248.846 224.15C247.864 225.177 246.882 225.964 246.023 226.561C246.277 226.79 246.532 227.025 246.786 227.267C247.701 228.133 248.541 229.001 249.311 229.858C249.311 229.858 233.857 229.256 234.034 229.198C234.21 229.139 241.561 221.907 241.561 221.907Z" fill="#ABC78E"/>
<path d="M233.446 229.845L249.604 230.917C249.625 231.189 249.628 231.485 249.604 231.8C249.498 233.174 248.921 234.227 248.486 234.859L228.801 234.843L233.447 229.845H233.446Z" fill="#ABC78E"/>
<path d="M228.27 235.803L247.701 235.819C247.756 236.191 247.797 236.741 247.7 237.388C247.414 239.268 246.174 240.439 245.738 240.838C244.559 241.92 243.308 242.269 241.976 242.64C240.823 242.96 239.833 243.069 239.155 243.108C239.47 243.275 239.813 243.524 240.095 243.893C241.195 245.335 240.397 247.335 240.327 247.503L221.765 240.504L228.271 235.802L228.27 235.803Z" fill="#ABC78E"/>
<path d="M214.411 246.018C215.804 246.894 223.743 251.842 229.824 253.365C232.373 254.003 233.929 253.873 235.175 253.244C236.459 252.596 237.626 251.307 238.053 250.837C238.74 250.079 239.231 249.374 239.56 248.851L220.539 241.2L214.412 246.017L214.411 246.018Z" fill="#ABC78E"/>
<path d="M145.15 245.926C145.653 243.93 148.463 232.567 147.923 224.74C147.697 221.459 146.942 219.656 145.715 218.416C144.449 217.137 142.469 216.245 141.746 215.919C140.582 215.394 139.554 215.081 138.807 214.892L137.066 240.49L145.15 245.926Z" fill="#ABC78E"/>
<path d="M137.045 215.481C136.562 215.818 135.798 216.399 134.991 217.248C133.414 218.906 133.064 220.123 132.495 220.045C131.933 219.968 131.822 218.713 131.17 216.074C130.455 213.181 130.097 211.735 129.255 210.485C128.603 209.518 127.399 208.276 124.993 207.399L123.689 230.423L135.743 239.755L137.045 215.48V215.481Z" fill="#ABC78E"/>
<path d="M123.67 206.812C122.715 206.603 121.962 206.695 121.467 206.814C118.169 207.606 117.111 211.769 117.064 211.967C116.356 211.1 115.574 210.217 114.711 209.331C111.767 206.31 108.721 204.131 106.038 202.561L105.017 211.976L122.66 229.321L123.67 206.811V206.812Z" fill="#ABC78E"/>
<path d="M105.01 202.561C104.412 202.168 103.235 201.514 101.63 201.388C98.9185 201.174 96.978 202.623 96.49 203.01L104.283 211.389L105.01 202.561H105.01Z" fill="#ABC78E"/>
<path d="M95.6088 203.746C95.2113 204.352 94.9292 204.948 94.7286 205.512C92.8041 210.93 97.2866 216.685 98.1171 217.72L108.987 217.269L95.6079 203.746H95.6088Z" fill="#ABC78E"/>
<path d="M109.87 218.078L98.8528 218.602C99.3816 219.322 100.013 220.095 100.764 220.88C101.991 222.164 103.218 223.149 104.292 223.893C103.975 224.18 103.656 224.474 103.338 224.776C102.195 225.859 101.146 226.944 100.182 228.015C100.182 228.015 119.499 227.263 119.279 227.19C119.059 227.118 109.869 218.078 109.869 218.078H109.87Z" fill="#ABC78E"/>
<path d="M120.015 227.999L99.8173 229.34C99.7915 229.679 99.788 230.049 99.8181 230.443C99.9512 232.162 100.672 233.477 101.216 234.267L125.822 234.246L120.014 227.999H120.015Z" fill="#ABC78E"/>
<path d="M126.484 235.448L102.196 235.468C102.128 235.933 102.074 236.62 102.198 237.43C102.555 239.78 104.105 241.244 104.649 241.743C106.123 243.095 107.686 243.531 109.352 243.995C110.793 244.396 112.03 244.531 112.878 244.58C112.484 244.789 112.056 245.099 111.703 245.562C110.328 247.365 111.326 249.865 111.413 250.074L134.616 241.326L126.482 235.449L126.484 235.448Z" fill="#ABC78E"/>
<path d="M143.809 248.215C142.068 249.311 132.144 255.496 124.543 257.399C121.357 258.197 119.411 258.034 117.855 257.248C116.249 256.437 114.79 254.828 114.257 254.239C113.399 253.292 112.785 252.41 112.373 251.758L136.148 242.194L143.808 248.216L143.809 248.215Z" fill="#ABC78E"/>
<path d="M135.219 257.948C134.172 258.06 128.218 258.67 124.294 257.834C122.649 257.484 121.791 256.971 121.252 256.259C120.696 255.524 120.386 254.455 120.272 254.065C120.091 253.436 120.006 252.892 119.964 252.5L133.047 253.455L135.219 257.949V257.948Z" fill="#94AA76"/>
<path d="M120.389 251.646C120.595 251.425 120.943 251.08 121.431 250.73C122.384 250.049 123.026 249.959 123.027 249.665C123.027 249.374 122.4 249.228 121.112 248.707C119.698 248.137 118.992 247.851 118.421 247.333C117.978 246.933 117.436 246.233 117.165 244.948L128.914 245.94L132.771 252.73L120.39 251.646H120.389Z" fill="#94AA76"/>
<path d="M116.962 244.233C116.925 243.734 117.025 243.358 117.121 243.115C117.758 241.498 119.942 241.259 120.045 241.25C119.658 240.828 119.266 240.368 118.88 239.866C117.563 238.155 116.679 236.452 116.076 234.977L120.916 235.135L128.428 245.337L116.961 244.232L116.962 244.233Z" fill="#94AA76"/>
<path d="M116.15 234.455C115.994 234.124 115.747 233.479 115.799 232.655C115.886 231.263 116.758 230.382 116.99 230.162L120.671 234.72L116.15 234.455Z" fill="#94AA76"/>
<path d="M117.425 229.768C117.761 229.61 118.083 229.509 118.383 229.448C121.263 228.861 123.855 231.55 124.318 232.045L123.31 237.531L117.425 229.767V229.768Z" fill="#94AA76"/>
<path d="M123.656 238.038L124.712 232.482C125.039 232.802 125.385 233.179 125.728 233.616C126.29 234.331 126.7 235.025 127 235.623C127.167 235.483 127.34 235.343 127.515 235.202C128.145 234.7 128.771 234.245 129.381 233.833C129.381 233.833 127.613 243.586 127.591 243.468C127.57 243.351 123.655 238.037 123.655 238.037L123.656 238.038Z" fill="#94AA76"/>
<path d="M127.949 243.9L130.078 233.743C130.252 233.754 130.44 233.778 130.637 233.823C131.496 234.014 132.111 234.474 132.471 234.807L130.693 247.297L127.948 243.9H127.949Z" fill="#94AA76"/>
<path d="M131.255 247.72L133.01 235.392C133.25 235.391 133.602 235.413 134.003 235.534C135.167 235.884 135.796 236.776 136.01 237.089C136.588 237.934 136.697 238.759 136.812 239.638C136.911 240.399 136.891 241.036 136.855 241.47C136.989 241.285 137.177 241.091 137.437 240.944C138.448 240.375 139.641 241.061 139.742 241.121L133.646 252.272L131.255 247.721V247.72Z" fill="#94AA76"/>
<path d="M136.474 257.432C137.154 256.627 140.997 252.033 142.507 248.311C143.14 246.751 143.198 245.751 142.911 244.904C142.616 244.031 141.906 243.174 141.647 242.862C141.229 242.358 140.826 241.983 140.525 241.727L133.976 253.11L136.474 257.431V257.432Z" fill="#94AA76"/>
<path opacity="0.6" d="M220.446 98.9326C221.115 99.6044 222.129 100.79 222.837 102.524C223.311 103.686 224.178 105.81 223.435 108.211C222.702 110.581 220.824 111.856 220.446 112.102C217.942 113.732 216.186 112.604 214.767 114.197C213.482 115.64 213.792 117.834 213.87 118.387C214.144 120.322 214.169 120.167 216.111 122.578C216.111 122.578 219.459 126.764 221.814 130.18C222 130.451 224.31 133.816 225.825 138.44C227.518 143.606 226.967 148.013 227.021 150.112C227.368 163.581 227.607 170.565 227.768 180.739C228.003 195.502 228.024 214.053 227.828 226.392C227.689 235.145 227.643 243.217 227.227 245.589C226.129 251.849 220.916 255.188 219.401 256.065C214.828 258.71 210.311 258.371 208.642 258.16L140.05 258.301C137.211 258.356 134.362 257.779 132.436 257.348C128.079 254.868 127.081 253.643 125.854 249.78C125.585 248.934 125.476 248.019 125.256 246.188C124.839 242.708 124.859 239.809 124.957 237.808L124.898 147.269C124.77 145.958 124.672 144.033 124.898 141.732C125.249 138.175 125.809 132.493 129.589 128.862C133.6 125.011 134.343 125.996 137.659 123.026C138.286 122.465 139.935 120.5 140.05 117.938C140.157 115.576 140.008 114.759 139.452 114.197C139.028 113.768 138.647 113.769 137.061 113.449C134.545 112.94 133.181 112.663 131.981 111.952C131.59 111.721 130.365 110.977 129.589 109.558C128.26 107.127 128.982 104.057 130.336 102.075C131.765 99.9847 133.832 99.1974 134.67 98.9326H220.446Z" fill="#CCD3FF"/>
<path opacity="0.6" d="M211.18 113.299H144.233C144.405 114.54 144.523 116.307 144.233 118.387C144.085 119.45 143.56 122.934 141.244 126.169C138.593 129.872 136.38 129.36 133.773 132.454C131.732 134.875 131.06 137.594 130.485 141.732C128.857 153.449 129.177 168.143 129.29 172.261L129.188 238.064C129.188 242.853 130.515 245.455 131.98 247.086C136.884 252.541 144.541 251.98 145.729 251.875L209.688 251.941C211.004 251.967 213.253 251.829 215.665 250.677C220.679 248.281 222.637 243.458 222.838 241.997C223.603 236.418 223.479 229.085 223.475 219.807V142.33C223.485 139.52 221.539 136.269 220.387 134.918C217.612 131.664 215.731 129.656 213.872 126.837C213.067 125.617 211.357 121.863 211.361 118.866L211.182 113.298L211.18 113.299Z" fill="#FBFBFF"/>
<path opacity="0.6" d="M217.681 101.514C218.749 102.068 219.3 102.921 219.474 103.198C220.518 104.859 220.203 106.617 220.147 106.901C219.653 109.419 217.394 110.613 216.672 110.941C215.432 111.506 214.275 111.377 213.646 111.503C213.085 111.615 137.097 111.503 137.097 111.503C136.591 111.451 135.724 111.291 134.856 110.717C132.97 109.469 132.672 107.314 132.615 106.901C132.542 106.372 132.267 104.386 133.624 102.748C135.421 100.577 138.412 101.04 138.555 101.064L210.396 101.007C212.503 100.906 214.208 100.944 215.44 101.007C216.151 101.043 216.876 101.096 217.681 101.513V101.514Z" fill="#CCD3FF"/>
<path d="M213.87 103.123C210.76 102.39 207.875 102.689 203.391 102.607C195.994 102.47 193.192 102.576 185.235 102.59C184.847 102.59 183.101 102.603 182.189 103.272C181.48 103.794 181.056 104.838 181.292 105.667C181.522 106.469 182.369 107.219 184.58 107.613C187.669 108.162 190.409 108.197 193.696 107.981C198.617 107.658 203.093 107.638 206.404 107.355C210.988 106.964 213.645 106.25 214.423 105.431C215.254 104.555 214.663 103.311 213.869 103.123H213.87Z" fill="#F8FCFD"/>
<path d="M149.826 204.112C149.826 204.112 148.532 202.469 146.508 201.061C145.923 200.655 143.788 199.3 141.285 199.764C138.278 200.321 136.778 203.126 136.491 203.661C134.954 206.535 135.096 208.584 135.426 209.98C136.159 213.087 137.821 215.982 141.931 220.39C146.901 225.716 149.831 226.561 151.372 226.393C152.404 226.281 153.24 225.866 153.777 225.524C155.243 224.59 157.35 222.784 159.046 220.568C160.839 218.223 161.959 216.273 163.459 212.881C164.296 210.99 165.802 207.582 164.701 203.766C164.4 202.722 163.5 199.6 160.827 198.535C158.124 197.458 154.804 198.966 152.984 200.687C151.214 202.361 149.825 204.113 149.825 204.113L149.826 204.112Z" fill="#F0548F"/>
<path d="M203.041 203.153C203.041 203.153 202.46 201.142 201.113 199.075C200.723 198.478 199.255 196.419 196.762 195.905C193.766 195.288 191.322 197.321 190.856 197.71C188.352 199.793 187.713 201.745 187.494 203.162C187.005 206.316 187.457 209.626 189.609 215.258C192.212 222.065 194.609 223.953 196.101 224.377C197.099 224.662 198.03 224.592 198.656 224.478C200.365 224.165 202.996 223.286 205.399 221.872C207.941 220.375 209.712 218.989 212.377 216.413C213.862 214.976 216.539 212.388 216.953 208.436C217.066 207.356 217.405 204.123 215.329 202.13C213.229 200.113 209.585 200.26 207.254 201.168C204.985 202.052 203.04 203.152 203.04 203.152L203.041 203.153Z" fill="#EA3F80"/>
<path d="M152.488 229.27C152.488 229.27 150.75 229.144 148.748 229.601C148.17 229.733 146.138 230.288 145.017 232.092C143.671 234.258 144.551 236.759 144.72 237.235C145.622 239.797 146.961 240.861 148.005 241.442C150.326 242.735 153.04 243.338 158.057 243.28C164.124 243.209 166.288 241.878 167.051 240.833C167.561 240.134 167.776 239.386 167.868 238.861C168.117 237.433 168.192 235.12 167.782 232.83C167.348 230.408 166.778 228.621 165.536 225.791C164.844 224.213 163.597 221.37 160.632 219.904C159.821 219.504 157.396 218.304 155.241 219.353C153.06 220.415 152.122 223.308 152.157 225.397C152.192 227.429 152.489 229.269 152.489 229.269L152.488 229.27Z" fill="#B51F75"/>
<path d="M203.315 226.302C203.315 226.302 203.099 224.571 202.258 222.695C202.016 222.153 201.076 220.265 199.09 219.517C196.705 218.619 194.428 219.973 193.994 220.232C191.663 221.619 190.883 223.142 190.518 224.28C189.705 226.812 189.646 229.596 190.685 234.512C191.94 240.456 193.668 242.322 194.84 242.866C195.624 243.231 196.4 243.295 196.93 243.283C198.377 243.249 200.658 242.869 202.82 242.019C205.107 241.119 206.745 240.21 209.274 238.436C210.684 237.447 213.223 235.666 214.079 232.469C214.313 231.593 215.012 228.978 213.563 227.066C212.097 225.132 209.08 224.777 207.042 225.22C205.06 225.651 203.315 226.303 203.315 226.303V226.302Z" fill="#F0548F"/>
<path d="M187.561 187.336C187.561 187.336 187.951 185.406 189.016 183.66C189.982 182.076 192.054 180.443 193.991 180.786C196.008 181.143 197.033 183.493 197.509 184.582C199.035 188.077 199.299 193.998 195.789 196.611C194.062 197.896 191.373 197.606 185.993 197.027C183.721 196.781 182.268 196.421 181.105 195.274C180.829 195.002 179.386 193.578 179.595 191.707C179.858 189.352 182.523 188.182 182.68 188.116C184.909 187.176 187.561 187.336 187.561 187.336Z" fill="#FFB0CE"/>
<path d="M175.589 204.902C175.589 204.902 174.302 203.413 172.519 202.416C170.9 201.511 168.295 201.108 166.776 202.359C165.194 203.661 165.453 206.213 165.573 207.396C165.959 211.192 168.633 216.479 172.971 217.028C175.105 217.298 177.307 215.722 181.708 212.572C183.567 211.241 184.656 210.213 185.106 208.641C185.212 208.268 185.771 206.317 184.671 204.79C183.288 202.869 180.392 203.16 180.223 203.18C177.82 203.457 175.589 204.902 175.589 204.902Z" fill="#F0548F"/>
<path d="M177.673 215.011C177.673 215.011 175.379 214.462 172.943 214.742C170.733 214.996 167.912 216.431 167.307 218.716C166.677 221.094 168.714 223.399 169.658 224.467C172.689 227.895 178.992 231.171 183.604 228.663C185.872 227.429 186.914 224.35 188.998 218.193C189.879 215.592 190.221 213.827 189.56 211.98C189.403 211.541 188.583 209.249 186.443 208.533C183.751 207.631 181.133 209.947 180.983 210.085C178.835 212.04 177.671 215.012 177.671 215.012L177.673 215.011Z" fill="#FC68A0"/>
<path d="M202.534 164.336C202.534 164.336 201.248 162.848 199.464 161.85C197.845 160.946 195.24 160.542 193.721 161.793C192.139 163.096 192.398 165.648 192.519 166.83C192.905 170.626 195.578 175.914 199.917 176.462C202.051 176.732 204.252 175.157 208.653 172.006C210.513 170.675 211.601 169.647 212.051 168.075C212.158 167.702 212.717 165.752 211.617 164.224C210.233 162.303 207.337 162.595 207.169 162.614C204.766 162.892 202.534 164.336 202.534 164.336Z" fill="#FC68A0"/>
<path d="M140.031 223.142C140.031 223.142 138.113 223.575 136.394 224.68C134.833 225.682 133.249 227.792 133.633 229.724C134.034 231.736 136.403 232.71 137.501 233.163C141.024 234.613 146.941 234.747 149.472 231.175C150.717 229.417 150.368 226.731 149.671 221.359C149.376 219.089 148.985 217.643 147.814 216.504C147.535 216.233 146.083 214.821 144.218 215.071C141.874 215.387 140.764 218.081 140.702 218.239C139.813 220.491 140.031 223.143 140.031 223.143L140.031 223.142Z" fill="#FFB0CE"/>
<path d="M146.6 193.837C146.6 193.837 144.664 193.494 142.652 193.847C140.826 194.167 138.55 195.5 138.159 197.43C137.751 199.44 139.56 201.257 140.397 202.098C143.086 204.8 148.491 207.216 152.204 204.902C154.03 203.763 154.746 201.151 156.178 195.926C156.783 193.719 156.981 192.234 156.341 190.729C156.188 190.372 155.394 188.506 153.578 188.015C151.295 187.397 149.231 189.453 149.112 189.574C147.422 191.307 146.599 193.837 146.599 193.837L146.6 193.837Z" fill="#FFB0CE"/>
<path d="M184.572 224.782C184.572 224.782 183.991 222.771 182.644 220.704C182.255 220.107 180.787 218.048 178.293 217.535C175.298 216.918 172.853 218.951 172.388 219.34C169.884 221.422 169.245 223.374 169.026 224.792C168.537 227.946 168.988 231.256 171.141 236.887C173.743 243.695 176.141 245.583 177.632 246.007C178.63 246.292 179.561 246.222 180.188 246.108C181.896 245.795 184.527 244.916 186.931 243.502C189.473 242.005 191.244 240.619 193.908 238.042C195.394 236.606 198.071 234.017 198.484 230.066C198.598 228.986 198.937 225.753 196.86 223.76C194.76 221.743 191.117 221.89 188.785 222.798C186.517 223.682 184.572 224.782 184.572 224.782H184.572Z" fill="#FF8AB6"/>
<path d="M166.028 166.064C166.028 166.064 164.368 164.79 162.059 163.928C161.392 163.68 158.989 162.894 156.679 163.964C153.902 165.248 153.14 168.337 152.995 168.926C152.214 172.091 152.857 174.041 153.521 175.312C154.997 178.142 157.322 180.537 162.393 183.79C168.522 187.723 171.57 187.816 173.022 187.271C173.994 186.907 174.703 186.298 175.138 185.834C176.328 184.567 177.925 182.295 179.021 179.728C180.18 177.013 180.784 174.845 181.401 171.187C181.745 169.148 182.364 165.474 180.355 162.047C179.806 161.11 178.163 158.308 175.311 157.937C172.426 157.563 169.58 159.846 168.241 161.963C166.939 164.023 166.027 166.064 166.027 166.064L166.028 166.064Z" fill="#F5518F"/>
<path d="M186.505 139.487C186.505 139.487 186.548 138.034 186.096 136.381C185.966 135.903 185.432 134.229 183.893 133.359C182.044 132.313 179.996 133.137 179.606 133.294C177.508 134.137 176.671 135.292 176.225 136.182C175.232 138.163 174.828 140.448 175.054 144.629C175.328 149.684 176.513 151.443 177.408 152.04C178.008 152.441 178.638 152.594 179.076 152.652C180.272 152.809 182.198 152.789 184.087 152.366C186.085 151.918 187.55 151.379 189.86 150.243C191.147 149.609 193.467 148.469 194.579 145.945C194.883 145.255 195.795 143.19 194.845 141.43C193.885 139.65 191.446 138.971 189.712 139.074C188.024 139.174 186.504 139.488 186.504 139.488L186.505 139.487Z" fill="#FF8AB6"/>
<path opacity="0.7" d="M211.778 207.579C209.923 207.48 208.841 200.437 208.192 196.205C206.717 186.598 208.571 184.011 207.594 173.758C207.127 168.854 206.676 164.125 204.605 158.194C203.012 153.631 201.244 150.604 200.122 144.427C198.875 137.564 200.035 135.674 200.72 134.849C202.639 132.536 206.334 131.956 209.089 132.754C211.333 133.403 214.502 135.416 217.457 144.127C221.111 154.901 220.601 164.609 219.849 172.261C218.608 184.869 215.151 207.757 211.779 207.579H211.778Z" fill="#F8FCFD"/>
<path opacity="0.7" d="M159.354 113.299H149.94C149.742 114.189 149.401 115.536 148.819 117.116C146.378 123.742 143.138 125.163 139.404 131.482C138.435 133.123 136.18 137.213 134.921 142.706C133.787 147.656 133.958 151.577 134.024 153.257C134.617 168.435 134.014 183.638 134.248 198.826C134.452 212.078 133.973 222.246 133.974 231.224C133.974 232.032 134.857 242.925 136.714 245.74C137.006 246.183 137.893 247.492 139.404 247.985C142.598 249.028 146.182 245.64 147.026 244.842C152.162 239.985 151.34 230.999 150.612 220.374C150.612 220.374 150.115 219.513 149.044 188.724C148.554 174.658 147.532 163.886 147.325 155.651C147.266 153.319 147.068 146.976 148.146 139.115C148.984 133.009 151.081 130.692 152.106 128.564C153.865 124.915 154.742 122.788 156.889 119.136L159.354 113.3V113.299Z" fill="#F8FCFD"/>
<path d="M218.176 121.754C212.405 124.452 205.571 124.213 199.339 124.605C192.069 125.062 184.795 125.441 177.515 125.687C163.952 126.147 149.939 126.719 136.854 122.494C135.487 122.052 136.072 119.884 137.451 120.329C150.07 124.404 163.538 123.896 176.624 123.472C183.458 123.251 190.288 122.911 197.113 122.497C200.378 122.3 203.641 122.09 206.903 121.859C210.375 121.612 213.851 121.309 217.046 119.815C218.345 119.207 219.485 121.142 218.177 121.753L218.176 121.754Z" fill="#F5518F"/>
<path d="M142.509 122.992C141.627 118.758 140.172 114.554 137.341 111.209C135.208 108.686 130.225 104.437 126.686 106.527C124.2 107.996 124.826 111.421 126.364 113.3C127.673 114.899 129.566 115.877 131.445 116.641C135.713 118.376 140.148 119.769 144.487 121.313C145.837 121.794 145.256 123.964 143.891 123.478C140.559 122.292 137.226 121.107 133.894 119.92C131.311 119 128.609 118.131 126.414 116.425C123.032 113.797 121.042 108.383 124.816 105.119C128.444 101.98 133.945 105.015 136.918 107.587C141.276 111.357 143.519 116.872 144.67 122.396C144.964 123.805 142.803 124.408 142.509 122.993V122.992Z" fill="#F5518F"/>
<path d="M143.387 122.106C142.631 118.655 144.365 115.634 146.299 112.897C148.342 110.005 150.777 107.417 153.556 105.224C157.878 101.816 164.992 98.6038 169.6 103.454C171.31 105.255 172.053 107.993 171.123 110.344C170.046 113.061 166.956 115.056 164.67 116.681C158.878 120.8 152.017 123.507 144.829 123.064C143.396 122.976 143.387 120.731 144.829 120.82C150.104 121.145 155.156 119.702 159.75 117.144C163.199 115.223 171.634 110.693 168.568 105.773C165.179 100.332 157.755 104.615 154.284 107.509C152.341 109.129 150.572 110.96 149.028 112.963C147.216 115.314 144.862 118.375 145.549 121.51C145.858 122.919 143.697 123.519 143.387 122.107V122.106Z" fill="#F5518F"/>
<path d="M141.853 123.221C137.333 123.748 132.879 125.561 129.841 129.056C126.349 133.072 126.338 137.74 125.962 142.768C125.417 150.085 121.61 156.515 115.012 159.93C113.732 160.592 112.596 158.656 113.88 157.992C117.641 156.046 120.636 152.949 122.308 149.033C124.223 144.547 123.447 139.679 124.414 135.004C126.141 126.659 133.878 121.905 141.853 120.976C143.284 120.809 143.271 123.055 141.853 123.22V123.221Z" fill="#F5518F"/>
<path d="M144.889 122.837C142.75 126.338 140.976 130.237 141.24 134.439C141.378 136.63 142.093 138.811 143.479 140.534C144.518 141.825 145.875 142.811 146.876 144.139C150.382 148.79 149.802 155.522 145.93 159.74C144.952 160.806 143.37 159.214 144.346 158.153C146.743 155.54 147.567 151.786 146.544 148.387C145.531 145.018 142.457 143.416 140.752 140.506C137.19 134.422 139.563 127.257 142.953 121.705C143.705 120.474 145.645 121.601 144.889 122.838V122.837Z" fill="#F5518F"/>
<path d="M215.12 258.939C215.968 259.029 220.791 259.523 223.969 258.846C225.301 258.562 225.996 258.147 226.434 257.57C226.884 256.975 227.135 256.11 227.227 255.793C227.374 255.284 227.442 254.843 227.477 254.525L216.88 255.298L215.121 258.939H215.12Z" fill="#94AA76"/>
<path d="M227.132 253.835C226.965 253.656 226.683 253.376 226.288 253.093C225.516 252.541 224.997 252.469 224.996 252.23C224.996 251.995 225.503 251.876 226.547 251.455C227.691 250.993 228.264 250.761 228.727 250.342C229.085 250.018 229.524 249.451 229.744 248.41L220.227 249.214L217.102 254.713L227.131 253.836L227.132 253.835Z" fill="#94AA76"/>
<path d="M229.908 247.83C229.938 247.426 229.857 247.121 229.78 246.924C229.263 245.614 227.494 245.422 227.411 245.414C227.725 245.072 228.041 244.699 228.355 244.293C229.422 242.907 230.138 241.527 230.626 240.333L226.706 240.461L220.621 248.725L229.909 247.83H229.908Z" fill="#94AA76"/>
<path d="M230.565 239.91C230.691 239.642 230.891 239.119 230.849 238.452C230.779 237.324 230.072 236.611 229.885 236.432L226.903 240.124L230.565 239.909V239.91Z" fill="#94AA76"/>
<path d="M229.532 236.113C229.26 235.985 228.999 235.904 228.756 235.854C226.423 235.378 224.323 237.556 223.948 237.958L224.765 242.401L229.532 236.113Z" fill="#94AA76"/>
<path d="M224.486 242.812L223.63 238.312C223.365 238.572 223.085 238.877 222.806 239.231C222.351 239.811 222.019 240.372 221.776 240.857C221.64 240.744 221.501 240.63 221.358 240.516C220.848 240.109 220.341 239.74 219.846 239.407C219.846 239.407 221.278 247.306 221.296 247.212C221.313 247.117 224.485 242.813 224.485 242.813L224.486 242.812Z" fill="#94AA76"/>
<path d="M221.008 247.56L219.283 239.333C219.142 239.341 218.99 239.362 218.83 239.397C218.134 239.552 217.636 239.925 217.344 240.195L218.784 250.312L221.008 247.56Z" fill="#94AA76"/>
<path d="M218.33 250.654L216.909 240.668C216.714 240.667 216.43 240.685 216.105 240.783C215.162 241.066 214.652 241.788 214.479 242.042C214.011 242.727 213.923 243.395 213.83 244.107C213.749 244.722 213.766 245.24 213.795 245.59C213.687 245.44 213.534 245.283 213.324 245.165C212.505 244.705 211.538 245.26 211.457 245.308L216.394 254.34L218.331 250.653L218.33 250.654Z" fill="#94AA76"/>
<path d="M214.103 258.521C213.553 257.869 210.439 254.148 209.216 251.134C208.703 249.87 208.657 249.06 208.889 248.375C209.127 247.668 209.703 246.974 209.912 246.72C210.25 246.313 210.577 246.009 210.821 245.802L216.126 255.022L214.103 258.522V258.521Z" fill="#94AA76"/>
<path d="M180.067 49.7519C180.791 50.8448 181.514 51.5236 182.504 52.4521C182.628 52.5685 183.365 53.2598 184.321 54.0622C186.048 55.5105 188.488 57.3187 189.321 56.7491C190.669 55.8277 185.792 50.0415 184.684 41.5649C183.418 31.8763 187.272 20.1653 195.223 15.9608C195.611 15.7555 196.624 15.4587 198.418 14.9878C199.439 14.7195 200.714 14.3952 202.271 13.998C208.777 12.3409 213.753 11.4959 220.349 8.96531C221.867 8.38331 222.238 8.18428 222.542 8.00213C226.573 5.59597 228.96 0.159005 228.12 -4.52359C228.117 -4.54847 228.112 -4.57424 228.107 -4.59912C227.936 -5.05405 227.7 -5.61738 227.369 -6.24025L221.164 -6.3291C216.663 -5.90438 209.934 -4.8257 202.318 -1.7869C195.215 1.04754 189.874 3.17826 185.366 8.56546C179.542 15.5245 178.616 23.7257 177.8 30.9477C177.588 32.8226 177.544 34.4308 177.608 36.2985C177.666 37.969 177.809 39.8429 177.997 42.2988C178.207 45.0257 178.51 47.399 180.066 49.7492L180.067 49.7519Z" fill="#FECDAE"/>
<path d="M196.179 62.5075C193.562 59.2608 194.477 56.6236 194.477 56.6236C193.918 53.5635 194.168 51.7064 193.359 47.2255C192.408 41.96 191.89 41.4189 191.638 37.9883C191.347 34.029 191.854 32.2803 192.018 31.757C192.379 30.601 192.619 30.4446 194.312 27.1055C195.793 24.1857 196.533 22.725 196.835 21.7565C197.874 18.4218 195.902 15.4167 196.774 12.6916C197.835 9.36847 200.847 7.53986 201.191 7.73089C201.437 7.86773 199.895 11.3863 199.205 14.291C199.056 14.9165 199.554 18.675 199.546 20.6502C199.538 22.6272 198.965 24.8281 198.491 25.9433C197.898 27.3338 197.583 27.2796 196.399 29.5525C195.501 31.2771 194.89 32.4509 194.525 33.9463C194.397 34.4732 194.295 36.4653 194.438 40.2363C194.525 42.5198 194.611 44.6505 194.91 46.7484C195.178 48.6392 195.727 50.9183 196.316 52.8082C196.431 53.1787 196.689 54.4618 197.372 56.3784C198.731 60.1991 198.649 62.6754 197.839 63.9425C197.75 64.0829 196.587 63.0113 196.18 62.5066L196.179 62.5075Z" fill="#FECDAE"/>
<path d="M182.63 33.2777C183.009 37.0095 182.64 39.9559 182.294 43.0871C181.851 47.1077 181.629 49.1176 181.648 49.4979C182.026 56.895 188.318 61.6229 187.629 62.3017C187.224 62.6989 185.267 60.8783 179.53 57.0585C176.149 54.8078 175.441 54.5155 174.574 53.2635C174.028 52.4745 173.147 50.9098 173.028 45.0339C172.905 38.9572 172.844 35.9193 174.619 33.291C176.425 30.6165 179.79 28.4014 181.416 29.2863C181.682 29.4312 182.284 29.8665 182.63 33.2785V33.2777Z" fill="#FECDAE"/>
<path d="M164.866 37.1166C164.806 37.5458 164.853 37.3921 165.194 45.8963C165.407 51.1982 165.412 51.861 165.538 54.3543C165.873 60.9917 170.69 64.7697 171.416 66.4722C171.915 67.6424 169.112 71.5137 173.706 73.5192C174.216 73.7422 180.104 76.223 183.463 73.337C187.019 70.2813 185.346 63.2681 183.879 60.0205C181.945 55.7377 179.739 53.464 179.739 53.464C178.78 52.475 177.916 51.8193 177.319 50.442C176.447 48.4322 176.847 46.5103 177.062 45.3383C178.269 38.7489 176.621 39.3735 178.065 29.9568C178.844 24.8806 179.431 23.9903 178.808 23.5185C176.736 21.9484 166.033 28.6506 164.866 37.1157V37.1166Z" fill="#FDB98D"/>
<path d="M164.188 37.8828C164.128 38.3119 164.176 38.1582 164.516 46.6624C164.729 51.9643 164.564 52.6414 164.86 55.1204C165.537 60.7786 167.481 64.7681 168.207 66.4706C168.706 67.6408 171.964 71.4286 176.557 73.4332C177.068 73.6562 179.426 76.9882 182.785 74.1031C186.341 71.0474 184.668 64.0342 183.201 60.7866C181.267 56.5038 179.061 54.2301 179.061 54.2301C178.102 53.2411 177.238 52.5854 176.641 51.2082C175.769 49.1983 176.17 47.2764 176.384 46.1044C177.591 39.515 175.943 40.1396 177.388 30.7229C178.167 25.6467 178.754 24.7564 178.131 24.2846C176.059 22.7145 165.356 29.4168 164.189 37.8819L164.188 37.8828Z" fill="#FECDAE"/>
<path d="M181.201 41.3883C181.483 43.3857 181.804 44.3365 182.334 46.987C182.894 49.7903 183.025 51.2431 183.474 52.8655C183.998 54.7617 184.685 56.8311 187.097 59.4603C190.445 63.1077 195.568 64.6733 195.617 64.5702C195.653 64.4938 192.778 63.5822 190.187 61.3457C189.599 60.8384 187.943 59.3421 186.404 56.8364C185.169 54.8265 184.506 52.9748 183.081 46.6378C181.655 40.3007 181.098 36.727 180.9 36.7546C180.739 36.7777 180.89 39.1749 181.201 41.3874V41.3883Z" fill="#FDB98D"/>
<path d="M174.88 62.1824C174.27 61.8696 173.343 61.2894 172.245 60.9988C171.09 60.6932 169.448 60.479 167.284 61.0184C164.261 61.7719 162.608 64.067 162.341 64.4473C159.816 68.0627 161.145 72.2362 161.365 72.931C162.281 75.8099 164.246 77.483 165.261 78.3475C166.177 79.1277 167.445 79.7843 169.944 81.0638C173.394 82.8311 174.723 83.3127 177.649 84.8205C179.505 85.7775 180.974 86.6163 181.883 87.1485C182.11 86.7078 182.478 86.0005 182.948 85.1413C185.89 79.7621 187.493 78.1174 189.972 73.5201C191.587 70.5257 192.396 68.9912 192.482 67.176C192.661 63.3881 190.524 60.6941 190.247 60.3564C189.657 59.6349 188.269 57.9867 185.815 57.3132C183.234 56.605 180.661 57.1595 179.876 57.5095C177.519 58.5607 176.48 59.9068 175.696 60.9811L174.879 62.1824H174.88Z" fill="#F5518F"/>
<path d="M166.661 74.6441C167.078 74.3998 167.746 74.821 168.113 75.052C169.04 75.6358 171.55 77.5203 173.408 79.0193C175.563 80.7599 177.566 82.0332 177.011 82.5024C176.748 82.7236 170.47 79.5178 169.367 78.8993C167.016 77.5799 166.162 76.8157 165.947 76.3963C165.544 75.6073 166.168 74.932 166.661 74.6441Z" fill="#FFFFFE"/>
<path d="M163.382 69.434C163.62 69.3602 164.001 69.944 164.762 71.1106C165.679 72.5163 165.697 72.8477 165.662 73.0903C165.568 73.7425 164.992 74.4204 164.506 74.376C163.655 74.2996 163.31 72.0329 163.246 71.6047C163.233 71.5211 162.946 69.569 163.381 69.434H163.382Z" fill="#FFFFFE"/>
<path d="M176.423 35.3806C176.64 35.8666 175.925 35.1176 174.431 36.7863C173.606 37.7068 172.957 39.2173 170.757 43.0833C169.058 46.0706 168.062 47.478 167.397 48.4545C165.073 51.8692 164.498 52.0211 163.912 53.7547C163.538 54.8627 163.461 55.7272 163.402 58.7545C163.319 62.9617 163.415 64.012 163.376 66.26C163.305 70.2912 163.216 73.8445 161.758 77.9051C161.162 79.5667 160.429 80.832 159.553 81.8076C157.109 84.5292 152.965 84.8855 152.739 84.4865C152.542 84.14 156.57 83.1973 158.443 80.7813C159.905 78.8959 160.817 76.5155 161.225 71.2411C161.963 61.7284 159.662 60.8656 161.051 55.6073C162.038 51.8692 162.915 53.3841 166.656 45.5979C169.301 40.0925 170.296 36.3518 173.561 35.3326C174.671 34.9861 176.21 34.9026 176.422 35.3815L176.423 35.3806Z" fill="#FDB98D"/>
<path d="M152.07 84.089C152.949 84.8496 154.972 83.826 155.508 83.555C158.236 82.1751 159.631 79.7671 159.979 79.1416C161.538 76.3365 162.007 73.4683 162.162 66.495C162.369 57.1974 161.646 57.3342 162.388 54.3923C162.874 52.4704 164.827 49.6288 168.271 43.672C172.126 37.0053 174.132 35.4957 175.698 35.4788C176.421 35.4717 177.093 35.6663 177.661 35.9258C178.457 36.2892 179.048 36.7788 179.288 37.0151C180.608 38.3062 181.43 40.3756 182.009 43.0154C183.913 51.7098 183.561 51.5605 184.252 53.3749C184.286 53.4646 184.326 53.5686 184.373 53.6868C184.931 55.0747 186.435 58.3409 189.583 61.1833C191.619 63.0217 194.921 65.5345 197.861 63.9707C198.412 63.6766 199.623 62.8467 199.024 60.373C198.064 56.4004 197.055 54.8436 195.824 50.998C194.591 47.14 194.288 44.0754 193.918 40.3347C193.549 36.5931 193.364 34.7218 193.863 32.5351C194.717 28.7819 196.28 28.5029 197.603 24.7346C199.034 20.6607 197.622 19.8059 198.47 14.6142C198.484 14.5253 198.499 14.4338 198.515 14.3423C199.041 11.3062 199.858 6.59513 203.256 3.30665C205.226 1.40074 207.054 0.947583 213.501 -0.812611C216.473 -1.62385 221.527 -3.01441 228.172 -4.89722C228.157 -5.00829 228.13 -5.11847 228.089 -5.22242C227.927 -5.63826 227.728 -6.03721 227.422 -6.6121C227.285 -6.86977 227.132 -7.13633 226.961 -7.41C224.598 -11.1987 220.761 -13.1029 218.242 -13.7471C214.802 -14.6285 210.572 -13.0567 203.984 -11.3382C196.011 -9.25728 191.784 -8.38829 185.144 -4.95586C182.198 -3.4338 177.679 -0.727311 175.661 1.3572C172.862 4.24939 170.022 7.44724 166.743 11.0209C159.576 18.8356 156.509 23.1255 155.168 27.0333C154.409 29.2413 153.525 33.134 151.791 41.0313C150.899 45.0919 150.529 51.1375 150.141 53.5792C149.841 55.4736 150.097 56.9521 150.196 57.5768C150.822 61.4686 152.559 76.5959 151.724 82.0747C151.667 82.4558 151.476 83.5727 152.073 84.0899L152.07 84.089Z" fill="#FECDAE"/>
<path d="M164.434 50.4636C164.86 49.7545 168.6 40.8478 169.781 37.2697C171.402 32.3623 173.255 28.2625 173.811 27.1101C174.616 25.4432 176.155 22.2516 177.781 22.4142C179.307 22.567 180.26 25.612 180.548 27.0648C180.961 29.1404 180.935 31.5022 181.205 34.8724C181.276 35.7654 181.597 38.4088 181.841 40.2738C182.059 41.9469 183.087 47.8646 182.909 47.8975C182.837 47.9108 181.57 41.5871 181.128 40.4213C180.704 39.3035 179.933 38.0809 179.138 37.2457C178.855 36.948 178.127 36.3962 177.014 36.063C174.573 35.3309 172.761 37.4696 172.528 37.7246C171.603 38.7393 160.882 56.3821 164.434 50.4645V50.4636Z" fill="#FECDAE"/>
<path d="M195.758 54.7071C196.305 55.5201 196.592 55.8844 197.53 58.3697C198.167 60.0579 198.252 61.3614 198.208 62.1673C198.182 62.6542 197.875 63.0958 197.193 63.5267C196.088 64.2269 194.656 63.716 193.92 63.3606C192.909 62.8719 191.949 62.1788 190.397 60.5661C189.251 59.3755 189.075 58.7651 188.858 58.1164C188.713 57.6802 188.442 56.8689 188.736 55.9644C189.094 54.8617 190.058 54.333 190.66 54.0034C191.219 53.6968 192.799 52.9327 193.931 53.2508C194.718 53.472 195.196 53.8719 195.759 54.7062L195.758 54.7071Z" fill="#FFE0CD"/>
<path d="M153.65 74.7846C154.079 75.1933 154.411 76.1245 154.631 76.7189C155.172 78.1752 155.073 79.4467 154.997 80.3139C154.897 81.4415 154.823 82.2883 154.181 83.0755C153.55 83.8512 152.949 84.0591 152.779 84.1C152.591 84.1453 152.291 84.2128 151.997 84.0707C151.591 83.8743 151.546 83.5287 151.533 83.2976C151.491 82.5637 151.59 81.6787 151.646 81.0354C151.697 80.457 151.704 80.074 151.709 78.7297C151.713 77.77 151.733 76.8087 151.684 75.8499C151.652 75.2279 151.607 74.6984 151.95 74.4025C152.148 74.2328 152.464 74.1493 152.742 74.2168C153.047 74.2914 153.535 74.6744 153.65 74.7837V74.7846Z" fill="#FFE0CD"/>
<path d="M170.744 41.2005C170.637 41.1516 171.245 38.4345 173.477 36.3562C174.249 35.6374 175.003 34.955 176.101 34.9212C177.319 34.8839 178.247 35.6667 178.744 36.0861C179.559 36.7729 179.932 37.514 180.365 38.3803C181.438 40.5234 181.676 42.4347 181.634 42.4453C181.597 42.4551 181.49 40.8335 180.342 38.933C179.708 37.8809 178.802 37.0715 178.621 36.9258C178.145 36.5428 177.146 35.9679 176.109 35.9119C174.815 35.8426 174.102 36.6432 173.132 37.649C171.361 39.4812 170.831 41.2405 170.743 41.2005H170.744Z" fill="#FDB98D"/>
<path d="M197.667 -8.96995C198.873 -5.16879 200.45 -3.26732 202.935 0.572056C205.654 4.77129 207.978 8.59289 211.41 12.0315C212.401 13.024 216.071 13.4896 222.563 11.6184C227.866 10.0901 238.035 6.37066 262.104 -2.29881C291.892 -13.027 305.975 -21.5703 305.975 -21.5703H219.585C214.358 -19.2965 206.629 -18.6781 198.937 -13.6046C197.288 -12.517 197.069 -10.8554 197.666 -8.96995H197.667Z" fill="#C5CAE9"/>
</g>
<defs>
<clipPath id="clip0_56_6931">
<rect width="343" height="265" fill="white" transform="matrix(-1 0 0 1 343 0)"/>
</clipPath>
</defs>
</svg>
