<svg width="75" height="76" viewBox="0 0 75 76" fill="none" xmlns="http://www.w3.org/2000/svg">
<g id="ico">
<g id="Group">
<g id="Group_2">
<path id="Vector" d="M48.2093 3.85449C62.7912 8.55233 73.3496 22.3414 73.3496 38.5808C73.3496 58.6952 57.1547 74.9999 37.1757 74.9999C29.8433 74.9999 23.0186 72.7706 17.3191 68.9953" stroke="#222222" stroke-width="2" stroke-linecap="round" stroke-linejoin="round"/>
<path id="Vector_2" d="M51.0338 10.653L48.2092 3.85459L54.9853 1" stroke="#222222" stroke-width="2" stroke-linecap="round" stroke-linejoin="round"/>
</g>
<g id="Group_3">
<path id="Vector_3" d="M13.454 66.0448C5.84623 59.3678 1 49.5408 1 38.581C1 18.4665 17.1949 2.16187 37.1739 2.16187C39.2028 2.16187 41.192 2.2978 43.1291 2.62041" stroke="#222222" stroke-width="2" stroke-linecap="round" stroke-linejoin="round"/>
<path id="Vector_4" d="M13.4541 58.2839V66.0448H5.74365" stroke="#222222" stroke-width="2" stroke-linecap="round" stroke-linejoin="round"/>
</g>
</g>
<path id="Vector_5" d="M58.6398 37.2179C58.503 34.7204 57.9449 32.337 57.0376 30.1367L61.0953 26.8779C60.2456 25.0981 59.1925 23.3817 57.9179 21.7723C56.6434 20.1629 55.2158 18.7473 53.6802 17.5167L49.6152 20.7791C47.6656 19.3835 45.4765 18.3069 43.12 17.6254V12.3966C41.2082 11.9561 39.2189 11.7151 37.1738 11.7151C35.1288 11.7151 33.1395 11.9561 31.2277 12.3966V17.6254C28.8712 18.3069 26.6821 19.3835 24.7324 20.7791L20.6675 17.5167C19.1319 18.7473 17.7061 20.1629 16.4297 21.7723C15.1534 23.3817 14.102 25.0981 13.2523 26.8779L17.3101 30.1367C16.4027 32.337 15.8447 34.7222 15.7079 37.2179L10.6438 38.3815C10.6438 40.357 10.8508 42.3634 11.3063 44.3698C11.7617 46.3761 12.4368 48.2756 13.2901 50.0554L18.3524 48.8918C19.528 51.0323 21.0546 52.948 22.8512 54.5665L20.5955 59.2807C22.1293 60.5131 23.8161 61.5988 25.6595 62.4923C27.503 63.3859 29.3986 64.0383 31.3123 64.4751L33.5662 59.7628C34.7399 59.9622 35.9425 60.0709 37.172 60.0709C38.4016 60.0709 39.6042 59.9622 40.7779 59.7628L43.0318 64.4751C44.9454 64.0365 46.8411 63.3859 48.6845 62.4923C50.528 61.5988 52.2148 60.5131 53.7486 59.2807L51.4929 54.5665C53.2913 52.948 54.8161 51.0323 55.9917 48.8918L61.0539 50.0554C61.9072 48.2756 62.5823 46.3779 63.0378 44.3698C63.4932 42.3616 63.7021 40.357 63.7003 38.3815L58.6362 37.2179H58.6398Z" fill="#8ED3F7" stroke="#222222" stroke-width="2" stroke-linecap="round" stroke-linejoin="round"/>
<g id="Group_4">
<path id="Vector_6" d="M47.6564 49.1352C53.4459 43.3064 53.4459 33.8562 47.6564 28.0274C41.8669 22.1987 32.4803 22.1987 26.6908 28.0274C20.9013 33.8562 20.9013 43.3064 26.6908 49.1352C32.4803 54.9639 41.8669 54.9639 47.6564 49.1352Z" fill="#FFEC8F" stroke="#222222" stroke-width="2" stroke-linecap="round" stroke-linejoin="round"/>
<g id="Group_5">
<path id="Vector_7" d="M33.0225 42.1624V42.7587C33.0225 44.0782 34.0846 45.1475 35.3952 45.1475H38.9524C40.263 45.1475 41.3251 44.0782 41.3251 42.7587V40.968C41.3251 39.6486 40.263 38.5793 38.9524 38.5793H35.3952C34.0846 38.5793 33.0225 37.5099 33.0225 36.1905V34.3998C33.0225 33.0803 34.0846 32.011 35.3952 32.011H38.9524C40.263 32.011 41.3251 33.0803 41.3251 34.3998V34.9961" stroke="#222222" stroke-width="2" stroke-linecap="round" stroke-linejoin="round"/>
<path id="Vector_8" d="M37.1738 31.9819V29.6257" stroke="#222222" stroke-width="2" stroke-linecap="round" stroke-linejoin="round"/>
<path id="Vector_9" d="M37.1738 47.5362V45.1492" stroke="#222222" stroke-width="2" stroke-linecap="round" stroke-linejoin="round"/>
</g>
</g>
</g>
</svg>
