<svg width="75" height="75" viewBox="0 0 75 75" fill="none" xmlns="http://www.w3.org/2000/svg">
<g id="Vector">
<path d="M74 9.47342H70.0892C69.3692 9.47342 68.7854 10.0572 68.7854 10.7772V27.7234C68.7854 28.4434 69.3692 29.0272 70.0892 29.0272H74" fill="#B6C4FF"/>
<path d="M51.839 13.3842H42.7143C40.8087 13.3842 39.2852 11.749 39.4708 9.80483C39.6327 8.11053 41.1523 6.86582 42.8543 6.86582H55.7498V3.60696C55.7498 2.167 54.5828 1 53.1429 1H21.8571C20.4172 1 19.2502 2.167 19.2502 3.60696V12.9975C19.2502 14.3964 17.8205 15.3521 16.5366 14.7978C14.4941 13.9166 12.2359 13.3835 10.7767 13.3835C7.53705 13.3835 4.91079 16.0098 4.91079 19.2494C4.91079 22.4889 7.53705 25.1152 10.7767 25.1152C12.2353 25.1152 14.4935 24.5821 16.5366 23.7009C17.8205 23.1466 19.2502 24.1023 19.2502 25.5012V34.8918C19.2502 36.3317 20.4172 37.4987 21.8571 37.4987H31.2484C32.6473 37.4987 33.603 36.069 33.0487 34.7851C32.1675 32.7427 31.6345 30.4845 31.6345 29.0253C31.6345 25.7857 34.2607 23.1595 37.5003 23.1595C40.7399 23.1595 43.3662 25.7857 43.3662 29.0253C43.3662 30.4839 42.8331 32.7421 41.9519 34.7851C41.3976 36.069 42.3533 37.4987 43.7522 37.4987H53.1435C54.5835 37.4987 55.7505 36.3317 55.7505 34.8918V19.3579C53.4479 18.3521 51.8397 16.0554 51.8397 13.3829L51.839 13.3842Z" fill="#FFEC8F"/>
<path d="M43.7516 37.5C42.3533 37.5 41.397 36.0703 41.9513 34.7864C42.8325 32.744 43.3656 30.4858 43.3656 29.0266C43.3656 25.787 40.7393 23.1608 37.4997 23.1608C34.2601 23.1608 31.6338 25.787 31.6338 29.0266C31.6338 30.4852 32.1669 32.7434 33.0481 34.7864C33.6024 36.0703 32.6467 37.5 31.2478 37.5H21.8565C20.4165 37.5 19.2495 38.667 19.2495 40.107V55.6408C21.5521 56.6466 23.1603 58.9433 23.1603 61.6158H32.2851C34.1907 61.6158 35.7142 63.251 35.5285 65.1952C35.3667 66.8895 33.8471 68.1342 32.1451 68.1342H19.2495V71.393C19.2495 72.833 20.4165 74 21.8565 74H53.1422C54.5822 74 55.7492 72.833 55.7492 71.393V62.0025C55.7492 60.6036 57.1789 59.6479 58.4628 60.2022C60.5052 61.0834 62.7635 61.6165 64.2227 61.6165C67.4623 61.6165 70.0886 58.9902 70.0886 55.7506C70.0886 52.511 67.4623 49.8848 64.2227 49.8848C62.7641 49.8848 60.5059 50.4179 58.4628 51.2991C57.1789 51.8534 55.7492 50.8977 55.7492 49.4988V40.1082C55.7492 38.6683 54.5822 37.5013 53.1422 37.5013H43.7509L43.7516 37.5Z" fill="#FF7A7A"/>
<path d="M1 65.5266H4.91079C5.63078 65.5266 6.21461 64.9428 6.21461 64.2228V47.2766C6.21461 46.5566 5.63078 45.9728 4.91079 45.9728H1" fill="#B6C4FF"/>
<path d="M74 9.47342H70.0892C69.3692 9.47342 68.7854 10.0572 68.7854 10.7772V27.7234C68.7854 28.4434 69.3692 29.0272 70.0892 29.0272H74M1 65.5266H4.91079C5.63078 65.5266 6.21461 64.9428 6.21461 64.2228V47.2766C6.21461 46.5566 5.63078 45.9728 4.91079 45.9728H1M66.0063 12.7323C65.4912 12.7323 65.0255 12.4278 64.8194 11.9558C63.513 8.96089 60.529 6.86646 57.053 6.86646H42.8537C41.1516 6.86646 39.6314 8.11053 39.4702 9.80547C39.2846 11.749 40.808 13.3848 42.7136 13.3848H51.8384C51.8384 16.0573 53.4467 18.354 55.7486 19.3598V31.6348H57.053C60.529 31.6348 63.513 29.5404 64.8194 26.5455C65.0255 26.0734 65.4912 25.769 66.0063 25.769H68.7854V12.7336H66.0063V12.7323ZM51.839 13.3842H42.7143C40.8087 13.3842 39.2852 11.749 39.4708 9.80483C39.6327 8.11053 41.1523 6.86582 42.8543 6.86582H55.7498V3.60696C55.7498 2.167 54.5828 1 53.1429 1H21.8571C20.4172 1 19.2502 2.167 19.2502 3.60696V12.9975C19.2502 14.3964 17.8205 15.3521 16.5366 14.7978C14.4941 13.9166 12.2359 13.3835 10.7767 13.3835C7.53705 13.3835 4.91079 16.0098 4.91079 19.2494C4.91079 22.4889 7.53705 25.1152 10.7767 25.1152C12.2353 25.1152 14.4935 24.5821 16.5366 23.7009C17.8205 23.1466 19.2502 24.1023 19.2502 25.5012V34.8918C19.2502 36.3317 20.4172 37.4987 21.8571 37.4987H31.2484C32.6473 37.4987 33.603 36.069 33.0487 34.7851C32.1675 32.7427 31.6345 30.4845 31.6345 29.0253C31.6345 25.7857 34.2607 23.1595 37.5003 23.1595C40.7399 23.1595 43.3662 25.7857 43.3662 29.0253C43.3662 30.4839 42.8331 32.7421 41.9519 34.7851C41.3976 36.069 42.3533 37.4987 43.7522 37.4987H53.1435C54.5835 37.4987 55.7505 36.3317 55.7505 34.8918V19.3579C53.4479 18.3521 51.8397 16.0554 51.8397 13.3829L51.839 13.3842ZM43.7516 37.5C42.3533 37.5 41.397 36.0703 41.9513 34.7864C42.8325 32.744 43.3656 30.4858 43.3656 29.0266C43.3656 25.787 40.7393 23.1608 37.4997 23.1608C34.2601 23.1608 31.6338 25.787 31.6338 29.0266C31.6338 30.4852 32.1669 32.7434 33.0481 34.7864C33.6024 36.0703 32.6467 37.5 31.2478 37.5H21.8565C20.4165 37.5 19.2495 38.667 19.2495 40.107V55.6408C21.5521 56.6466 23.1603 58.9433 23.1603 61.6158H32.2851C34.1907 61.6158 35.7142 63.251 35.5285 65.1952C35.3667 66.8895 33.8471 68.1342 32.1451 68.1342H19.2495V71.393C19.2495 72.833 20.4165 74 21.8565 74H53.1422C54.5822 74 55.7492 72.833 55.7492 71.393V62.0025C55.7492 60.6036 57.1789 59.6479 58.4628 60.2022C60.5052 61.0834 62.7635 61.6165 64.2227 61.6165C67.4623 61.6165 70.0886 58.9902 70.0886 55.7506C70.0886 52.511 67.4623 49.8848 64.2227 49.8848C62.7641 49.8848 60.5059 50.4179 58.4628 51.2991C57.1789 51.8534 55.7492 50.8977 55.7492 49.4988V40.1082C55.7492 38.6683 54.5822 37.5013 53.1422 37.5013H43.7509L43.7516 37.5ZM35.5292 65.1952C35.7148 63.2517 34.1913 61.6158 32.2857 61.6158H23.161C23.161 58.9433 21.5527 56.6466 19.2508 55.6408V43.3658H17.9463C14.4704 43.3658 11.4864 45.4602 10.18 48.4551C9.97383 48.9272 9.50818 49.2316 8.99308 49.2316H6.21397V62.2671H8.99308C9.50818 62.2671 9.97383 62.5715 10.18 63.0436C11.4864 66.0385 14.4704 68.1329 17.9463 68.1329H32.1457C33.8477 68.1329 35.368 66.8888 35.5292 65.1939V65.1952Z" stroke="#222222" stroke-width="2" stroke-linecap="round" stroke-linejoin="round"/>
</g>
</svg>
