<svg width="29" height="31" viewBox="0 0 29 31" fill="none" xmlns="http://www.w3.org/2000/svg">
<g id="Vector">
<path d="M26.9646 15.4991C29.1604 13.8965 29.6753 10.56 28.0386 7.75046C26.4092 4.95365 23.2517 3.69382 20.7599 4.75128C20.4362 2.0821 17.7568 0 14.5 0C11.2432 0 8.56377 2.0821 8.24011 4.75128C5.74829 3.69382 2.58892 4.95365 0.961423 7.75046C-0.67527 10.56 -0.160356 13.8983 2.03539 15.4991C-0.160356 17.1017 -0.67527 20.4382 0.961423 23.2495C2.59076 26.0463 5.74829 27.3062 8.24011 26.2487C8.56193 28.9161 11.2413 31 14.5 31C17.7587 31 20.4362 28.9179 20.7599 26.2487C23.2517 27.3062 26.4111 26.0463 28.0386 23.2495C29.6753 20.44 29.1604 17.1017 26.9646 15.4991Z" fill="#FFC927"/>
<path d="M19.5594 16.698C20.2277 13.9275 18.5041 11.1445 15.7097 10.4819C12.9152 9.81933 10.1081 11.5281 9.43982 14.2986C8.77151 17.0691 10.4951 19.8521 13.2895 20.5147C16.084 21.1773 18.8911 19.4685 19.5594 16.698Z" fill="#FFEC8F"/>
</g>
</svg>
