<svg width="75" height="73" viewBox="0 0 75 73" fill="none" xmlns="http://www.w3.org/2000/svg">
<g id="ico">
<path id="Vector" d="M54.4416 2.02319C47.0153 2.02319 40.6178 6.3811 37.5916 12.6815C34.5646 6.3811 28.1671 2.02319 20.7408 2.02319C10.4003 2.02319 2.01807 10.4497 2.01807 20.8446C2.607 52.43 37.5908 70.9999 37.5908 70.9999C37.5908 70.9999 73.1792 53.6487 73.1635 20.8446C73.1635 10.4497 64.7812 2.02319 54.4408 2.02319H54.4416Z" fill="#FF7A7A" stroke="#333333" stroke-width="2.3" stroke-linecap="round" stroke-linejoin="round"/>
<g id="Vector_2">
<path d="M16.182 36.4389V45.2682C16.182 46.487 15.1986 47.4755 13.9863 47.4755C12.7739 47.4755 11.7905 46.487 11.7905 45.2682V33.6797C11.7905 30.632 14.2482 28.1614 17.2799 28.1614H24.965C27.9967 28.1614 30.4544 30.632 30.4544 33.6797V45.2682C30.4544 46.487 29.471 47.4755 28.2586 47.4755C27.0463 47.4755 26.0629 46.487 26.0629 45.2682V36.4389V62.9639C26.0629 62.9639 22.4156 60.3056 20.648 58.3679C18.9283 57.0798 15.9083 53.4424 15.9083 53.4424L16.182 44.7172" fill="white"/>
<path d="M16.182 36.4389V45.2682C16.182 46.487 15.1986 47.4755 13.9863 47.4755C12.7739 47.4755 11.7905 46.487 11.7905 45.2682V33.6797C11.7905 30.632 14.2482 28.1614 17.2799 28.1614H24.965C27.9967 28.1614 30.4544 30.632 30.4544 33.6797V45.2682C30.4544 46.487 29.471 47.4755 28.2586 47.4755C27.0463 47.4755 26.0629 46.487 26.0629 45.2682V36.4389V62.9639C26.0629 62.9639 22.4156 60.3056 20.648 58.3679C18.9283 57.0798 15.9083 53.4424 15.9083 53.4424L16.182 44.7172" stroke="#333333" stroke-width="2.3" stroke-linecap="round" stroke-linejoin="round"/>
</g>
<g id="Vector_3">
<path d="M49.1185 36.4389V45.2682C49.1185 46.487 48.1352 47.4755 46.9228 47.4755C45.7104 47.4755 44.7271 46.487 44.7271 45.2682V33.6797C44.7271 30.632 47.1847 28.1614 50.2164 28.1614H57.9015C60.9333 28.1614 63.3909 30.632 63.3909 33.6797V45.2682C63.3909 46.487 62.4075 47.4755 61.1952 47.4755C59.9828 47.4755 58.9994 46.487 58.9994 45.2682V36.4389V54.2725C58.9994 54.2725 57.3683 56.3805 54.059 59.4511C51.6217 61.8626 49.1185 63.2879 49.1185 63.2879V44.7172" fill="white"/>
<path d="M49.1185 36.4389V45.2682C49.1185 46.487 48.1352 47.4755 46.9228 47.4755C45.7104 47.4755 44.7271 46.487 44.7271 45.2682V33.6797C44.7271 30.632 47.1847 28.1614 50.2164 28.1614H57.9015C60.9333 28.1614 63.3909 30.632 63.3909 33.6797V45.2682C63.3909 46.487 62.4075 47.4755 61.1952 47.4755C59.9828 47.4755 58.9994 46.487 58.9994 45.2682V36.4389V54.2725C58.9994 54.2725 57.3683 56.3805 54.059 59.4511C51.6217 61.8626 49.1185 63.2879 49.1185 63.2879V44.7172" stroke="#333333" stroke-width="2.3" stroke-linecap="round" stroke-linejoin="round"/>
</g>
<path id="Vector_4" d="M37.5909 33.6797C40.6226 33.6797 43.0803 31.2091 43.0803 28.1614C43.0803 25.1137 40.6226 22.6431 37.5909 22.6431C34.5592 22.6431 32.1016 25.1137 32.1016 28.1614C32.1016 31.2091 34.5592 33.6797 37.5909 33.6797Z" fill="white" stroke="#333333" stroke-width="2.3" stroke-linecap="round" stroke-linejoin="round"/>
<g id="Vector_5">
<path d="M32.6503 46.3717V55.2011C32.6503 56.4198 31.6669 57.4084 30.4545 57.4084C29.2422 57.4084 28.2588 56.4198 28.2588 55.2011V43.6126C28.2588 40.5649 30.7165 38.0942 33.7482 38.0942H41.4333C44.465 38.0942 46.9227 40.5649 46.9227 43.6126V55.2011C46.9227 56.4198 45.9393 57.4084 44.7269 57.4084C43.5145 57.4084 42.5312 56.4198 42.5312 55.2011V46.3717V68.1699L37.5907 71L32.6503 67.9657V54.6492" fill="white"/>
<path d="M32.6503 46.3717V55.2011C32.6503 56.4198 31.6669 57.4084 30.4545 57.4084C29.2422 57.4084 28.2588 56.4198 28.2588 55.2011V43.6126C28.2588 40.5649 30.7165 38.0942 33.7482 38.0942H41.4333C44.465 38.0942 46.9227 40.5649 46.9227 43.6126V55.2011C46.9227 56.4198 45.9393 57.4084 44.7269 57.4084C43.5145 57.4084 42.5312 56.4198 42.5312 55.2011V46.3717V68.1699L37.5907 71L32.6503 67.9657V54.6492" stroke="#333333" stroke-width="2.3" stroke-linecap="round" stroke-linejoin="round"/>
</g>
<path id="Vector_6" d="M37.5908 55.9595V70.5208" stroke="#333333" stroke-width="2.3" stroke-linecap="round" stroke-linejoin="round"/>
<path id="Vector_7" d="M54.0587 23.7466C57.0904 23.7466 59.5481 21.276 59.5481 18.2283C59.5481 15.1806 57.0904 12.71 54.0587 12.71C51.027 12.71 48.5693 15.1806 48.5693 18.2283C48.5693 21.276 51.027 23.7466 54.0587 23.7466Z" fill="white" stroke="#333333" stroke-width="2.3" stroke-linecap="round" stroke-linejoin="round"/>
<path id="Vector_8" d="M54.0591 46.0264V58.9676" stroke="#333333" stroke-width="2.3" stroke-linecap="round" stroke-linejoin="round"/>
<path id="Vector_9" d="M21.3903 23.7466C24.422 23.7466 26.8796 21.276 26.8796 18.2283C26.8796 15.1806 24.422 12.71 21.3903 12.71C18.3586 12.71 15.9009 15.1806 15.9009 18.2283C15.9009 21.276 18.3586 23.7466 21.3903 23.7466Z" fill="white" stroke="#333333" stroke-width="2.3" stroke-linecap="round" stroke-linejoin="round"/>
<path id="Vector_10" d="M21.1226 46.0264V58.8155" stroke="#333333" stroke-width="2.3" stroke-linecap="round" stroke-linejoin="round"/>
</g>
</svg>
