<svg width="67" height="77" viewBox="0 0 67 77" fill="none" xmlns="http://www.w3.org/2000/svg">
<g id="Tolerance">
<path id="Vector" d="M65.9976 34.2965C65.9976 35.1459 65.9651 35.9866 65.8959 36.8143C65.7813 38.3437 60.5574 38.9868 60.2374 40.4488C59.8201 42.3519 64.2375 45.0479 63.498 46.8097C61.1845 52.3603 57.3725 57.1223 52.5702 60.5874L13.4729 59.4034C6.80249 53.9419 2.34183 45.8452 1.67803 36.6949C1.61965 35.9041 10.1864 28.8132 10.4437 28.0507C15.1919 13.8755 7.56791 12.6807 16.58 6.94764C21.5596 3.7737 27.4647 1.93799 33.7935 1.93799C51.5799 1.93799 65.9997 16.426 65.9997 34.2965H65.9976Z" fill="#AFE584" stroke="#222222" stroke-width="2" stroke-linecap="round" stroke-linejoin="round"/>
<path id="Vector_2" d="M65.8962 36.8145C65.6346 40.3317 64.8043 43.6946 63.4983 46.8099L63.0702 46.6643C60.3458 46.6209 57.7317 44.3898 57.7749 41.6568C57.8182 38.9565 60.0345 36.7775 62.7221 36.7775H62.8129L65.6454 36.7732L65.8962 36.8166V36.8145Z" fill="#FFEC8F" stroke="#222222" stroke-width="2" stroke-linecap="round" stroke-linejoin="round"/>
<path id="Vector_3" d="M35.9991 11.9118C35.9991 14.6447 33.772 16.878 31.0411 16.878L18.4916 16.8454C17.1251 16.8454 15.8883 17.4037 14.991 18.3031C14.0915 19.2025 13.5337 20.4452 13.5337 21.8051C13.5337 24.538 15.7607 26.7713 18.4916 26.7713C18.4916 26.7713 21.6939 26.9103 22.2885 27.1645V36.6972H1.67822C1.61984 35.9064 1.5874 35.1048 1.5874 34.2988C1.5874 22.787 7.5681 12.683 16.5781 6.94995H31.039C32.4033 6.94995 33.6401 7.51044 34.5396 8.40766C35.4391 9.31139 35.9948 10.5497 35.9948 11.9162L35.9991 11.9118Z" fill="#FFEC8F" stroke="#222222" stroke-width="2" stroke-linecap="round" stroke-linejoin="round"/>
<g id="Group">
<g id="Vector_4">
<path d="M39.8998 75.4098L35.8067 70.5978L34.4727 68.8816L53.1845 46.4685L53.7164 48.5193C54.9035 53.5355 53.0418 55.8361 53.0418 55.8361L50.6763 58.4821L51.7574 59.7834L56.0624 64.8452" fill="white"/>
<path d="M39.8998 75.4098L35.8067 70.5978L34.4727 68.8816L53.1845 46.4685L53.7164 48.5193C54.9035 53.5355 53.0418 55.8361 53.0418 55.8361L50.6763 58.4821L51.7574 59.7834L56.0624 64.8452" stroke="#222222" stroke-width="2" stroke-linecap="round" stroke-linejoin="round"/>
</g>
<path id="Vector_5" d="M48.0625 61.4063L50.6766 58.4822" stroke="#222222" stroke-width="2" stroke-linecap="round" stroke-linejoin="round"/>
<g id="Group_2">
<g id="Vector_6">
<path d="M9.05371 64.6043L13.4625 59.4165L14.3728 58.3237L14.7274 57.8806C14.7274 57.8806 11.8689 54.5307 13.3371 48.5173L31.2316 29.1001L33.4652 26.0261C34.5463 24.6748 36.9053 24.5075 38.7042 25.6502C40.5053 26.7951 41.0913 28.835 40.0102 30.1841L39.4264 30.9488C40.5681 29.5215 42.9465 29.2826 44.713 30.4187C46.4796 31.5549 46.992 33.6513 45.8503 35.0786L44.0579 37.3206C45.4049 35.6369 47.8764 35.1373 49.5499 36.2148C51.2235 37.2902 51.4916 39.5495 50.1445 41.2332L48.4991 43.5468C50.1207 41.5894 52.8149 40.8725 54.4863 41.9522C56.1576 43.0319 56.2009 45.515 54.5792 47.4724L52.1986 50.3465L37.7918 67.9998C33.863 71.6799 30.0705 69.7551 30.0705 69.7551L29.6099 70.3482L25.4174 75.2796" fill="white"/>
<path d="M9.05371 64.6043L13.4625 59.4165L14.3728 58.3237L14.7274 57.8806C14.7274 57.8806 11.8689 54.5307 13.3371 48.5173L31.2316 29.1001L33.4652 26.0261C34.5463 24.6748 36.9053 24.5075 38.7042 25.6502C40.5053 26.7951 41.0913 28.835 40.0102 30.1841L39.4264 30.9488C40.5681 29.5215 42.9465 29.2826 44.713 30.4187C46.4796 31.5549 46.992 33.6513 45.8503 35.0786L44.0579 37.3206C45.4049 35.6369 47.8763 35.1373 49.5499 36.2148C51.2235 37.2902 51.4916 39.5495 50.1445 41.2332L48.4991 43.5468C50.1207 41.5894 52.8149 40.8725 54.4863 41.9522C56.1576 43.0319 56.2009 45.515 54.5792 47.4724L52.1986 50.3465L37.7918 67.9998C33.863 71.6799 30.0705 69.7551 30.0705 69.7551L29.6099 70.3482L25.4174 75.2796" stroke="#222222" stroke-width="2" stroke-linecap="round" stroke-linejoin="round"/>
</g>
<path id="Vector_7" d="M35.104 48.5198L44.0556 37.3252" stroke="#222222" stroke-width="2" stroke-linecap="round" stroke-linejoin="round"/>
<path id="Vector_8" d="M39.4265 30.9531L36.1875 35.3067" stroke="#222222" stroke-width="2" stroke-linecap="round" stroke-linejoin="round"/>
<path id="Vector_9" d="M41.1367 52.9731L48.4991 43.5513" stroke="#222222" stroke-width="2" stroke-linecap="round" stroke-linejoin="round"/>
</g>
<g id="Group_3">
<path id="Vector_10" d="M21.7372 53.7679L21.6074 53.8504C20.1804 54.765 18.1782 54.4652 17.1598 53.1879L10.6709 45.0499C9.65038 43.7703 9.98336 41.9759 11.4104 41.0613L11.5402 40.9787C12.9672 40.0641 14.9694 40.3639 15.9878 41.6413L22.4767 49.7793C23.4972 51.0589 23.1642 52.8533 21.7372 53.7679Z" fill="white" stroke="#222222" stroke-width="2" stroke-linecap="round" stroke-linejoin="round"/>
<path id="Vector_11" d="M26.1416 49.3928C24.6799 50.3291 22.628 50.0228 21.5836 48.7128L14.6386 40.0013C13.5942 38.6914 13.9337 36.8513 15.3975 35.915C16.8592 34.9787 18.9111 35.285 19.9555 36.595L26.9005 45.3064C27.9449 46.6164 27.6054 48.4565 26.1416 49.3928Z" fill="white" stroke="#222222" stroke-width="2" stroke-linecap="round" stroke-linejoin="round"/>
<path id="Vector_12" d="M31.8911 40.9333C32.8316 42.1129 32.3386 43.8878 30.7948 44.8762C29.251 45.8647 27.2207 45.7083 26.2801 44.5286L18.0139 34.1596C17.0734 32.9799 17.5664 31.2051 19.1102 30.2166C20.654 29.2281 22.6843 29.3846 23.6249 30.5642L26.7363 34.4659L31.8932 40.9333H31.8911Z" fill="white" stroke="#222222" stroke-width="2" stroke-linecap="round" stroke-linejoin="round"/>
<path id="Vector_13" d="M36.6455 36.0541C37.5882 37.2337 37.0715 39.0129 35.4995 40.0101C33.9276 41.005 31.8692 40.8551 30.9286 39.6755L22.6452 29.3065C21.7024 28.1268 22.2192 26.3476 23.7911 25.3504C25.3631 24.3555 27.4215 24.5054 28.3621 25.685L31.4778 29.5867L36.6434 36.0541H36.6455Z" fill="white" stroke="#222222" stroke-width="2" stroke-linecap="round" stroke-linejoin="round"/>
</g>
</g>
</g>
</svg>
