<svg width="70" height="81" viewBox="0 0 70 81" fill="none" xmlns="http://www.w3.org/2000/svg">
<g id="Group 8">
<g id="Vector">
<path d="M54.9039 53.5515L53.2755 52.6799L46.3454 48.9902C35.0594 43.5515 26.4069 48.858 24.1896 50.4136L16.6592 55.7373C16.6592 55.7373 24.5924 60.1588 30.7418 60.7776C36.8931 61.3944 46.6274 62.9232 47.4771 61.6186C48.3268 60.314 54.9039 53.5534 54.9039 53.5534" fill="#FFEC8F"/>
<path d="M54.9039 53.5515L53.2755 52.6799L46.3454 48.9902C35.0594 43.5515 26.4069 48.858 24.1896 50.4136L16.6592 55.7373C16.6592 55.7373 24.5924 60.1588 30.7418 60.7776C36.8931 61.3944 46.6274 62.9232 47.4771 61.6186C48.3268 60.314 54.9039 53.5534 54.9039 53.5534" stroke="#222222" stroke-width="2" stroke-linecap="round" stroke-linejoin="round"/>
</g>
<g id="Group">
<g id="Vector_2">
<path d="M10.5982 77.7396C11.9159 76.9867 13.4446 76.6859 14.9503 76.8909C19.8529 77.5614 26.8597 78.9771 31.2157 79.3584C33.8223 79.5863 36.4386 79.0538 38.748 77.8239C38.748 77.8239 57.1981 66.9101 66.9669 55.2722C68.9675 53.2434 68.7219 50.4752 67.2316 48.9886C65.7105 47.4733 63.0597 47.1496 60.9057 48.7377L60.923 48.7223L45.2791 61.2779C45.2791 61.2779 33.082 61.1017 28.3616 60.3794C23.6411 59.6572 13.6268 56.4676 9.44347 58.094C5.26012 59.7223 1.59082 62.2607 1.59082 62.2607" fill="white"/>
<path d="M10.5982 77.7396C11.9159 76.9867 13.4446 76.6859 14.9503 76.8909C19.8529 77.5614 26.8597 78.9771 31.2157 79.3584C33.8223 79.5863 36.4386 79.0538 38.748 77.8239C38.748 77.8239 57.1981 66.9101 66.9669 55.2722C68.9675 53.2434 68.7219 50.4752 67.2316 48.9886C65.7105 47.4733 63.0597 47.1496 60.9057 48.7377L60.923 48.7223L45.2791 61.2779C45.2791 61.2779 33.082 61.1017 28.3616 60.3794C23.6411 59.6572 13.6268 56.4676 9.44347 58.094C5.26012 59.7223 1.59082 62.2607 1.59082 62.2607" stroke="#222222" stroke-width="2" stroke-linecap="round" stroke-linejoin="round"/>
</g>
<g id="Vector_3">
<path d="M20.2117 66.8393C25.9794 67.5807 40.3477 67.1381 40.3477 67.1381C41.0191 67.1324 41.6923 67.0366 42.3195 66.799C44.0132 66.1592 45.1736 64.7895 45.4383 63.3431C45.751 61.6305 45.1065 60.4312 43.7293 59.4849C43.4474 59.2895 43.0273 59.142 42.5957 59.0308C41.7403 58.8105 40.9539 58.7856 39.9737 58.7856C37.7085 58.7856 35.5372 58.8335 30.2739 58.4293C25.8873 58.0921 24.3854 57.1975 21.9821 56.5577C18.1612 55.5385 14.5629 55.9255 10.7248 57.0194C8.02031 57.7895 4.15153 60.3623 1.91504 61.9791" fill="white"/>
<path d="M20.2117 66.8393C25.9794 67.5807 40.3477 67.1381 40.3477 67.1381C41.0191 67.1324 41.6923 67.0366 42.3195 66.799C44.0132 66.1592 45.1736 64.7895 45.4383 63.3431C45.751 61.6305 45.1065 60.4312 43.7293 59.4849C43.4474 59.2895 43.0273 59.142 42.5957 59.0308C41.7403 58.8105 40.9539 58.7856 39.9737 58.7856C37.7085 58.7856 35.5372 58.8335 30.2739 58.4293C25.8873 58.0921 24.3854 57.1975 21.9821 56.5577C18.1612 55.5385 14.5629 55.9255 10.7248 57.0194C8.02031 57.7895 4.15153 60.3623 1.91504 61.9791" stroke="#222222" stroke-width="2" stroke-linecap="round" stroke-linejoin="round"/>
</g>
</g>
<g id="Group_2">
<path id="Vector_4" d="M61.9795 8.53824C40.5468 5.96161 29.6539 27.6896 40.8057 34.6972C45.7064 37.7777 52.8724 35.2911 56.1312 29.3562C60.0614 22.1972 57.0519 13.498 61.9814 8.53824H61.9795Z" fill="#AFE584" stroke="#222222" stroke-width="2" stroke-linecap="round" stroke-linejoin="round"/>
<path id="Vector_5" d="M36.0796 51.3774C36.0796 51.3774 37.3705 18.0747 61.9795 8.53833" stroke="#222222" stroke-width="2" stroke-linecap="round" stroke-linejoin="round"/>
<path id="Vector_6" d="M10.602 23.0765C23.6488 14.178 38.0633 24.6129 33.1875 32.9232C31.045 36.5765 25.5516 37.3773 21.4315 34.6225C16.4599 31.2987 15.4778 24.6359 10.6001 23.0765H10.602Z" fill="#AFE584" stroke="#222222" stroke-width="2" stroke-linecap="round" stroke-linejoin="round"/>
<path id="Vector_7" d="M10.5078 23.0766C28.4611 22.4578 37.4205 39.5824 36.2735 49.1034" stroke="#222222" stroke-width="2" stroke-linecap="round" stroke-linejoin="round"/>
<path id="Vector_8" d="M41.4178 52.7182C41.1243 52.4557 40.7004 52.2182 40.1768 52.0209C39.6531 51.8216 39.0278 51.6607 38.3354 51.5496C37.643 51.4385 36.8796 51.3772 36.0797 51.3772C35.2799 51.3772 34.5184 51.4385 33.8241 51.5496C33.1316 51.6607 32.5063 51.8216 31.9827 52.0209C31.4591 52.2201 31.0352 52.4557 30.7417 52.7182" stroke="#222222" stroke-width="2" stroke-linecap="round" stroke-linejoin="round"/>
</g>
<g id="Group_3">
<path id="Vector_9" d="M58.1994 41.9657C63.3356 40.7086 66.4789 35.5309 65.2202 30.4011C63.9615 25.2713 58.7774 22.1318 53.6412 23.389C48.505 24.6462 45.3617 29.8238 46.6204 34.9536C47.8791 40.0835 53.0632 43.2229 58.1994 41.9657Z" fill="#FFEC8F" stroke="#222222" stroke-width="2" stroke-linecap="round" stroke-linejoin="round"/>
<g id="Group_4">
<g id="Vector_10">
<path d="M53.3369 34.7952C53.3369 36.05 54.5798 37.0653 56.1143 37.0653C57.6488 37.0653 58.8917 36.0481 58.8917 34.7952C58.8917 33.5423 57.6488 32.5251 56.1143 32.5251C54.7083 32.5251 53.5249 31.5787 53.5249 30.4293C53.5249 29.2799 54.6642 28.3469 56.0721 28.3469C57.48 28.3469 58.6193 29.278 58.6193 30.4293" fill="#FFEC70"/>
<path d="M53.3369 34.7952C53.3369 36.05 54.5798 37.0653 56.1143 37.0653C57.6488 37.0653 58.8917 36.0481 58.8917 34.7952C58.8917 33.5423 57.6488 32.5251 56.1143 32.5251C54.7083 32.5251 53.5249 31.5787 53.5249 30.4293C53.5249 29.2799 54.6642 28.3469 56.0721 28.3469C57.48 28.3469 58.6193 29.278 58.6193 30.4293" stroke="#222222" stroke-width="2" stroke-linecap="round" stroke-linejoin="round"/>
</g>
<path id="Vector_11" d="M56.0723 28.347L56.1241 26.8374" stroke="#222222" stroke-width="2" stroke-linecap="round" stroke-linejoin="round"/>
<path id="Vector_12" d="M56.1143 38.5539V37.0654" stroke="#222222" stroke-width="2" stroke-linecap="round" stroke-linejoin="round"/>
</g>
</g>
<g id="Group_5">
<path id="Vector_13" d="M25.0747 42.097C27.5972 37.4549 25.8743 31.6495 21.2266 29.1301C16.5788 26.6108 10.7661 28.3315 8.24364 32.9735C5.72115 37.6156 7.44404 43.421 12.0918 45.9404C16.7396 48.4597 22.5522 46.739 25.0747 42.097Z" fill="#FFEC8F" stroke="#222222" stroke-width="2" stroke-linecap="round" stroke-linejoin="round"/>
<g id="Group_6">
<g id="Vector_14">
<path d="M14.0757 39.6453C14.0757 40.9001 15.3186 41.9154 16.8531 41.9154C18.3875 41.9154 19.6305 40.8982 19.6305 39.6453C19.6305 38.3924 18.3875 37.3752 16.8531 37.3752C15.4471 37.3752 14.2637 36.4288 14.2637 35.2794C14.2637 34.13 15.403 33.197 16.8109 33.197C18.2188 33.197 19.3581 34.1281 19.3581 35.2794" fill="#FFEC70"/>
<path d="M14.0757 39.6453C14.0757 40.9001 15.3186 41.9154 16.8531 41.9154C18.3875 41.9154 19.6305 40.8982 19.6305 39.6453C19.6305 38.3924 18.3875 37.3752 16.8531 37.3752C15.4471 37.3752 14.2637 36.4288 14.2637 35.2794C14.2637 34.13 15.403 33.197 16.8109 33.197C18.2188 33.197 19.3581 34.1281 19.3581 35.2794" stroke="#222222" stroke-width="2" stroke-linecap="round" stroke-linejoin="round"/>
</g>
<path id="Vector_15" d="M16.811 33.1971L16.8628 31.6875" stroke="#222222" stroke-width="2" stroke-linecap="round" stroke-linejoin="round"/>
<path id="Vector_16" d="M16.853 43.404V41.9155" stroke="#222222" stroke-width="2" stroke-linecap="round" stroke-linejoin="round"/>
</g>
</g>
<g id="Group_7">
<path id="Vector_17" d="M38.7244 20.9143C42.4637 17.1796 42.4637 11.1246 38.7244 7.38988C34.9851 3.65521 28.9225 3.65521 25.1832 7.38988C21.4439 11.1246 21.4439 17.1796 25.1832 20.9143C28.9225 24.649 34.9851 24.649 38.7244 20.9143Z" fill="#FFEC8F" stroke="#222222" stroke-width="2" stroke-linecap="round" stroke-linejoin="round"/>
<g id="Group_8">
<g id="Vector_18">
<path d="M29.3701 16.2644C29.3701 17.5192 30.613 18.5346 32.1475 18.5346C33.682 18.5346 34.9249 17.5173 34.9249 16.2644C34.9249 15.0116 33.682 13.9943 32.1475 13.9943C30.7415 13.9943 29.5581 13.048 29.5581 11.8985C29.5581 10.7491 30.6974 9.81616 32.1053 9.81616C33.5132 9.81616 34.6525 10.7472 34.6525 11.8985" fill="#FFEC70"/>
<path d="M29.3701 16.2644C29.3701 17.5192 30.613 18.5346 32.1475 18.5346C33.682 18.5346 34.9249 17.5173 34.9249 16.2644C34.9249 15.0116 33.682 13.9943 32.1475 13.9943C30.7415 13.9943 29.5581 13.048 29.5581 11.8985C29.5581 10.7491 30.6974 9.81616 32.1053 9.81616C33.5132 9.81616 34.6525 10.7472 34.6525 11.8985" stroke="#222222" stroke-width="2" stroke-linecap="round" stroke-linejoin="round"/>
</g>
<path id="Vector_19" d="M32.1055 9.81622L32.1573 8.30664" stroke="#222222" stroke-width="2" stroke-linecap="round" stroke-linejoin="round"/>
<path id="Vector_20" d="M32.1494 20.0232V18.5347" stroke="#222222" stroke-width="2" stroke-linecap="round" stroke-linejoin="round"/>
</g>
</g>
</g>
</svg>
