<svg width="51" height="60" viewBox="0 0 51 60" fill="none" xmlns="http://www.w3.org/2000/svg">
<path d="M42.5005 59H20.5005L19.5005 53H16.5005L11.5005 52L9.00049 49L7.50049 42.5V38L4.50049 36L2.50049 34L6.00049 27.5L7.50049 24L9.00049 18L10.0005 11L15.5005 5L22.0005 2L29.0005 1C33.0005 1.5 35.5005 1 42.0005 4.5C51.0005 11 50.5005 19 50.0005 23.5L49.5005 27.5V33L47.0005 39.5L43.5005 44.5L42.5005 51V59Z" fill="white"/>
<g clip-path="url(#clip0_211_291)">
<path d="M30.5219 34.2586H30.0194C2.80523 18.3505 19.1526 0.586862 30.0194 10.6741H30.5219C41.3888 0.586862 57.7361 18.3505 30.5219 34.2586Z" fill="#FF7A7A"/>
<path d="M19.7024 60C19.0742 59.9524 18.6031 59.3973 18.6502 58.7629L18.7288 57.7478C18.7759 56.8755 18.8073 55.9873 18.823 55.0992V53.5448L13.4524 53.4497C9.36947 53.2435 7.76771 49.8652 7.17097 46.0746L6.99823 44.6471L6.68416 43.981C6.32298 43.0135 6.16595 41.9984 6.13454 41.0627V40.8406V38.7153L5.9618 38.2237L1.26645 35.0357C0.748234 34.6868 0.606903 33.9889 0.936677 33.4655C3.00954 30.1983 4.43856 28.7708 5.64773 26.82C6.66846 25.1705 7.23379 23.5369 7.04534 20.682C6.30728 5.53532 18.1163 0.253797 26.769 3.00361e-05C27.35 -0.0158304 27.9467 3.00361e-05 28.5435 3.00361e-05C29.1716 0.0317509 29.6584 0.571005 29.6427 1.20542C29.6113 1.83984 29.0774 2.33151 28.4492 2.29979C27.8996 2.28393 27.3657 2.26807 26.8475 2.29979C18.8701 2.52184 8.67851 7.16894 9.32235 20.5234C9.5422 23.8541 8.85125 25.9636 7.57926 28.0254C6.55854 29.6749 5.08241 31.372 3.54346 33.6559L3.48065 33.751L7.54786 36.4949C7.7206 36.6059 7.86193 36.7804 7.94045 36.9707C8.50577 38.1919 8.58429 39.318 8.52148 40.2855L8.42725 41.031L8.49007 41.7288C8.58429 42.4743 8.78843 43.1721 9.11821 43.7589C9.19673 43.9017 9.24384 44.0603 9.25954 44.2348C9.44798 46.3601 9.87198 48.1047 10.5786 49.3101C11.2539 50.4362 12.1647 51.1023 13.5466 51.1658L20.0007 51.2768C20.6132 51.2768 21.1157 51.7843 21.1157 52.4029C21.1471 54.2268 21.1157 56.0666 21.0058 57.9064L20.9273 58.9374C20.8801 59.5718 20.3305 60.0476 19.7024 60ZM42.3154 59.8097C41.6873 59.8573 41.1377 59.3815 41.0906 58.7471L41.0435 58.0492C40.2269 49.0722 42.3311 45.0119 44.5453 41.1103C46.6339 37.4624 48.7539 34.0682 48.4241 26.1063C48.3927 25.4719 48.8952 24.9326 49.5234 24.9009C50.1515 24.8692 50.6854 25.3767 50.7168 26.0111C51.078 34.6233 48.7068 38.4616 46.5397 42.2522C44.5139 45.8049 42.5667 49.4053 43.3362 57.843L43.3833 58.5567C43.4304 59.1911 42.9593 59.7463 42.3311 59.7938L42.3154 59.8097ZM30.5535 36.2094L29.9568 36.0508C15.7608 27.7399 12.2275 18.5091 14.693 12.3077C17.0014 6.47109 24.2093 4.32993 30.1766 8.77085L30.8048 9.3101L31.4329 8.77085C37.3845 4.31407 44.6082 6.47109 46.9166 12.3077C49.382 18.525 45.8487 27.7558 31.6528 36.0508L31.056 36.2094H30.5378H30.5535ZM30.8205 33.7827L32.9719 32.4505C44.671 24.8216 46.4141 17.3672 44.7495 13.1642C42.9907 8.69154 36.9762 6.75657 31.8726 11.483L31.0717 11.8002H30.5535L29.7526 11.483C24.6647 6.75657 18.6502 8.69154 16.8757 13.1642C15.2112 17.3672 16.9543 24.8216 28.6534 32.4505L30.8048 33.7827H30.8205ZM31.5114 31.705C31.0874 31.705 30.6948 31.483 30.475 31.0865C30.1609 30.5155 30.3651 29.7859 30.9304 29.4687C32.5164 28.5805 33.9612 27.5179 35.2489 26.1856C35.7043 25.7098 36.4423 25.7098 36.9134 26.1697C37.3845 26.6297 37.3845 27.391 36.9291 27.8509C35.4687 29.3735 33.8198 30.5631 32.061 31.5464C31.8883 31.6416 31.6842 31.6892 31.4957 31.6892L31.5114 31.705ZM18.6031 16.9231C18.6031 16.9231 18.5246 16.9231 18.4775 16.9231C17.8337 16.8438 17.3783 16.2411 17.4568 15.5908C17.5353 15.004 17.708 14.433 18.0064 13.9096C18.2105 13.5607 18.556 13.3386 18.9329 13.3069H19.1214L18.9643 12.8787C18.9172 12.5773 18.98 12.2601 19.1842 11.9905C19.671 11.3085 20.3462 10.7534 21.1785 10.3886C22.0108 10.0238 22.9844 9.88108 24.068 9.97624C24.7118 10.0397 25.1986 10.6107 25.1358 11.2609C25.073 11.9112 24.5077 12.4029 23.8638 12.3394C23.11 12.276 22.529 12.387 22.105 12.5615C21.6653 12.7518 21.3355 13.0373 21.0843 13.3704C20.8487 13.7034 20.4719 13.8779 20.0793 13.862H20.0322L20.0793 13.9255C20.252 14.2586 20.252 14.6868 20.0636 15.0357C19.9222 15.2895 19.828 15.575 19.7966 15.8605C19.7181 16.479 19.1999 16.9072 18.6031 16.8914V16.9231Z" fill="#222222"/>
</g>
<defs>
<clipPath id="clip0_211_291">
<rect width="50" height="60" fill="white" transform="translate(0.732422)"/>
</clipPath>
</defs>
</svg>
