<svg width="64" height="54" viewBox="0 0 64 54" fill="none" xmlns="http://www.w3.org/2000/svg">
<g id="Vector">
<path d="M26.8996 16.1452L10.3169 16.3764C8.20774 16.6409 6.8657 18.2411 6.85004 20.9844L7.03358 27.8248C6.97923 31.1987 8.35558 32.4379 10.4293 32.3872L26.5306 31.7464L26.9388 16.1737L26.8996 16.1452Z" fill="#FF7A7A"/>
<path d="M26.408 16.3271C36.9619 16.1482 46.579 11.8155 56.0635 2.05693L55.776 44.1861C47.6463 36.9037 37.7641 30.3844 26.9368 31.6821L26.4365 16.2879L26.408 16.3271Z" fill="#FFEC8F"/>
<path d="M22.5126 33.3192L14.7233 32.9911L14.357 51.8878L26.4822 51.7724C22.6847 48.1756 21.0979 42.1126 22.5019 33.2515L22.5126 33.3192Z" fill="#FF7A7A"/>
<path d="M13.2207 52.38L13.2951 42.7927L13.4839 33.7077L11.8234 33.5196L10.4481 33.5985C9.96347 33.6058 9.46815 33.5455 9.0013 33.4459C8.53445 33.3463 8.08533 33.1399 7.69316 32.855L7.30099 32.5702C7.30099 32.5702 7.08342 32.2924 6.95503 32.1392C6.64828 31.7368 6.37001 31.2951 6.21637 30.7643C6.03427 30.2728 5.90911 29.7028 5.8409 29.0544L5.59937 20.9743C5.59458 19.4138 6.02816 17.9921 6.80771 17.0014C7.57651 15.9429 8.7305 15.3439 10.0951 15.1973L26.8131 14.9446L27.28 15.0441L28.1422 15.0117C32.9843 14.6962 37.4729 13.4652 41.8395 11.2474C46.3701 8.969 50.6718 5.68598 55.0224 1.18093C55.4425 0.767487 55.9948 0.749446 56.3655 0.898928C56.4047 0.927413 56.4439 0.955899 56.5223 1.01287C56.9929 1.3547 57.1143 1.68242 57.1396 2.06005L57.0124 16.9985C58.7659 17.5536 59.9956 18.0875 60.976 18.7996C61.5642 19.2269 62.0956 19.7326 62.5022 20.3274C63.4832 21.6986 63.8764 23.3017 63.5927 25.0119C63.3906 26.3623 62.7717 27.7092 61.7998 28.7998C60.8387 29.9581 59.5423 30.7531 58.153 31.1812L57.0415 31.3918L56.7937 37.9188L56.7559 44.2391C56.7634 44.7236 56.4787 45.1156 56.0263 45.326C55.6416 45.5257 55.214 45.4546 54.861 45.1982C52.6004 43.1969 50.5681 41.5411 48.6073 40.1168C46.8425 38.835 45.0993 37.6885 43.3882 36.7451C38.9395 34.2922 34.7803 33.0078 30.6861 32.7886L30.0596 33.651L29.7786 34.2853C29.5191 35.0549 29.3558 35.7747 29.2209 36.4552C28.9759 37.5348 28.8018 38.1869 28.5601 38.8496C28.3645 39.3663 28.119 39.7868 27.8342 40.1788C27.521 40.61 27.1294 40.9843 26.6593 41.3015C26.3138 41.5297 25.9292 41.7294 25.4661 41.8721C25.0422 42.0432 24.5684 42.1183 24.0268 42.204L23.8238 42.2361L23.1791 42.5464C23.4407 44.4131 23.9123 46.0731 24.5833 47.4587C25.215 48.8159 26.096 49.9948 27.0802 50.9492C27.4939 51.3694 27.5406 51.8824 27.3912 52.253C27.2419 52.6236 26.8502 52.9978 26.2979 53.0159L14.1727 53.1313L13.442 52.9L13.0461 52.3729L13.2207 52.38ZM16.1346 33.3575L15.746 42.0578L15.5959 50.5121L19.6509 50.7028L23.4598 50.655L23.5984 50.2167C22.4569 48.4892 21.6677 46.3591 21.224 44.0007C20.8088 41.6032 20.7176 38.8422 21.011 35.8814L21.3474 33.1914L16.1454 33.4252L16.1346 33.3575ZM10.4426 17.6055C9.37027 17.8447 8.91093 18.2296 8.57998 18.7677C8.18134 19.3165 8.02875 20.104 8.03302 21.0053L8.20582 27.778C8.1886 28.544 8.25681 29.1923 8.3997 29.6554C8.50338 30.09 8.65326 30.3786 8.83161 30.6279C8.94926 30.7133 9.06691 30.7988 9.14535 30.8558C9.34143 30.9982 9.45908 31.0836 9.63368 31.0907C9.8475 31.1262 10.1005 31.1903 10.3713 31.1474L25.4358 30.532L25.4306 23.941L25.2223 17.3821L10.4426 17.6055ZM27.3332 32.8683L26.8094 32.8472L23.9234 33.0265L23.7278 33.5432C23.579 34.5729 23.4302 35.6025 23.349 36.6215C23.2679 37.6405 23.2044 38.5526 23.2087 39.4539L23.2125 39.6962L23.4478 39.8671C24.3277 39.7278 24.627 39.6457 24.887 39.5352C25.1186 39.4638 25.3394 39.3248 25.5317 39.2249C25.7525 39.0859 25.9341 38.9184 26.0765 38.7224C26.2188 38.5264 26.4182 38.252 26.4713 37.9313C26.6669 37.4146 26.8695 36.7234 27.0221 35.936C27.2139 35.177 27.4234 34.3112 27.6614 33.4062L27.7823 33.0748L27.5078 32.8754L27.2655 32.8791L27.3332 32.8683ZM53.2413 6.35471C49.6165 9.53058 45.8843 12.0296 42.1124 13.841C38.3404 15.6524 34.518 16.7085 30.4351 17.2161L27.859 17.381L27.8535 23.9044L28.0902 30.424L28.6033 30.3775C33.0892 30.2224 37.5046 31.1541 41.9566 33.1901C44.6121 34.4003 47.4105 36.0736 50.2341 38.1246C51.3322 38.9222 52.4302 39.7198 53.4714 40.5958L54.238 41.2724L54.7832 23.2841L54.8187 4.92542L53.2413 6.35471ZM59.6877 20.7383C59.2955 20.4534 58.7679 20.19 58.2511 19.9943L57.9197 19.8733L57.1074 20.0019L57.0572 28.6486L57.9017 28.723L58.4325 28.5696C59.241 28.1988 59.9104 27.6071 60.3945 26.9407C60.8786 26.2742 61.2057 25.4939 61.3583 24.7064C61.447 24.172 61.4003 23.659 61.3251 23.1852C61.2107 22.6829 61.0001 22.2305 60.6826 21.7604C60.4543 21.4149 60.0906 21.0908 59.7376 20.8344L59.6984 20.806L59.6877 20.7383ZM1.32331 29.6655C1.32331 29.6655 1.04879 29.4661 0.988092 29.3022C0.888173 29.1099 0.82747 28.946 0.862933 28.7322L0.678874 21.2328C0.664378 20.9229 0.785264 20.5915 0.995327 20.3847C1.16617 20.1495 1.49389 20.0283 1.84308 20.0424C2.08538 20.0387 2.33841 20.1027 2.57371 20.2737C2.9374 20.5977 3.05881 20.9254 3.07331 21.2354L3.21815 28.7063C3.23265 29.0163 3.11176 29.3476 2.9017 29.5544C2.70238 29.8288 2.40314 29.9108 2.05394 29.8967L1.36253 29.6939L1.2841 29.637L1.32331 29.6655ZM37.7026 20.1595L37.2922 19.3224C37.2777 19.0124 37.3986 18.6811 37.5694 18.4459C37.7688 18.1714 38.068 18.0894 38.4065 18.0358C40.0917 17.9425 41.6664 17.5891 43.2373 16.9935C45.0005 16.2981 46.6138 15.3141 48.2696 13.9418C48.5189 13.7635 48.8466 13.6423 49.1281 13.6671C49.3419 13.7026 49.5272 13.7774 49.7233 13.9198C50.137 14.34 50.2584 14.6677 50.2052 14.9884C50.152 15.3091 50.0204 15.5728 49.7818 15.8187C47.9729 17.3193 46.0426 18.4923 44.1156 19.2483C42.3524 19.9438 40.507 20.34 38.5901 20.5047L38.0948 20.4443L37.7811 20.2164L37.6742 20.1987L37.7026 20.1595Z" fill="#222222"/>
</g>
</svg>
