<svg width="66" height="60" viewBox="0 0 66 60" fill="none" xmlns="http://www.w3.org/2000/svg">
<g id="ico">
<path id="Vector" d="M22.2274 43.1982L14.1365 35.1488H10.7274C6.95463 35.1488 3.90918 32.1527 3.90918 28.441V8.09408C3.90918 4.38244 6.95463 1.38629 10.7274 1.38629H36.9092C40.6819 1.38629 43.7274 4.38244 43.7274 8.09408V28.3963C43.7274 32.108 40.6819 35.1041 36.9092 35.1041H22.2274V43.1534V43.1982Z" fill="#FFEC8F"/>
<path id="Vector_2" d="M48.2277 56.6138L55.2277 49.5929H58.1823C61.455 49.5929 64.0914 46.9993 64.0914 43.7795V26.1604C64.0914 22.9407 61.455 20.347 58.1823 20.347H35.455C32.1823 20.347 29.5459 22.9407 29.5459 26.1604V43.7795C29.5459 46.9993 32.1823 49.5929 35.455 49.5929H48.1823V56.6138H48.2277Z" fill="#8ED3F7"/>
<path id="Vector_3" d="M47.8997 59.0037C47.3829 58.9529 46.866 58.5462 46.866 57.8346V52.1922L35.1861 51.938C31.2583 51.938 28.0541 48.7864 28.0541 44.9231V37.5524L23.2477 37.2982L22.9893 44.2623C22.9893 44.9739 22.3691 45.4314 21.8006 45.4314C21.3872 45.4314 21.1288 45.2789 20.9737 45.0756L13.2732 37.349H10.2757C5.83113 37.2982 2.21344 33.7399 2.21344 29.3683V8.98445C2.16176 4.61285 5.77944 1.05457 10.224 1.05457H36.6332C41.0777 1.05457 44.6954 4.61285 44.6954 8.98445V19.9643L58.0809 20.2185C62.0087 20.2185 65.2129 23.3701 65.2129 27.2334V44.9739C65.2129 48.8372 62.0087 51.9888 58.0809 51.9888H55.7035L48.8816 58.6987C48.8816 58.6987 48.4682 59.0037 48.1581 59.0546H47.9514L47.8997 59.0037ZM35.1344 22.5059C32.4987 22.5059 30.3797 24.6409 30.3797 27.2334V44.9739C30.3797 47.5664 32.4987 49.6505 35.1344 49.6505H48.003C48.6232 49.6505 49.1917 50.1589 49.1917 50.8197V54.4288L54.2565 50.0064C54.2565 50.0064 54.7733 49.6505 55.0834 49.6505H58.0809C60.7166 49.6505 62.8872 47.5156 62.8872 44.9739V27.2334C62.8872 24.6409 60.7166 22.5059 58.0809 22.5059H35.1344ZM10.224 3.34203C7.07148 3.34203 4.53909 5.88366 4.53909 8.98445V29.47C4.53909 32.5708 7.07148 35.0616 10.224 35.0616H13.6867C13.9968 35.0616 14.3069 35.1632 14.5136 35.4174L20.1985 41.1107L20.6636 36.2307C20.6636 35.6207 21.1805 35.0616 21.8523 35.0616H27.8473L28.1057 27.6908L26.762 27.8433C25.8318 28.0975 24.9015 28.1992 24.0229 28.1992C23.2994 28.1992 22.7309 28.1483 22.1624 28.0467C19.6817 27.64 17.201 26.3184 14.8753 24.1326C14.6686 23.9292 14.5136 23.6242 14.5136 23.3192C14.5136 23.0143 14.6169 22.7093 14.8237 22.5059C15.0304 22.2518 15.3405 22.1501 15.6506 22.1501C15.9607 22.1501 16.2191 22.2518 16.4775 22.4551C18.493 24.3359 20.4569 25.4542 22.5242 25.81C22.9893 25.9117 23.4544 25.9117 23.9196 25.9117C25.4183 25.9117 26.9171 25.505 28.4675 24.7426C29.8112 21.8959 32.3953 20.2185 35.2378 20.2185H42.1114L42.3698 8.98445C42.3698 5.88366 39.8374 3.39287 36.6848 3.39287H10.224V3.34203ZM47.0728 44.8214C43.145 44.8214 39.9408 42.4323 38.8554 38.7724C38.7521 38.4165 38.8554 38.0607 39.0622 37.7557C39.2689 37.4507 39.6307 37.2982 39.9924 37.2982H54.3598C54.7216 37.2982 55.0834 37.4507 55.2901 37.7557C55.4968 38.0607 55.6002 38.4165 55.4451 38.7724C54.3082 42.4323 51.0522 44.8214 47.1245 44.8214H47.0728ZM42.008 39.9923C43.145 41.619 45.0055 42.534 47.0728 42.534C49.14 42.534 51.0522 41.619 52.2409 40.0432L41.6979 39.5857L42.008 39.9923ZM51.6207 32.6216C50.5871 32.6216 49.7085 31.7575 49.7085 30.7408C49.7085 29.7242 50.5871 28.86 51.6207 28.86C52.6543 28.86 53.5329 29.7242 53.5329 30.7408C53.5329 31.7575 52.6543 32.6216 51.6207 32.6216ZM41.9046 32.6216C40.871 32.6216 39.9924 31.7575 39.9924 30.7408C39.9924 29.7242 40.871 28.86 41.9046 28.86C42.9383 28.86 43.8169 29.7242 43.8169 30.7408C43.8169 31.7575 42.9383 32.6216 41.9046 32.6216ZM29.2944 16.1518C28.2608 16.1518 27.3822 15.2877 27.3822 14.271C27.3822 13.2544 28.2608 12.3902 29.2944 12.3902C30.328 12.3902 31.2066 13.2544 31.2066 14.271C31.2066 15.2877 30.328 16.1518 29.2944 16.1518ZM17.7178 16.1518C16.6842 16.1518 15.8056 15.2877 15.8056 14.271C15.8056 13.2544 16.6842 12.3902 17.7178 12.3902C18.7514 12.3902 19.63 13.2544 19.63 14.271C19.63 15.2877 18.7514 16.1518 17.7178 16.1518Z" fill="#222222"/>
</g>
</svg>
