<svg width="65" height="59" viewBox="0 0 65 59" fill="none" xmlns="http://www.w3.org/2000/svg">
<g id="Layer_1" clip-path="url(#clip0_211_1554)">
<path id="Vector" d="M1.90625 40.9903L8.87673 38.3936L14.8567 55.1421L8.54655 57.4049L1.90625 40.9903Z" fill="#C8CCFA"/>
<path id="Vector_2" d="M10.7661 40.5822C14.3981 36.1122 18.9289 33.8123 25.3491 36.0751L33.3101 37.8L43.1055 39.1355C45.0682 40.5822 44.9948 42.3442 43.509 44.3288L45.4167 45.1264L59.8163 41.1386L63.3565 42.5297L63.0264 45.4602L57.3032 48.9101L41.7297 55.0308L38.2445 54.3074L21.4786 52.7123L14.5082 52.768L10.7661 40.6007V40.5822Z" fill="#FFEAD2"/>
<path id="Vector_3" d="M35.3098 28.6561H34.7961C7.48288 12.668 23.8818 -5.19332 34.7961 4.93369H35.3098C46.2241 -5.21186 62.6414 12.6495 35.3098 28.6561Z" fill="#FF7A7A"/>
<path id="Vector_4" d="M8.21716 58.9997C7.70354 58.9997 7.22662 58.6659 7.04318 58.1466L0.824782 41.5093C0.567975 40.8231 0.916499 40.0626 1.5952 39.7844L8.56568 37.1321C9.24439 36.8724 10.0148 37.2248 10.2716 37.9111L10.5101 38.5788L10.5468 38.5417C15.151 34.1088 20.5806 32.6807 27.4227 35.3144C29.5872 36.1862 31.8434 36.6128 34.2647 36.6313C37.4015 36.6499 40.4098 36.724 42.5193 37.3732C43.6015 37.7071 44.6104 38.2635 45.2891 39.1723C45.9861 40.1183 46.2246 41.3053 46.0595 42.5851C46.0228 42.9931 45.8761 43.3641 45.656 43.6979L45.6009 43.7536L53.7454 40.9529C55.488 40.3594 57.5241 39.6546 59.3401 39.6175C61.3029 39.5804 63.1372 40.3037 64.3112 42.4924C65.0082 43.902 64.8982 45.3487 63.8709 46.5543C63.0822 47.5002 61.7981 48.1865 60.1839 48.7429L59.5602 48.9469L44.0418 55.4571C44.0418 55.4571 43.9684 55.4757 43.95 55.4942C43.0329 55.8096 42.0423 55.9765 40.9234 55.9765C40.0979 55.9765 39.1991 55.8837 38.2269 55.6612L37.3648 55.4571L23.9007 53.9362C22.6167 53.8064 19.8285 53.7322 17.2971 54.0475L16.3616 54.1959L16.49 54.5298C16.7468 55.216 16.3983 55.9765 15.7196 56.2361L8.74912 58.907C8.58403 58.9812 8.40059 58.9997 8.2355 58.9997H8.21716ZM9.02427 55.9579L13.5367 54.233L13.4267 53.9733L13.2432 53.6209V53.454L8.69409 41.3239L8.63906 41.194V41.1569L8.2355 40.0997L3.72303 41.8246L9.00592 55.9765L9.02427 55.9579ZM41.1435 53.3242C41.6938 53.3242 42.1707 53.25 42.611 53.1387L43.0696 53.0089L58.588 46.4986C58.588 46.4986 58.6798 46.4615 58.7164 46.443C60.5141 45.9051 61.4496 45.3301 61.8532 44.8479C62.1283 44.514 62.1833 44.2358 61.9632 43.7536C61.3396 42.6222 60.5141 42.2883 59.3768 42.3069C58.0744 42.3254 56.4602 42.8633 54.5708 43.5125L45.3074 46.6841L44.9589 46.8696C43.7849 47.426 42.4092 47.6671 40.7216 47.0922L35.3287 45.3301L34.0446 45.089C30.9629 44.6068 28.2481 44.7552 26.8173 44.9592C26.1019 45.0705 25.4232 44.5697 25.3315 43.8463C25.2215 43.123 25.7167 42.4367 26.4321 42.344C28.1014 42.1029 31.0913 41.9174 34.4665 42.4738L35.8423 42.7335L37.3281 42.8819C38.7956 42.9931 40.1346 43.0117 41.2352 42.9189C41.969 42.8448 42.5376 42.7335 42.9412 42.5851C43.253 42.4738 43.3997 42.3625 43.4548 42.3069L43.4914 42.0287C43.5098 41.398 43.3814 41.0271 43.198 40.786C42.9778 40.4892 42.5376 40.1739 41.7488 39.9142C40.1346 39.4134 37.6583 39.3207 34.2647 39.2836C31.5316 39.2836 28.9452 38.7828 26.4872 37.7813C20.2871 35.3886 15.7013 36.8539 11.574 41.2868L15.4628 51.6734H15.5545C18.7646 51.0243 22.6167 51.1355 24.2309 51.3025L37.7683 52.8419C37.7683 52.8419 37.8967 52.8605 37.9701 52.879C38.9973 53.1572 39.8778 53.3056 40.6666 53.3242C40.85 53.3242 41.0518 53.3242 41.2169 53.3242H41.1435ZM34.7967 30.9372L34.0996 30.7517C19.5167 22.2198 15.8113 12.6678 18.3794 6.1761C20.7824 0.0739322 28.3215 -2.15178 34.5032 2.46658L35.0535 2.93027L35.6038 2.46658C41.7855 -2.15178 49.3246 0.0553846 51.7276 6.15755C54.2957 12.6678 50.5903 22.2013 36.0074 30.7517L35.3103 30.9372H34.7784H34.7967ZM35.0535 28.0808L37.163 26.7825C49.1412 18.974 50.8288 11.388 49.1779 7.19622C47.4169 2.72624 41.4003 0.741647 36.2458 5.52693L35.3103 5.89789H34.7784L33.8428 5.52693C28.6884 0.741647 22.6717 2.72624 20.9108 7.19622C19.2599 11.388 20.9475 18.9554 32.9257 26.7825L35.0352 28.0808H35.0535ZM35.7689 26.3188C35.2736 26.3188 34.7967 26.0592 34.5582 25.5955C34.1914 24.9278 34.4298 24.0746 35.0902 23.7036C36.7044 22.8133 38.1719 21.719 39.4743 20.365C40.0062 19.8086 40.8867 19.8086 41.4187 20.3465C41.969 20.8844 41.969 21.7561 41.437 22.3125C39.9145 23.8891 38.2269 25.1318 36.4109 26.1333C36.2091 26.2446 35.9707 26.3003 35.7505 26.3003L35.7689 26.3188ZM22.525 11.1469C22.525 11.1469 22.4333 11.1469 22.3782 11.1469C21.6262 11.0541 21.0942 10.3493 21.1859 9.58887C21.2593 8.95825 21.4611 8.36472 21.7729 7.80829C21.9563 7.47444 22.2682 7.25186 22.5984 7.15913L22.8368 7.12203L22.7451 6.88091C22.6901 6.52851 22.7634 6.15755 23.0019 5.84224C23.5155 5.11889 24.2309 4.52536 25.1114 4.15441C25.9919 3.76491 27.0191 3.61653 28.1564 3.72781C28.9085 3.80201 29.4771 4.46972 29.4037 5.23017C29.3304 5.99062 28.67 6.5656 27.9179 6.49141C27.1659 6.43577 26.6156 6.52851 26.1937 6.71398C25.7718 6.89946 25.4599 7.15913 25.2215 7.49298C25.0747 7.67846 24.8913 7.82684 24.6895 7.93813L24.2493 8.03086L24.2859 8.14215C24.3777 8.47601 24.341 8.86551 24.1575 9.19936C24.0108 9.44048 23.9374 9.70015 23.9007 9.99691C23.809 10.7203 23.1853 11.2211 22.5066 11.2025L22.525 11.1469Z" fill="#222222"/>
</g>
<defs>
<clipPath id="clip0_211_1554">
<rect width="64" height="59" fill="white" transform="translate(0.732422)"/>
</clipPath>
</defs>
</svg>
