<svg width="72" height="57" viewBox="0 0 72 57" fill="none" xmlns="http://www.w3.org/2000/svg">
<g id="icons" clip-path="url(#clip0_211_1307)">
<g id="Group">
<path id="Vector" d="M70.7165 7.96185H1.0249V52.9637H30.5482C31.6141 54.6184 33.5955 55.733 35.8707 55.733C38.1459 55.733 40.1274 54.6184 41.1932 52.9637H70.7165V7.96185Z" fill="#89D3FF"/>
<path id="Vector_2" d="M68.6668 7.96185H3.07471V50.8867H31.3681C32.0241 52.4998 33.7937 53.656 35.8708 53.656C37.9478 53.656 39.7175 52.4998 40.3734 50.8867H68.6668V7.96185Z" fill="#7BC3FF"/>
<path id="Vector_3" d="M5.12451 2.42316H30.3775C33.4111 2.42316 35.8708 4.91557 35.8708 7.98954V46.7326H5.12451V2.42316Z" fill="white"/>
<path id="Vector_4" d="M66.6169 46.7327L35.8706 46.7327V7.98956C35.8706 4.91559 38.3303 2.42318 41.364 2.42318H66.6169V46.7327Z" fill="white"/>
<path id="Vector_5" d="M66.6171 43.271H41.3368C38.5628 43.271 36.2739 45.3688 35.9255 48.0897C35.8913 48.1035 35.8708 48.1173 35.8708 48.1173C35.8708 48.1173 35.8503 48.1035 35.8162 48.0897C35.4677 45.3688 33.1788 43.271 30.4048 43.271H5.12451V48.8097H32.5229C32.8372 50.3882 34.2173 51.579 35.8708 51.579C37.5243 51.579 38.9045 50.3882 39.2187 48.8097H66.6171V43.271Z" fill="#FFDCB4"/>
<path id="Vector_6" d="M38.6036 44.6557L35.8706 47.425V5.88488L38.6036 3.11554V44.6557Z" fill="#E8F0FC"/>
<path id="Vector_7" d="M52.2688 24.5779L48.2445 22.5009L44.0698 24.5779V1.03851H52.2688V24.5779Z" fill="#F97594"/>
<path id="Vector_8" d="M51.3561 23.1816L49.1471 22.4879L44.4768 24.569V0.982788H51.3561V23.1816Z" fill="#FF7A7A"/>
</g>
<g id="Group_2">
<path id="Vector_9" d="M29.7215 12.8082H11.2737V14.1929H29.7215V12.8082Z" fill="#C7DBF9"/>
<path id="Vector_10" d="M22.2056 7.26953H18.7893V8.6542H22.2056V7.26953Z" fill="#C7DBF9"/>
<path id="Vector_11" d="M20.8392 17.6546H11.2737V19.0393H20.8392V17.6546Z" fill="#C7DBF9"/>
<path id="Vector_12" d="M29.7213 17.6546H23.572V19.0393H29.7213V17.6546Z" fill="#C7DBF9"/>
<path id="Vector_13" d="M22.1374 23.8856H19.9646V22.5009H22.1374V23.8856ZM17.7919 23.8856H15.6192V22.5009H17.7919V23.8856ZM13.4464 23.8856H11.2737V22.5009H13.4464V23.8856Z" fill="#C7DBF9"/>
<path id="Vector_14" d="M29.7215 31.5013H18.1062V32.886H29.7215V31.5013Z" fill="#C7DBF9"/>
<path id="Vector_15" d="M14.6899 31.5013H11.2737V32.886H14.6899V31.5013Z" fill="#C7DBF9"/>
<path id="Vector_16" d="M29.7215 36.3477H11.2737V37.7323H29.7215V36.3477Z" fill="#C7DBF9"/>
<path id="Vector_17" d="M61.1509 31.5013H42.7031V32.886H61.1509V31.5013Z" fill="#C7DBF9"/>
<path id="Vector_18" d="M61.1509 17.6546H52.9519V19.0393H61.1509V17.6546Z" fill="#C7DBF9"/>
<path id="Vector_19" d="M61.1509 12.8082H52.9519V14.1929H61.1509V12.8082Z" fill="#C7DBF9"/>
<path id="Vector_20" d="M54.3184 36.3477H42.7031V37.7323H54.3184V36.3477Z" fill="#C7DBF9"/>
<path id="Vector_21" d="M67.3002 7.26955V1.73086H52.9519V0.346191H43.3864V1.73086H41.4254C39.1571 1.73086 37.1756 2.97014 36.0824 4.80483C35.1327 3.03938 32.8438 1.73086 30.3089 1.73086H4.44106V7.26955H0.341553V53.656H29.8648C31.2792 55.5392 33.4997 56.6539 35.8843 56.6539C38.2688 56.6539 40.4894 55.5392 41.9037 53.656H71.3997V7.26955H67.3002ZM5.80756 43.9633H29.4139C31.8394 43.9633 34.6886 45.2995 35.201 48.235L36.1234 48.152L36.5539 48.2212C36.9843 45.4242 39.7378 43.9633 42.2385 43.9633H65.9473V48.1174H38.6719L38.5626 48.6712C38.303 49.952 37.1756 50.8867 35.8843 50.8867C34.5929 50.8867 33.4656 49.952 33.2059 48.6712L33.0966 48.1174H5.80756V43.9633ZM44.7529 1.73086H51.5854V23.4356L48.3399 21.7255L44.7529 23.4771V1.73086ZM41.4254 3.11553H43.3864V25.6788L48.3126 23.2763L52.9519 25.7203V3.11553H65.9337V42.5787H42.2248C40.1546 42.5787 37.9477 43.4233 36.5539 45.0572V8.05189C36.5539 5.33101 38.7403 3.11553 41.4254 3.11553ZM5.80756 3.11553H30.3158C33.0625 3.11553 35.1874 4.97792 35.1874 6.57721V45.0918C33.8824 43.5341 31.7984 42.5787 29.4139 42.5787H5.80756V3.11553ZM70.0332 52.2714C58.7704 52.2714 52.4559 52.2714 41.1931 52.2714L40.9882 52.576C39.8471 54.2653 37.9409 55.2761 35.8843 55.2761C33.8277 55.2761 31.9214 54.2653 30.7804 52.576L30.5754 52.2714H1.70806V8.65422H4.44106V49.502H32.0034C32.5705 51.1359 34.1215 52.2714 35.8706 52.2714C37.6197 52.2714 39.1639 51.1359 39.7378 49.502H67.3002V8.65422H70.0332V52.2714Z" fill="#222222" stroke="#222222" stroke-width="0.8" stroke-miterlimit="10"/>
</g>
</g>
<defs>
<clipPath id="clip0_211_1307">
<rect width="71.7414" height="57" fill="white"/>
</clipPath>
</defs>
</svg>
