<svg width="80" height="80" viewBox="0 0 80 80" fill="none" xmlns="http://www.w3.org/2000/svg">
<path d="M36.9114 0.0223117C12.0851 0.684924 -0.385987 20.7197 0.00910098 42.5993C0.440029 66.5586 18.689 80.5507 40.0662 79.9834C67.1564 79.2645 80.2662 61.6805 79.9959 39.7949C79.6958 15.6099 63.5055 -0.687661 36.9114 0.0223117Z" fill="#CC2C76"/>
<path d="M53.7137 59.6308H51.5985V43.4256H53.7137V59.6308ZM49.1002 55.356L45.8682 52.2486C44.8165 53.4902 43.4202 54.5925 41.7211 55.5282L41.4715 55.6649L40.3515 53.9508L40.6544 53.7874C43.8064 52.0999 45.8027 49.7234 46.0314 47.4032H41.1952V45.4693H43.6995V43.2739H45.7818V45.4691H48.1526V46.2981C48.1526 47.8222 47.7694 49.2807 47.0119 50.6384L50.5382 53.7697L49.1002 55.356ZM51.5985 22.1102H53.6989V38.3128H51.5985V22.1102ZM38.8334 27.3714H36.2607V30.6986H34.1634V22.1102H36.2607V25.4373H38.8334V27.3714ZM38.8334 50.9889H36.2607V59.631H34.1634V43.4284H36.2607V49.0341H38.8334V50.9889ZM31.8255 45.8881C31.8255 50.2789 29.6271 53.7042 25.2899 56.063L25.0433 56.1968L24.8859 55.9591C24.6156 55.5431 24.3451 55.1301 24.0927 54.7143L23.9144 54.4263L24.2115 54.2687C27.6991 52.3881 29.6003 49.7443 29.7193 46.616H24.3481V44.6789H31.8253L31.8255 45.8881ZM36.1777 34.1834V35.9807H29.1192V37.0294H36.6826V38.895H27.0365V31.3701H36.3466V33.2208H29.119V34.1834H36.1777ZM24.0718 29.2044C27.3961 28.2685 29.33 26.6405 29.538 24.6115H24.1789V22.7429H31.6561V23.8154C31.6561 27.2763 29.2114 29.8521 24.7698 31.067L24.5145 31.1352L23.7273 29.2995L24.0718 29.2044Z" fill="white"/>
<path d="M45.1018 23.1885C42.425 23.1885 40.5566 25.289 40.5566 28.2893C40.5566 31.3047 42.4252 33.4077 45.1018 33.4077C47.7576 33.4077 49.6142 31.3047 49.6142 28.2893C49.6142 25.289 47.7576 23.1885 45.1018 23.1885ZM45.2055 25.1269C46.7117 25.1269 47.6833 26.3685 47.6833 28.2908C47.6833 30.1949 46.6878 31.4725 45.2055 31.4725C43.7112 31.4725 42.7103 30.1949 42.7103 28.2908C42.7103 26.3685 43.6904 25.1269 45.2055 25.1269Z" fill="white"/>
</svg>
