<svg width="24" height="17" viewBox="0 0 24 17" fill="none" xmlns="http://www.w3.org/2000/svg">
<path d="M23.76 3.68513C23.76 3.68513 23.52 2.01741 22.8 1.29114C21.8933 0.322785 20.8533 0.322785 20.4 0.268987C17.04 0 12 0 12 0C12 0 6.96 0 3.6 0.242089C3.12 0.295886 2.10667 0.295886 1.2 1.26424C0.48 1.99051 0.24 3.65823 0.24 3.65823C0.24 3.65823 0 5.62184 0 7.58544V9.41456C0 11.3782 0.24 13.3418 0.24 13.3418C0.24 13.3418 0.48 15.0095 1.2 15.7358C2.10667 16.7041 3.30667 16.6772 3.84 16.7579C5.76 16.9462 12 17 12 17C12 17 17.04 17 20.4 16.7579C20.88 16.7041 21.8933 16.7041 22.8 15.7358C23.52 15.0095 23.76 13.3418 23.76 13.3418C23.76 13.3418 24 11.3782 24 9.44145V7.61234C24 5.62183 23.76 3.68513 23.76 3.68513ZM9.52 11.6472V4.84177L16 8.25791L9.52 11.6472Z" fill="white"/>
</svg>
