<svg width="24" height="22" viewBox="0 0 24 22" fill="none" xmlns="http://www.w3.org/2000/svg">
<path d="M10.221 10.0831L9.54108 7.93532L8.7932 10.0831H10.221Z" fill="#120A18"/>
<path d="M12.0113 0C5.3711 0 0 4.22765 0 9.47265C0 12.8638 2.26629 15.848 5.68839 17.521C5.43909 18.4479 4.78187 20.9122 4.64589 21.4322C4.48725 22.0878 4.89518 22.0652 5.14448 21.9069C5.3711 21.7487 8.45326 19.6688 9.7677 18.7644C10.4929 18.8775 11.2408 18.9227 11.9887 18.9227C18.6062 18.9227 24 14.695 24 9.45004C24 4.22765 18.6289 0 12.0113 0ZM19.4448 12.2534L17.813 10.0378L17.4504 10.3317C17.4504 10.3317 17.4504 11.4169 17.4504 12.0047C17.4504 12.5021 16.1813 12.5021 16.1813 12.0047C16.1813 11.6882 16.204 7.43795 16.204 6.96319C16.204 6.71451 16.5212 6.57886 16.8612 6.57886C17.1558 6.57886 17.4731 6.6919 17.4731 6.94058C17.4958 7.5736 17.4731 8.7266 17.4731 8.7266C17.4731 8.7266 19.3088 6.89537 19.5807 6.62407C19.8527 6.35278 20.6912 7.18927 20.4193 7.46056C19.966 7.91272 18.7875 9.17875 18.7875 9.17875L20.5099 11.4621C20.8045 11.8917 19.7847 12.683 19.4448 12.2534ZM10.289 6.94058C10.5156 7.41535 11.7167 10.6935 12.0567 11.6204C12.3059 12.2534 11.1275 12.7056 10.8782 12.0725C10.5836 11.2813 10.6516 11.2361 10.6516 11.2361H8.38527L8.13598 12.0952C7.86402 12.7056 6.73088 12.2082 7.00283 11.5978C7.36544 10.7613 8.47592 7.61882 8.77054 6.94058C8.88385 6.66929 9.17847 6.57886 9.47309 6.57886C9.81303 6.55625 10.1756 6.71451 10.289 6.94058ZM7.3881 6.55625C8.15864 6.55625 8.15864 7.75446 7.3881 7.75446C6.57224 7.75446 6.16431 7.75446 6.16431 7.75446V11.8917C6.16431 12.4569 4.87252 12.4569 4.87252 11.8917C4.87252 11.1004 4.87252 7.70925 4.87252 7.70925H3.62606C2.90085 7.70925 2.90085 6.53364 3.62606 6.53364C3.62606 6.53364 6.52691 6.55625 7.3881 6.55625ZM12.4873 11.6656C12.4873 11.6656 12.4873 8.20662 12.4873 7.14405C12.4873 6.75972 12.8272 6.57886 13.1671 6.57886C13.5071 6.57886 13.8244 6.75972 13.8244 7.14405C13.8244 7.91272 13.8244 11.123 13.8244 11.123C13.8244 11.123 14.8895 11.123 15.4561 11.123C16.0453 11.123 16.0453 12.3438 15.4561 12.3438C14.8669 12.3438 13.5751 12.3438 12.9858 12.3438C12.3739 12.3438 12.4873 11.6656 12.4873 11.6656Z" fill="#120A18"/>
</svg>
