<svg width="97" height="164" viewBox="0 0 97 164" fill="none" xmlns="http://www.w3.org/2000/svg">
<g id="tree3">
<g id="Group">
<path id="Vector" d="M51.2029 19.0063C49.9099 27.9896 41.6678 26.54 40.5439 36.3925C40.0068 41.1097 44.1743 41.8827 45.0595 47.3298C46.5813 56.7112 36.3663 59.6238 36.867 68.4247C37.4041 77.8294 46.8696 78.7284 48.0963 89.4699C48.9318 96.798 47.6487 103.313 54.0508 109.152C66.8416 120.816 83.9989 110.17 84.6553 96.2738C85.1858 85.0778 96.4583 85.1574 95.8615 76.2371C95.3343 68.3783 89.7975 65.9931 89.3234 58.1277C88.7664 48.8358 96.6273 46.3744 96.1101 38.7378C95.5631 30.6701 90.076 28.0659 84.7813 20.2238C78.5383 10.9816 82.8584 3.19583 69.5835 0.306429C59.5046 -1.88633 52.7777 8.07564 51.2029 19.0096V19.0063Z" fill="#69AF62"/>
<path id="Vector_2" d="M60.718 149.805C60.718 149.805 63.9837 79.9289 64.3948 71.7583C64.8026 63.5843 57.4523 46.8318 57.8601 44.7883C58.2679 42.7448 64.8026 56.6378 64.8026 56.6378C64.8026 56.6378 68.4794 35.7983 74.6029 29.2598C80.7298 22.7213 68.4761 43.9689 67.6605 61.1328C66.8449 78.2934 68.0682 72.5743 71.3372 69.7148C74.6029 66.8552 81.1376 62.3602 80.322 64.8118C79.5064 67.2633 71.3372 71.7583 69.7027 81.1563C68.0682 90.5543 68.8871 149.805 68.8871 149.805H60.718Z" fill="#F5D4BE"/>
</g>
<g id="Group_2">
<path id="Vector_3" d="M10.4532 49.4365C9.73046 56.8143 2.3306 56.0645 1.80013 64.1456C1.54816 68.0136 5.29124 68.425 6.33891 72.8105C8.14249 80.3674 -0.809095 83.2701 0.0595423 90.409C0.987857 98.0356 9.45199 98.2711 11.0533 106.949C12.1474 112.871 11.3153 118.238 17.293 122.657C29.2318 131.481 43.9854 121.92 43.9058 110.575C43.8428 101.436 53.8752 100.908 52.917 93.6799C52.0749 87.3106 47.0322 85.6586 46.2365 79.2826C45.2949 71.7489 52.1744 69.3372 51.3456 63.1471C50.4736 56.6119 45.4673 54.7774 40.3814 48.6702C34.3872 41.4749 37.8551 34.9099 25.9097 33.2545C16.8387 31.9972 11.3286 40.4565 10.45 49.4365H10.4532Z" fill="#579B65"/>
<path id="Vector_4" d="M25.4325 163.572C25.4325 163.572 24.0002 102.875 23.8609 95.7758C23.7184 88.6767 15.2807 74.1269 15.5492 72.3521C15.8178 70.5773 23.2543 82.6425 23.2543 82.6425C23.2543 82.6425 25.5153 64.5364 31.1747 58.8571C36.8341 53.1745 26.0624 71.6389 26.4006 86.547C26.7387 101.455 27.5742 96.4857 30.6344 93.9977C33.6945 91.5097 39.8976 87.6019 39.2478 89.7349C38.598 91.8647 30.7703 95.7725 29.7757 103.94C28.7811 112.104 33.5651 163.572 33.5651 163.572H25.4357H25.4325Z" fill="#F5D4BE"/>
</g>
</g>
</svg>
