<svg width="20" height="18" viewBox="0 0 20 18" fill="none" xmlns="http://www.w3.org/2000/svg">
<path d="M8.51747 8.24978L7.9509 6.49254L7.32767 8.24978H8.51747Z" fill="#888888"/>
<path d="M10.0094 0C4.47592 0 0 3.45899 0 7.75035C0 10.5249 1.88857 12.9666 4.74032 14.3354C4.53258 15.0938 3.98489 17.11 3.87158 17.5354C3.73938 18.0718 4.07932 18.0533 4.28706 17.9238C4.47592 17.7944 7.04438 16.0926 8.13975 15.3527C8.7441 15.4452 9.36733 15.4822 9.99056 15.4822C15.5052 15.4822 20 12.0232 20 7.73185C20 3.45899 15.5241 0 10.0094 0ZM16.204 10.0255L14.8442 8.21278L14.542 8.45325C14.542 8.45325 14.542 9.34112 14.542 9.82204C14.542 10.229 13.4844 10.229 13.4844 9.82204C13.4844 9.56308 13.5033 6.0856 13.5033 5.69716C13.5033 5.49369 13.7677 5.3827 14.051 5.3827C14.2965 5.3827 14.5609 5.47519 14.5609 5.67866C14.5798 6.19658 14.5609 7.13994 14.5609 7.13994C14.5609 7.13994 16.0907 5.64166 16.3173 5.4197C16.5439 5.19773 17.2427 5.88213 17.0161 6.1041C16.6383 6.47404 15.6563 7.50989 15.6563 7.50989L17.0916 9.37811C17.3371 9.72956 16.4873 10.377 16.204 10.0255ZM8.57413 5.67866C8.76298 6.0671 9.76393 8.7492 10.0472 9.50759C10.255 10.0255 9.2729 10.3955 9.06516 9.87754C8.81964 9.23013 8.8763 9.19314 8.8763 9.19314H6.98772L6.77998 9.89603C6.55335 10.3955 5.60907 9.98852 5.83569 9.48909C6.13787 8.8047 7.06327 6.23358 7.30878 5.67866C7.40321 5.45669 7.64873 5.3827 7.89424 5.3827C8.17753 5.36421 8.4797 5.49369 8.57413 5.67866ZM6.15675 5.36421C6.79887 5.36421 6.79887 6.34456 6.15675 6.34456C5.47686 6.34456 5.13692 6.34456 5.13692 6.34456V9.72956C5.13692 10.192 4.06043 10.192 4.06043 9.72956C4.06043 9.08215 4.06043 6.30757 4.06043 6.30757H3.02172C2.41737 6.30757 2.41737 5.34571 3.02172 5.34571C3.02172 5.34571 5.43909 5.36421 6.15675 5.36421ZM10.406 9.54459C10.406 9.54459 10.406 6.71451 10.406 5.84513C10.406 5.53068 10.6893 5.3827 10.9726 5.3827C11.2559 5.3827 11.5203 5.53068 11.5203 5.84513C11.5203 6.47404 11.5203 9.10065 11.5203 9.10065C11.5203 9.10065 12.4079 9.10065 12.8801 9.10065C13.3711 9.10065 13.3711 10.0995 12.8801 10.0995C12.389 10.0995 11.3126 10.0995 10.8215 10.0995C10.3116 10.0995 10.406 9.54459 10.406 9.54459Z" fill="#888888"/>
</svg>
