<svg width="26" height="37" viewBox="0 0 26 37" fill="none" xmlns="http://www.w3.org/2000/svg">
<g id="flower" clip-path="url(#clip0_245_7)">
<path id="Vector" d="M12.4545 35.6903C12.8439 37.7165 5.71154 35.5388 5.37475 31.6132C5.06953 28.0154 -0.670051 26.8632 0.063183 23.579C0.473654 21.7325 3.01717 21.5034 5.27652 23.9349C7.58848 26.4227 6.26936 29.4778 7.40605 29.9747C9.3286 30.8133 11.6476 31.2538 12.451 35.6938L12.4545 35.6903Z" fill="#8CC63F"/>
<path id="Vector_2" d="M13.6158 11.5273C13.6158 11.5273 15.3419 24.9002 12.3528 36.12" stroke="#8CC63F" stroke-width="5" stroke-miterlimit="10" stroke-linecap="round"/>
<path id="Vector_3" d="M13.6332 15.6855C23.2004 15.9674 21.8426 4.05688 21.2918 3.87012C20.741 3.68688 20.3937 5.14574 19.2921 4.9625C18.1905 4.77926 18.9062 0.737453 18.173 0.737453C17.4397 0.737453 16.3136 2.90107 15.5803 2.90107C14.8471 2.90107 13.9525 0.000976562 13.2192 0.000976562C12.486 0.000976562 12.2054 3.10898 11.6335 3.44374C10.4617 4.13088 9.732 2.03069 8.44796 2.03069C7.16393 2.03069 8.86896 5.66374 7.77086 5.84698C6.66926 6.03021 6.43069 4.28945 5.32909 4.47269C4.22748 4.65593 4.06961 15.4071 13.6332 15.6855Z" fill="#FBAE17"/>
<path id="Vector_4" d="M13.4998 31.4614C13.2578 33.699 20.8111 30.6862 20.8217 26.3907C20.8322 22.4546 26.9612 20.6856 25.8701 17.1794C25.2561 15.2096 22.4741 15.192 20.2393 18.0392C17.9519 20.9499 19.6604 24.1531 18.4676 24.7944C16.4573 25.8762 13.9735 26.5669 13.4998 31.465V31.4614Z" fill="#8CC63F"/>
</g>
<defs>
<clipPath id="clip0_245_7">
<rect width="26" height="37" fill="white" transform="translate(0 0.000976562)"/>
</clipPath>
</defs>
</svg>
