<svg width="154" height="108" viewBox="0 0 154 108" fill="none" xmlns="http://www.w3.org/2000/svg">
<g id="Frame 9" clip-path="url(#clip0_42_2676)">
<g id="Vector">
<path d="M76.339 229.718H59.5745V211.04H76.339V229.718Z" fill="#F6AAA2"/>
<path d="M45.4806 224.656C44.3702 225.283 43.4892 225.845 43.0208 226.276C40.5721 228.523 40.5254 230.801 40.5254 230.801H49.8069C48.7197 226.483 46.8198 225.084 45.4806 224.657V224.656Z" fill="#FFF0DF"/>
<path d="M76.3334 230.8V221.813C76.3334 221.813 72.5942 224.092 68.2614 223.523C65.6849 223.184 62.9078 221.367 61.0797 219.95C59.7266 218.901 57.9115 218.687 56.3503 219.384C53.4407 220.682 48.8018 222.811 45.7391 224.51C45.6505 224.559 45.5665 224.607 45.4806 224.656C46.8198 225.084 48.7197 226.482 49.8069 230.8H76.3334Z" fill="#F095B0"/>
<path d="M40.5254 230.8H76.3334C76.3306 230.767 76.3288 230.733 76.3241 230.7" fill="#FFCE90"/>
<path d="M52.6904 225.854C52.7454 225.854 52.8014 225.835 52.8462 225.795C52.947 225.709 52.9591 225.555 52.8724 225.454L50.1148 222.202C50.029 222.099 49.8768 222.088 49.7761 222.176C49.6753 222.262 49.6631 222.415 49.7499 222.517L52.5075 225.769C52.5551 225.825 52.6223 225.854 52.6904 225.854Z" fill="#FFF0DF"/>
<path d="M54.9114 224.753C54.9664 224.753 55.0224 224.734 55.0672 224.695C55.168 224.608 55.1801 224.455 55.0933 224.353L52.3358 221.1C52.249 220.999 52.0969 220.987 51.9961 221.074C51.8953 221.161 51.8832 221.314 51.97 221.416L54.7275 224.668C54.7751 224.725 54.8423 224.753 54.9104 224.753H54.9114Z" fill="#FFF0DF"/>
<path d="M57.1333 223.652C57.1883 223.652 57.2443 223.634 57.2891 223.594C57.3899 223.508 57.402 223.354 57.3152 223.253L54.5577 220.001C54.4709 219.899 54.3197 219.887 54.218 219.974C54.1172 220.061 54.1051 220.214 54.1919 220.316L56.9494 223.568C56.997 223.624 57.0642 223.652 57.1323 223.652H57.1333Z" fill="#FFF0DF"/>
<path d="M42.0895 234H74.7676C75.6317 234 76.3325 233.294 76.3325 232.422V230.801H40.5245V232.422C40.5245 233.294 41.2253 234 42.0895 234Z" fill="#FFF0DF"/>
<path d="M49.2423 229.225C49.2777 229.225 49.3141 229.217 49.3487 229.201L63.8689 222.003C63.9884 221.943 64.0369 221.798 63.9791 221.678C63.9203 221.558 63.7766 221.509 63.6571 221.567L49.1368 228.765C49.0174 228.824 48.9689 228.969 49.0267 229.09C49.0687 229.175 49.1546 229.225 49.2432 229.225H49.2423Z" fill="#323232"/>
<path d="M49.8059 231.042C49.8255 231.042 49.8451 231.04 49.8657 231.035C49.9944 231.002 50.0728 230.869 50.0402 230.74C48.9353 226.351 46.9905 224.883 45.5534 224.424C45.4265 224.382 45.2912 224.454 45.2511 224.582C45.2109 224.71 45.2809 224.846 45.4078 224.887C46.7283 225.309 48.5228 226.687 49.5726 230.859C49.6006 230.969 49.6986 231.042 49.8059 231.042V231.042Z" fill="#323232"/>
<path d="M40.5254 231.042H76.3334C76.4659 231.042 76.5742 230.934 76.5742 230.8C76.5742 230.665 76.4669 230.557 76.3334 230.557H40.5254C40.392 230.557 40.2847 230.665 40.2847 230.8C40.2847 230.934 40.392 231.042 40.5254 231.042Z" fill="#323232"/>
<path d="M140.788 211.933L126.538 220.836L116.777 204.96L131.026 196.057L140.788 211.933Z" fill="#F6AAA2"/>
<path d="M111.909 224.02C111.292 225.143 110.838 226.089 110.664 226.703C109.757 229.914 110.908 231.874 110.908 231.874L118.797 226.945C115.617 223.853 113.271 223.672 111.909 224.02Z" fill="#FFF0DF"/>
<path d="M141.343 212.858L136.647 205.22C136.647 205.22 134.659 209.142 130.679 210.959C128.312 212.04 125.002 211.97 122.708 211.736C121.009 211.563 119.355 212.344 118.392 213.766C116.596 216.415 113.766 220.687 112.052 223.759C112.002 223.847 111.956 223.933 111.908 224.02C113.27 223.673 115.616 223.853 118.796 226.945L118.903 226.878L141.343 212.857V212.858Z" fill="#F095B0"/>
<path d="M110.908 231.874L141.343 212.858C141.324 212.832 141.305 212.804 141.283 212.778" fill="#FFCE90"/>
<path d="M118.536 221.246C118.637 221.246 118.732 221.18 118.765 221.077C118.805 220.949 118.735 220.813 118.609 220.772L114.566 219.472C114.44 219.432 114.304 219.502 114.263 219.63C114.223 219.758 114.293 219.894 114.419 219.935L118.463 221.235C118.487 221.242 118.511 221.246 118.536 221.246Z" fill="#FFF0DF"/>
<path d="M119.849 219.131C119.951 219.131 120.046 219.065 120.079 218.961C120.119 218.833 120.049 218.697 119.923 218.656L115.88 217.356C115.754 217.315 115.618 217.387 115.577 217.514C115.537 217.641 115.607 217.778 115.733 217.818L119.777 219.118C119.801 219.126 119.825 219.13 119.849 219.13V219.131Z" fill="#FFF0DF"/>
<path d="M121.162 217.016C121.264 217.016 121.359 216.95 121.392 216.847C121.432 216.719 121.362 216.582 121.236 216.542L117.193 215.242C117.067 215.2 116.931 215.272 116.89 215.4C116.85 215.528 116.92 215.664 117.046 215.705L121.09 217.005C121.114 217.012 121.138 217.016 121.162 217.016Z" fill="#FFF0DF"/>
<path d="M141.686 216.409L113.911 233.763C113.176 234.222 112.211 233.993 111.756 233.253L110.909 231.874L141.344 212.858L142.192 214.237C142.647 214.977 142.42 215.95 141.686 216.409Z" fill="#FFF0DF"/>
<path d="M117.367 225.943C117.447 225.943 117.526 225.903 117.572 225.829L126.151 211.999C126.222 211.885 126.188 211.736 126.075 211.665C125.962 211.594 125.813 211.629 125.743 211.742L117.164 225.572C117.093 225.686 117.127 225.836 117.24 225.906C117.28 225.932 117.324 225.943 117.368 225.943H117.367Z" fill="#323232"/>
<path d="M118.797 227.188C118.86 227.188 118.923 227.163 118.97 227.113C119.063 227.016 119.06 226.863 118.964 226.77C115.731 223.627 113.311 223.412 111.85 223.784C111.721 223.817 111.643 223.949 111.676 224.079C111.708 224.208 111.839 224.287 111.968 224.255C113.311 223.911 115.556 224.13 118.629 227.119C118.676 227.164 118.736 227.187 118.796 227.187L118.797 227.188Z" fill="#323232"/>
<path d="M110.909 232.117C110.952 232.117 110.995 232.105 111.036 232.08L141.471 213.064C141.584 212.994 141.619 212.844 141.549 212.73C141.479 212.616 141.33 212.581 141.217 212.652L110.782 231.668C110.669 231.739 110.634 231.888 110.704 232.002C110.75 232.076 110.828 232.117 110.91 232.117H110.909Z" fill="#323232"/>
<path d="M66.0143 89.6009L57.1333 217.077H79.4372L85.8603 119.032L89.7162 151.484C90.0297 154.126 90.7651 156.701 91.8933 159.107L116.377 211.336L134.205 200.354L111.964 150.595C111.964 150.595 110.663 111.491 108.581 101.996C106.499 92.502 102.863 89.6009 102.863 89.6009H66.0143Z" fill="#6D5158"/>
<path d="M127.754 115.059C127.754 115.059 134.721 123.921 136.07 124.733C137.419 125.545 138.365 124.293 136.07 122.151C136.07 122.151 139.691 124.708 140.983 125.267C142.276 125.826 142.84 124.375 142.219 123.737C142.219 123.737 142.989 124.013 143.38 123.32C143.771 122.627 142.908 121.897 142.908 121.897C142.908 121.897 143.968 122.243 144.272 121.394C144.575 120.546 143.643 119.763 143.643 119.763C143.643 119.763 144.515 119.972 144.917 119.13C145.318 118.288 144.201 117.319 143.077 116.448C141.954 115.577 133.471 106.624 133.471 106.624L127.753 115.059H127.754Z" fill="#F6AAA2"/>
<path d="M142.22 123.979C142.296 123.979 142.371 123.943 142.418 123.875C142.493 123.765 142.466 123.613 142.356 123.537L135.599 118.832C135.49 118.756 135.339 118.783 135.264 118.894C135.188 119.004 135.215 119.155 135.325 119.232L142.083 123.937C142.125 123.966 142.172 123.98 142.219 123.98L142.22 123.979Z" fill="#323232"/>
<path d="M142.909 122.139C142.982 122.139 143.053 122.106 143.101 122.044C143.181 121.938 143.161 121.786 143.056 121.704L136.783 116.874C136.678 116.793 136.526 116.814 136.445 116.919C136.365 117.026 136.385 117.178 136.49 117.26L142.763 122.089C142.807 122.123 142.858 122.139 142.908 122.139H142.909Z" fill="#323232"/>
<path d="M143.644 120.005C143.714 120.005 143.783 119.975 143.83 119.915C143.914 119.812 143.899 119.659 143.796 119.574L137.911 114.738C137.809 114.653 137.656 114.669 137.572 114.773C137.488 114.876 137.503 115.03 137.607 115.114L143.492 119.95C143.536 119.987 143.591 120.005 143.644 120.005Z" fill="#323232"/>
<path d="M29.1304 51.98L36.8385 46.9276C36.8385 46.9276 34.9758 39.4134 33.4977 38.5451C32.0195 37.6769 30.183 37.9318 30.183 37.9318C30.183 37.9318 24.9637 30.1043 23.5481 30.7948C22.1325 31.4853 23.5042 32.9198 27.1399 38.5715C27.1399 38.5715 25.6552 39.1453 25.2913 40.4002C25.2913 40.4002 23.9522 40.6748 24.0921 42.6089C24.0921 42.6089 23.1795 43.8478 23.6619 44.9249C24.1444 46.0019 29.1322 51.98 29.1322 51.98H29.1304Z" fill="#F6AAA2"/>
<path d="M28.4538 44.4254C28.5089 44.4254 28.5639 44.4065 28.6087 44.368C28.7105 44.2814 28.7235 44.1281 28.6377 44.0265L25.4733 40.2431C25.3874 40.1405 25.2362 40.1274 25.1345 40.2139C25.0328 40.3004 25.0197 40.4538 25.1056 40.5554L28.27 44.3388C28.3176 44.3953 28.3857 44.4254 28.4538 44.4254Z" fill="#323232"/>
<path d="M27.153 45.906C27.2155 45.906 27.2771 45.8825 27.3237 45.8336C27.4171 45.7386 27.4161 45.5852 27.3219 45.4902L24.2592 42.4358C24.1649 42.3417 24.0119 42.3427 23.9186 42.4377C23.8253 42.5327 23.8262 42.686 23.9204 42.781L26.9831 45.8354C27.0298 45.8825 27.0914 45.906 27.152 45.906H27.153Z" fill="#323232"/>
<path d="M26.4419 47.2568C26.7536 47.2568 27.0121 47.1599 27.2118 46.9671C27.5347 46.6557 27.6056 46.1703 27.6158 45.8674C28.0012 45.8543 28.2961 45.7254 28.4949 45.4836C28.7655 45.1544 28.772 44.701 28.7384 44.4084C29.3907 44.3529 30.1709 44.1441 30.1326 42.8243C30.1028 41.8112 27.6084 38.7615 27.3237 38.4163C27.2388 38.3137 27.0867 38.2987 26.985 38.3852C26.8824 38.4708 26.8693 38.6241 26.9542 38.7267C27.9872 39.9778 29.6334 42.2006 29.652 42.8384C29.6828 43.8751 29.1621 43.9023 28.4417 43.9409C28.3689 43.9447 28.3017 43.9823 28.2588 44.0425C28.2159 44.1027 28.2028 44.1789 28.2224 44.2495C28.2681 44.4169 28.3409 44.9126 28.1235 45.1751C27.9872 45.3397 27.7409 45.4065 27.39 45.3764C27.3182 45.3689 27.2472 45.3961 27.1968 45.4488C27.1464 45.5006 27.1222 45.5721 27.1297 45.6445C27.1483 45.8289 27.1408 46.3651 26.8777 46.6181C26.7349 46.7545 26.5287 46.8006 26.2497 46.7564C26.1162 46.7347 25.9949 46.8269 25.9753 46.9596C25.9548 47.0922 26.0453 47.2164 26.1769 47.2361C26.2693 47.2502 26.3579 47.2578 26.4419 47.2578V47.2568Z" fill="#323232"/>
<path d="M28.6713 40.8169C28.6843 40.8169 28.6965 40.8169 28.7095 40.8141C28.8411 40.7924 28.9307 40.6683 28.9092 40.5366C28.7497 39.5347 29.5251 38.3532 30.2418 38.167C30.3706 38.1331 30.448 38.0014 30.4154 37.8716C30.3818 37.7418 30.2493 37.6637 30.1224 37.6966C29.1911 37.9374 28.2289 39.3306 28.4333 40.6128C28.452 40.7322 28.5546 40.8169 28.6703 40.8169H28.6713Z" fill="#323232"/>
<path d="M31.9365 47.9228C32.0102 47.9228 32.083 47.889 32.1306 47.8241C32.2099 47.7159 32.1866 47.5644 32.0802 47.4845C32.0559 47.4666 29.6763 45.6511 30.1298 42.8695C30.1513 42.7368 30.0627 42.6127 29.9311 42.591C29.7995 42.5675 29.6763 42.6588 29.6548 42.7914C29.1519 45.8703 31.6854 47.7949 31.7937 47.8758C31.8366 47.9078 31.887 47.9228 31.9365 47.9228Z" fill="#323232"/>
<path d="M29.3096 41.7707C29.3544 41.7707 29.3992 41.7585 29.4393 41.7322C29.8051 41.4942 30.8549 40.8479 31.3056 40.7087C31.4326 40.6692 31.5044 40.5337 31.4652 40.4058C31.427 40.2779 31.2926 40.2045 31.1647 40.2449C30.5572 40.4312 29.2349 41.2882 29.1789 41.3239C29.0669 41.3963 29.0352 41.5469 29.1071 41.6588C29.1528 41.7312 29.2302 41.7698 29.3096 41.7698V41.7707Z" fill="#323232"/>
<path d="M36.8385 46.9276L44.4887 59.8752L45.7373 52.8718C46.9103 46.2898 52.5924 41.4998 59.2264 41.4998H92.218C97.3141 41.4998 101.989 44.3501 104.356 48.9002L135.462 108.714L126.125 116.007L102.322 78.5854L102.861 89.5999H66.0134L57.5737 67.3555L53.6917 79.0238C53.5685 79.6842 53.3548 80.3267 53.0562 80.9334C52.5868 81.8863 51.9056 82.7489 51.0256 83.4422C47.3069 86.3696 41.8496 84.999 39.9282 80.655L27.32 52.1446L36.8366 46.9276H36.8385Z" fill="#75AAD5"/>
<path d="M46.7983 66.8739H48.5387V76.7483H46.7983V66.8739Z" fill="#92BFDE"/>
<path d="M36.7834 73.5424L36.5874 73.0994L36.9056 73.4201L36.7834 73.5424Z" fill="#92BFDE"/>
<path d="M37.2453 58.9383H30.3258L29.5503 57.1839H37.2453V58.9383Z" fill="#92BFDE"/>
<path d="M63.2101 44.4987H64.9505V54.3731H63.2101V44.4987Z" fill="#92BFDE"/>
<path d="M52.0872 49.8034L53.3179 51.0439L46.3913 58.0261L45.1607 56.7856L52.0872 49.8034Z" fill="#92BFDE"/>
<path d="M77.652 76.1425H79.3924V86.0169H77.652V76.1425Z" fill="#92BFDE"/>
<path d="M67.7594 82.6887L64.5996 85.8739L63.9193 84.0791L66.5294 81.448L67.7594 82.6887Z" fill="#92BFDE"/>
<path d="M58.3035 66.4525H68.0991V68.2069H58.3035V66.4525Z" fill="#92BFDE"/>
<path d="M94.0648 53.7673H95.8052V63.6417H94.0648V53.7673Z" fill="#92BFDE"/>
<path d="M82.9409 59.0721L84.1716 60.3127L77.245 67.2949L76.0144 66.0544L82.9409 59.0721Z" fill="#92BFDE"/>
<path d="M74.7153 44.0773H84.5109V45.8317H74.7153V44.0773Z" fill="#92BFDE"/>
<path d="M92.4271 43.6794L94.4119 41.6786C95.0885 41.7896 95.752 41.9485 96.3977 42.1574L93.6579 44.9192L92.4271 43.6785V43.6794Z" fill="#92BFDE"/>
<path d="M110.247 85.4111V91.0439L108.507 88.3084V85.4111H110.247Z" fill="#92BFDE"/>
<path d="M89.1572 75.7211H98.9528V77.4754H89.1572V75.7211Z" fill="#92BFDE"/>
<path d="M113.795 68.3409L115.025 69.5814L108.099 76.5637L106.868 75.3232L113.795 68.3409Z" fill="#92BFDE"/>
<path d="M105.569 53.3459H106.667L107.579 55.1003H105.569V53.3459Z" fill="#92BFDE"/>
<path d="M128.236 99.9842L129.467 101.225L122.54 108.207L121.31 106.966L128.236 99.9842Z" fill="#92BFDE"/>
<path d="M120.011 84.9896H123.124L124.036 86.744H120.011V84.9896Z" fill="#92BFDE"/>
<path d="M57.5737 67.5992C57.6026 67.5992 57.6316 67.5935 57.6605 67.5832C57.7846 67.5352 57.8462 67.3941 57.7977 67.269L52.3927 53.1935C52.3451 53.0684 52.2051 53.0063 52.081 53.0552C51.9569 53.1032 51.8953 53.2443 51.9438 53.3694L57.3488 67.4449C57.3861 67.5408 57.4767 67.6001 57.5737 67.6001V67.5992Z" fill="#323232"/>
<path d="M52.1697 72.4145C52.2154 72.4145 52.2611 72.4014 52.3022 72.3741C52.4132 72.2998 52.444 72.1493 52.3703 72.0383L44.61 60.1847C44.5363 60.0727 44.3869 60.0426 44.2768 60.116C44.1658 60.1903 44.135 60.3408 44.2087 60.4518L51.969 72.3054C52.0148 72.376 52.0922 72.4145 52.1697 72.4145Z" fill="#323232"/>
<path d="M102.429 78.9956C102.473 78.9956 102.517 78.9834 102.557 78.958C102.67 78.8865 102.703 78.7369 102.632 78.624L90.6307 59.3428C90.5598 59.2289 90.4114 59.1951 90.2985 59.2666C90.1856 59.3381 90.152 59.4876 90.2229 59.6005L102.225 78.8818C102.27 78.9551 102.349 78.9956 102.429 78.9956Z" fill="#323232"/>
<path d="M76.423 29.6716L80.1585 41.4998L71.7142 50.0525L68.1121 41.4998L67.0044 33.8492C67.0044 33.8492 72.9964 26.9737 76.423 29.6716Z" fill="#F6AAA2"/>
<path d="M76.423 29.6716C76.423 29.6716 76.423 37.3514 67.8172 39.4632L67.0044 33.8492L76.423 29.6716Z" fill="#F48D8D"/>
<path d="M60.5711 28.2503C61.3923 33.3384 66.033 37.0974 71.591 35.4014C75.2416 34.2866 77.0576 30.8992 77.191 27.3519C77.2759 25.0848 77.1789 22.1405 76.4342 19.9901C74.4493 14.2651 68.3445 14.7533 68.3445 14.7533C65.0793 14.8906 62.9834 16.0176 61.6713 17.6497C59.3421 20.5225 60.0476 25.0049 60.5711 28.2512V28.2503Z" fill="#F6AAA2"/>
<path d="M65.8249 28.7479C65.9434 28.7479 66.047 28.6595 66.0629 28.5372C66.0797 28.4045 65.9873 28.2822 65.8557 28.2653L64.7377 28.1176L65.7801 25.0406C65.823 24.9136 65.7558 24.7763 65.6299 24.733C65.5039 24.6898 65.3676 24.7575 65.3247 24.8845L64.1872 28.2418C64.1638 28.3105 64.1722 28.3867 64.2105 28.4478C64.2488 28.5099 64.3122 28.5513 64.3841 28.5607L65.7941 28.7469C65.8044 28.7488 65.8156 28.7488 65.8258 28.7488L65.8249 28.7479Z" fill="#323232"/>
<path d="M68.5171 24.6615C68.5946 25.1394 68.9641 25.4752 69.3439 25.4131C69.7237 25.3511 69.9682 24.9136 69.8917 24.4358C69.8142 23.9579 69.4447 23.6221 69.0649 23.6842C68.6851 23.7462 68.4406 24.1837 68.5171 24.6615Z" fill="black"/>
<path d="M61.8859 25.7725C61.9634 26.2504 62.3329 26.5862 62.7127 26.5241C63.0925 26.462 63.337 26.0246 63.2605 25.5467C63.184 25.0689 62.8135 24.733 62.4337 24.7951C62.0539 24.8572 61.8094 25.2946 61.8859 25.7725Z" fill="black"/>
<path d="M61.1823 23.9043C61.1982 24.0002 61.6834 23.8224 62.3012 23.7208C62.919 23.6193 63.435 23.6343 63.4201 23.5374C63.4042 23.4415 62.863 23.2703 62.2452 23.3719C61.6274 23.4734 61.1674 23.8083 61.1833 23.9043H61.1823Z" fill="#323251"/>
<path d="M67.8723 22.8074C67.8882 22.9034 68.3734 22.7256 68.9912 22.624C69.6089 22.5224 70.125 22.5375 70.1101 22.4406C70.0942 22.3446 69.5529 22.1734 68.9352 22.275C68.3174 22.3766 67.8574 22.7115 67.8732 22.8074H67.8723Z" fill="#323251"/>
<path d="M70.3098 29.5522L64.832 30.7882C64.832 30.7882 65.7736 33.377 68.0393 33.0769C70.3051 32.7768 70.3088 29.5522 70.3088 29.5522H70.3098Z" fill="#F15F62"/>
<path d="M85.8593 119.274C85.8696 119.274 85.8799 119.274 85.8901 119.272C86.0217 119.255 86.115 119.134 86.0992 119.001L84.7395 108.126C84.7227 107.992 84.6023 107.9 84.4708 107.915C84.3392 107.932 84.2459 108.053 84.2617 108.186L85.6214 119.061C85.6363 119.184 85.7399 119.274 85.8603 119.274H85.8593Z" fill="#323232"/>
<path d="M77.0193 108.399H92.0893C92.2218 108.399 92.33 108.29 92.33 108.156C92.33 108.021 92.2227 107.913 92.0893 107.913H77.0193C76.8868 107.913 76.7786 108.021 76.7786 108.156C76.7786 108.29 76.8859 108.399 77.0193 108.399Z" fill="#323232"/>
<path d="M86.1542 108.399C86.1682 108.399 86.1813 108.398 86.1953 108.395C86.3259 108.372 86.4137 108.246 86.3913 108.115L83.1886 89.5586C83.1653 89.4269 83.0421 89.3403 82.9105 89.361C82.7799 89.3836 82.6921 89.5096 82.7145 89.6413L85.9172 108.197C85.9377 108.315 86.0394 108.399 86.1542 108.399Z" fill="#323232"/>
<path d="M85.306 103.479C85.3834 103.479 85.4599 103.441 85.5066 103.371C85.5803 103.259 85.5505 103.108 85.4394 103.034L81.9036 100.66L79.9878 89.5586C79.9654 89.4269 79.8413 89.3403 79.7097 89.361C79.579 89.3836 79.4913 89.5096 79.5137 89.6413L81.4473 100.844C81.4585 100.91 81.4958 100.967 81.5508 101.005L85.1725 103.437C85.2136 103.465 85.2602 103.478 85.306 103.478V103.479Z" fill="#323232"/>
<path d="M79.2328 38.5715L82.764 41.4989L77.1901 52.9L71.7133 50.0516L67.5709 52.9L65.8249 41.4989L67.8826 39.9176L71.7133 50.0516L79.2328 38.5715Z" fill="#FFF0DF"/>
<path d="M77.0445 22.8357L69.6416 16.5698C69.6416 16.5698 69.2646 20.3673 67.0044 21.6965L67.2555 17.8989C67.2555 17.8989 64.6808 22.6447 59.4065 23.3418C59.4065 23.3418 56.9578 14.7439 64.4149 11.95C73.0216 8.72537 75.6065 14.7439 75.6065 14.7439C75.6065 14.7439 79.9392 14.7439 80.1576 18.976C80.4469 24.5675 78.9697 26.002 78.9697 26.002L77.0445 22.8375V22.8357Z" fill="#323251"/>
<path d="M74.5884 25.0538C74.8012 26.3708 75.7931 27.3547 77.0119 27.6059C77.3767 27.683 77.7575 27.6952 78.1401 27.6322C79.8226 27.3566 80.9667 25.7556 80.6914 24.0529C80.418 22.3569 78.8297 21.2036 77.1472 21.4801C77.0156 21.5018 76.884 21.53 76.7618 21.5704C75.2883 22.0097 74.3355 23.4904 74.5875 25.0538H74.5884Z" fill="#F6AAA2"/>
<path d="M77.5027 25.8167C77.5148 25.8167 77.527 25.8158 77.5391 25.8139C77.6707 25.7941 77.7612 25.6709 77.7416 25.5383C77.4869 23.8271 78.5255 22.9194 78.5693 22.8818C78.6701 22.7952 78.6841 22.6428 78.5983 22.5403C78.5134 22.4378 78.3622 22.4246 78.2605 22.5092C78.2073 22.5535 76.9699 23.6202 77.2657 25.6097C77.2834 25.7302 77.3861 25.8167 77.5036 25.8167H77.5027Z" fill="#323232"/>
<path d="M77.4869 24.8243C77.568 24.8243 77.6474 24.7829 77.6931 24.7076C78.0374 24.1366 78.9389 24.2091 78.9482 24.21C79.0807 24.226 79.1974 24.1235 79.2095 23.9899C79.2216 23.8563 79.1246 23.7387 78.9921 23.7265C78.9436 23.7218 77.7836 23.624 77.2816 24.4555C77.2125 24.5703 77.2489 24.7189 77.3618 24.7885C77.401 24.812 77.4439 24.8243 77.4869 24.8243Z" fill="#323232"/>
<path d="M71.4879 54.4337C71.3635 53.8996 71.6921 53.3649 72.2219 53.2395C72.7517 53.114 73.2821 53.4453 73.4066 53.9793C73.5311 54.5134 73.2025 55.0481 72.6726 55.1736C72.1428 55.299 71.6124 54.9678 71.4879 54.4337Z" fill="#FFF0DF"/>
<path d="M76.0452 70.7906C75.5429 70.5793 75.3057 69.9976 75.5153 69.4913C75.7249 68.985 76.3019 68.7458 76.8042 68.9571C77.3065 69.1684 77.5437 69.7501 77.3341 70.2564C77.1245 70.7627 76.5475 71.0019 76.0452 70.7906Z" fill="#FFF0DF"/>
<path d="M80.0222 86.4464C79.5193 86.2365 79.2806 85.6554 79.4889 85.1485C79.6971 84.6417 80.2736 84.401 80.7764 84.6109C81.2792 84.8209 81.518 85.402 81.3097 85.9088C81.1014 86.4157 80.525 86.6564 80.0222 86.4464Z" fill="#FFF0DF"/>
</g>
<g id="Vector_2">
<path d="M135 17.844C135 11.854 130.073 6.99819 123.997 7C117.904 7.00182 113 11.838 113 17.844C113 20.546 114.002 23.0171 115.661 24.9156C117.277 26.7655 118.207 29.1015 118.302 31.5406H129.698C129.793 29.1073 130.713 26.7713 132.327 24.9287C133.992 23.0283 135 20.5521 135 17.844H135Z" fill="#FFDD61"/>
<path d="M120.939 31.6347C120.894 31.6347 120.855 31.6034 120.846 31.5588L118.285 18.5523C118.275 18.5015 118.308 18.4525 118.36 18.4427C118.411 18.4329 118.461 18.4659 118.471 18.5167L121.032 31.5232C121.042 31.574 121.009 31.623 120.957 31.6328C120.951 31.6339 120.945 31.6347 120.939 31.6347Z" fill="#323232"/>
<path d="M127.061 31.6347C127.055 31.6347 127.049 31.6339 127.043 31.6328C126.991 31.623 126.958 31.574 126.968 31.5232L129.529 18.5167C129.539 18.4659 129.589 18.4329 129.64 18.4427C129.692 18.4525 129.725 18.5015 129.715 18.5523L127.154 31.5588C127.145 31.6034 127.106 31.6347 127.061 31.6347Z" fill="#323232"/>
<path d="M122.126 18.6282C122.099 18.6282 122.074 18.6173 122.056 18.5981C122.018 18.557 121.117 17.5829 121.117 16.6563C121.117 16.1081 121.57 15.6619 122.126 15.6619C122.682 15.6619 123.134 16.1081 123.134 16.6563C123.134 17.5829 122.234 18.557 122.196 18.5981C122.178 18.6173 122.152 18.6282 122.126 18.6282H122.126ZM122.126 15.8492C121.674 15.8492 121.307 16.2112 121.307 16.6563C121.307 17.3662 121.916 18.1446 122.126 18.3915C122.335 18.1446 122.945 17.3658 122.945 16.6563C122.945 16.2112 122.577 15.8492 122.126 15.8492Z" fill="#323232"/>
<path d="M125.874 18.6282C125.848 18.6282 125.822 18.6173 125.804 18.5981C125.766 18.557 124.865 17.5829 124.865 16.6563C124.865 16.1081 125.318 15.6619 125.874 15.6619C126.43 15.6619 126.883 16.1081 126.883 16.6563C126.883 17.5829 125.982 18.557 125.944 18.5981C125.926 18.6173 125.901 18.6282 125.874 18.6282ZM125.874 15.8492C125.423 15.8492 125.055 16.2112 125.055 16.6563C125.055 17.3662 125.665 18.1446 125.874 18.3915C126.084 18.1446 126.693 17.3658 126.693 16.6563C126.693 16.2112 126.326 15.8492 125.874 15.8492Z" fill="#323232"/>
<path d="M124 19.5453C123.228 19.5453 122.517 19.1975 122.05 18.5912C122.018 18.5498 122.027 18.4913 122.068 18.4601C122.11 18.4289 122.17 18.4372 122.201 18.4783C122.632 19.0378 123.288 19.3584 124 19.3584C124.712 19.3584 125.368 19.0374 125.798 18.4783C125.83 18.4372 125.889 18.4289 125.931 18.4601C125.973 18.4913 125.981 18.5501 125.95 18.5912C125.483 19.1975 124.772 19.5453 124 19.5453Z" fill="#323232"/>
<path d="M127.748 19.5453C126.976 19.5453 126.265 19.1975 125.798 18.5912C125.767 18.5498 125.775 18.4913 125.817 18.4601C125.859 18.4289 125.918 18.4372 125.95 18.4783C126.38 19.0378 127.036 19.3584 127.748 19.3584C128.46 19.3584 129.116 19.0374 129.546 18.4783C129.578 18.4372 129.637 18.4289 129.679 18.4601C129.721 18.4913 129.729 18.5501 129.698 18.5912C129.231 19.1975 128.52 19.5453 127.748 19.5453Z" fill="#323232"/>
<path d="M120.252 19.5453C119.479 19.5453 118.769 19.1975 118.302 18.5912C118.27 18.5498 118.278 18.4913 118.32 18.4601C118.362 18.4289 118.422 18.4372 118.453 18.4783C118.884 19.0378 119.539 19.3584 120.252 19.3584C120.964 19.3584 121.62 19.0374 122.05 18.4783C122.082 18.4372 122.141 18.4289 122.183 18.4601C122.225 18.4913 122.233 18.5501 122.201 18.5912C121.735 19.1975 121.024 19.5453 120.252 19.5453Z" fill="#323232"/>
<path d="M129.698 31.541H118.302V37.5372H129.698V31.541Z" fill="#A18192"/>
<path d="M129.698 33.5593H118.302C118.249 33.5593 118.207 33.5176 118.207 33.4656C118.207 33.4137 118.249 33.372 118.302 33.372H129.698C129.751 33.372 129.793 33.4137 129.793 33.4656C129.793 33.5176 129.751 33.5593 129.698 33.5593Z" fill="#323232"/>
<path d="M129.698 35.7062H118.302C118.249 35.7062 118.207 35.6644 118.207 35.6125C118.207 35.5606 118.249 35.5188 118.302 35.5188H129.698C129.751 35.5188 129.793 35.5606 129.793 35.6125C129.793 35.6644 129.751 35.7062 129.698 35.7062Z" fill="#323232"/>
<path d="M122.414 37.5372C122.72 38.2964 123.315 39 124 39C124.684 39 125.28 38.296 125.586 37.5372H122.414Z" fill="#323232"/>
</g>
</g>
<defs>
<clipPath id="clip0_42_2676">
<rect width="154" height="108" fill="white"/>
</clipPath>
</defs>
</svg>
