<svg width="124" height="48" viewBox="0 0 124 48" fill="none" xmlns="http://www.w3.org/2000/svg">
<path d="M0.992994 45.2853L0 44.2361C0.496497 43.7964 0.946655 43.3134 1.34716 42.7805C1.74767 42.2475 2.08529 41.6413 2.35671 40.9618C2.62812 40.2823 2.82672 39.5162 2.9525 38.6668C3.07828 37.8174 3.11469 36.8515 3.05842 35.7723H4.57108C4.59425 37.0314 4.5115 38.1838 4.32284 39.2264C4.63066 40.2157 5.03117 41.0884 5.52105 41.8412C6.01424 42.5973 6.62989 43.2735 7.37133 43.8697L6.45115 45.0855C5.28604 44.1162 4.37579 42.8837 3.72042 41.3915C3.40597 42.1942 3.0187 42.9137 2.56193 43.5532C2.10515 44.1928 1.58217 44.769 0.989684 45.282L0.992994 45.2853ZM5.99107 40.5688V39.0732H7.98698V35.0028H9.45331V47.97H7.98698V40.5688H5.99107Z" fill="#7B7E6C"/>
<path d="M12.0649 47.97V44.5159H17.7713V43.7598H12.0649V42.3741H14.8883V41.4215H10.4794V40.0658H20.8297V41.4215H16.3645V42.3741H19.2376V45.8016H13.518V46.5844H19.509V47.97H12.0649ZM19.3204 37.3111C19.3204 37.6576 19.2508 37.9707 19.1085 38.2538C18.9662 38.5369 18.7444 38.7867 18.4465 38.9966C18.1486 39.2064 17.768 39.3696 17.3079 39.4862C16.8478 39.6028 16.295 39.6594 15.6463 39.6594C14.9975 39.6594 14.4481 39.6028 13.9847 39.4862C13.5246 39.3696 13.1439 39.2064 12.846 38.9966C12.5481 38.7867 12.3264 38.5402 12.184 38.2538C12.0417 37.9707 11.9722 37.6542 11.9722 37.3111C11.9722 36.9681 12.0417 36.6516 12.184 36.3685C12.3264 36.0854 12.5448 35.8356 12.846 35.6257C13.1439 35.4159 13.5246 35.2527 13.9847 35.1361C14.4448 35.0195 14.9975 34.9629 15.6463 34.9629C16.295 34.9629 16.8445 35.0195 17.3079 35.1361C17.768 35.2527 18.1486 35.4159 18.4465 35.6257C18.7444 35.8356 18.9662 36.082 19.1085 36.3685C19.2508 36.6516 19.3204 36.9681 19.3204 37.3111ZM13.518 37.3378C13.518 37.4777 13.5544 37.6143 13.6305 37.7442C13.7066 37.8741 13.8258 37.9906 13.9913 38.0872C14.1568 38.1838 14.3752 38.2638 14.6467 38.3237C14.9181 38.3837 15.2524 38.4137 15.6463 38.4137C16.0402 38.4137 16.3745 38.3837 16.6459 38.3237C16.9173 38.2638 17.1358 38.1838 17.3013 38.0872C17.4668 37.9906 17.5859 37.8741 17.6621 37.7442C17.7382 37.6143 17.7746 37.4777 17.7746 37.3378C17.7746 37.1979 17.7382 37.0613 17.6621 36.9248C17.5859 36.7882 17.4668 36.6716 17.3013 36.575C17.1358 36.4784 16.9173 36.3985 16.6459 36.3385C16.3745 36.2786 16.0402 36.2486 15.6463 36.2486C15.2524 36.2486 14.9181 36.2786 14.6467 36.3385C14.3752 36.3985 14.1568 36.4784 13.9913 36.575C13.8258 36.6716 13.7066 36.7882 13.6305 36.9248C13.5544 37.0613 13.518 37.1979 13.518 37.3378Z" fill="#7B7E6C"/>
<path d="M20.7271 43.1302V41.7312H31.0774V43.1302H20.7271ZM28.0157 48V45.5784H22.1438V44.1661H29.4688V48H28.0157ZM22.3821 40.9185V35.3492H29.343V36.7482H23.8252V37.531H29.2834V38.7901H23.8252V39.5862H29.6144V40.9152H22.3821V40.9185Z" fill="#7B7E6C"/>
<path d="M31.703 41.3249V35.3792H33.1461V37.1279H35.4499V35.3792H36.8566V36.7649H38.7235V35.0028H40.1898V41.6347H38.7235V40.4189H36.8566V41.3282H31.7063L31.703 41.3249ZM35.4499 38.457H33.1461V39.9825H35.4499V38.457ZM40.4016 47.8301H33.1925V44.306H38.7334V43.5632H33.1925V42.1776H40.1865V45.6484H34.6224V46.4178H40.4016V47.8301ZM36.8566 38.0806V39.0732H38.7367V38.0806H36.8566Z" fill="#7B7E6C"/>
<path d="M42.0566 45.2553L40.9941 44.2494C41.4906 43.8097 41.9408 43.3267 42.3479 42.7938C42.755 42.2609 43.0926 41.6546 43.3707 40.9751C43.6454 40.2956 43.8473 39.5262 43.9731 38.6735C44.0989 37.8208 44.1353 36.8515 44.079 35.7723H45.5917C45.6082 36.3985 45.5917 36.988 45.552 37.5476C45.5089 38.1072 45.4427 38.6435 45.3567 39.1565C45.6645 40.1624 46.065 41.0451 46.5615 41.8012C47.058 42.5573 47.677 43.2335 48.4184 43.8297L47.4386 45.0055C46.2967 44.0529 45.403 42.8504 44.7576 41.3948C44.4597 42.1876 44.0823 42.9004 43.6289 43.5366C43.1754 44.1695 42.6524 44.7457 42.0632 45.2587L42.0566 45.2553ZM48.9679 35.0028H50.4342V47.97H48.9679V35.0028Z" fill="#7B7E6C"/>
<path d="M52.2183 45.2553L51.1558 44.2494C51.6523 43.8097 52.1024 43.3267 52.5095 42.7938C52.9167 42.2609 53.2543 41.6546 53.5323 40.9751C53.807 40.2956 54.009 39.5262 54.1347 38.6735C54.2605 37.8208 54.2969 36.8515 54.2407 35.7723H55.7533C55.7699 36.3985 55.7533 36.988 55.7136 37.5476C55.6706 38.1072 55.6044 38.6435 55.5183 39.1565C55.8261 40.1624 56.2266 41.0451 56.7231 41.8012C57.2196 42.5573 57.8386 43.2335 58.58 43.8297L57.6003 45.0055C56.4583 44.0529 55.5647 42.8504 54.9192 41.3948C54.6213 42.1876 54.244 42.9004 53.7905 43.5366C53.337 44.1695 52.8141 44.7457 52.2249 45.2587L52.2183 45.2553ZM61.9198 41.1017H60.1821V47.97H58.7158V35.0028H60.1821V39.6195H61.9198V41.1017Z" fill="#7B7E6C"/>
<path d="M66.4214 43.48V44.5026C66.9344 44.4759 67.4409 44.4359 67.944 44.3893C68.4471 44.3427 68.9304 44.2827 69.3871 44.2061V45.5918C68.9701 45.665 68.5298 45.7283 68.0631 45.7816C67.5997 45.8316 67.1264 45.8749 66.6465 45.9082C66.1665 45.9415 65.6866 45.9682 65.2099 45.9848C64.7333 46.0048 64.2831 46.0115 63.8562 46.0115H61.9761V44.5858H64.3758C64.5645 44.5858 64.7631 44.5825 64.9683 44.5725V43.4966C64.3063 43.3834 63.8032 43.1269 63.4557 42.7272C63.1081 42.3275 62.936 41.8412 62.936 41.2716C62.936 40.9552 62.9956 40.6587 63.1147 40.3822C63.2339 40.1058 63.4093 39.8693 63.641 39.6694C63.8727 39.4696 64.1574 39.313 64.4917 39.1998C64.826 39.0865 65.2132 39.0332 65.6568 39.0332C66.1003 39.0332 66.4743 39.0898 66.8087 39.1998C67.143 39.313 67.4276 39.4696 67.6593 39.6694C67.891 39.8693 68.0665 40.1091 68.1856 40.3822C68.3048 40.6587 68.3643 40.9552 68.3643 41.2716C68.3643 41.8312 68.1989 42.3075 67.8679 42.6972C67.5368 43.0903 67.0569 43.3501 66.4247 43.48H66.4214ZM62.2376 38.6968V37.3545H69.0197V38.6968H62.2376ZM63.5715 36.7382V35.3659H67.5898V36.7382H63.5715ZM66.9047 41.2683C66.9047 40.9985 66.812 40.7686 66.6266 40.5754C66.4412 40.3856 66.1169 40.289 65.6502 40.289C65.1835 40.289 64.8492 40.3856 64.6638 40.5754C64.4784 40.7653 64.3857 40.9985 64.3857 41.2683C64.3857 41.568 64.4784 41.8079 64.6638 41.9877C64.8492 42.1709 65.1768 42.2609 65.6502 42.2609C66.1235 42.2609 66.4412 42.1709 66.6266 41.9877C66.812 41.8045 66.9047 41.5647 66.9047 41.2683ZM71.1844 47.97H69.7314V35.0028H71.1844V47.97Z" fill="#7B7E6C"/>
<path d="M73.5809 40.3456V35.1561H75.0704V36.5983H79.1714V35.1561H80.6477V40.3456H77.8342V41.4914H82.2994V42.947H71.9491V41.4914H76.3579V40.3456H73.5809ZM79.2409 48V45.2287H73.369V43.7731H80.694V47.9967H79.2409V48ZM79.1847 37.8841H75.0373V39.0166H79.1847V37.8841Z" fill="#7B7E6C"/>
<path d="M87.0889 40.6953C87.4497 41.3016 87.8502 41.8645 88.2871 42.3874C88.724 42.9104 89.2139 43.3867 89.7601 43.8131L88.7439 45.0588C88.254 44.6391 87.8171 44.1861 87.4265 43.6965C87.0359 43.2068 86.6652 42.6772 86.3111 42.1076C85.894 42.7805 85.4273 43.3967 84.9109 43.9596C84.3946 44.5225 83.8451 45.0155 83.2626 45.4352L82.2696 44.3027C82.9547 43.8364 83.5572 43.3101 84.0768 42.7205C84.5965 42.1343 85.0334 41.5347 85.3876 40.9285C85.7417 40.3223 86.0165 39.726 86.2085 39.1365C86.4004 38.5469 86.5163 38.0206 86.556 37.5543C86.1687 37.5743 85.7848 37.5809 85.4041 37.5809H83.0242V36.0987H84.8812C85.3777 36.0987 85.8907 36.0987 86.417 36.092C86.9433 36.0887 87.5424 36.0787 88.2143 36.0721C88.1978 36.8648 88.0951 37.6509 87.8999 38.4303C87.7079 39.2098 87.4365 39.9625 87.0889 40.6887V40.6953ZM89.9487 35.0028H91.4151V47.97H89.9487V35.0028Z" fill="#7B7E6C"/>
<path d="M92.5835 38.0106V36.8082H99.2233V38.0106H92.5835ZM95.9166 42.4574C95.4896 42.4574 95.1189 42.4008 94.8012 42.2808C94.4834 42.1643 94.2153 42.011 94.0035 41.8179C93.7916 41.628 93.6294 41.4082 93.5202 41.1617C93.411 40.9152 93.3547 40.6554 93.3547 40.3856C93.3547 40.1158 93.411 39.8693 93.5202 39.6228C93.6294 39.3763 93.7916 39.1565 94.0035 38.9666C94.2153 38.7767 94.4834 38.6235 94.8012 38.5136C95.1189 38.4003 95.493 38.3471 95.9166 38.3471C96.3403 38.3471 96.7011 38.4037 97.0222 38.5136C97.3399 38.6269 97.608 38.7767 97.8265 38.9666C98.0416 39.1565 98.2071 39.3763 98.3164 39.6228C98.4256 39.8693 98.4819 40.1224 98.4819 40.3856C98.4819 40.6487 98.4256 40.9152 98.3164 41.1617C98.2071 41.4082 98.0416 41.628 97.8265 41.8179C97.608 42.0077 97.3432 42.1643 97.0222 42.2808C96.7044 42.3974 96.3337 42.4574 95.9166 42.4574ZM93.9902 36.192V34.9462H97.9026V36.192H93.9902ZM94.6522 47.7735V43.0869H96.1185V44.0662H100.206V42.9903H101.65V47.7735H94.6522ZM95.9166 41.2416C96.3436 41.2416 96.6448 41.1517 96.8269 40.9751C97.0089 40.7986 97.0983 40.6021 97.0983 40.3889C97.0983 40.1557 97.0089 39.9559 96.8335 39.786C96.6548 39.6195 96.3502 39.5329 95.9166 39.5329C95.483 39.5329 95.1653 39.6161 94.9898 39.786C94.8111 39.9525 94.725 40.1557 94.725 40.3889C94.725 40.6221 94.8144 40.8119 94.9898 40.9851C95.1686 41.1583 95.4764 41.2449 95.9166 41.2449V41.2416ZM100.206 46.4311V45.3819H96.1053V46.4311H100.206ZM98.836 39.7727V38.457H100.196V35.0028H101.663V42.4441H100.196V42.011H98.836V40.6953H100.206V39.7727H98.836Z" fill="#7B7E6C"/>
<path d="M102.934 43.8564H104.801C105.201 43.8564 105.638 43.8497 106.108 43.8364C106.578 43.8231 107.055 43.8031 107.538 43.7731C108.021 43.7464 108.501 43.7065 108.981 43.6598C109.458 43.6132 109.911 43.5566 110.345 43.4933V44.9189C109.928 44.9922 109.488 45.0555 109.021 45.1021C108.557 45.1488 108.084 45.1921 107.604 45.2287C107.124 45.2653 106.644 45.292 106.168 45.3053C105.691 45.3186 105.241 45.3253 104.814 45.3253H102.934V43.8564ZM109.375 39.1165C109.375 39.5562 109.309 39.9725 109.18 40.3689C109.051 40.7653 108.862 41.1117 108.617 41.4115C108.372 41.7113 108.071 41.9478 107.713 42.1243C107.356 42.3008 106.952 42.3908 106.502 42.3908C106.052 42.3908 105.648 42.3008 105.29 42.1243C104.933 41.9478 104.632 41.7079 104.387 41.4115C104.142 41.1117 103.957 40.7653 103.824 40.3689C103.695 39.9725 103.629 39.5562 103.629 39.1165C103.629 38.6768 103.695 38.2605 103.824 37.8641C103.953 37.4677 104.142 37.1213 104.387 36.8215C104.632 36.5217 104.933 36.2852 105.29 36.1087C105.648 35.9322 106.052 35.8422 106.502 35.8422C106.952 35.8422 107.356 35.9288 107.713 36.102C108.071 36.2752 108.372 36.5084 108.617 36.8082C108.862 37.108 109.047 37.4544 109.18 37.8508C109.309 38.2471 109.375 38.6702 109.375 39.1165ZM107.886 39.1165C107.886 38.5303 107.763 38.0773 107.515 37.7608C107.267 37.4444 106.929 37.2845 106.505 37.2845C106.082 37.2845 105.721 37.4444 105.476 37.7608C105.231 38.0773 105.108 38.5303 105.108 39.1165C105.108 39.7027 105.231 40.1591 105.476 40.4788C105.721 40.8019 106.062 40.9618 106.505 40.9618C106.949 40.9618 107.267 40.8019 107.515 40.4788C107.763 40.1557 107.886 39.7027 107.886 39.1165ZM112.165 47.97H110.699V35.0028H112.165V47.97Z" fill="#7B7E6C"/>
<path d="M117.647 43.48V44.5026C118.16 44.4759 118.666 44.4359 119.169 44.3893C119.672 44.3427 120.156 44.2827 120.612 44.2061V45.5918C120.195 45.665 119.755 45.7283 119.288 45.7816C118.825 45.8316 118.352 45.8749 117.872 45.9082C117.392 45.9415 116.912 45.9682 116.435 45.9848C115.959 46.0048 115.508 46.0115 115.081 46.0115H113.201V44.5858H115.601C115.79 44.5858 115.988 44.5825 116.194 44.5725V43.4966C115.532 43.3834 115.028 43.1269 114.681 42.7272C114.333 42.3275 114.161 41.8412 114.161 41.2716C114.161 40.9552 114.221 40.6587 114.34 40.3822C114.459 40.1058 114.635 39.8693 114.866 39.6694C115.098 39.4696 115.383 39.313 115.717 39.1998C116.051 39.0865 116.439 39.0332 116.882 39.0332C117.326 39.0332 117.7 39.0898 118.034 39.1998C118.368 39.313 118.653 39.4696 118.885 39.6694C119.116 39.8693 119.292 40.1091 119.411 40.3822C119.53 40.6587 119.59 40.9552 119.59 41.2716C119.59 41.8312 119.424 42.3075 119.093 42.6972C118.762 43.0903 118.282 43.3501 117.65 43.48H117.647ZM113.463 38.6968V37.3545H120.245V38.6968H113.463ZM114.8 36.7382V35.3659H118.818V36.7382H114.8ZM118.13 41.2683C118.13 40.9985 118.037 40.7686 117.852 40.5754C117.667 40.3856 117.342 40.289 116.875 40.289C116.409 40.289 116.074 40.3856 115.889 40.5754C115.704 40.7653 115.611 40.9985 115.611 41.2683C115.611 41.568 115.704 41.8079 115.889 41.9877C116.074 42.1709 116.402 42.2609 116.875 42.2609C117.349 42.2609 117.667 42.1709 117.852 41.9877C118.037 41.8045 118.13 41.5647 118.13 41.2683ZM122.41 47.97H120.957V35.0028H122.41V47.97Z" fill="#7B7E6C"/>
<path d="M93.1991 24.9668L91.5971 28.0046C93.977 29.4636 97.565 29.5502 97.565 29.5502C102.613 29.5502 104.956 26.9154 104.956 23.8143C104.956 21.2063 103.457 19.5075 100.213 18.295C97.8132 17.389 96.8037 16.8661 96.8037 15.687C96.8037 14.7543 97.6775 13.9016 99.4782 13.9016C100.375 13.9016 101.16 14.0348 101.808 14.2114C101.808 14.2114 103.308 14.7177 103.98 13.4886L104.89 11.7498C102.838 10.5107 99.5344 10.4941 99.5344 10.4941C95.2248 10.4941 92.5769 12.8823 92.5769 16.04C92.5769 18.7281 94.5959 20.4335 97.6511 21.5294C99.8588 22.2988 100.733 22.9583 100.733 24.1108C100.733 25.2633 99.7231 26.116 97.8132 26.116C96.0391 26.116 94.2947 25.5397 93.2024 24.9635L93.1991 24.9668Z" fill="#0076BF"/>
<path d="M79.0159 24.9668L77.4138 28.0046C79.7937 29.4636 83.3817 29.5502 83.3817 29.5502C88.4295 29.5502 90.7729 26.9154 90.7729 23.8143C90.7729 21.2063 89.2735 19.5075 86.0297 18.295C83.63 17.389 82.6204 16.8661 82.6204 15.687C82.6204 14.7543 83.4943 13.9016 85.2949 13.9016C86.1919 13.9016 86.9764 14.0348 87.6251 14.2114C87.6251 14.2114 89.1245 14.7177 89.7932 13.4886L90.7034 11.7498C88.6512 10.5107 85.3479 10.4941 85.3479 10.4941C81.0383 10.4941 78.3903 12.8823 78.3903 16.04C78.3903 18.7281 80.4094 20.4335 83.4645 21.5294C85.6722 22.2988 86.5461 22.9583 86.5461 24.1108C86.5461 25.2633 85.5365 26.116 83.6267 26.116C81.8525 26.116 80.1082 25.5397 79.0159 24.9635V24.9668Z" fill="#0076BF"/>
<path d="M111.354 27.5116V16.9793C114.75 20.0504 117.117 23.2414 118.981 29.277H122.969V10.8272H120.364C118.938 10.8272 118.994 12.1362 118.994 12.1362V21.113C116.726 17.1692 113.741 14.6577 111.407 13.1488C109.104 11.6566 107.29 11.1203 107.224 11.1003V29.2737H109.693C109.693 29.2737 111.354 29.2737 111.354 27.5083V27.5116Z" fill="#0076BF"/>
<path d="M123.27 0.641283C117.902 -1.37391 114.019 1.63389 111.023 5.85414C110.782 6.20055 110.62 5.85414 110.62 5.85414C108.73 2.02028 104.734 1.3008 104.734 1.3008C104.734 1.3008 102.808 0.927741 101.762 1.42404C101.762 1.42404 101.252 1.67053 101.752 1.94366C101.752 1.94366 103.076 2.69312 103.212 4.28196C103.506 8.20909 105.966 9.79126 106.889 9.70799C106.955 9.70133 106.859 9.50481 106.859 9.50481C105.562 6.56362 107.614 5.19462 108.677 6.17391C109.915 7.31974 109.494 8.94855 109.329 9.4615C109.329 9.4615 109.272 9.59807 109.335 9.59474C110.583 9.47816 111.857 8.81864 113.817 7.21648C114.784 6.46369 116.683 4.68166 117.858 3.64242C118.335 3.15944 119.077 2.77639 118.458 4.00216C117.637 5.64096 115.661 8.74203 112.606 11.1669C112.139 11.54 112.794 11.52 112.794 11.52C117.862 11.1669 120.228 6.86673 120.228 6.86673C120.682 6.1406 121.562 4.23532 121.562 4.23532C122.446 2.25344 123.459 1.86705 123.459 1.86705C124.78 1.20754 123.267 0.641283 123.267 0.641283H123.27Z" fill="#C6D800"/>
</svg>
