<svg width="145" height="35" viewBox="0 0 145 35" fill="none" xmlns="http://www.w3.org/2000/svg">
<path d="M16.0248 28.048L15.8482 23.635C15.425 22.7929 15.1581 21.8602 15.0844 20.8736C15.0107 21.859 14.7439 22.7916 14.322 23.6337L14.1453 28.0468C13.7094 27.226 13.2354 26.4517 12.7538 25.7303C12.4094 26.0546 12.0332 26.3462 11.6317 26.6013C13.7806 30.9917 13.8505 35 13.8505 35H16.3197C16.3197 35 16.3883 30.9917 18.5359 26.6013C18.1344 26.3462 17.7595 26.0546 17.4151 25.7315C16.9335 26.4517 16.4595 27.2273 16.0236 28.0468L16.0248 28.048Z" fill="#00833E"/>
<path d="M15.0832 14.9434C16.1595 14.9434 17.1825 14.7197 18.109 14.3175C18.5652 13.9819 19.0608 13.6966 19.5882 13.4691C21.4385 12.1066 22.6381 9.9271 22.6381 7.47109C22.6394 3.34465 19.2565 0 15.0832 0C10.9099 0 7.52951 3.34465 7.52951 7.47109C7.52951 9.9271 8.72788 12.1053 10.5769 13.4678C11.1056 13.6966 11.6024 13.9819 12.0599 14.3188C12.9863 14.7197 14.0081 14.9434 15.0832 14.9434Z" fill="#E60012"/>
<path d="M7.4952 20.9666L8.20304 20.3394C8.20304 20.3394 10.5693 22.4686 12.7525 25.7328C13.3917 25.132 13.9242 24.4243 14.3207 23.635L14.4529 20.3331H15.0616C15.0616 20.3331 15.0616 20.3205 15.0616 20.3142C15.0616 20.1257 15.0705 19.9397 15.0844 19.7549C14.918 17.5302 13.7679 15.5757 12.0612 14.3188C11.5325 14.09 11.0357 13.8047 10.5782 13.4678C9.65176 13.0669 8.63003 12.8431 7.55493 12.8431C3.38161 12.8431 0 16.1878 0 20.3142C0 24.4407 3.38161 27.7866 7.55366 27.7866C9.05575 27.7866 10.4549 27.3504 11.6304 26.6026C10.6976 24.6971 9.37472 22.72 7.4952 20.9666Z" fill="#E60012"/>
<path d="M14.4529 20.3331L14.3207 23.635C14.7439 22.7929 15.0095 21.8602 15.0832 20.8748C15.0692 20.6963 15.0603 20.5153 15.0603 20.3343H14.4516L14.4529 20.3331Z" fill="#E60012"/>
<path d="M8.20431 20.3394L7.49647 20.9666C9.37599 22.72 10.7002 24.6971 11.6317 26.6026C12.0332 26.3474 12.4081 26.0558 12.7538 25.7315C10.5718 22.4686 8.20431 20.3381 8.20431 20.3381V20.3394Z" fill="#E60012"/>
<path d="M12.0612 14.3188C11.5325 14.09 11.0357 13.8047 10.5782 13.4678C11.1068 13.6966 11.6037 13.9819 12.0612 14.3188Z" fill="#E60012"/>
<path d="M22.6152 12.8431C21.5389 12.8431 20.5159 13.0669 19.5894 13.4691C19.1332 13.8047 18.6376 14.09 18.1102 14.3175C16.4023 15.5744 15.2509 17.5289 15.0844 19.7549C15.0984 19.9397 15.1073 20.1257 15.1073 20.3142C15.1073 20.3205 15.1073 20.3268 15.1073 20.3331H15.716L15.8482 23.635C16.2447 24.4231 16.7772 25.132 17.4164 25.7328C19.6009 22.4686 21.9671 20.3394 21.9671 20.3394L22.6724 20.9666C20.7916 22.72 19.4687 24.6971 18.5372 26.6026C19.714 27.3504 21.1131 27.7866 22.6152 27.7866C26.786 27.7866 30.1689 24.4407 30.1689 20.3142C30.1689 16.1878 26.786 12.8431 22.6152 12.8431Z" fill="#E60012"/>
<path d="M15.8482 23.635L15.716 20.3331H15.1073C15.1073 20.5153 15.0984 20.6951 15.0844 20.8736C15.1581 21.859 15.425 22.7916 15.8482 23.635Z" fill="#E60012"/>
<path d="M22.6737 20.9666L21.9684 20.3394C21.9684 20.3394 19.6009 22.4698 17.4176 25.7328C17.762 26.0558 18.1369 26.3474 18.5385 26.6026C19.4713 24.6971 20.7942 22.72 22.6737 20.9666Z" fill="#E60012"/>
<path d="M19.5894 13.4691C19.0621 13.6978 18.5664 13.9819 18.1102 14.3175C18.6376 14.0887 19.1332 13.8047 19.5894 13.4691Z" fill="#E60012"/>
<path d="M15.0616 20.3331H15.1073C15.1073 20.3331 15.1073 20.3205 15.1073 20.3142C15.1073 20.1257 15.0984 19.9397 15.0844 19.7549C15.0705 19.9397 15.0616 20.1257 15.0616 20.3142C15.0616 20.3205 15.0616 20.3268 15.0616 20.3331Z" fill="#E60012"/>
<path d="M15.0844 20.8736C15.0984 20.6951 15.1073 20.5141 15.1073 20.3331H15.0616C15.0616 20.5153 15.0705 20.6951 15.0844 20.8736Z" fill="#E60012"/>
<path d="M107.537 30.2438V30.3846L106.526 30.3695V30.2438H103.558V30.7931H111.222V30.2438H107.537Z" fill="black"/>
<path d="M109.387 26.8942H104.416V27.3944H109.387V26.8942Z" fill="black"/>
<path d="M110.411 28.3534V26.8929L109.392 27.3932H109.387V28.6752C109.387 29.1792 109.237 29.9246 109.046 30.2426H110.097C110.349 29.8115 110.413 29.1214 110.413 28.3534H110.411Z" fill="black"/>
<path d="M110.411 26.8942H109.386V27.3944H109.392L110.411 26.8942Z" fill="black"/>
<path d="M76.7006 26.8439H75.684V32.2562L76.7006 32.2536V29.0435H77.5953V28.5432H76.7006V26.8439Z" fill="black"/>
<path d="M101.293 32.2562L102.31 32.2536V26.8439H101.293V32.2562Z" fill="black"/>
<path d="M72.6646 26.9268H71.5717C71.3798 28.7657 70.6173 30.3444 69.3872 31.3876L69.7188 31.7345C70.6465 31.0558 71.4039 30.132 71.9084 29.046L72.1169 28.5985L72.324 29.046C72.8323 30.132 73.5884 31.0558 74.5174 31.7345L74.8453 31.3876C73.6164 30.3444 72.8539 28.767 72.662 26.9268H72.6646Z" fill="black"/>
<path d="M84.7944 31.7433H82.0266V31.913H80.8854V31.7433H78.6678V32.2423H85.8098V26.8439H84.7944V31.7433Z" fill="black"/>
<path d="M124.953 30.4198H123.943V31.7132H120.616V32.2624H128.28V31.7132H124.953V30.4198Z" fill="black"/>
<path d="M124.953 30.3193V30.4198H127.61V27.6835C127.61 27.2499 127.415 26.9369 126.806 26.9369H121.284V30.4186H123.943V30.318H124.953V30.3193ZM122.303 29.9422V27.4409H126.313C126.52 27.4409 126.592 27.5189 126.592 27.6973V29.9422H122.303Z" fill="black"/>
<path d="M124.953 30.3193H123.943V30.4198H124.953V30.3193Z" fill="black"/>
<path d="M91.2463 29.5199H90.236V30.2363H86.909V30.7843H94.572V30.2363H91.2463V29.5199Z" fill="black"/>
<path d="M129.938 32.6357C129.938 33.0656 130.133 33.3773 130.738 33.3773H135.963V30.8446H129.94V32.6357H129.938ZM130.928 31.3348H134.971V32.8859H131.204C131 32.8859 130.928 32.8067 130.928 32.6282V31.3348Z" fill="black"/>
<path d="M80.8854 26.9972H78.6818V27.4962H80.2271C80.433 27.4258 80.6528 27.3718 80.8841 27.3379V26.9972H80.8854Z" fill="black"/>
<path d="M82.6823 27.4975H84.2289V26.9985H82.0266V27.3404C82.2579 27.3743 82.4764 27.4284 82.6823 27.4987V27.4975Z" fill="black"/>
<path d="M82.0266 26.5561H80.8854V26.9972H82.0266V26.5561Z" fill="black"/>
<path d="M81.4547 27.2976C81.6517 27.2976 81.8423 27.3127 82.0279 27.3391V26.9972H80.8867V27.3379C81.0709 27.3115 81.2603 27.2964 81.456 27.2964L81.4547 27.2976Z" fill="black"/>
<path d="M82.0266 30.9314C81.8423 30.9578 81.6504 30.9729 81.4535 30.9729C81.2565 30.9729 81.0684 30.9578 80.8841 30.9314V31.7433H82.0253V30.9314H82.0266Z" fill="black"/>
<path d="M82.0266 31.7433H80.8854V31.913H82.0266V31.7433Z" fill="black"/>
<path d="M82.0266 30.7076V30.9314C83.2542 30.7529 84.1793 30.0163 84.1793 29.1352C84.1793 28.4201 83.5681 27.8004 82.6823 27.4975H80.2284C79.3439 27.8004 78.7352 28.4201 78.7352 29.1352C78.7352 30.0163 79.6578 30.7542 80.8867 30.9326V30.7089H82.0279L82.0266 30.7076ZM79.7379 29.1352C79.7379 28.3572 80.5092 27.7275 81.4547 27.7275C82.4002 27.7275 83.1767 28.3585 83.1767 29.1352C83.1767 29.912 82.404 30.543 81.4547 30.543C80.5054 30.543 79.7379 29.912 79.7379 29.1352Z" fill="black"/>
<path d="M82.0266 27.3391V27.4749H80.8854V27.3391C80.6541 27.3731 80.4343 27.4271 80.2284 27.4975H82.6823C82.4764 27.4271 82.2579 27.3731 82.0266 27.3391Z" fill="black"/>
<path d="M80.8854 27.3391V27.4749H82.0266V27.3391C81.8423 27.3127 81.6504 27.2976 81.4535 27.2976C81.2565 27.2976 81.0684 27.3127 80.8841 27.3391H80.8854Z" fill="black"/>
<path d="M82.0266 30.9314V30.7076H80.8854V30.9314C81.0697 30.9578 81.259 30.9729 81.4547 30.9729C81.6504 30.9729 81.8423 30.9578 82.0279 30.9314H82.0266Z" fill="black"/>
<path d="M143.981 31.7433H141.212V31.913H140.072V31.7433H137.852V32.2423H144.995V26.8439H143.981V31.7433Z" fill="black"/>
<path d="M140.072 26.9972H137.868V27.4962H139.414C139.619 27.4258 139.839 27.3718 140.072 27.3379V26.9972Z" fill="black"/>
<path d="M141.869 27.4975H143.415V26.9985H141.212V27.3404C141.443 27.3743 141.663 27.4284 141.867 27.4987L141.869 27.4975Z" fill="black"/>
<path d="M141.212 26.5561H140.072V26.9972H141.212V26.5561Z" fill="black"/>
<path d="M140.64 27.2976C140.836 27.2976 141.027 27.3127 141.212 27.3391V26.9972H140.072V27.3379C140.255 27.3115 140.445 27.2964 140.64 27.2964V27.2976Z" fill="black"/>
<path d="M141.212 30.9314C141.027 30.9578 140.837 30.9729 140.64 30.9729C140.443 30.9729 140.255 30.9578 140.072 30.9314V31.7433H141.212V30.9314Z" fill="black"/>
<path d="M141.212 31.7433H140.072V31.913H141.212V31.7433Z" fill="black"/>
<path d="M141.212 30.7076V30.9314C142.441 30.7541 143.366 30.0163 143.366 29.1352C143.366 28.4201 142.754 27.8004 141.869 27.4975H139.415C138.529 27.8004 137.92 28.4201 137.92 29.1352C137.92 30.0163 138.844 30.7554 140.073 30.9326V30.7089H141.213L141.212 30.7076ZM138.924 29.1352C138.924 28.3572 139.693 27.7275 140.64 27.7275C141.587 27.7275 142.359 28.3585 142.359 29.1352C142.359 29.912 141.59 30.543 140.64 30.543C139.689 30.543 138.924 29.912 138.924 29.1352Z" fill="black"/>
<path d="M141.212 27.3391V27.4749H140.072V27.3391C139.839 27.3731 139.619 27.4271 139.414 27.4975H141.867C141.662 27.4271 141.443 27.3731 141.212 27.3391Z" fill="black"/>
<path d="M140.072 27.3391V27.4749H141.212V27.3391C141.027 27.3127 140.837 27.2976 140.64 27.2976C140.443 27.2976 140.255 27.3127 140.072 27.3391Z" fill="black"/>
<path d="M141.212 30.9314V30.7076H140.072V30.9314C140.255 30.9578 140.445 30.9729 140.64 30.9729C140.834 30.9729 141.027 30.9578 141.212 30.9314Z" fill="black"/>
<path d="M87.5902 31.727H92.9136V33.3522H93.9022V31.2569H87.5902V31.727Z" fill="black"/>
<path d="M91.2463 29.1566V29.5199H93.9061V26.81H92.8856V27.8808H88.5966V26.81H87.5762V28.7808C87.5762 29.2107 87.7706 29.5199 88.3742 29.5199H90.236V29.1566H91.2463ZM88.8737 29.0196C88.6678 29.0196 88.5966 28.9404 88.5966 28.7619V28.356H92.8856V29.0171L88.8737 29.0196Z" fill="black"/>
<path d="M91.2463 29.1566H90.236V29.5199H91.2463V29.1566Z" fill="black"/>
<path d="M107.403 31.1551C105.736 31.1551 104.381 32.0148 104.381 33.0732C104.381 34.1315 105.736 34.9937 107.403 34.9937C109.071 34.9937 110.428 34.1315 110.428 33.0732C110.428 32.0148 109.069 31.1551 107.403 31.1551ZM107.403 34.5161C106.305 34.5161 105.409 33.8688 105.409 33.0732C105.409 32.2775 106.305 31.6302 107.403 31.6302C108.501 31.6302 109.402 32.2775 109.402 33.0732C109.402 33.8688 108.504 34.5161 107.403 34.5161Z" fill="black"/>
<path d="M116.521 29.0322V29.4985H119.179V28.9957H114.151C113.943 28.9957 113.872 28.9178 113.872 28.7381V27.4183H119.179V26.9394H112.852V28.7531C112.852 29.1855 113.047 29.4985 113.657 29.4985H115.51V29.0322H116.521Z" fill="black"/>
<path d="M116.014 31.1551C114.349 31.1551 112.995 32.0148 112.995 33.0732C112.995 34.1315 114.349 34.9937 116.014 34.9937C117.679 34.9937 119.039 34.1315 119.039 33.0732C119.039 32.0148 117.682 31.1551 116.014 31.1551ZM116.014 34.5161C114.916 34.5161 114.02 33.8688 114.02 33.0732C114.02 32.2775 114.916 31.6302 116.014 31.6302C117.112 31.6302 118.013 32.2775 118.013 33.0732C118.013 33.8688 117.115 34.5161 116.014 34.5161Z" fill="black"/>
<path d="M116.521 29.4985H115.511V30.2451H112.185V30.7931H119.847V30.2451H116.521V29.4985Z" fill="black"/>
<path d="M116.521 29.0322H115.511V29.4985H116.521V29.0322Z" fill="black"/>
<path d="M107.537 28.8851H106.526V30.2438H107.537V28.8851Z" fill="black"/>
<path d="M107.537 30.3846V30.2438H106.526V30.3695L107.537 30.3846Z" fill="black"/>
<path d="M135.708 29.8957H134.658C134.667 29.8643 134.676 29.8341 134.686 29.8027H129.097V30.3532H136.76V29.8027H135.74C135.729 29.8328 135.719 29.863 135.709 29.8957H135.708Z" fill="black"/>
<path d="M134.925 26.9419H129.955V27.4434H134.925V26.9419Z" fill="black"/>
<path d="M135.948 28.356V26.9419L134.929 27.4434H134.924V28.679C134.924 29.1428 134.795 29.4382 134.685 29.8027H135.738C135.892 29.3401 135.948 29.0787 135.948 28.356Z" fill="black"/>
<path d="M135.708 29.8957C135.719 29.8643 135.729 29.8328 135.738 29.8027H134.685C134.676 29.8328 134.666 29.863 134.657 29.8957H135.708Z" fill="black"/>
<path d="M135.948 26.9419H134.925V27.4434H134.929L135.948 26.9419Z" fill="black"/>
<path d="M98.6131 27.1066C98.6245 27.2172 98.6398 27.3278 98.6563 27.4372H100.561V26.9382H95.5594V27.4372H97.463C97.4796 27.3278 97.4948 27.2185 97.5062 27.1066H98.6131Z" fill="black"/>
<path d="M98.6563 27.4372H97.463C97.2203 28.9995 96.4502 30.3884 95.3395 31.4279L95.6687 31.7672C96.7514 30.9653 97.5876 29.8617 98.059 28.5847C98.5318 29.8617 99.3667 30.9653 100.449 31.7672L100.779 31.4279C99.6704 30.3884 98.8978 28.9995 98.6551 27.4372H98.6563Z" fill="black"/>
<path d="M98.6131 27.1066H97.5062C97.4948 27.2172 97.4796 27.3278 97.463 27.4372H98.6563C98.6398 27.3278 98.6245 27.2185 98.6131 27.1066Z" fill="black"/>
<path d="M54.5836 8.83233H56.838V7.57416H54.5836V3.29563H52.0267V16.9118L54.5836 16.9093V8.83233Z" fill="black"/>
<path d="M142.452 3.29814V7.63952H141.083V3.29814H138.533V18.5294H141.083V8.91026H142.452V18.5294H145V3.29814H142.452Z" fill="black"/>
<path d="M76.9256 8.06435H79.3261V6.80744H76.9256V3.29563H74.37V12.5327H76.9256V8.06435Z" fill="black"/>
<path d="M69.6108 12.9449C65.4362 12.9449 62.0381 15.3896 62.0381 18.3974C62.0381 21.4052 65.4362 23.8487 69.6108 23.8487C73.7854 23.8487 77.2013 21.4027 77.2013 18.3974C77.2013 15.3922 73.7969 12.9449 69.6108 12.9449ZM69.6121 22.6697C66.857 22.6697 64.614 20.7541 64.614 18.3974C64.614 16.0407 66.857 14.1239 69.6121 14.1239C72.3672 14.1239 74.628 16.0382 74.628 18.3974C74.628 20.7567 72.3761 22.6697 69.6121 22.6697Z" fill="black"/>
<path d="M132.788 3.58472H126.033V13.9995H136.948V7.70111C136.948 5.43866 135.076 3.58597 132.788 3.58597V3.58472ZM134.384 12.7338H128.589V4.85671H131.735C133.19 4.85671 134.384 6.03444 134.384 7.47612V12.7338Z" fill="black"/>
<path d="M42.5351 8.93791L43.0586 7.81172L43.5848 8.93791C44.8568 11.6704 46.7618 13.9982 49.0975 15.7014L49.9286 14.8316C46.8355 12.2059 44.9153 8.23529 44.4324 3.60734H41.6862C41.2033 8.23655 39.2831 12.2059 36.19 14.8316L37.0236 15.7014C39.3593 13.9995 41.263 11.6717 42.5364 8.93791H42.5351Z" fill="black"/>
<path d="M88.7224 13.0405C92.4917 13.0405 95.5606 10.7491 95.5606 7.92987C95.5606 5.11061 92.4917 2.82051 88.7224 2.82051C84.9532 2.82051 81.8982 5.11312 81.8982 7.92987C81.8982 10.7466 84.9583 13.0405 88.7224 13.0405ZM88.725 3.89266C91.1027 3.89266 93.0406 5.70262 93.0406 7.92987C93.0406 10.1571 91.1027 11.9671 88.725 11.9671C86.3473 11.9671 84.4195 10.1559 84.4195 7.92987C84.4195 5.70387 86.3499 3.89266 88.725 3.89266Z" fill="black"/>
<path d="M61.7585 11.3989H72.784V10.1383H62.995C62.4778 10.1383 62.2948 9.94093 62.2948 9.49346V7.79663H72.5159V3.55204H59.7405V4.80644H69.9603V6.59879H59.7405V9.52991C59.7405 10.6171 60.2285 11.3977 61.7573 11.3977L61.7585 11.3989Z" fill="black"/>
<path d="M119.813 6.7006V9.55003H116.558C116.356 10.0013 116.073 10.4236 115.719 10.8095H119.811V14.0096L122.366 14.007V3.29563H119.811V5.43741H116.04C116.334 5.82956 116.562 6.25314 116.711 6.7006H119.813Z" fill="black"/>
<path d="M110.074 13.0405C112.417 13.0405 114.487 12.1556 115.719 10.8107H115.064V9.55128H116.558C116.787 9.04223 116.913 8.49673 116.913 7.93112C116.913 7.50754 116.842 7.09653 116.712 6.70186H115.065V5.43866H116.042C114.871 3.87883 112.635 2.82051 110.076 2.82051C106.313 2.82051 103.25 5.11312 103.25 7.92987C103.25 10.7466 106.313 13.0405 110.076 13.0405H110.074ZM110.077 3.89266C112.457 3.89266 114.394 5.70262 114.394 7.92987C114.394 10.1571 112.457 11.9671 110.077 11.9671C107.697 11.9671 105.772 10.1559 105.772 7.92987C105.772 5.70387 107.703 3.89266 110.077 3.89266Z" fill="black"/>
<path d="M115.064 9.55003V10.8095H115.719C116.073 10.4248 116.356 10.0013 116.558 9.55003H115.064Z" fill="black"/>
<path d="M116.711 6.7006C116.562 6.25314 116.334 5.82956 116.04 5.43741H115.062V6.7006H116.711Z" fill="black"/>
<path d="M82.4587 16.9256H99.8534V3.29563H97.3016V15.6687H82.4587V16.9256Z" fill="black"/>
<path d="M122.39 19.7323V15.724H106.915V16.9796H119.837V18.5357H106.915V20.8622C106.915 21.9495 107.402 22.7325 108.931 22.7325H122.658V21.4706H110.169C109.65 21.4706 109.468 21.2733 109.468 20.8233V19.7335H122.389L122.39 19.7323Z" fill="black"/>
<path d="M67.1417 28.6538H36.8597V29.0938H67.1417V28.6538Z" fill="black"/>
</svg>
