<svg width="104" height="37" viewBox="0 0 104 37" fill="none" xmlns="http://www.w3.org/2000/svg">
<path d="M78.0382 6.38508H74.9659V19.5336C73.9928 19.8881 72.5773 20.2068 71.4754 20.2068V10.5435H73.6509V7.59199H60.0387V10.5435H62.2062V20.3502H59.6889V23.3018H69.4647C70.5465 23.2938 72.8306 23.2022 74.9659 22.6206V28.6034C74.9659 29.4439 75.6576 30.125 76.5021 30.125C77.3466 30.125 78.0382 29.4439 78.0382 28.6034V16.4387H81.5569V13.4871H78.0382V6.38508ZM68.3991 20.3502H65.2785V10.5435H68.3991V20.3502Z" fill="#007046"/>
<path d="M100.272 17.8487C100.952 15.6261 101.056 12.9733 101.064 11.8381V7.59597H84.5568V10.5475H97.9881V11.8301C97.9841 12.7343 97.8876 15.8611 97.0109 17.8527H82.3572V20.8003H91.3408V28.6034C91.3408 28.6034 91.3408 28.6034 91.3408 28.6074C91.3408 29.4478 92.0285 30.129 92.877 30.129C93.7255 30.129 94.4131 29.4478 94.4131 28.6074C94.4131 28.6074 94.4131 28.6074 94.4131 28.6034V20.8003H104V17.8527H100.268L100.272 17.8487Z" fill="#007046"/>
<path d="M48.9157 14.6622H45.8152V17.8487H36.2364V20.8242H41.3475C40.7403 21.7403 40.3864 22.8039 40.3864 23.9431C40.3864 27.3567 43.515 30.133 47.3634 30.133C51.2119 30.133 54.3405 27.3567 54.3405 23.9431C54.3405 22.8039 53.9866 21.7443 53.3794 20.8242H58.4905V17.8487H48.9117V14.6622H48.9157ZM49.1811 26.6237C48.6422 26.8588 48.0229 26.9942 47.3634 26.9942C46.4426 26.9942 45.5981 26.7313 44.9386 26.2971C44.0901 25.7355 43.5512 24.8871 43.5512 23.9391C43.5512 22.2542 45.2603 20.8839 47.3675 20.8839C49.4747 20.8839 51.1797 22.2542 51.1797 23.9391C51.1797 25.0982 50.3714 26.1059 49.1851 26.6237" fill="#007046"/>
<path d="M47.3675 10.7108C49.72 14.5188 53.8056 16.136 56.2788 16.5144V13.3198C54.5616 12.9255 50.1221 11.4318 48.9881 6.38508H45.7469C44.6088 11.4438 40.1492 12.9335 38.4441 13.3198V16.5144C40.9172 16.1399 45.011 14.5228 47.3675 10.7108Z" fill="#007046"/>
<path d="M26.8023 7.41673C25.8292 5.93498 24.7515 4.70018 23.6536 3.52115C21.2247 2.87189 18.6028 1.93982 16.1538 0.513834L15.3295 0L14.5051 0.513834C12.0802 1.92787 9.47438 2.85198 7.05756 3.50522C5.95571 4.68823 4.86995 5.92701 3.89678 7.40876C7.20233 6.84315 11.3926 5.75175 15.3335 3.62472C19.2905 5.75972 23.5008 6.8551 26.8104 7.41673" fill="#007046"/>
<path d="M29.9269 14.2798C29.6052 13.0888 29.187 11.9576 28.7004 10.8821C25.3305 10.4201 20.4647 9.34062 16.1498 6.82721L15.3254 6.34525L14.5011 6.82721C10.2143 9.32469 5.36859 10.4041 1.99067 10.8702C1.50409 11.9456 1.08587 13.0808 0.760139 14.2718C4.19034 13.9333 9.98509 12.9454 15.3254 10.0656C20.6819 12.9534 26.5007 13.9412 29.9269 14.2758" fill="#007046"/>
<path d="M30.5382 17.5062C27.309 17.2074 21.3333 16.2594 16.1498 13.2402L15.3254 12.7582L14.5011 13.2402C9.35374 16.2395 3.39412 17.1955 0.148895 17.4982C0.0202121 18.6454 -0.0240227 19.7288 0.0121694 20.7565C3.29358 20.4896 9.57894 19.5814 15.3295 16.4825C21.1001 19.5934 27.4096 20.4976 30.6789 20.7605C30.7111 19.7368 30.6668 18.6534 30.5382 17.5062Z" fill="#007046"/>
<path d="M15.3254 19.1712L14.5011 19.6531C9.47438 22.5808 3.67159 23.5607 0.382133 23.8913C0.623413 25.0305 0.97327 26.0741 1.40757 27.034C4.88603 26.6397 10.3108 25.6001 15.3254 22.8955C20.3561 25.608 25.797 26.6437 29.2755 27.038C29.7138 26.082 30.0636 25.0384 30.3049 23.8992C27.0275 23.5766 21.2127 22.6047 16.1498 19.6571L15.3254 19.1752V19.1712Z" fill="#007046"/>
<path d="M27.49 29.9298C24.2247 29.3841 19.9741 28.2847 16.1538 26.0621L15.3295 25.5801L14.5051 26.0621C10.6848 28.2887 6.43023 29.3881 3.16892 29.9298C4.02949 30.9973 4.93429 31.8099 6.01201 32.5587C8.37656 32.029 11.107 31.1367 13.7048 29.9298V37H16.9581V29.9298C19.5559 31.1367 22.2864 32.029 24.6509 32.5587C25.7286 31.8139 26.6294 31.0013 27.494 29.9298" fill="#B47C4E"/>
</svg>
