<svg width="44" height="49" viewBox="0 0 44 49" fill="none" xmlns="http://www.w3.org/2000/svg">
<path d="M26.3872 6.55493C26.4783 6.70007 26.596 6.82952 26.6074 6.97859C26.7403 7.40617 27.1239 7.66115 27.1694 8.09657C27.1846 8.24172 27.3669 8.30056 27.4618 8.36332C27.5643 8.50062 27.4922 8.65361 27.6896 8.85367C27.7846 8.91643 27.7124 9.06942 27.7276 9.21848C27.8225 9.28125 27.9213 9.34793 28.0124 9.4107C28.8668 10.7954 28.9503 12.4038 27.9592 13.8944C27.7998 14.0552 27.6479 14.2906 27.5833 14.5181C27.5036 14.6005 27.3365 14.6907 27.2568 14.7692C27.2719 14.9143 27.3669 14.9771 27.4694 15.1144C27.0403 15.2282 26.991 15.6008 26.6644 15.8558C26.5771 15.8636 26.4024 15.8793 26.3151 15.8872C26.0758 16.1304 25.8214 16.2285 25.5708 16.4011C25.4911 16.4834 25.5138 16.6992 25.5214 16.7737C25.1151 17.1072 24.5152 17.3111 23.8962 17.2994C23.8089 17.3111 23.7443 17.5347 23.657 17.5426C23.2165 17.5857 22.6849 17.5622 22.2482 17.6053C22.066 17.5504 21.9635 17.4131 21.7774 17.3582C21.6027 17.3778 21.4281 17.3935 21.242 17.3386C20.9572 17.1425 20.6003 17.1072 20.3193 16.9895C20.137 16.9306 19.7991 17.1111 19.613 16.9855C19.0244 16.4521 18.4397 15.9264 18.1131 15.3694C17.8967 15.0242 17.5321 14.9143 17.4068 14.5574C17.3916 14.4122 17.4562 14.1847 17.2739 14.1298C16.9056 14.016 17.0613 13.7846 17.0385 13.5649C16.9284 13.357 16.9094 13.2119 16.7119 13.0079C16.6018 12.8 16.7423 12.4901 16.6284 12.2115C16.6208 12.137 16.7005 12.0546 16.6929 11.984C16.56 11.5564 16.7765 11.0975 16.7385 10.7327C16.7119 10.5169 16.7727 10.2149 16.8334 9.98734C17.0499 9.52446 17.2587 8.99096 17.6498 8.51239C17.6422 8.44178 17.6271 8.29664 17.6195 8.2221C17.6992 8.13972 17.7865 8.13188 17.8663 8.0495C18.003 7.66899 18.1473 7.36302 18.3789 7.04528C18.6903 6.64908 19.1839 6.3078 19.5826 5.89983C19.8218 5.65662 20.156 5.47617 20.38 5.08782C20.4598 5.00544 20.7408 5.12705 20.8205 5.04859C21.0597 4.80538 21.4167 4.84461 21.6635 4.67201C21.9103 4.50333 21.8609 4.87207 22.1153 4.774C22.29 4.75831 22.3698 4.67593 22.5368 4.58571C22.7912 4.48764 23.076 4.67985 23.3494 4.72692C23.6114 4.69947 23.881 4.75046 24.1696 4.93875C24.5494 5.19373 25.4265 5.10743 25.5708 5.60955C25.7834 5.95475 26.167 6.20973 26.3796 6.55493H26.3872Z" fill="#C2002F"/>
<path d="M41.2191 12.2978C41.2077 12.0703 41.2191 11.933 41.1317 11.6937C41.1089 11.4662 41.2798 11.2152 41.2039 10.9053C41.1545 10.8229 41.0406 10.7248 41.0558 10.6542C41.2039 10.1756 41.2153 9.74021 41.1773 9.22241C41.1393 9.0655 41.09 8.98312 41.0406 8.89682C41.052 8.82621 41.0786 8.68499 41.1052 8.54769C41.1165 8.11227 40.9798 7.7906 40.8583 7.3944C40.8204 7.24141 40.7102 7.14334 40.6837 6.91582C40.6343 6.83345 40.5204 6.73145 40.5318 6.66084C40.6419 6.02928 40.3457 5.52324 40.2584 4.91914C40.1217 4.23266 39.4913 3.79723 39.2901 3.09506C39.3015 3.02445 39.5065 3.05191 39.5711 3.0676C40.0685 3.54617 40.6153 4.10713 40.752 4.79361C40.8393 5.0329 40.8014 5.24473 40.9039 5.41341C41.3254 5.9469 41.4013 6.62162 41.4735 7.29633C41.4621 7.36694 41.5988 7.32379 41.6482 7.41009C41.6368 7.47678 41.6102 7.618 41.6595 7.7043C41.9823 8.06912 41.7849 8.46139 41.8456 8.8419C41.8836 8.99489 41.9291 9.08119 41.9823 9.16356C41.9709 9.23417 41.8114 9.41854 41.7962 9.48915C42.0583 9.8422 42.1684 10.3051 42.0962 10.7248C42.3924 10.866 42.2557 11.274 42.3316 11.5839C42.381 11.6702 42.4456 11.682 42.5063 11.6977C42.5899 11.5721 42.6772 11.4427 42.7038 11.3015C42.7417 10.7248 42.7645 10.2188 42.6658 9.68529C42.5785 9.446 42.5519 9.22241 42.7152 9.03804C42.5899 9.01058 42.5519 8.85367 42.5025 8.76737C42.2785 7.83767 42.1874 6.80206 41.9215 5.85276C41.9215 5.85276 41.9937 5.79784 42.0089 5.72723C41.914 4.8956 41.3026 4.11497 41.014 3.2755C40.9685 3.12644 40.733 2.94599 40.6229 2.78516C40.6229 2.78516 40.6305 2.71455 40.6381 2.64394C40.9533 2.69101 41.1925 3.00091 41.3558 3.24412C41.6823 3.7227 42.062 4.25619 42.1608 4.78969C42.3354 5.26827 42.5899 5.77038 42.6962 6.23719C42.7645 6.54708 42.9848 6.75107 43.1253 7.00605C43.2088 7.24926 43.167 7.45717 43.186 7.68076C43.2734 8.21818 43.4328 8.73598 43.5316 9.2734C43.6569 9.66568 43.71 10.1129 43.5809 10.4542C43.41 11.0739 43.805 11.7487 43.9682 12.2939C44.0556 12.5332 43.9455 12.8 43.8467 12.9961C43.8353 13.0667 43.9455 13.1648 43.9341 13.2354C43.8239 13.5021 43.9113 13.7414 43.8581 14.0239C43.786 14.0788 43.9455 14.2632 43.8581 14.3887C43.7822 14.4475 43.7214 14.4318 43.6455 14.4907C43.5468 14.6868 43.6341 14.9261 43.5961 15.1379C43.3987 15.5302 43.4974 16.0637 43.1253 16.3461C42.9886 16.3854 42.9734 16.456 42.9012 16.5148C42.962 16.5266 43.0113 16.6129 43.0607 16.6953C42.9848 16.7502 42.924 16.7345 42.8519 16.7933C42.8291 16.9346 43.0911 17.1072 43.1404 17.1895C43.0379 17.7544 42.6316 18.2448 42.643 18.9038C42.6202 19.045 42.5823 19.2568 42.5595 19.3941C42.4342 19.7315 42.1987 19.9708 42.0734 20.3081C42.0507 20.4493 41.7886 20.465 41.7659 20.6023C41.6026 20.7828 41.6178 21.0809 41.5039 21.3477C41.4165 21.4732 41.2305 21.434 41.0824 21.5438C40.9115 21.7948 40.9343 22.0224 40.8242 22.2891C40.6381 22.6108 40.4103 22.9599 40.2242 23.2816C40.0154 23.7484 39.6584 24.1917 39.2749 24.5447C39.2104 24.5329 39.0737 24.5722 39.0015 24.631C38.804 25.0233 38.5762 25.3214 38.1547 25.5175C38.0902 25.5058 37.999 25.8118 37.9231 25.8667C37.6307 26.0903 37.4636 26.3413 37.1143 26.5532C36.9814 26.5963 36.9092 26.6512 36.7612 26.4002C36.3017 27.2436 35.6865 27.9065 35.0182 28.4832C34.6689 28.695 34.3158 28.6714 34.0841 28.9068C33.3247 29.6835 32.1134 30.5034 31.9767 30.6171C31.9197 30.6014 31.6881 30.9623 31.6881 30.9623C31.4413 30.9859 31.5818 31.0094 31.3539 30.9545C31.3539 30.9545 31.3425 31.3507 31.035 31.4174C30.3819 31.5508 30.2072 32.3353 30.1578 32.6609C30.1312 32.8217 30.0249 32.7119 29.949 32.7786C29.873 32.8453 29.9224 32.9394 29.8502 33.0061C29.5655 33.1865 29.3186 33.5474 29.0832 33.826C29.0111 33.8926 28.9617 33.7946 28.8858 33.8613C28.8098 33.924 28.4643 34.3712 28.339 34.7635C28.039 35.446 27.7162 36.0619 27.3023 36.5444C27.2036 36.6621 27.534 37.1211 27.5112 37.2741C27.4162 37.4898 27.2264 37.5251 27.1352 37.7409C27.0479 38.2783 27.0251 38.8745 26.9378 39.4433C26.7897 40.0004 26.972 40.3927 27.0479 40.8869C27.1277 41.3027 27.0251 41.8441 27.0479 42.2481C27.0783 42.5737 27.2909 42.9307 27.2568 43.2484C27.2681 43.7348 27.1618 43.6682 27.2606 44.0761C27.2454 44.3154 27.1694 44.5508 27.2226 44.7155C27.2036 45.0372 27.1542 45.2333 27.139 45.555C27.0745 45.6335 26.9378 45.7825 26.934 45.861C26.8884 46.6612 26.3796 47.3634 25.8518 47.889C25.5252 48.1048 25.2366 48.4382 24.8607 48.4108C24.6747 48.399 24.0443 48.8109 23.8355 48.8619C23.2773 49.0266 22.833 49.0266 22.3014 48.9521C21.7128 48.7874 21.2458 48.6344 20.8433 48.0106C20.6041 47.7321 20.1864 47.838 20.0345 47.4105C19.9889 47.2418 19.6472 47.1555 19.5902 47.0653C19.2826 46.7789 19.1194 46.4337 18.8877 46.0767C18.732 45.6531 18.846 45.3628 18.6599 44.9509C18.4662 44.6959 18.3827 44.5194 18.189 44.2644C17.9346 43.931 18.2498 43.4485 18.0599 43.115C17.927 43.0287 17.7979 42.8601 17.7372 42.6953C17.6157 42.3658 17.6422 41.8911 17.4524 41.542C17.3499 41.1262 17.4144 39.6199 17.4904 39.2158C17.5055 39.1334 17.2777 39.0197 17.2929 38.9373C17.3233 38.3528 17.5207 37.7879 17.4752 37.1838C17.5359 36.8582 17.5055 36.5993 17.7903 36.3247C17.7903 36.3247 17.6574 36.211 17.6688 36.1286C17.8321 35.6579 17.8321 35.297 17.9194 34.8066C17.9346 34.7243 18.1017 34.6772 18.1169 34.5948C18.0258 34.2378 18.022 33.5121 18.0789 33.1826C18.1093 33.0218 18.5156 32.7786 18.6105 32.6295C18.6257 32.5511 18.5536 32.3392 18.7055 32.0607C18.7434 31.9901 18.8498 32.0136 18.9295 31.9469C18.9409 31.8646 18.8915 31.7665 18.9029 31.688C18.9409 31.4448 19.3396 31.2683 19.3662 31.1075C19.5257 30.5544 19.7915 30.3229 20.0725 29.8757C20.175 29.6796 20.2129 29.4678 20.38 29.2873C20.456 29.2324 20.4901 29.2873 20.5053 29.2128C20.5205 29.1422 20.4826 28.9853 20.4939 28.9186C20.6534 28.7342 20.8699 28.5655 20.904 28.3537C21.0142 28.087 21.1091 27.8908 21.2686 27.7064C21.561 27.4828 21.8495 27.2553 22.0318 26.9337C22.1875 26.7493 22.3698 26.7924 22.5292 26.6081C22.7571 26.3688 22.8216 26.0197 22.9887 25.7647C23.3874 25.2704 23.8241 24.9331 24.2608 24.5957C24.6215 24.3133 25.0848 24.1995 25.4341 23.9916C25.7986 23.7092 26.0151 23.1757 26.3682 22.9638C26.5847 22.7952 26.8391 22.7795 27.0593 22.6108C27.2795 22.4421 27.458 22.1204 27.7846 22.0498C28.5098 21.8537 27.9896 22.0655 28.6693 21.7831C29.0908 21.5163 28.9161 21.4418 29.3414 21.1751C30.0439 20.7514 30.4122 20.4846 30.4692 20.4964C30.5413 20.4415 30.6135 20.3827 30.6401 20.2454C30.8071 19.9904 31.7071 19.3392 31.8438 19.2961C31.9767 19.2568 32.1324 19.4373 32.288 19.2568C32.3754 19.1313 32.2045 19.0175 32.288 18.892C32.5197 18.6527 32.7399 18.3311 32.964 18.1624C33.0399 18.1075 33.2146 18.2173 33.3475 18.1741C33.4234 18.1192 33.4462 17.978 33.5221 17.9231C33.6095 17.7976 33.45 17.6132 33.5335 17.4877C33.6323 17.2915 33.731 17.0954 33.8677 17.0522C34.0765 16.9502 34.3613 16.7973 34.3271 16.6443C34.3765 16.3618 34.4866 16.0951 34.7752 15.9421C34.7866 15.8715 34.8018 15.8009 34.8132 15.7303C34.9727 15.5459 35.1208 15.4361 35.284 15.2517C35.4587 14.9967 35.3828 14.6907 35.4815 14.4907C35.8043 14.1259 36.1118 13.8316 36.1992 13.3374C36.1726 13.1138 36.0359 12.7882 36.1384 12.5921C36.222 12.4665 36.4953 12.3841 36.5219 12.2429C36.5713 11.9605 36.4346 11.6388 36.4232 11.3446C36.4574 11.1328 36.6814 10.9641 36.6548 10.7405C36.632 10.1482 36.67 9.57153 36.5827 8.96743C36.7801 8.93997 36.8029 8.79875 36.8295 8.65753C36.7801 8.20641 36.5333 7.78668 36.4194 7.31987C36.408 7.02566 36.6396 6.78637 36.6283 6.49217C36.6017 6.26857 36.3966 6.00182 36.1688 5.80176C35.9599 5.53501 36.0966 5.12705 36.0207 4.82107C35.9599 4.44056 35.6865 4.15812 35.6372 3.71093C35.6144 3.48733 35.3524 3.4991 35.2651 3.25981C35.1891 2.94991 35.117 2.64002 35.117 2.2752C35.079 2.12221 34.8815 2.14967 34.7714 2.0516C34.5208 1.63187 34.6081 0.772783 34.0613 0.576646C34.1107 0.294207 33.8639 0.239288 33.7766 0C34.0993 0 34.3955 0.141219 34.5816 0.549186C34.6309 0.631564 34.817 0.674715 34.8815 0.690406C35.0448 0.870852 35.0296 1.3102 35.2043 1.42396C35.4283 1.6201 35.7625 1.54949 35.8498 1.78878C35.9751 2.18105 36.2599 2.39288 36.3966 2.71455C36.3852 2.78516 36.4232 2.93815 36.4688 3.02445C36.6928 3.22059 36.7156 3.44418 36.8789 3.62855C37.251 4.07967 37.6231 4.53079 37.4522 5.14666C37.3421 5.41341 37.6763 5.3428 37.7788 5.51148C38.0294 5.93513 37.9269 6.49609 38.2497 6.86091C38.1889 7.57877 38.5231 8.23779 38.7357 8.87328C38.375 9.44993 38.5762 10.4581 38.861 11.0347C38.861 11.0347 39.0585 11.0073 39.0736 10.9367C39.1344 10.5875 39.7533 10.4698 39.6546 10.3012C39.5293 9.90497 39.3433 9.08511 39.3433 8.72029C39.3812 8.14365 39.404 7.63761 39.3167 7.03351C39.2673 6.94721 39.2179 6.86483 39.1686 6.77853C39.0926 6.46863 39.0205 6.15873 39.0812 5.80961C39.0433 5.65662 38.9332 5.55855 38.8952 5.40164C38.9066 5.33103 38.9332 5.18981 38.9445 5.1192C39.0812 5.07605 39.2559 5.18981 39.3774 5.21727C39.4913 5.31534 39.3888 5.51148 39.4382 5.59385C39.6356 5.93121 39.9356 6.07243 39.9964 6.45294C39.985 6.52355 39.9584 6.66477 39.947 6.73538C39.9964 7.18649 40.2546 7.53562 40.3191 7.91613C40.3457 8.13972 40.1596 8.46139 40.247 8.7046C40.5318 9.27733 40.5432 9.94027 40.4976 10.5875C40.4444 10.87 40.7938 11.0936 40.6951 11.2897C40.5963 11.4858 40.7216 11.5133 40.6191 11.7134C40.6077 11.784 40.471 11.8232 40.4596 11.8938C40.6457 12.3018 40.3647 12.9176 40.3001 13.2707C40.2887 13.3413 40.5128 13.4158 40.5584 13.1569C40.5849 13 40.8431 13.0039 40.9798 12.9608C41.1279 12.847 41.2381 12.5803 41.2267 12.2861L41.2191 12.2978ZM42.5557 13.7022C42.5671 13.3452 42.7304 13.0824 42.6658 12.7058C42.5443 12.3135 42.2633 12.7058 42.062 12.7333C42.176 13.1962 41.9899 13.5178 41.8532 13.9258C41.7697 14.0513 41.7051 14.4044 41.9026 14.3769C42.2139 14.4475 42.5443 14.1415 42.5557 13.7061V13.7022ZM42.0241 15.6283C42.1 15.5184 42.0658 15.2909 41.9557 15.1928C41.7811 15.083 41.5608 15.2517 41.4583 15.4478C41.3596 15.644 41.4317 15.9539 41.6937 15.9382C41.7545 15.9539 41.9367 15.7577 42.0241 15.6283Z" fill="#0083CD"/>
<path d="M38.375 3.6364C38.7053 3.8953 38.8344 4.3268 39.0964 4.67593L39.0699 4.81715C38.6142 5.22511 38.2155 4.5504 38.0902 4.1542C37.9041 3.74623 37.718 3.33827 37.3801 3.04406C37.3953 2.97345 37.4067 2.90284 37.4219 2.83223C37.2586 2.64786 37.0497 2.38111 37.2586 2.28305C37.3421 2.15752 37.494 2.4125 37.6687 2.52233C37.9307 2.87538 37.9801 3.32258 38.3788 3.63247L38.375 3.6364Z" fill="#0083CD"/>
<path d="M40.2546 1.83193C40.2584 1.90254 40.1483 2.02414 40.1331 2.09475C39.9166 1.89077 39.7002 1.68286 39.5141 1.33766C39.4534 1.31805 39.3319 1.28666 39.2825 1.20036C39.2217 1.18467 39.2369 1.11406 39.2521 1.04738C39.4496 1.02776 39.6053 1.21606 39.7761 1.33766C39.8369 1.35335 39.9166 1.30236 39.9736 1.31805C40.1445 1.43965 40.2394 1.61225 40.2546 1.83585V1.83193Z" fill="#0083CD"/>
<path d="M12.2578 14.7692C12.3186 14.8202 12.4059 14.9026 12.4515 14.9614C12.554 15.0281 12.6565 15.0399 12.7628 14.9889C12.8654 14.9967 12.9565 15.2713 13.0628 15.2791C13.2109 15.3498 13.3058 15.6243 13.4539 15.7577C13.5527 15.8244 13.6552 15.9225 13.7577 15.9931C13.8982 16.1814 13.9893 16.3657 14.1374 16.4952C14.2324 16.6207 14.388 16.5776 14.4944 16.5854C14.6956 16.66 14.7792 16.962 14.9197 17.1503C14.9728 17.1542 15.0639 17.3386 15.0601 17.3974C15.1589 17.4641 15.2538 17.5897 15.4057 17.6603C15.4513 17.723 15.4437 17.8407 15.4892 17.9035C15.8614 18.5272 16.355 18.9195 16.674 19.5942C16.674 19.5942 16.7157 19.7158 16.7119 19.7746C17.0992 20.1591 17.2701 20.7082 17.6005 21.1476C17.6916 21.332 17.7751 21.634 17.8587 21.8772C17.9536 22.0028 18.0561 22.0734 18.1473 22.1989C18.284 22.446 18.4207 22.752 18.451 23.0501C18.4435 23.1678 18.3675 23.5169 18.1701 23.3208C17.927 23.0658 17.9536 22.7128 17.7068 22.5166C17.7106 22.4578 17.646 22.3048 17.5967 22.246C17.498 22.1244 17.3195 22.1322 17.2777 21.9518C17.2891 21.7752 17.0992 21.6301 17.0005 21.5085C16.7537 21.1437 16.3968 21.0103 16.1006 20.6416C16.0474 20.6416 15.9943 20.6376 15.9411 20.6926C15.8879 20.8063 15.7247 20.975 15.8727 21.1594C16.074 21.2888 16.1689 21.5281 16.4233 21.6576C16.5752 21.7831 16.6132 22.1361 16.7043 22.4343C16.8031 22.5559 16.9018 22.6775 17.0575 22.7481C17.2094 22.8736 17.1486 23.0619 17.2891 23.2502C17.2853 23.309 17.2283 23.36 17.2246 23.4189C17.3157 23.6072 17.5283 23.564 17.6726 23.7523C17.7827 23.6464 17.9346 23.7288 18.0258 23.9014C17.8587 24.0661 17.9005 24.1877 17.8359 24.3603C17.6612 24.6388 18.0561 24.9056 18.3068 25.0468C18.4624 25.0586 18.4397 25.3528 18.5877 25.4822C18.6789 25.6666 18.9371 25.6901 19.0776 25.9373C19.1232 26.0589 19.013 26.1099 18.9523 26.2236C18.9371 26.4002 19.1421 26.4747 19.2409 26.5414C19.3396 26.6081 19.3852 26.7336 19.4269 26.8513C19.2674 26.8944 18.9599 26.6787 18.808 26.663C18.7093 26.6159 18.5232 26.3845 18.3219 26.3413C18.2536 26.3256 18.208 26.4943 18.1321 26.4786C18.041 26.4629 17.9384 26.4394 17.8359 26.4198C17.7258 26.4002 17.4638 26.102 17.3499 26.0824C17.2208 26.0589 17.0613 26.306 16.936 26.2825C16.4689 26.2001 16.4499 26.1687 16.3018 26.102C16.1272 26.0314 15.9639 25.9491 15.812 25.8549C15.7095 25.8 15.7398 25.6588 15.6449 25.596C15.55 25.5332 15.3449 25.5332 15.25 25.4705C14.8741 25.2351 14.5247 24.7016 14.2058 24.529C13.9931 24.4153 13.8185 24.3054 13.583 24.1877C13.4691 24.1132 13.3856 23.9524 13.2413 23.9014C12.8046 23.7484 12.4515 23.462 11.9502 23.3169C11.0009 23.0384 10.2149 23.5993 9.44409 24.0112C9.40232 24.0112 9.32258 24.0034 9.28081 24.0308C9.10234 24.1877 8.89349 24.274 8.71882 24.3917C8.4796 24.5879 8.14544 24.6388 7.88344 24.7997C7.7999 24.8507 7.7923 25.0076 7.70877 25.0586C7.58346 25.1331 7.35942 25.1488 7.23791 25.2312C7.124 25.3057 7.11261 25.443 7.00249 25.5254C6.78225 25.7098 6.56581 25.8588 6.26583 26.0079C6.09496 26.0981 4.6748 26.3492 4.43558 26.3492C4.06725 26.357 3.81664 26.6669 3.26984 26.6669C2.43825 26.663 1.60666 26.6434 0.915573 26.1138C0.77128 25.9844 0.740902 25.6274 0.645972 25.5607C0.34979 25.3567 0.376371 24.9487 0.292832 24.6467C0.197902 24.58 -0.0109437 24.5643 0.000447873 24.3878C0.114364 23.513 0.535853 22.7206 1.04468 22.1165C1.16619 21.889 1.43199 21.7948 1.45098 21.5006C1.45098 21.5006 1.91424 20.8299 2.19523 20.5592C2.25599 20.4454 2.16485 20.2611 2.22561 20.1473C2.65089 19.2961 3.41793 18.7155 4.04447 17.9388C4.21154 17.7779 4.33306 17.5504 4.59506 17.5151C4.70138 17.523 4.80391 17.5308 4.86087 17.421C4.98617 17.1346 5.20641 16.9777 5.36969 16.8718C5.96965 16.4481 6.47468 15.8126 7.16197 15.695C7.26829 15.644 7.32905 15.5341 7.43537 15.4831C7.54928 15.3733 7.74674 15.5067 7.85306 15.4596C8.36189 15.2242 8.82894 14.7103 9.35295 14.6358C9.45928 14.5887 9.52003 14.475 9.57319 14.475C10.0365 14.5181 10.587 14.0905 11.0237 14.5377C11.4186 14.4554 12.0072 14.5377 12.254 14.7574L12.2578 14.7692ZM15.8196 19.9198C15.8196 19.8609 15.8234 19.8021 15.8272 19.7432C15.6259 19.6138 15.5348 19.2568 15.2766 19.1862C15.2272 19.1862 15.1171 19.2372 15.1171 19.2961C15.1019 19.6491 15.25 19.8923 15.3943 20.1904C15.4551 19.959 15.6107 19.9668 15.7095 20.1473C15.7626 20.0924 15.8196 19.9747 15.8234 19.9198H15.8196Z" fill="#26903E"/>
</svg>
