<svg width="104" height="34" viewBox="0 0 104 34" fill="none" xmlns="http://www.w3.org/2000/svg">
<path d="M10.5648 6.14324H3.37598V0.000473886H0V15.7372H3.37598V9.22069H10.5648V15.7372H13.9384V0.000473886H10.5648V6.14324Z" fill="#003B83"/>
<path d="M83.8605 0.898468C83.153 1.63871 83.1245 2.71873 83.1055 3.34975V15.7396H86.4767V10.7182H93.637V15.7396H97.0201V0.000473886H86.5005C85.501 0.0101819 84.5656 0.15823 83.8605 0.898468ZM87.3338 3.0755H93.6347V7.64556H86.4744V3.97349C86.4862 3.79389 86.453 3.46625 86.6026 3.27208C86.7616 3.06822 87.018 3.08521 87.3338 3.0755Z" fill="#003B83"/>
<path d="M59.9865 0.000473886H49.4455V15.7372H52.8214V3.0755H59.1484C59.4642 3.08521 59.7206 3.06822 59.8773 3.27208C60.0268 3.46625 59.9984 3.79389 60.0102 3.97349V15.7372H63.3815V3.34732C63.3625 2.71873 63.3363 1.63628 62.6312 0.896041C61.9238 0.155803 60.9907 0.00775492 59.9865 -0.00195312V0.000473886Z" fill="#003B83"/>
<path d="M43.0876 11.7618C43.0734 11.9462 43.1066 12.2666 42.957 12.4632C42.798 12.6695 42.5416 12.6525 42.2258 12.6598H35.8988V0.000473886H32.5205V15.7372H43.0615C44.0634 15.7299 44.9988 15.577 45.7039 14.8368C46.4137 14.0966 46.4398 13.019 46.4588 12.3855V0.000473886H43.0852V11.7618H43.0876Z" fill="#003B83"/>
<path d="M80.3064 3.34732C80.2898 2.71873 80.2613 1.63628 79.5562 0.896041C78.8511 0.155803 77.9157 0.00775492 76.9138 -0.00195312H66.3752V15.7348H76.9138C77.9133 15.7275 78.8511 15.5746 79.5562 14.8344C80.2613 14.0941 80.2898 13.0165 80.3064 12.3831V3.34732ZM76.9447 11.7618C76.9328 11.9462 76.9637 12.2666 76.8165 12.4632C76.6598 12.6695 76.3987 12.6525 76.0853 12.6598H69.7488V3.0755H76.0853C76.3987 3.08521 76.6574 3.06822 76.8165 3.27208C76.9637 3.46625 76.9328 3.79389 76.9447 3.97349V11.7642V11.7618Z" fill="#003B83"/>
<path d="M23.233 6.88591L19.14 0.000473886H15.1302L21.431 9.9221V15.7372H25.0349V9.9221L31.3334 0.000473886H27.3212L23.233 6.88591Z" fill="#003B83"/>
<path d="M103.998 0.000473886H100.401V15.7372H103.998V0.000473886Z" fill="#003B83"/>
<path d="M104 19.8559H0V22.227H104V19.8559Z" fill="#003B83"/>
<path d="M67.6264 31.6269C67.9587 31.588 68.2579 31.4861 68.5 31.2288C68.8277 30.8866 68.8443 30.3867 68.8514 30.0954V28.2266C68.8443 27.9354 68.83 27.4354 68.5 27.0932C68.1748 26.751 67.7427 26.6806 67.2774 26.6782H62.3772V34.0005H63.9607V31.6463H65.9621L67.5053 34.0005H69.1766L67.624 31.6269H67.6264ZM67.3628 29.8187C67.3581 29.894 67.3486 29.9716 67.3035 30.0299C67.2299 30.127 67.1112 30.1197 66.9664 30.1197H63.9655V28.2023H66.9664C67.1112 28.2072 67.2323 28.1999 67.3035 28.2946C67.3462 28.3528 67.3557 28.4329 67.3628 28.5057V29.8187Z" fill="#003B83"/>
<path d="M48.465 31.6269C48.7973 31.588 49.0988 31.4861 49.341 31.2288C49.6686 30.8866 49.6852 30.3867 49.69 30.0954V28.2266C49.6829 27.9354 49.6663 27.4354 49.341 27.0932C49.0158 26.751 48.5813 26.6806 48.1183 26.6782H43.2206V34.0005H44.8041V31.6463H46.8078L48.3486 34.0005H50.02L48.4673 31.6269H48.465ZM48.1991 29.8187C48.1919 29.894 48.1848 29.9716 48.1421 30.0299C48.0685 30.127 47.9498 30.1197 47.805 30.1197H44.8041V28.2023H47.805C47.9498 28.2072 48.0709 28.1999 48.1421 28.2946C48.1848 28.3528 48.1943 28.4329 48.1991 28.5057V29.8187Z" fill="#003B83"/>
<path d="M27.9788 26.6782V28.2824H30.4265V34.0005H31.9958V28.2824H34.4459V26.6782H27.9788Z" fill="#003B83"/>
<path d="M11.6236 26.6783V34.0006H13.1929V29.3675L14.7266 34.0006H16.113L17.6443 29.3675V34.0006H19.2136V26.6783H17.1339L15.4198 31.8357L13.7033 26.6783H11.6236Z" fill="#003B83"/>
<path d="M85.9188 34.0005H87.4857V31.9011H90.8024C91.2653 31.9011 91.6998 31.8283 92.0226 31.4861C92.3526 31.1415 92.3645 30.6439 92.374 30.3527V28.2266C92.3645 27.9354 92.3503 27.4354 92.0226 27.0932C91.6998 26.751 91.2653 26.6806 90.8024 26.6758H85.9188V34.0005ZM90.8807 30.0736C90.8783 30.1464 90.8712 30.2289 90.8261 30.2871C90.7525 30.3794 90.6314 30.3769 90.4866 30.3769H87.4857V28.2048H90.4866C90.6338 28.2072 90.7525 28.2023 90.8261 28.297C90.8688 28.3528 90.876 28.4329 90.8807 28.5081V30.076V30.0736Z" fill="#003B83"/>
<path d="M56.1571 28.3698C56.2259 28.2776 56.347 28.2824 56.4918 28.28H60.9979V26.6782H56.1001C55.6371 26.683 55.2027 26.7534 54.8774 27.0956C54.5498 27.4378 54.5355 27.9378 54.5284 28.229V32.452C54.5355 32.7433 54.5498 33.2432 54.8774 33.5855C55.205 33.9252 55.6371 33.998 56.1001 34.0005H59.4262C59.8915 33.998 60.3236 33.9277 60.6489 33.5855C60.9765 33.2408 60.9907 32.7433 60.9955 32.452V29.6124H57.6148V31.0419H59.4262V32.0928C59.4262 32.1681 59.4143 32.2482 59.3692 32.304C59.2956 32.3986 59.1769 32.3914 59.0321 32.3962H56.4871C56.3422 32.3938 56.2212 32.3986 56.1523 32.304C56.1072 32.2482 56.0977 32.1681 56.0953 32.0928V28.581C56.0977 28.5081 56.1072 28.4256 56.1523 28.3674L56.1571 28.3698Z" fill="#003B83"/>
<path d="M82.9773 32.1559C82.9726 32.2433 82.9868 32.3914 82.918 32.4812C82.842 32.5758 82.7233 32.571 82.5761 32.5734H79.6393V26.6782H78.0724V34.0005H82.9678C83.4331 34.0005 83.8652 33.9277 84.1952 33.5855C84.5229 33.2408 84.5347 32.7384 84.5442 32.4472V26.6758H82.9773V32.1559Z" fill="#003B83"/>
<path d="M76.3892 27.0956C76.0639 26.7534 75.6295 26.683 75.1665 26.6782H71.8404C71.3774 26.683 70.9454 26.7534 70.6177 27.0956C70.2901 27.4378 70.2782 27.9378 70.2687 28.229V32.452C70.2782 32.7433 70.2901 33.2432 70.6177 33.5855C70.9454 33.9252 71.3774 33.998 71.8404 34.0005H75.1665C75.6295 33.998 76.0639 33.9277 76.3892 33.5855C76.7192 33.2408 76.731 32.7433 76.7382 32.452V28.229C76.731 27.9378 76.7168 27.4378 76.3892 27.0956ZM75.1689 32.0953C75.1665 32.1705 75.157 32.2506 75.1119 32.3064C75.0383 32.4011 74.9196 32.3938 74.7748 32.3986H72.2321C72.0873 32.3962 71.9662 32.4011 71.895 32.3064C71.8499 32.2506 71.8404 32.1681 71.8356 32.0953V28.5834C71.8404 28.5106 71.8499 28.4281 71.895 28.3722C71.9662 28.2776 72.0873 28.2849 72.2321 28.28H74.7748C74.9196 28.2849 75.0383 28.28 75.1119 28.3722C75.157 28.4281 75.1641 28.5106 75.1689 28.5834V32.0953Z" fill="#003B83"/>
<path d="M41.5255 27.0956C41.2002 26.7534 40.7657 26.683 40.3028 26.6782H36.9767C36.5137 26.683 36.0816 26.7534 35.754 27.0956C35.4264 27.4378 35.4145 27.9378 35.405 28.229V32.452C35.4145 32.7433 35.4264 33.2432 35.754 33.5855C36.0816 33.9252 36.5137 33.998 36.9767 34.0005H40.3028C40.7657 33.998 41.2002 33.9277 41.5255 33.5855C41.8555 33.2408 41.8673 32.7433 41.8744 32.452V28.229C41.8673 27.9378 41.8555 27.4378 41.5255 27.0956ZM40.3052 32.0953C40.3028 32.1705 40.2933 32.2506 40.2482 32.3064C40.177 32.4011 40.0559 32.3938 39.9111 32.3986H37.366C37.2212 32.3962 37.1025 32.4011 37.0313 32.3064C36.9862 32.2506 36.9743 32.1681 36.9719 32.0953V28.5834C36.9743 28.5106 36.9862 28.4281 37.0313 28.3722C37.1025 28.2776 37.2212 28.2849 37.366 28.28H39.9111C40.0559 28.2849 40.177 28.28 40.2482 28.3722C40.2933 28.4281 40.3004 28.5106 40.3052 28.5834V32.0953Z" fill="#003B83"/>
<path d="M26.6683 27.0956C26.3431 26.7534 25.9086 26.683 25.4456 26.6782H22.1195C21.6566 26.683 21.2245 26.7534 20.8969 27.0956C20.5692 27.4378 20.5574 27.9378 20.5479 28.229V32.452C20.5574 32.7433 20.5692 33.2432 20.8969 33.5855C21.2245 33.9252 21.6566 33.998 22.1195 34.0005H25.4456C25.9086 33.998 26.3431 33.9277 26.6683 33.5855C26.9983 33.2408 27.0126 32.7433 27.0173 32.452V28.229C27.0102 27.9378 26.9983 27.4378 26.6683 27.0956ZM25.4504 32.0953C25.448 32.1705 25.4409 32.2506 25.3934 32.3064C25.3222 32.4011 25.2035 32.3938 25.0563 32.3986H22.5136C22.3688 32.3962 22.2501 32.4011 22.1789 32.3064C22.1338 32.2506 22.1243 32.1681 22.1195 32.0953V28.5834C22.1219 28.5106 22.1338 28.4281 22.1789 28.3722C22.2501 28.2776 22.3688 28.2849 22.5136 28.28H25.0563C25.2035 28.2849 25.3222 28.28 25.3934 28.3722C25.4385 28.4281 25.4456 28.5106 25.4504 28.5834V32.0953Z" fill="#003B83"/>
</svg>
