<svg width="162" height="27" viewBox="0 0 162 27" fill="none" xmlns="http://www.w3.org/2000/svg">
<path d="M48.8927 17.3422H49.6439V18.9959L51.1684 17.3422H52.1791L50.7762 18.792L52.2565 21.0631H51.2844L50.257 19.3156L49.6439 19.9385V21.0631H48.8927V17.3422Z" fill="#898989"/>
<path d="M53.1071 19.1999C53.1071 18.6541 53.2838 17.921 54.1399 17.921C55.0568 17.921 55.1673 18.7699 55.1673 19.1889C55.1673 20.2638 54.5376 20.4788 54.1399 20.4788C53.687 20.4788 53.4219 20.2307 53.2948 20.0102C53.2065 19.8614 53.1071 19.6188 53.1071 19.1999ZM52.3283 19.2219C52.3283 20.0819 52.7425 21.1237 54.1399 21.1237C55.449 21.1237 55.935 20.1811 55.935 19.2054C55.935 18.1194 55.344 17.276 54.1289 17.276C52.9745 17.276 52.3283 18.0312 52.3283 19.2219Z" fill="#898989"/>
<path d="M57.2993 17.9706H57.8848C58.3929 17.9706 58.4868 17.9706 58.6249 18.0533C58.763 18.136 58.8182 18.2793 58.8182 18.4336C58.8182 18.5439 58.7906 18.7809 58.531 18.8691C58.3984 18.9132 58.0836 18.9132 57.8516 18.9132H57.2938V17.9651L57.2993 17.9706ZM57.2993 21.0631V19.5086H57.4484C57.951 19.5086 58.0008 19.5802 58.4537 20.2528L58.995 21.0631H59.8953L59.4423 20.3354C59.0668 19.7401 58.9176 19.6023 58.6083 19.4259V19.4149C58.7519 19.3983 58.8955 19.3597 59.0226 19.2991C59.3871 19.1503 59.5915 18.792 59.5915 18.384C59.5915 18.0202 59.4147 17.5958 58.9839 17.4359C58.8679 17.3973 58.6856 17.3422 58.1278 17.3422H56.5426V21.0631H57.2993Z" fill="#898989"/>
<path d="M60.3095 17.3422H63.0767V17.9706H61.0607V18.7975H62.9331V19.4259H61.0607V20.4347H63.143V21.0631H60.3095V17.3422Z" fill="#898989"/>
<path d="M64.7337 19.5913L65.2419 18.2076L65.7555 19.5913H64.7337ZM67.1419 21.0631L65.6451 17.3422H64.8497L63.3971 21.0631H64.198L64.5073 20.2197H65.9986L66.3189 21.0631H67.1419Z" fill="#898989"/>
<path d="M69.9422 19.5913L70.4449 18.2076L70.9641 19.5913H69.9422ZM72.3504 21.0631L70.8536 17.3422H70.0582L68.6056 21.0631H69.4065L69.7158 20.2197H71.2071L71.5275 21.0631H72.3504Z" fill="#898989"/>
<path d="M73.3115 19.7842C73.3502 19.9771 73.444 20.4953 74.1234 20.4953C74.6481 20.4953 74.858 20.2197 74.858 19.9826C74.858 19.6739 74.5984 19.6023 73.908 19.4369C73.5379 19.3432 72.715 19.1392 72.715 18.3179C72.715 17.91 72.9801 17.276 74.0737 17.276C74.8028 17.276 75.4711 17.5627 75.4987 18.4061L74.742 18.4392C74.7144 18.2462 74.6537 17.8989 74.0627 17.8989C73.8362 17.8989 73.433 17.9651 73.433 18.2683C73.433 18.5053 73.665 18.61 74.267 18.7534C74.8359 18.8912 75.6037 19.0731 75.6037 19.9826C75.6037 20.4347 75.3165 20.815 74.9961 20.9583C74.6647 21.1182 74.2891 21.1237 74.1179 21.1237C73.7202 21.1237 72.726 21.0851 72.5824 19.8503L73.3115 19.7842Z" fill="#898989"/>
<path d="M76.7857 19.7842C76.8243 19.9771 76.9182 20.4953 77.5976 20.4953C78.1223 20.4953 78.3322 20.2197 78.3322 19.9826C78.3322 19.6739 78.0726 19.6023 77.3822 19.4369C77.0121 19.3432 76.1892 19.1392 76.1892 18.3179C76.1892 17.91 76.4543 17.276 77.5479 17.276C78.277 17.276 78.9453 17.5627 78.9729 18.4061L78.2162 18.4392C78.1831 18.2462 78.1279 17.8989 77.5313 17.8989C77.3049 17.8989 76.9017 17.9651 76.9017 18.2683C76.9017 18.5053 77.1337 18.61 77.7357 18.7534C78.3046 18.8912 79.0723 19.0731 79.0723 19.9826C79.0723 20.4347 78.7851 20.815 78.4648 20.9583C78.1334 21.1182 77.7578 21.1237 77.5866 21.1237C77.1834 21.1237 76.1947 21.0851 76.0511 19.8503L76.7802 19.7842H76.7857Z" fill="#898989"/>
<path d="M80.3096 19.1999C80.3096 18.6541 80.4863 17.921 81.3425 17.921C82.2593 17.921 82.3698 18.7699 82.3698 19.1889C82.3698 20.2638 81.7401 20.4788 81.3425 20.4788C80.8895 20.4788 80.6244 20.2307 80.4974 20.0102C80.409 19.8614 80.3096 19.6188 80.3096 19.1999ZM79.5308 19.2219C79.5308 20.0819 79.945 21.1237 81.3425 21.1237C82.6515 21.1237 83.1375 20.1811 83.1375 19.2054C83.1375 18.1194 82.5465 17.276 81.3314 17.276C80.1163 17.276 79.5308 18.0312 79.5308 19.2219Z" fill="#898989"/>
<path d="M86.8603 19.922C86.783 20.2142 86.5344 21.1237 85.3137 21.1237C84.303 21.1237 83.6181 20.3906 83.6181 19.233C83.6181 18.1966 84.1428 17.2815 85.3579 17.2815C85.5678 17.2815 86.087 17.3036 86.5013 17.706C86.6891 17.8934 86.783 18.1139 86.8548 18.373L86.1091 18.5494C86.0152 18.1415 85.7059 17.9265 85.3248 17.9265C84.3969 17.9265 84.3969 18.9463 84.3969 19.1833C84.3969 19.5306 84.4411 19.8779 84.5957 20.1205C84.7338 20.3299 84.9823 20.4843 85.3137 20.4843C85.8164 20.4843 86.0428 20.1039 86.1367 19.7015L86.8658 19.9275L86.8603 19.922Z" fill="#898989"/>
<path d="M87.4678 17.3422H88.219V21.0631H87.4678V17.3422Z" fill="#898989"/>
<path d="M89.9147 19.5913L90.4173 18.2076L90.931 19.5913H89.9092H89.9147ZM92.3174 21.0631L90.8205 17.3422H90.0252L88.5725 21.0631H89.3734L89.6827 20.2197H91.174L91.4944 21.0631H92.3174Z" fill="#898989"/>
<path d="M93.0796 17.9706H91.9749V17.3422H94.9354V17.9706H93.8308V21.0631H93.0796V17.9706Z" fill="#898989"/>
<path d="M95.3883 17.3422H96.1395V21.0631H95.3883V17.3422Z" fill="#898989"/>
<path d="M97.4872 19.1999C97.4872 18.6541 97.664 17.921 98.5201 17.921C99.437 17.921 99.5474 18.7699 99.5474 19.1889C99.5474 20.2638 98.9178 20.4788 98.5201 20.4788C98.0672 20.4788 97.802 20.2307 97.675 20.0102C97.5866 19.8614 97.4872 19.6188 97.4872 19.1999ZM96.714 19.2219C96.714 20.0819 97.1282 21.1237 98.5256 21.1237C99.8346 21.1237 100.321 20.1811 100.321 19.2054C100.321 18.1194 99.7352 17.276 98.5146 17.276C97.3602 17.276 96.714 18.0312 96.714 19.2219Z" fill="#898989"/>
<path d="M101.679 17.3422L103.193 19.8283H103.204V17.3422H103.9V21.0631H103.143L101.652 18.6376H101.641V21.0631H100.945V17.3422H101.679Z" fill="#898989"/>
<path d="M106.75 19.1999C106.75 18.6541 106.927 17.921 107.783 17.921C108.7 17.921 108.81 18.7699 108.81 19.1889C108.81 20.2638 108.18 20.4788 107.783 20.4788C107.33 20.4788 107.065 20.2307 106.938 20.0102C106.849 19.8614 106.75 19.6188 106.75 19.1999ZM105.977 19.2219C105.977 20.0819 106.385 21.1237 107.788 21.1237C109.097 21.1237 109.583 20.1811 109.583 19.2054C109.583 18.1194 108.998 17.276 107.777 17.276C106.557 17.276 105.977 18.0312 105.977 19.2219Z" fill="#898989"/>
<path d="M110.191 17.3422H112.748V17.9706H110.942V18.8526H112.505V19.481H110.942V21.0631H110.191V17.3422Z" fill="#898989"/>
<path d="M115.388 19.7842C115.427 19.9771 115.526 20.4953 116.2 20.4953C116.725 20.4953 116.935 20.2197 116.935 19.9826C116.935 19.6739 116.675 19.6023 115.985 19.4369C115.615 19.3432 114.792 19.1392 114.792 18.3179C114.792 17.91 115.057 17.276 116.151 17.276C116.88 17.276 117.548 17.5627 117.576 18.4061L116.819 18.4392C116.791 18.2462 116.731 17.8989 116.14 17.8989C115.913 17.8989 115.51 17.9651 115.51 18.2683C115.51 18.5053 115.742 18.61 116.344 18.7534C116.913 18.8912 117.686 19.0731 117.686 19.9826C117.686 20.4347 117.399 20.815 117.079 20.9583C116.747 21.1182 116.372 21.1237 116.2 21.1237C115.797 21.1237 114.808 21.0851 114.665 19.8503L115.394 19.7842H115.388Z" fill="#898989"/>
<path d="M118.907 19.1999C118.907 18.6541 119.084 17.921 119.94 17.921C120.857 17.921 120.967 18.7699 120.967 19.1889C120.967 20.2638 120.337 20.4788 119.94 20.4788C119.487 20.4788 119.222 20.2307 119.095 20.0102C119.006 19.8614 118.907 19.6188 118.907 19.1999ZM118.128 19.2219C118.128 20.0819 118.542 21.1237 119.94 21.1237C121.249 21.1237 121.735 20.1811 121.735 19.2054C121.735 18.1194 121.144 17.276 119.929 17.276C118.774 17.276 118.128 18.0312 118.128 19.2219Z" fill="#898989"/>
<path d="M125.457 19.922C125.38 20.2142 125.132 21.1237 123.911 21.1237C122.9 21.1237 122.215 20.3906 122.215 19.233C122.215 18.1966 122.74 17.2815 123.955 17.2815C124.165 17.2815 124.684 17.3036 125.098 17.706C125.286 17.8934 125.38 18.1139 125.452 18.373L124.706 18.5494C124.612 18.1415 124.303 17.9265 123.922 17.9265C122.994 17.9265 122.994 18.9463 122.994 19.1833C122.994 19.5306 123.038 19.8779 123.193 20.1205C123.325 20.3299 123.58 20.4843 123.911 20.4843C124.414 20.4843 124.64 20.1039 124.734 19.7015L125.463 19.9275L125.457 19.922Z" fill="#898989"/>
<path d="M126.071 17.3422H126.822V21.0631H126.071V17.3422Z" fill="#898989"/>
<path d="M128.512 19.5913L129.02 18.2076L129.534 19.5913H128.512ZM130.92 21.0631L129.423 17.3422H128.628L127.175 21.0631H127.976L128.285 20.2197H129.777L130.097 21.0631H130.92Z" fill="#898989"/>
<path d="M131.318 17.3422H132.069V20.4347H133.947V21.0631H131.323V17.3422H131.318Z" fill="#898989"/>
<path d="M135.151 17.3422H135.924L136.482 19.9H136.493L137.173 17.3422H138.067L138.719 19.9385H138.73L139.293 17.3422H140.056L139.15 21.0631H138.349L137.614 18.2848H137.603L136.869 21.0631H136.051L135.162 17.3422H135.151Z" fill="#898989"/>
<path d="M140.956 19.1999C140.956 18.6541 141.133 17.921 141.989 17.921C142.906 17.921 143.016 18.7699 143.016 19.1889C143.016 20.2638 142.387 20.4788 141.989 20.4788C141.536 20.4788 141.271 20.2307 141.144 20.0102C141.055 19.8614 140.956 19.6188 140.956 19.1999ZM140.177 19.2219C140.177 20.0819 140.586 21.1237 141.989 21.1237C143.298 21.1237 143.784 20.1811 143.784 19.2054C143.784 18.1194 143.199 17.276 141.978 17.276C140.757 17.276 140.177 18.0312 140.177 19.2219Z" fill="#898989"/>
<path d="M145.148 17.9706H145.739C146.242 17.9706 146.336 17.9706 146.479 18.0533C146.623 18.136 146.673 18.2793 146.673 18.4336C146.673 18.5439 146.645 18.7809 146.385 18.8691C146.258 18.9132 145.938 18.9132 145.712 18.9132H145.154V17.9651L145.148 17.9706ZM145.148 21.0631V19.5086H145.297C145.8 19.5086 145.85 19.5802 146.303 20.2528L146.844 21.0631H147.744L147.291 20.3354C146.916 19.7401 146.772 19.6023 146.457 19.4259V19.4149C146.601 19.3983 146.744 19.3597 146.872 19.2991C147.236 19.1503 147.44 18.792 147.44 18.384C147.44 18.0202 147.264 17.5958 146.833 17.4359C146.717 17.3973 146.535 17.3422 145.977 17.3422H144.392V21.0631H145.148Z" fill="#898989"/>
<path d="M148.158 17.3422H148.91V18.9959L150.434 17.3422H151.445L150.042 18.792L151.522 21.0631H150.55L149.523 19.3156L148.91 19.9385V21.0631H148.158V17.3422Z" fill="#898989"/>
<path d="M151.92 17.3422H154.687V17.9706H152.671V18.7975H154.543V19.4259H152.671V20.4347H154.753V21.0631H151.92V17.3422Z" fill="#898989"/>
<path d="M156.145 17.9706H156.731C157.233 17.9706 157.327 17.9706 157.471 18.0533C157.614 18.136 157.664 18.2793 157.664 18.4336C157.664 18.5439 157.637 18.7809 157.377 18.8691C157.244 18.9132 156.93 18.9132 156.698 18.9132H156.14V17.9651L156.145 17.9706ZM156.145 21.0631V19.5086H156.294C156.797 19.5086 156.847 19.5802 157.3 20.2528L157.841 21.0631H158.741L158.288 20.3354C157.913 19.7401 157.769 19.6023 157.454 19.4259V19.4149C157.598 19.3983 157.742 19.3597 157.869 19.2991C158.233 19.1503 158.437 18.792 158.437 18.384C158.437 18.0202 158.261 17.5958 157.83 17.4359C157.714 17.3973 157.532 17.3422 156.974 17.3422H155.389V21.0631H156.145Z" fill="#898989"/>
<path d="M159.713 19.7842C159.752 19.9771 159.851 20.4953 160.525 20.4953C161.05 20.4953 161.26 20.2197 161.26 19.9826C161.26 19.6739 161 19.6023 160.31 19.4369C159.94 19.3432 159.117 19.1392 159.117 18.3179C159.117 17.91 159.382 17.276 160.476 17.276C161.205 17.276 161.873 17.5627 161.901 18.4061L161.144 18.4392C161.111 18.2462 161.056 17.8989 160.459 17.8989C160.233 17.8989 159.829 17.9651 159.829 18.2683C159.829 18.5053 160.061 18.61 160.663 18.7534C161.232 18.8912 162 19.0731 162 19.9826C162 20.4347 161.713 20.815 161.392 20.9583C161.056 21.1182 160.685 21.1237 160.514 21.1237C160.111 21.1237 159.122 21.0851 158.979 19.8503L159.708 19.7842H159.713Z" fill="#898989"/>
<path d="M27.6223 12.607C27.6223 15.8648 24.7778 18.4998 21.276 18.4998C17.7742 18.4998 14.9241 15.8593 14.9241 12.607C14.9241 9.35463 17.7686 6.71417 21.276 6.71417C24.7833 6.71417 27.6223 9.35463 27.6223 12.607Z" fill="#ABCD03"/>
<path d="M10.986 2.0341H0V4.40445H10.986V2.0341Z" fill="#009FA8"/>
<path d="M10.986 5.31401H0V8.73173H10.986V5.31401Z" fill="#00959E"/>
<path d="M31.6875 9.64128V12.8054C31.6875 14.6852 31.5991 16.0412 31.4224 16.8626C31.2456 17.684 30.9584 18.3675 30.5552 18.9187C30.036 19.5913 29.1633 20.1039 27.9371 20.4567C26.7109 20.8095 23.1042 20.9859 21.3312 20.9859C19.5582 20.9859 15.9459 20.8095 14.7087 20.4567C13.4715 20.1039 12.6043 19.5913 12.1127 18.9187C11.6874 18.3675 11.3947 17.684 11.229 16.8626C11.0633 16.0412 10.9804 14.6907 10.9804 12.8054V9.64128H0V13.9189C0 16.802 0.325878 18.9298 0.977634 20.2969C1.62939 21.6695 2.68987 22.8381 4.16461 23.8028C5.82162 24.8667 8.06962 25.666 10.9031 26.2007C13.7366 26.7299 17.2053 27 21.3091 27C25.413 27 28.8209 26.7354 31.6764 26.2007C34.532 25.6715 36.78 24.8667 38.4149 23.8028C39.9062 22.8326 40.9722 21.6639 41.6019 20.2969C42.2316 18.9298 42.5464 16.802 42.5464 13.9189V9.64128H31.6875Z" fill="#008B93"/>
<path d="M42.5464 0H31.6875V1.12454H42.5464V0Z" fill="#00ADA9"/>
<path d="M10.986 0H0V1.12454H10.986V0Z" fill="#00ADA9"/>
<path d="M42.5464 2.0341H31.6875V4.40445H42.5464V2.0341Z" fill="#009FA8"/>
<path d="M42.5464 5.31401H31.6875V8.73173H42.5464V5.31401Z" fill="#00959E"/>
<path d="M56.2719 6.92364C56.3769 7.13863 56.4321 7.36464 56.4321 7.59616C56.4321 8.22458 56.0676 8.75929 55.3385 9.20029C54.6094 9.63577 53.7312 9.85627 52.6983 9.85627C51.6655 9.85627 50.7872 9.63577 50.0582 9.20029C49.3291 8.75929 48.9645 8.22458 48.9645 7.59616C48.9645 7.36464 49.0198 7.13863 49.1247 6.92364C49.2352 6.70866 49.3788 6.51572 49.5611 6.35035H49.2131V5.23132H51.9527V4.50919H53.4219V5.23132H56.1559V6.35035H55.808C56.0068 6.51572 56.1615 6.70866 56.2664 6.92364H56.2719ZM51.1076 6.74724C50.6602 6.97877 50.4338 7.2599 50.4338 7.59065C50.4338 7.90486 50.6602 8.18048 51.1076 8.412C51.555 8.64353 52.0852 8.75929 52.6983 8.75929C53.3114 8.75929 53.8638 8.64353 54.3056 8.412C54.742 8.18048 54.9629 7.90486 54.9629 7.59065C54.9629 7.2599 54.742 6.97877 54.3056 6.74724C53.8638 6.51572 53.328 6.39996 52.6983 6.39996C52.0687 6.39996 51.555 6.51572 51.1076 6.74724ZM58.3984 12.4361V5.45733C58.3984 5.32503 58.4426 5.19824 58.5365 5.07146C58.6249 4.95018 58.7464 4.88403 58.8955 4.88403H60.9337V6.00306H59.8621V12.4361H58.3929H58.3984ZM59.8676 14.1229H50.9088C50.5608 14.1229 50.2846 14.0292 50.0858 13.8363C49.8869 13.6488 49.7875 13.3677 49.7875 13.0039V10.4185H51.2291V13.0039H59.8676V14.1229Z" fill="#231815"/>
<path d="M66.5288 10.1264H61.95V9.00735H72.599V10.1264H67.9704V10.6997H71.1795C71.5274 10.6997 71.7981 10.7989 71.9859 10.9973C72.1792 11.1958 72.2731 11.4714 72.2731 11.8187V14.1284H70.8536V11.8187H62.2151V10.6997H66.5233V10.1264H66.5288ZM71.1795 4.88955C71.5274 4.88955 71.7981 4.98877 71.9859 5.18722C72.1792 5.38567 72.2731 5.66129 72.2731 6.00857V8.61597H70.8536V6.00857H62.2151V4.88955H71.1795Z" fill="#231815"/>
<path d="M78.4593 4.88955V8.11984C78.4593 8.78134 78.7133 9.40425 79.216 9.98305C79.7241 10.5619 80.3814 10.8044 81.1933 10.7052V11.8242C80.2157 11.9565 79.4424 11.8463 78.879 11.488C78.3157 11.1296 77.9235 10.7824 77.7081 10.4296C77.4927 10.7768 77.1226 11.1296 76.5979 11.488C76.0732 11.8463 75.2888 11.9565 74.2449 11.8242V10.7052C75.1729 10.8044 75.8633 10.5674 76.3107 9.98305C76.7581 9.40425 76.9845 8.78134 76.9845 8.11984V4.88955H78.4593ZM85.9765 6.00857H84.905V14.1284H83.4358V5.43528C83.4358 5.30298 83.4689 5.18171 83.5352 5.06043C83.6015 4.94467 83.7451 4.88403 83.9605 4.88403H85.9765V6.00857Z" fill="#231815"/>
<path d="M88.2577 8.82544C87.7109 8.43405 87.4347 7.98203 87.4347 7.46938C87.4347 7.25439 87.4844 7.05043 87.5838 6.86301C87.6833 6.67007 87.8158 6.5047 87.9815 6.35586H87.4347V5.23683H90.3234V4.5147H91.765V5.23683H94.6537V6.35586H94.0296C94.2119 6.5047 94.3555 6.67558 94.4549 6.86301C94.5543 7.05594 94.604 7.25439 94.604 7.46938C94.604 7.98203 94.3334 8.43405 93.7976 8.82544C93.2563 9.21131 92.5714 9.46488 91.7429 9.58064V10.6997H94.6537V11.8187H87.4347V10.6997H90.2958V9.58064C89.4839 9.46488 88.8045 9.21131 88.2577 8.82544ZM89.5115 6.76378C89.0862 6.9512 88.8763 7.18824 88.8763 7.46938C88.8763 7.73397 89.0862 7.9655 89.5115 8.16394C89.9368 8.36239 90.4339 8.46162 91.0138 8.46162C91.5938 8.46162 92.0964 8.36239 92.5217 8.16394C92.9415 7.9655 93.1569 7.73397 93.1569 7.46938C93.1569 7.18824 92.947 6.9512 92.5217 6.76378C92.0964 6.57085 91.5938 6.47713 91.0138 6.47713C90.4339 6.47713 89.9313 6.57085 89.5115 6.76378ZM96.62 4.88403H98.0893V11.8132H96.62V4.88403Z" fill="#231815"/>
<path d="M100.453 10.6997H109.412C109.76 10.6997 110.031 10.7989 110.219 10.9973C110.412 11.1958 110.506 11.4714 110.506 11.8187V14.1284H109.086V11.8187H100.453V10.6997ZM106.203 9.1617H110.832V10.2807H100.183V9.1617H104.761V8.61597H101.602C101.238 8.61597 100.956 8.51123 100.757 8.30727C100.558 8.10331 100.459 7.82217 100.459 7.47489V4.88955H101.928V5.61168H109.097V4.88955H110.517V7.47489C110.517 7.82217 110.423 8.09779 110.23 8.30727C110.036 8.51674 109.771 8.61597 109.423 8.61597H106.214V9.1617H106.203ZM101.917 6.72519V7.46938H109.086V6.72519H101.917Z" fill="#231815"/>
<path d="M119.862 4.88955V6.00857H117.123V7.77256C117.123 8.48367 117.261 9.13965 117.548 9.73499C117.83 10.3303 118.603 10.6556 119.862 10.7052V11.8242H119.139C118.725 11.8242 118.2 11.7029 117.559 11.4659C116.918 11.2234 116.532 10.9312 116.399 10.5839C116.25 10.9312 115.897 11.2234 115.344 11.4659C114.786 11.7085 114.267 11.8242 113.787 11.8242H112.914V10.7052C114.157 10.6721 114.924 10.3634 115.217 9.77358C115.51 9.18375 115.654 8.51674 115.654 7.77256V6.00857H112.914V4.88955H119.862ZM123.574 4.88955V14.1284H122.105V4.88955H123.574Z" fill="#231815"/>
<path d="M129.285 4.88955V8.11984C129.285 8.78134 129.539 9.40425 130.047 9.98305C130.556 10.5619 131.213 10.8044 132.025 10.7052V11.8242C131.047 11.9565 130.274 11.8463 129.71 11.488C129.147 11.1296 128.755 10.7824 128.54 10.4296C128.324 10.7768 127.954 11.1296 127.435 11.488C126.91 11.8463 126.126 11.9565 125.082 11.8242V10.7052C126.01 10.8044 126.7 10.5674 127.148 9.98305C127.595 9.40425 127.821 8.78134 127.821 8.11984V4.88955H129.291H129.285ZM136.802 6.00857H135.731V14.1284H134.262V5.43528C134.262 5.30298 134.295 5.18171 134.361 5.06043C134.427 4.94467 134.571 4.88403 134.786 4.88403H136.802V6.00857Z" fill="#231815"/>
<path d="M144.883 6.92364C144.994 7.13863 145.043 7.36464 145.043 7.59616C145.043 8.22458 144.679 8.75929 143.95 9.20029C143.221 9.63577 142.342 9.85627 141.31 9.85627C140.277 9.85627 139.404 9.63577 138.669 9.20029C137.94 8.75929 137.576 8.22458 137.576 7.59616C137.576 7.36464 137.631 7.13863 137.736 6.92364C137.846 6.70866 137.99 6.51572 138.172 6.35035H137.824V5.23132H140.564V4.50919H142.033V5.23132H144.773V6.35035H144.425C144.624 6.51572 144.778 6.70866 144.883 6.92364ZM139.719 6.74724C139.271 6.97877 139.045 7.2599 139.045 7.59065C139.045 7.90486 139.271 8.18048 139.719 8.412C140.166 8.64353 140.696 8.75929 141.31 8.75929C141.923 8.75929 142.475 8.64353 142.917 8.412C143.353 8.18048 143.574 7.90486 143.574 7.59065C143.574 7.2599 143.353 6.97877 142.917 6.74724C142.475 6.51572 141.945 6.39996 141.31 6.39996C140.674 6.39996 140.166 6.51572 139.719 6.74724ZM147.015 9.85627V8.73724H145.596V7.64577H147.015V7.12209H145.596V5.98101H147.015V4.88955H148.484V9.85627H147.015ZM148.484 14.1229H139.525C139.177 14.1229 138.901 14.0292 138.702 13.8363C138.504 13.6488 138.404 13.3677 138.404 13.0039V10.4185H139.846V10.9918H147.015V10.4185H148.484V14.1229ZM139.846 12.0888V13.0094H147.015V12.0888H139.846Z" fill="#231815"/>
<path d="M151.384 8.82544C150.837 8.43405 150.561 7.98203 150.561 7.46938C150.561 7.25439 150.611 7.05043 150.71 6.86301C150.81 6.67007 150.942 6.5047 151.108 6.35586H150.561V5.23683H153.45V4.5147H154.897V5.23683H157.786V6.35586H157.162C157.344 6.5047 157.482 6.67558 157.587 6.86301C157.686 7.05594 157.736 7.25439 157.736 7.46938C157.736 7.98203 157.465 8.43405 156.93 8.82544C156.388 9.21131 155.709 9.46488 154.88 9.58064V10.6997H157.791V11.8187H150.572V10.6997H153.433V9.58064C152.621 9.46488 151.942 9.21131 151.395 8.82544H151.384ZM152.643 6.76378C152.218 6.9512 152.008 7.18824 152.008 7.46938C152.008 7.73397 152.218 7.9655 152.643 8.16394C153.069 8.36239 153.566 8.46162 154.146 8.46162C154.726 8.46162 155.228 8.36239 155.654 8.16394C156.079 7.9655 156.289 7.73397 156.289 7.46938C156.289 7.18824 156.079 6.9512 155.654 6.76378C155.228 6.57085 154.731 6.47713 154.146 6.47713C153.56 6.47713 153.063 6.57085 152.643 6.76378ZM159.746 4.88403H161.216V11.8132H159.746V4.88403Z" fill="#231815"/>
</svg>
