<svg width="132" height="39" viewBox="0 0 132 39" fill="none" xmlns="http://www.w3.org/2000/svg">
<path d="M65.4501 25.2122V26.9779H50.5408V25.2122H56.977V21.9717H51.7399V12.7889H53.7212V15.1485H62.2498V12.7889H64.251V21.9717H58.998V25.2122H65.4541H65.4501ZM62.2498 20.2452V16.8789H53.7212V20.2452H62.2498Z" fill="#575756"/>
<path d="M75.0151 20.9806H72.998V14.3541H67.0542V12.5727H75.019V20.9846L75.0151 20.9806ZM68.1262 27.8431V21.9717H70.1432V26.0773H81.4156V27.8431H68.1262ZM79.069 12.1047H81.086V22.3885H79.069V17.689H76.4127V15.9429H79.069V12.1047Z" fill="#575756"/>
<path d="M98.6317 19.9896V21.7003H83.7224V19.9896H90.1586V18.5857H84.9215V12.3013H86.9028V13.7957H95.4315V12.3013H97.4326V18.5857H92.1796V19.9896H98.6357H98.6317ZM97.4326 23.0177V28.2049H95.4156V24.7127H84.5443V23.0217H97.4366L97.4326 23.0177ZM95.4315 15.4513H86.9028V16.9104H95.4315V15.4513Z" fill="#575756"/>
<path d="M100.645 14.8575V13.0918H110.317V14.8575H106.243L110.754 25.3577L108.971 26.1127L105.517 17.9014L102.082 26.2386L100.264 25.4835L104.79 14.8575H100.645ZM112.679 12.1047H114.696V28.1695H112.679V12.1047Z" fill="#575756"/>
<path d="M117.091 22.2509H132V24.0166H125.544V28.1577H123.527V24.0166H117.091V22.2509ZM120.271 14.3974H128.8V12.3642H130.801V20.0919H118.29V12.3642H120.271V14.3974ZM128.8 16.1278H120.271V18.3418H128.8V16.1278Z" fill="#575756"/>
<path d="M30.4023 18.6132C26.9837 16.3087 22.6002 17.2486 20.3013 20.7132C18.3795 23.6076 15.4811 23.9655 14.3574 23.9655C10.7006 23.9655 8.19516 21.4172 7.45267 18.7784C7.44473 18.7508 7.44076 18.7312 7.43282 18.7036C7.42488 18.6722 7.41693 18.6447 7.40899 18.6132C7.11915 17.5121 7.04768 16.9851 7.04768 15.8171C7.04768 9.50913 13.5792 2.48543 22.9933 2.48543C32.4074 2.48543 38.1448 9.75295 39.5662 13.7918C39.5424 13.721 39.5186 13.6502 39.4948 13.5755C36.7591 5.67873 29.1952 0 20.2933 0C9.08852 0 0 8.99788 0 20.0997C0 30.0218 7.22635 38.5163 17.2479 38.5163C25.2406 38.5163 30.6127 34.0763 33.0784 27.9571C34.4324 24.6105 33.4755 20.6778 30.4023 18.6132Z" fill="#003763"/>
<path d="M39.6933 14.185C38.5101 10.2445 32.9514 2.48936 22.9933 2.48936C13.5792 2.48936 7.04768 9.51306 7.04768 15.821C7.04768 16.989 7.11915 17.516 7.40899 18.6171C7.28591 18.1373 7.22238 17.6536 7.22238 17.1817C7.22238 10.6142 13.8651 6.0602 20.6904 6.0602C29.9338 6.0602 37.4222 13.4811 37.4222 22.6323C37.4222 29.8094 33.2531 36.0151 27.1941 39C35.0001 36.2039 40.5787 28.7987 40.5787 20.0997C40.5787 18.043 40.3008 16.2261 39.6854 14.185H39.6933Z" fill="#E4022D"/>
</svg>
