<svg width="171" height="30" viewBox="0 0 171 30" fill="none" xmlns="http://www.w3.org/2000/svg">
<path d="M157.617 10.2725C157.807 10.5271 158.03 10.6813 158.26 10.7081C158.49 10.7215 158.727 10.6545 159.025 10.44L159.79 9.92406C159.831 9.89725 159.858 9.87045 159.898 9.84365L159.912 9.83024C159.952 9.80344 159.993 9.77664 160.02 9.76323C160.047 9.74983 160.061 9.74983 160.088 9.76323L160.196 9.79004L160.25 9.74983L159.892 9.24726L159.864 9.20706L159.81 9.26066L159.824 9.39468C159.824 9.39468 159.837 9.44829 159.81 9.46169C159.783 9.4885 159.743 9.5019 159.702 9.5287C159.675 9.55551 159.634 9.59571 159.58 9.62251L158.802 10.1653C158.49 10.3797 158.091 10.5606 157.834 10.1921C157.529 9.74313 157.793 9.5153 158.172 9.24726L158.937 8.71789C158.978 8.67769 159.032 8.65088 159.059 8.62408C159.1 8.59727 159.14 8.58387 159.167 8.55707C159.194 8.54367 159.221 8.54367 159.235 8.55707L159.37 8.63748L159.424 8.58387L158.93 7.88028L158.863 7.92048V8.0411C158.863 8.0411 158.863 8.09471 158.849 8.10811C158.822 8.13491 158.781 8.16172 158.741 8.18852C158.7 8.21532 158.66 8.24213 158.619 8.26893L157.813 8.83851C157.705 8.90552 157.624 8.97253 157.556 9.05294C157.434 9.17355 157.353 9.30757 157.326 9.44829C157.285 9.63592 157.407 9.93746 157.556 10.1787C157.57 10.2055 157.597 10.2457 157.61 10.2725H157.617Z" fill="#005B34"/>
<path d="M147.693 8.57717C147.693 8.57717 147.626 8.60398 147.585 8.61738C147.517 8.63078 147.45 8.64418 147.382 8.65758C147.26 8.65758 147.138 8.63078 146.996 8.56377L146.928 8.59057L147.186 9.02613C147.253 9.01273 147.321 8.98593 147.375 8.97253C147.443 8.94572 147.51 8.93232 147.578 8.90552C147.686 8.86531 147.795 8.82511 147.89 8.7581C147.998 8.70449 148.093 8.63748 148.174 8.58387C148.336 8.46326 148.445 8.34264 148.533 8.20192C148.533 8.18852 148.546 8.17512 148.546 8.16172C148.668 7.94729 148.668 7.72616 148.533 7.52513V7.49832C148.438 7.36431 148.33 7.2839 148.174 7.23029C147.998 7.17668 147.774 7.16328 147.571 7.17668H147.463C147.463 7.17668 147.409 7.17668 147.368 7.19008C147.023 7.20348 146.563 7.19008 146.644 6.76793C146.685 6.51329 147.043 6.30556 147.368 6.34577C147.436 6.35917 147.504 6.37257 147.571 6.41278C147.585 6.41278 147.612 6.42618 147.626 6.43958L147.666 6.42618L147.571 6.23855L147.436 6.02412C147.436 6.02412 147.395 6.03753 147.368 6.03753C147.206 6.10453 146.901 6.22515 146.806 6.27876C146.671 6.35917 146.549 6.45298 146.441 6.54679C146.346 6.64061 146.265 6.73442 146.197 6.84163C146.089 7.04266 146.089 7.25039 146.197 7.43802C146.265 7.54523 146.346 7.62564 146.441 7.66585C146.59 7.74626 146.779 7.75966 146.989 7.73286C147.125 7.71945 147.246 7.70605 147.375 7.69265C147.443 7.67925 147.51 7.67925 147.578 7.67925C147.808 7.67925 147.998 7.73286 148.099 7.96069C148.208 8.21532 147.896 8.49006 147.686 8.57047L147.693 8.57717Z" fill="#005B34"/>
<path d="M150.245 5.80299C150.367 5.56176 150.475 5.36743 150.516 5.28702C150.597 5.1396 150.57 4.96538 150.448 4.96538C150.394 4.96538 150.326 4.99218 150.245 5.1128C150.137 5.26022 150.002 5.56176 149.846 6.09783C149.589 7.00246 149.467 7.47822 149.602 7.79987C149.71 8.10811 150.123 7.96069 150.245 7.89368C150.259 7.89368 150.272 7.88028 150.286 7.88028C150.354 7.82667 150.489 7.70605 150.57 7.61224C150.584 7.67925 150.611 7.73286 150.638 7.78646C150.706 7.88028 150.8 7.94729 150.922 7.96069C150.99 7.97409 151.058 7.97409 151.125 7.97409C151.396 7.94729 151.592 7.82667 151.674 7.75966C151.782 7.67925 151.741 7.58544 151.674 7.65245C151.606 7.71945 151.457 7.77306 151.274 7.77306C151.22 7.77306 151.166 7.75966 151.125 7.74626C151.003 7.69265 150.909 7.58544 150.854 7.47822C150.922 7.42461 151.017 7.35761 151.125 7.26379C151.179 7.21019 151.234 7.16998 151.288 7.11637C151.572 6.87514 151.877 6.42618 151.633 6.25195C151.525 6.15814 151.322 6.21175 151.125 6.35917C150.936 6.49319 150.726 6.74112 150.645 6.99576L150.631 7.00916C150.563 7.21019 150.536 7.40451 150.55 7.55193C150.523 7.56533 150.401 7.65915 150.238 7.71275C150.171 7.73956 150.103 7.73956 150.022 7.73956C149.751 7.71275 149.805 7.06277 149.941 6.5602C150.008 6.31896 150.13 6.03082 150.238 5.80299H150.245ZM150.915 6.96895C150.97 6.83493 151.051 6.71432 151.132 6.63391C151.186 6.5803 151.24 6.54009 151.281 6.51329C151.416 6.44628 151.484 6.64731 151.389 6.83493C151.349 6.91534 151.24 7.02256 151.132 7.11637C150.983 7.23699 150.834 7.3576 150.834 7.3576C150.834 7.3576 150.834 7.18338 150.915 6.96225V6.96895Z" fill="#005B34"/>
<path d="M143.753 14.7755H144.478C144.478 14.7755 144.518 14.8023 144.532 14.8291L144.613 14.9631H144.694V13.9513H144.613L144.532 14.1121C144.532 14.1121 144.505 14.1657 144.478 14.1657H142.305V13.5426L142.725 13.3147L142.711 13.2343H142.081L142.068 13.2477V15.6868L142.081 15.7002L142.725 15.6868L142.711 15.6198L142.298 15.4054V14.7822H143.747L143.753 14.7755Z" fill="#005B34"/>
<path d="M154.672 5.93031L154.564 6.31226L154.259 7.46482C154.219 7.59884 154.178 7.75966 154.124 7.90038C154.029 8.10141 153.894 8.26893 153.63 8.29573V8.37614C153.779 8.38955 153.955 8.37614 154.124 8.33594C154.3 8.28233 154.463 8.20192 154.564 8.0411C154.578 8.0277 154.578 8.01429 154.591 8.00089C154.672 7.85347 154.713 7.73286 154.767 7.55193L154.93 6.87514L155.146 6.06433C155.16 6.01072 155.173 5.97052 155.187 5.91691C155.2 5.8767 155.227 5.79629 155.241 5.75609C155.241 5.72928 155.282 5.71588 155.322 5.71588H155.39C155.39 5.71588 155.444 5.72928 155.458 5.71588L155.471 5.64887L155.39 5.62207L155.322 5.60867L154.93 5.50145L154.632 5.42104L154.605 5.48805C154.645 5.52825 154.767 5.56846 154.754 5.63547C154.74 5.66227 154.727 5.75609 154.713 5.79629C154.699 5.8365 154.686 5.8901 154.672 5.94371V5.93031Z" fill="#005B34"/>
<path d="M161.184 15.4657V15.5193H161.624C161.652 15.3719 161.692 15.0034 161.692 14.8961C161.692 14.5879 161.638 14.34 161.53 14.1657C161.421 13.9781 161.259 13.8843 161.049 13.8843C160.792 13.8843 160.623 14.0317 160.501 14.2662C160.474 14.2931 160.46 14.3333 160.433 14.3735C160.284 14.7219 160.183 15.0771 159.898 15.1307C159.858 15.1441 159.804 15.1441 159.749 15.1441C159.492 15.1039 159.418 14.7353 159.445 14.5343C159.472 14.3467 159.54 14.1389 159.783 13.9915V13.9245H159.316C159.248 14.1925 159.208 14.4003 159.208 14.6147C159.208 14.9497 159.262 15.2111 159.384 15.4121C159.492 15.5863 159.668 15.6801 159.892 15.6935H159.905C160.162 15.6935 160.338 15.5327 160.494 15.3116C160.548 15.2178 160.616 15.1106 160.67 15.0034C160.819 14.7219 161.042 14.273 161.367 14.541C161.611 14.742 161.543 15.2848 161.178 15.459L161.184 15.4657Z" fill="#005B34"/>
<path d="M164.447 16.6719C164.501 16.1693 164.529 15.6734 164.529 15.1575C164.529 11.5189 162.972 8.21532 160.494 5.90351C160.291 5.71588 160.095 5.54166 159.892 5.37413C159.167 4.77775 158.389 4.26178 157.556 3.84633C157.231 3.6721 156.886 3.51798 156.547 3.38396C156.182 3.23654 155.796 3.10252 155.397 2.97521C155.37 2.97521 155.356 2.9618 155.329 2.9618C155.194 2.9216 155.072 2.88139 154.936 2.85459C154.815 2.81438 154.706 2.78758 154.571 2.76078C154.422 2.73397 154.287 2.69377 154.131 2.66696C153.86 2.62676 153.583 2.58655 153.312 2.54635C153.041 2.51954 152.75 2.49274 152.466 2.47934C152.262 2.46594 152.046 2.46594 151.822 2.46594C151.592 2.46594 151.355 2.46594 151.139 2.47934C150.976 2.49274 150.814 2.50614 150.645 2.51954C150.523 2.53295 150.387 2.54635 150.245 2.55975C150.002 2.58655 149.751 2.62676 149.507 2.66696C149.304 2.70717 149.081 2.74738 148.878 2.80098C148.756 2.82779 148.648 2.85459 148.539 2.8948C148.418 2.9216 148.309 2.9484 148.181 2.98861C147.978 3.04222 147.768 3.10922 147.578 3.17623C147.51 3.20304 147.443 3.22984 147.375 3.25665C147.064 3.36386 146.759 3.49788 146.448 3.6386C146.008 3.85303 145.588 4.07416 145.175 4.32879C144.681 4.62363 144.207 4.96538 143.753 5.32723C140.897 7.66585 139.076 11.1972 139.076 15.1508C139.076 15.6667 139.103 16.1626 139.157 16.6652H139.543C139.502 16.2296 139.475 15.8142 139.475 15.3786C139.475 11.673 141.14 8.34264 143.753 6.08443C144.207 5.68908 144.681 5.34063 145.175 5.01228C145.588 4.75765 146.008 4.52312 146.448 4.30869C146.745 4.16127 147.064 4.02725 147.375 3.89993C147.443 3.87313 147.51 3.84633 147.578 3.81952C147.768 3.75251 147.978 3.6855 148.181 3.61849C148.302 3.59169 148.411 3.55149 148.539 3.52468C148.648 3.48448 148.756 3.45767 148.878 3.43087C149.081 3.37726 149.304 3.33706 149.507 3.29685C149.751 3.25664 150.002 3.21644 150.245 3.17623C150.381 3.16283 150.516 3.14943 150.645 3.13603C150.807 3.12263 150.97 3.10922 151.139 3.09582C151.355 3.09582 151.592 3.08242 151.822 3.08242C152.039 3.08242 152.262 3.08242 152.466 3.09582C152.757 3.10922 153.041 3.13603 153.312 3.17623C153.583 3.20304 153.86 3.24324 154.131 3.29685C154.28 3.32365 154.415 3.36386 154.571 3.39066C154.706 3.41747 154.815 3.45767 154.936 3.48448C155.072 3.52468 155.194 3.55149 155.329 3.59169C155.356 3.60509 155.37 3.60509 155.397 3.61849C155.796 3.73911 156.175 3.87313 156.547 4.02725C156.886 4.17467 157.231 4.33549 157.556 4.51642C158.389 4.96538 159.181 5.50145 159.892 6.11124C160.095 6.29886 160.291 6.47979 160.494 6.66741C162.735 8.89882 164.129 11.9879 164.129 15.3853C164.129 15.8209 164.102 16.2363 164.061 16.6719H164.447Z" fill="#005B34"/>
<path d="M138.338 15.0235C138.487 14.2931 138.406 11.6261 138.406 10.9225C138.406 10.2189 138.23 9.91065 138.622 9.02613C139.035 8.16172 140.66 5.99732 141.838 5.086C142.373 4.66384 143.07 3.92004 143.753 3.16283C144.248 2.60666 144.749 2.05048 145.175 1.60822C145.459 1.32678 145.723 1.07885 145.926 0.931427C146.089 0.810811 146.265 0.703596 146.448 0.636587C146.745 0.502569 147.077 0.408756 147.375 0.36855C147.443 0.355149 147.51 0.355149 147.578 0.341747C147.781 0.314943 147.991 0.314943 148.181 0.314943C148.302 0.314943 148.424 0.328345 148.539 0.328345C148.661 0.341747 148.783 0.355149 148.878 0.381952H148.918C149.04 0.408756 149.264 0.448961 149.507 0.502569C149.724 0.556176 149.988 0.609783 150.245 0.676793C150.381 0.703596 150.502 0.7304 150.645 0.757203C150.807 0.797409 150.97 0.837614 151.139 0.87782C151.369 0.918025 151.592 0.971633 151.822 1.01184C152.039 1.06545 152.276 1.10565 152.466 1.14586C152.615 1.17266 152.757 1.19946 152.865 1.21287C153.014 1.23967 153.17 1.26647 153.319 1.27987C153.576 1.32008 153.853 1.36029 154.138 1.40049C154.273 1.42729 154.422 1.4541 154.578 1.4809C154.699 1.4943 154.821 1.50771 154.943 1.53451C155.079 1.54791 155.2 1.57472 155.336 1.60152H155.403C155.776 1.66853 156.155 1.72214 156.554 1.80255C156.69 1.81595 156.811 1.84275 156.954 1.86956C157.184 1.90976 157.387 1.94997 157.57 2.00357C158.619 2.29841 158.856 2.74738 159.824 3.6788C159.851 3.70561 159.878 3.73241 159.905 3.75921C160.068 3.92004 160.277 4.10766 160.508 4.32879C161.875 5.65557 164.102 7.86017 164.84 9.4818C165.727 11.4184 165.618 12.4034 165.578 13.3951C165.537 14.3802 165.469 16.6451 165.469 16.6451H165.645C165.645 16.6451 165.727 15.7002 165.727 14.7487C165.727 13.7972 165.984 13.5023 165.794 11.9745C165.618 10.4333 165.057 8.83181 163.838 7.37101C163.073 6.43958 161.665 4.90507 160.501 3.71901C160.284 3.51798 160.088 3.31025 159.898 3.12263C159.479 2.71387 159.106 2.37882 158.856 2.1912C158.585 1.97677 158.104 1.79585 157.556 1.63502C157.245 1.55461 156.899 1.4742 156.547 1.40719C156.162 1.32678 155.783 1.25977 155.397 1.20616C155.37 1.20616 155.356 1.19276 155.329 1.19276C155.194 1.17936 155.072 1.15256 154.936 1.13916C154.815 1.12575 154.693 1.09895 154.571 1.08555C154.422 1.07215 154.266 1.04534 154.131 1.03194C153.819 1.00514 153.542 0.978334 153.352 0.95153H153.312C153.068 0.924726 152.777 0.871119 152.466 0.80411C152.262 0.763904 152.046 0.723699 151.822 0.670092C151.606 0.616484 151.369 0.562877 151.139 0.50927C150.976 0.469064 150.814 0.428859 150.645 0.402055C150.523 0.361849 150.387 0.335046 150.245 0.308242C150.015 0.254635 149.765 0.214429 149.507 0.174224C149.304 0.134018 149.081 0.0938128 148.878 0.0670092C148.77 0.0536073 148.648 0.0402055 148.539 0.0268037C148.472 0.0268037 148.404 0.0268037 148.336 0.0134018C148.282 0.0134018 148.242 0.0134018 148.187 0C147.984 0 147.774 0 147.585 0.0268037C147.517 0.0268037 147.45 0.0402055 147.382 0.0536073C147.07 0.0938128 146.752 0.187626 146.454 0.321644C146.028 0.495868 145.608 0.757203 145.182 1.09225C144.715 1.4407 144.254 1.88966 143.76 2.41903C143.638 2.55305 143.503 2.70047 143.361 2.85459C141.628 4.79115 139.888 6.54679 139.259 7.53853C138.629 8.51016 138.264 9.02613 138.23 9.58231C138.189 10.1251 138.189 13.7771 138.189 14.5745C138.189 15.3719 137.641 16.6585 137.641 16.6585L137.857 16.6987C137.857 16.6987 138.182 15.7405 138.338 15.0235Z" fill="#005B34"/>
<path d="M145.04 12.2225C145.31 11.4653 144.945 10.8153 144.139 10.5204C144.004 10.4802 143.882 10.44 143.76 10.4266C143.171 10.3462 142.704 10.6277 142.488 11.224C142.217 11.9812 142.542 12.6312 143.347 12.9261C143.496 12.9663 143.638 13.0065 143.76 13.0199C144.349 13.0869 144.823 12.8189 145.046 12.2225H145.04ZM143.753 12.3833C143.672 12.3565 143.591 12.3297 143.51 12.3029C142.934 12.0885 142.481 11.8003 142.65 11.3447C142.799 10.9359 143.253 10.9225 143.76 11.0766C143.841 11.1034 143.909 11.1168 143.977 11.1436C144.566 11.3581 145.04 11.6462 144.877 12.1153C144.728 12.5106 144.261 12.524 143.753 12.3833Z" fill="#005B34"/>
<path d="M155.397 8.24213C155.491 8.42975 155.654 8.60398 155.891 8.74469C156.107 8.86531 156.344 8.91892 156.547 8.91892C156.947 8.90552 157.299 8.66428 157.556 8.25553C157.57 8.24213 157.57 8.22872 157.583 8.20192C157.867 7.71275 157.854 7.25709 157.556 6.90194C157.461 6.79473 157.353 6.70092 157.197 6.6205C156.981 6.48649 156.757 6.43288 156.541 6.43288C156.141 6.44628 155.776 6.67411 155.512 7.12307C155.458 7.20348 155.417 7.2973 155.39 7.37771C155.363 7.45812 155.336 7.52513 155.322 7.60554C155.295 7.75296 155.295 7.90038 155.322 8.0411C155.336 8.10811 155.363 8.17512 155.39 8.24213H155.397ZM156.074 7.36431C156.209 7.10967 156.371 6.88854 156.554 6.76793C156.717 6.66071 156.893 6.63391 157.075 6.74112C157.475 6.96895 157.346 7.47152 157.048 7.97409C156.899 8.21532 156.737 8.44985 156.554 8.57047C156.392 8.69109 156.209 8.71789 156.019 8.61068C155.634 8.39625 155.789 7.85347 156.074 7.36431Z" fill="#005B34"/>
<path d="M159.147 12.6379C158.971 12.8122 158.998 12.9328 159.079 13.2343L159.133 13.4487L159.201 13.4353C159.201 13.2745 159.418 13.1271 159.621 12.9596C159.743 12.8658 159.824 12.7853 159.892 12.6915C159.959 12.5977 160 12.4905 160.054 12.3364C160.162 12.5642 160.298 12.7049 160.494 12.7451C160.616 12.7719 160.751 12.7585 160.92 12.6915C161.333 12.5039 161.286 12.1354 161.191 11.7467L160.88 10.5941L160.812 10.621L160.799 10.755C160.799 10.755 160.785 10.8086 160.758 10.8086C160.717 10.822 160.677 10.8354 160.636 10.8488C160.596 10.8622 160.541 10.8756 160.501 10.889H160.487L159.898 11.0498L159.093 11.2508C159.025 11.2776 158.971 11.291 158.917 11.3044C158.863 11.3178 158.808 11.3312 158.768 11.3447C158.741 11.3447 158.727 11.3312 158.7 11.3044L158.605 11.1972L158.538 11.2106L158.808 12.2426L158.89 12.2158V12.0281C158.89 11.9879 158.903 11.9745 158.944 11.9611L159.817 11.7333L159.871 11.9343C159.885 11.9879 159.831 12.0281 159.79 12.0683C159.6 12.3096 159.336 12.4503 159.147 12.6379ZM160.501 11.5457L160.927 11.4385C161.076 11.8204 161.049 12.1287 160.656 12.2493C160.602 12.2627 160.548 12.2761 160.508 12.2761C160.21 12.2895 160.054 12.0348 159.986 11.6931L160.508 11.5457H160.501Z" fill="#005B34"/>
<path d="M152.926 6.80813C152.994 6.75452 153.115 6.6205 153.061 6.37257C153.021 6.17154 152.736 6.18495 152.459 6.33237C152.337 6.38597 152.215 6.46638 152.12 6.5736C151.816 6.88184 151.89 7.14318 152.08 7.23699C152.188 7.304 152.337 7.3308 152.459 7.3442H152.716C152.879 7.3308 152.967 7.50503 152.702 7.66585C152.621 7.71945 152.54 7.74626 152.459 7.75966C152.296 7.79987 152.147 7.77306 152.093 7.70605C151.998 7.62564 151.931 7.49162 151.877 7.62564C151.822 7.77306 151.944 7.89368 152.12 7.93388C152.202 7.94729 152.337 7.94729 152.459 7.92048C152.648 7.89368 152.858 7.79987 152.967 7.62564C153.143 7.3308 152.967 7.14988 152.696 7.13648C152.615 7.12307 152.547 7.12307 152.466 7.10967C152.276 7.06947 152.127 6.97565 152.222 6.78803C152.276 6.65401 152.371 6.5736 152.466 6.53339C152.587 6.46638 152.696 6.45298 152.777 6.46638C152.912 6.47979 152.912 6.65401 152.831 6.77463C152.791 6.84163 152.845 6.86844 152.926 6.80143V6.80813Z" fill="#005B34"/>
<path d="M151.518 25.497C151.518 25.497 151.45 25.5238 151.382 25.5372V25.6042L151.822 25.6176L152.33 25.631L152.411 25.3362L152.344 25.3094C152.303 25.3898 152.249 25.4568 152.195 25.497C152.127 25.5238 152.059 25.5506 151.978 25.5506C151.91 25.5506 151.856 25.5372 151.829 25.5238C151.829 25.5238 151.82 25.5193 151.802 25.5104C151.802 25.5104 151.762 25.43 151.762 25.3764V25.0212H151.897C152.005 25.0212 152.073 25.0346 152.1 25.0614C152.141 25.0882 152.154 25.1284 152.154 25.182H152.235V24.7867H152.168C152.168 24.8403 152.141 24.8805 152.114 24.9073C152.073 24.9341 152.005 24.9341 151.897 24.9341H151.762L151.775 24.5388C151.775 24.5388 151.775 24.4985 151.789 24.4851C151.789 24.4851 151.802 24.4851 151.829 24.4717L151.951 24.4851C152.073 24.4851 152.154 24.4985 152.208 24.5254C152.249 24.5522 152.29 24.6058 152.303 24.6728H152.371V24.4181L151.822 24.4047H151.41V24.4583C151.477 24.4717 151.518 24.4851 151.531 24.512C151.558 24.5388 151.572 24.579 151.572 24.6594L151.558 25.3362C151.558 25.4032 151.545 25.4568 151.518 25.4836V25.497Z" fill="#005B34"/>
<path d="M153.156 25.497H153.129L153.143 25.564L153.305 25.5506L153.616 25.5104L153.603 25.4434H153.576C153.535 25.4434 153.495 25.4434 153.467 25.4166C153.454 25.4032 153.44 25.363 153.427 25.3228L153.305 24.3511V24.3645L153.007 24.4717V24.5254C153.075 24.5254 153.129 24.5254 153.143 24.5388C153.17 24.5522 153.183 24.5924 153.197 24.646L153.278 25.3362C153.278 25.3898 153.278 25.43 153.264 25.4568C153.237 25.4702 153.21 25.4836 153.156 25.497Z" fill="#005B34"/>
<path d="M145.696 10.5807C145.926 10.5673 146.231 10.3529 146.448 10.0916C146.461 10.0782 146.475 10.0648 146.488 10.0514C146.718 9.78334 146.813 9.522 146.773 9.26737C146.732 9.06634 146.637 8.88541 146.448 8.69779C146.407 8.64418 146.339 8.59057 146.272 8.53697L145.507 7.88698C145.453 7.84677 145.412 7.81997 145.371 7.77976C145.331 7.75296 145.304 7.72616 145.277 7.69935C145.249 7.67255 145.249 7.64574 145.249 7.61894V7.51173L145.195 7.45812L145.182 7.47152L144.728 8.00089L144.796 8.0545L144.931 7.98749C144.931 7.98749 144.985 7.97409 144.999 7.98749C145.04 8.0143 145.08 8.0545 145.121 8.0813C145.134 8.09471 145.161 8.10811 145.175 8.13491C145.202 8.14831 145.216 8.16172 145.243 8.18852L146.048 8.85191C146.224 8.99933 146.387 9.16015 146.448 9.35448C146.488 9.46169 146.488 9.56891 146.448 9.67612C146.434 9.72973 146.393 9.79674 146.339 9.85035C145.974 10.2993 145.629 10.0782 145.243 9.75653L145.175 9.70293L144.464 9.10654C144.41 9.06634 144.369 9.03954 144.329 8.99933C144.288 8.97253 144.261 8.94572 144.221 8.90552C144.207 8.89211 144.207 8.86531 144.207 8.83851L144.248 8.69109L144.193 8.63748L143.76 9.15345L143.584 9.35448L143.638 9.40809L143.76 9.36788H143.774C143.774 9.36788 143.828 9.35448 143.855 9.38128C143.882 9.40809 143.923 9.43489 143.95 9.46169C143.99 9.4885 144.045 9.5287 144.085 9.56891L144.904 10.2457C144.999 10.3261 145.094 10.3931 145.175 10.4467C145.351 10.5405 145.534 10.5941 145.696 10.5807Z" fill="#005B34"/>
<path d="M154.131 25.2826C154.09 25.3228 154.036 25.363 153.982 25.4032L154.09 25.4434C154.09 25.4434 154.117 25.4166 154.131 25.4166C154.266 25.3094 154.375 25.1887 154.442 25.048C154.51 24.9006 154.537 24.7532 154.496 24.5991C154.469 24.465 154.402 24.3712 154.32 24.2841C154.253 24.2439 154.199 24.2171 154.131 24.2171C154.09 24.2037 154.063 24.2171 154.023 24.2171C153.914 24.2439 153.847 24.2975 153.792 24.3779C153.738 24.4583 153.725 24.5522 153.752 24.646C153.779 24.7532 153.819 24.8336 153.901 24.8872C153.968 24.9274 154.05 24.9408 154.131 24.9274H154.158C154.158 24.9274 154.212 24.9006 154.239 24.8872C154.266 24.8738 154.307 24.847 154.334 24.8202C154.334 24.9408 154.293 25.0346 154.239 25.1284C154.212 25.182 154.171 25.2222 154.131 25.2625V25.2826ZM154.239 24.7934C154.239 24.7934 154.199 24.8202 154.171 24.8202H154.131C154.09 24.8202 154.05 24.8068 154.023 24.78C153.968 24.7398 153.941 24.6728 153.914 24.5924C153.901 24.5254 153.901 24.4583 153.928 24.4047C153.955 24.3511 153.982 24.3243 154.036 24.3109C154.077 24.2975 154.104 24.2975 154.131 24.3109C154.158 24.3243 154.185 24.3377 154.199 24.3645C154.253 24.4181 154.293 24.4985 154.307 24.5924C154.32 24.6192 154.32 24.646 154.32 24.6594C154.334 24.6862 154.334 24.713 154.334 24.7398C154.293 24.7666 154.266 24.78 154.239 24.7934Z" fill="#005B34"/>
<path d="M155.343 24.1166L155.397 24.1032C155.41 24.0496 155.41 24.0094 155.424 23.996C155.437 23.9692 155.451 23.9558 155.491 23.9424L155.83 23.7816L155.843 24.9341L155.992 24.8671L155.911 23.6073L155.39 23.8218L155.322 23.862H155.309L155.322 23.996L155.336 24.1166H155.343Z" fill="#005B34"/>
<path d="M169.098 18.4878C168.604 18.6218 168.482 18.977 168.184 19.1378C168.062 19.1914 167.845 19.1646 167.649 19.1646C167.304 19.1512 167.155 19.0708 167.06 18.7827C166.925 18.3739 166.776 18.1997 166.458 18.2131V20.9873C166.769 21.0007 166.925 20.8264 167.06 20.4177C167.155 20.1363 167.304 20.0491 167.649 20.0357C167.839 20.0357 168.062 20.0089 168.184 20.0625C168.489 20.2234 168.61 20.5785 169.098 20.7125C169.727 20.8734 171 20.6589 171 19.5868C171 18.5146 169.727 18.3136 169.098 18.4744V18.4878Z" fill="#005B34"/>
<path d="M165.957 17.6502H165.74V17.4492C165.74 17.1811 165.524 16.96 165.26 16.96H137.81C137.553 16.96 137.343 17.1744 137.343 17.4492V17.6502H137.126C137.072 17.6502 137.032 17.7038 137.032 17.7574V21.5836C137.032 21.6373 137.072 21.6909 137.126 21.6909H137.343V21.8919C137.343 22.1599 137.546 22.3811 137.81 22.3811H165.26C165.517 22.3811 165.74 22.1666 165.74 21.8919V21.6909H165.957C166.011 21.6909 166.052 21.6373 166.052 21.5836V17.7574C166.052 17.7038 166.011 17.6502 165.957 17.6502ZM146.448 18.0791C146.366 18.0925 146.272 18.0925 146.163 18.0925H146.109C146.041 18.1059 145.656 18.1461 145.209 18.1595H145.182C144.796 18.1729 144.254 18.1863 143.76 18.1863C143.415 18.1863 143.117 18.1729 142.928 18.1595C142.569 18.1193 143.171 18.0925 143.76 18.0791H144.119C143.997 18.0791 143.889 18.0657 143.76 18.0657C143.239 18.0523 142.772 18.0389 142.393 18.0389C142.149 18.0255 141.844 18.0255 141.682 18.0255C140.673 17.9585 141.174 17.9585 141.79 17.9451L143.76 17.9182L145.182 17.9048L146.333 17.8914C146.373 17.878 146.414 17.878 146.454 17.878C146.874 17.878 147.274 18.0389 146.454 18.0791H146.448ZM147.578 18.1729C147.47 18.1729 147.375 18.1327 147.375 18.0925C147.375 18.0523 147.47 18.0255 147.578 18.0255C147.686 18.0255 147.768 18.0523 147.768 18.0925C147.768 18.1327 147.686 18.1729 147.578 18.1729ZM148.194 18.1997H148.181C148.14 18.1863 148.099 18.1461 148.099 18.0925C148.099 18.0389 148.14 17.9987 148.181 17.9987H148.194C148.248 17.9987 148.302 18.0389 148.302 18.0925C148.302 18.1461 148.248 18.1997 148.194 18.1997ZM165.368 20.679C165.341 20.2971 165.3 19.4863 165.165 18.8229C165.016 18.1595 164.589 18.0255 163.418 18.0657C162.748 18.0791 161.706 18.1193 160.508 18.1327H159.905C159.167 18.1327 158.375 18.1327 157.57 18.1059H157.543C157.258 18.0925 156.927 18.0791 156.561 18.0791C156.195 18.0791 155.823 18.0657 155.41 18.0657H152.472C152.256 18.0657 152.039 18.0657 151.829 18.0791H150.651C150.516 18.0791 150.394 18.0925 150.252 18.0925H148.885C148.709 18.0791 148.654 18.0523 148.885 18.0121C148.966 18.0121 149.061 17.9987 149.21 17.9853C149.291 17.9853 149.386 17.9719 149.514 17.9719C149.731 17.9719 150.008 17.9585 150.252 17.9585C150.387 17.9585 150.523 17.9585 150.651 17.9451H151.146C151.335 17.9451 151.558 17.9451 151.829 17.9317C152.005 17.9182 152.229 17.9182 152.472 17.9048C152.716 17.8914 153.007 17.878 153.319 17.8646C153.562 17.8646 153.84 17.8512 154.138 17.8378H154.578C154.699 17.8244 154.808 17.8244 154.943 17.8244H155.336C155.336 17.8244 155.376 17.811 155.403 17.811C155.735 17.811 156.128 17.811 156.554 17.7976C156.866 17.7976 157.211 17.7842 157.563 17.7842C158.301 17.7708 159.106 17.7574 159.898 17.7574C160.101 17.7574 160.298 17.744 160.501 17.744C162.471 17.7306 164.204 17.7172 164.495 17.7306C165.057 17.7842 165.3 17.9853 165.354 18.4208C165.409 18.8564 165.463 19.9352 165.476 20.3708C165.476 20.8063 165.395 21.0744 165.368 20.679Z" fill="#005B34"/>
<path d="M155.099 24.0496C155.045 24.0094 154.991 23.996 154.936 23.9826C154.896 23.9826 154.855 23.9826 154.801 24.0094C154.72 24.0362 154.652 24.0898 154.598 24.1836C154.584 24.2104 154.584 24.2372 154.571 24.264V24.398C154.571 24.398 154.584 24.4382 154.584 24.4516C154.625 24.5589 154.679 24.6259 154.76 24.6661C154.801 24.7063 154.869 24.7197 154.936 24.7063C154.963 24.7063 154.977 24.7063 155.004 24.6929C155.031 24.6795 155.058 24.6661 155.085 24.6527C155.112 24.6393 155.139 24.6125 155.167 24.5723C155.18 24.6929 155.153 24.8001 155.099 24.8939C155.072 24.9609 155.004 25.0413 154.936 25.1083C154.923 25.1217 154.896 25.1485 154.869 25.1619L154.936 25.1753L154.977 25.1887C155.126 25.0681 155.234 24.9341 155.302 24.78C155.315 24.7398 155.315 24.6996 155.329 24.6594C155.356 24.5656 155.356 24.4851 155.329 24.3913C155.329 24.3645 155.315 24.3377 155.315 24.3243C155.275 24.1903 155.207 24.0965 155.099 24.0429V24.0496ZM155.153 24.4784C155.153 24.4784 155.099 24.5187 155.085 24.5455C155.058 24.5589 155.031 24.5723 155.004 24.5723C154.991 24.5857 154.963 24.5857 154.936 24.5857C154.909 24.5857 154.882 24.5723 154.855 24.5455C154.801 24.5052 154.774 24.4516 154.747 24.3712C154.733 24.3042 154.72 24.2372 154.747 24.1836C154.76 24.13 154.787 24.0898 154.828 24.0764C154.869 24.063 154.909 24.063 154.936 24.0764C154.963 24.0898 154.977 24.1032 155.004 24.1166C155.058 24.1702 155.099 24.2372 155.126 24.3444C155.139 24.3578 155.139 24.3846 155.153 24.4114V24.4784Z" fill="#005B34"/>
<path d="M160.501 26.1872C160.311 26.3614 160.101 26.5423 159.898 26.7166C159.377 27.1521 158.775 27.5944 158.077 28.0433C157.915 28.1505 157.732 28.2578 157.556 28.3516C157.231 28.5258 156.886 28.6732 156.547 28.8005C156.182 28.9346 155.783 29.0418 155.397 29.1222C155.37 29.1356 155.356 29.1356 155.329 29.1356C155.194 29.1624 155.072 29.1892 154.936 29.216C154.815 29.2294 154.706 29.2562 154.571 29.2696C154.422 29.283 154.287 29.3098 154.131 29.3232C153.86 29.35 153.583 29.3634 153.312 29.3634C153.041 29.3768 152.75 29.3768 152.466 29.3634C152.249 29.3634 152.032 29.35 151.822 29.3366C151.592 29.3232 151.355 29.2964 151.139 29.2696C150.976 29.2562 150.814 29.2294 150.645 29.216C150.509 29.1892 150.387 29.1758 150.245 29.149C150.002 29.1088 149.751 29.0686 149.507 29.0284C149.291 28.9748 149.081 28.9346 148.878 28.8943C148.756 28.8675 148.648 28.8273 148.539 28.8005C148.418 28.7737 148.296 28.7469 148.181 28.7201C147.964 28.6665 147.754 28.5995 147.578 28.5459C147.51 28.5325 147.443 28.5057 147.375 28.4923C146.989 28.3717 146.691 28.2645 146.529 28.1975C146.502 28.1841 146.475 28.1841 146.448 28.1707C146.136 28.0366 145.683 27.7954 145.175 27.4537C144.735 27.1722 144.248 26.8171 143.753 26.4284C142.684 25.564 141.567 24.4784 140.843 23.3862C140.707 23.1718 140.585 22.9774 140.464 22.8032H139.861C140.227 23.3058 141.953 25.6176 143.76 27.1588C144.099 27.4402 144.43 27.7016 144.755 27.916C144.891 27.9964 145.026 28.0768 145.175 28.1572C145.574 28.3717 145.994 28.5794 146.448 28.7536C146.745 28.8742 147.064 28.9815 147.375 29.0753C147.443 29.1021 147.51 29.1155 147.578 29.1423C147.768 29.1959 147.978 29.2629 148.181 29.3165C148.302 29.3433 148.411 29.3701 148.539 29.3969C148.648 29.4237 148.77 29.4505 148.878 29.4773C149.081 29.5309 149.304 29.5711 149.507 29.6113C149.765 29.665 150.015 29.7052 150.245 29.7454C150.381 29.7588 150.516 29.7856 150.645 29.799C150.807 29.8258 150.97 29.8526 151.139 29.866C151.369 29.8928 151.592 29.9196 151.822 29.933C152.039 29.9464 152.262 29.9732 152.466 29.9732C152.77 29.9866 153.055 30 153.312 30C153.501 29.9866 153.698 29.9866 153.86 29.9732C153.955 29.9732 154.036 29.9598 154.131 29.9598C154.266 29.933 154.415 29.9196 154.571 29.8928C154.693 29.866 154.815 29.8392 154.936 29.8124C155.072 29.7856 155.194 29.7454 155.329 29.7186C155.356 29.7052 155.37 29.7052 155.397 29.6918C155.769 29.5979 156.148 29.4639 156.547 29.2964C156.872 29.1624 157.218 29.015 157.556 28.834C158.335 28.4454 159.127 27.9428 159.892 27.3196C160.095 27.1454 160.291 26.9846 160.494 26.7903C161.631 25.7516 162.667 24.4248 163.432 22.7831H162.992C162.884 23.0914 162.295 24.4985 160.487 26.1805L160.501 26.1872Z" fill="#005B34"/>
<path d="M147.348 24.13L147.226 24.3712C147.253 24.4248 147.294 24.4784 147.334 24.5187C147.348 24.5321 147.362 24.5455 147.375 24.5589C147.416 24.5857 147.443 24.5991 147.483 24.6259C147.51 24.6393 147.538 24.6527 147.578 24.6527C147.646 24.6795 147.7 24.6795 147.768 24.6661C147.862 24.6393 147.93 24.5723 147.971 24.4784C147.998 24.4248 148.011 24.3846 148.011 24.3176C147.998 24.264 147.971 24.197 147.93 24.13C147.917 24.0898 147.89 24.0496 147.862 24.0094C147.808 23.9022 147.768 23.8352 147.754 23.795C147.754 23.7815 147.741 23.7547 147.754 23.7279C147.754 23.7011 147.754 23.6743 147.768 23.6475C147.795 23.6073 147.822 23.5805 147.876 23.5671C147.917 23.5537 147.971 23.5671 148.011 23.5939C148.079 23.6207 148.12 23.6743 148.133 23.7279C148.147 23.7815 148.147 23.862 148.12 23.9424L148.174 23.9692H148.187L148.296 23.7547C148.255 23.7011 148.214 23.6609 148.174 23.6207C148.133 23.5805 148.093 23.5403 148.052 23.5269C147.957 23.4867 147.876 23.4733 147.795 23.4867C147.714 23.5135 147.659 23.5671 147.619 23.6475C147.578 23.7145 147.578 23.7681 147.578 23.8218C147.592 23.8754 147.632 23.9692 147.714 24.1032C147.768 24.2104 147.808 24.2908 147.808 24.3444C147.822 24.3846 147.808 24.4248 147.795 24.4784C147.768 24.5187 147.727 24.5589 147.673 24.5723C147.646 24.5857 147.605 24.5857 147.578 24.5723C147.565 24.5723 147.551 24.5589 147.524 24.5589C147.47 24.5187 147.429 24.4784 147.402 24.4114C147.375 24.3444 147.389 24.264 147.402 24.1568L147.348 24.13Z" fill="#005B34"/>
<path d="M136.003 18.7827C135.908 19.0641 135.772 19.1512 135.427 19.1646C135.238 19.1646 135.014 19.1914 134.892 19.1378C134.595 18.977 134.473 18.6218 133.965 18.4878C133.349 18.327 132.076 18.5414 132.076 19.6002C132.076 20.6589 133.349 20.8868 133.965 20.7259C134.473 20.5919 134.595 20.2368 134.892 20.0759C135.014 20.0223 135.238 20.0491 135.427 20.0491C135.766 20.0625 135.908 20.143 136.003 20.4311C136.152 20.8398 136.307 21.0141 136.619 21.0007V18.2265C136.307 18.2131 136.152 18.3873 136.003 18.7961V18.7827Z" fill="#005B34"/>
<path d="M145.175 25.7382C144.681 25.4166 144.207 25.0614 143.753 24.6661C143.097 24.1099 142.508 23.4733 141.973 22.7831H141.635C142.251 23.5939 142.961 24.3243 143.753 24.9743C144.207 25.3362 144.681 25.6779 145.175 25.9862C145.588 26.2274 146.008 26.4619 146.448 26.6629C146.745 26.8104 147.064 26.931 147.375 27.0583C147.443 27.0851 147.51 27.1119 147.578 27.1253C147.768 27.1923 147.978 27.2593 148.181 27.3263C148.302 27.3531 148.411 27.3933 148.539 27.4201C148.648 27.4469 148.756 27.4872 148.878 27.514C149.081 27.5542 149.304 27.6078 149.507 27.6346C149.751 27.6882 150.002 27.715 150.245 27.7552C150.381 27.7686 150.516 27.782 150.645 27.7954C150.807 27.8088 150.97 27.8222 151.139 27.8222C151.355 27.8356 151.592 27.849 151.822 27.849C152.039 27.849 152.262 27.8356 152.466 27.8356C152.757 27.8088 153.041 27.7954 153.312 27.7552C153.583 27.7284 153.86 27.6882 154.131 27.6346C154.28 27.6078 154.415 27.581 154.571 27.5542C154.706 27.514 154.815 27.4872 154.936 27.4604C155.072 27.4201 155.194 27.3933 155.329 27.3531C155.356 27.3397 155.37 27.3397 155.397 27.3263C155.796 27.2191 156.175 27.0851 156.547 26.931C156.886 26.797 157.231 26.6361 157.556 26.4686C158.389 26.0465 159.167 25.5238 159.892 24.9408C160.095 24.7666 160.291 24.5924 160.494 24.4114C161.029 23.9089 161.523 23.3527 161.97 22.7764H161.624C161.266 23.2388 160.9 23.6676 160.487 24.0764C160.284 24.264 160.088 24.4583 159.885 24.6326C159.174 25.2558 158.382 25.7985 157.549 26.2408C157.224 26.4016 156.879 26.5624 156.541 26.7166C156.175 26.864 155.789 27.0114 155.39 27.1387C155.363 27.1387 155.349 27.1521 155.322 27.1521C155.187 27.1923 155.065 27.2325 154.93 27.2593C154.808 27.2995 154.699 27.3263 154.564 27.3531C154.415 27.3933 154.28 27.4201 154.124 27.447C153.853 27.5006 153.576 27.5408 153.305 27.5676C153.034 27.6078 152.743 27.6346 152.459 27.648C152.256 27.6614 152.039 27.6614 151.816 27.6614C151.586 27.6614 151.349 27.6614 151.132 27.648C150.97 27.6346 150.807 27.6212 150.638 27.6078C150.516 27.5944 150.381 27.581 150.238 27.5676C149.995 27.5408 149.744 27.5006 149.501 27.447C149.298 27.4067 149.074 27.3665 148.871 27.3129C148.749 27.2861 148.641 27.2593 148.533 27.2191C148.411 27.1923 148.302 27.1655 148.174 27.1253C147.971 27.0583 147.761 26.9913 147.571 26.9243C147.504 26.8975 147.436 26.8707 147.368 26.8439C147.057 26.7233 146.739 26.5892 146.441 26.4351C146.001 26.2341 145.581 25.9862 145.168 25.7315L145.175 25.7382Z" fill="#005B34"/>
<path d="M150.604 24.5052C150.604 24.5052 150.631 24.4784 150.645 24.465C150.712 24.4114 150.794 24.398 150.888 24.4114C150.983 24.4114 151.051 24.4516 151.105 24.5052C151.105 24.5052 151.114 24.5142 151.132 24.5321C151.173 24.5857 151.2 24.6527 151.213 24.7197H151.281V24.4784C151.227 24.4382 151.186 24.4114 151.132 24.398C151.118 24.398 151.105 24.3846 151.091 24.3846C151.037 24.3578 150.983 24.3444 150.929 24.331C150.834 24.331 150.753 24.331 150.658 24.3578C150.658 24.3578 150.658 24.3712 150.645 24.3712C150.563 24.398 150.496 24.4382 150.442 24.4918C150.387 24.5455 150.347 24.5991 150.306 24.6661C150.293 24.7197 150.266 24.7733 150.252 24.8403V24.8939C150.238 24.9743 150.238 25.0547 150.252 25.1217L150.266 25.1351C150.279 25.2021 150.306 25.2692 150.36 25.3362C150.401 25.4032 150.469 25.4568 150.523 25.497C150.563 25.5104 150.604 25.5238 150.645 25.5372C150.685 25.5506 150.712 25.564 150.753 25.564H150.956C151.01 25.5506 151.064 25.5372 151.132 25.5238C151.146 25.5104 151.159 25.5104 151.173 25.5104L151.24 25.2558H151.159C151.159 25.2558 151.146 25.2826 151.132 25.296C151.091 25.363 151.051 25.4166 150.997 25.4434C150.929 25.4836 150.861 25.497 150.78 25.4836C150.726 25.4836 150.685 25.4702 150.645 25.4434C150.59 25.4166 150.55 25.363 150.523 25.296C150.455 25.1887 150.442 25.0413 150.469 24.8604C150.482 24.6996 150.536 24.579 150.604 24.4918V24.5052Z" fill="#005B34"/>
<path d="M148.932 25.048C148.932 25.048 148.891 25.0748 148.878 25.0748C148.851 25.0748 148.824 25.0748 148.797 25.0614H148.783L148.756 25.1284L148.878 25.1686L149.182 25.2491L149.21 25.1686H149.182C149.128 25.1552 149.101 25.1284 149.088 25.0882C149.074 25.048 149.074 24.9944 149.101 24.914L149.25 24.3444L149.507 24.9542L149.589 25.115C149.616 25.1954 149.643 25.2491 149.656 25.2893C149.67 25.3295 149.683 25.3697 149.697 25.4099L149.792 25.4233C149.792 25.4233 149.805 25.3697 149.805 25.3295C149.819 25.3027 149.819 25.2625 149.832 25.2222L150.022 24.5187C150.035 24.4382 150.062 24.398 150.09 24.3846C150.13 24.3578 150.171 24.3578 150.238 24.3578V24.3444L150.266 24.2908H150.238L149.839 24.1836L149.812 24.2506C149.88 24.2774 149.92 24.2908 149.934 24.331C149.961 24.3578 149.961 24.4114 149.934 24.4784L149.771 25.1016L149.501 24.4784L149.325 24.0429L149.054 23.9625L149.04 24.0295C149.04 24.0295 149.094 24.0697 149.122 24.0965C149.149 24.1367 149.176 24.1769 149.189 24.2171L149.013 24.8939C148.986 24.9609 148.959 25.0145 148.932 25.0413V25.048Z" fill="#005B34"/>
<path d="M148.539 24.1166L148.323 24.6728C148.296 24.7398 148.269 24.78 148.242 24.7934H148.187C148.187 24.7934 148.133 24.7934 148.106 24.78L148.079 24.847L148.187 24.9006L148.546 25.0212L148.573 25.0346L148.6 24.9676C148.6 24.9676 148.56 24.9542 148.546 24.9408C148.519 24.914 148.506 24.9006 148.492 24.8872C148.478 24.847 148.478 24.8068 148.506 24.7398L148.546 24.6594L148.749 24.1032C148.776 24.0362 148.803 24.0094 148.83 23.996C148.844 23.9826 148.858 23.9826 148.885 23.9826C148.912 23.9826 148.939 23.9826 148.979 23.996L149.006 23.929L148.885 23.8754L148.546 23.7547L148.506 23.7413L148.478 23.8084C148.478 23.8084 148.533 23.8352 148.546 23.8486C148.573 23.862 148.587 23.8754 148.587 23.9022C148.6 23.929 148.6 23.9692 148.573 24.0362L148.546 24.1166H148.539Z" fill="#005B34"/>
<path d="M17.7763 9.46839H17.6138C13.938 9.56221 11.7312 12.008 11.7312 15.8678C11.7312 19.7275 13.8094 22.046 17.4175 22.046H17.6138C21.3166 21.9522 23.4963 19.3455 23.4963 15.4858C23.4963 11.6261 21.3505 9.46839 17.7763 9.46839ZM17.6815 21.1481H17.6138C15.3731 21.0811 14.6894 18.4141 14.6894 15.6131C14.6894 12.8122 15.2445 10.3663 17.519 10.3663H17.6206C19.8341 10.4333 20.5111 12.906 20.5111 15.774C20.5111 18.6419 19.9898 21.1481 17.6815 21.1481Z" fill="#005B34"/>
<path d="M95.0684 10.1452L95.6845 10.4333C95.8469 10.5003 95.9146 10.5606 95.9146 10.688C95.9485 10.9158 95.9485 11.1034 95.9485 11.3648V16.8997C95.9485 18.8296 95.5288 20.9203 93.2204 20.9203C90.5262 20.9203 90.2961 19.1177 90.2961 16.7992V11.3648C90.2961 11.1101 90.2961 10.9158 90.3299 10.688C90.3299 10.5606 90.4247 10.4936 90.5601 10.4333L91.2099 10.1117V9.75653H86.7896V10.1117L87.3446 10.4668C87.4394 10.5338 87.541 10.5941 87.541 10.755V17.0605C87.541 18.7693 87.9336 20.0223 88.712 20.8264C89.4905 21.6306 91.3453 22.046 92.9699 22.046C94.5946 22.046 95.8266 21.597 96.6119 20.6924C97.3903 19.7945 97.7491 18.6352 97.7491 16.7657V12.1622C97.7491 11.874 97.7829 11.6127 97.7829 11.3581V10.7483C97.7829 10.5874 97.8777 10.5204 97.9793 10.4601L98.399 10.105V9.74983H95.0481L95.082 10.1385L95.0684 10.1452Z" fill="#005B34"/>
<path d="M32.6282 10.1452L33.278 10.4333C33.4066 10.5003 33.5082 10.5606 33.5082 10.688C33.5082 10.9158 33.5082 11.1034 33.542 11.3648V16.8997C33.542 18.8296 33.1223 20.9203 30.814 20.9203C28.113 20.9203 27.8896 19.1177 27.8896 16.7992V10.688C27.8896 10.5606 27.9844 10.4936 28.1198 10.4333L28.7696 10.1117V9.75653H24.3831V10.1117L24.9044 10.4668C25.033 10.5338 25.1007 10.5941 25.1007 10.755C25.1345 10.9493 25.1345 11.1436 25.1345 11.3648V17.0605C25.1345 18.7693 25.5271 20.0223 26.3056 20.8264C27.057 21.6306 28.9389 22.046 30.5635 22.046C32.1882 22.046 33.4202 21.597 34.2054 20.6924C34.9568 19.7945 35.3427 18.6352 35.3427 16.7657V11.3581C35.3427 11.1302 35.3427 10.9426 35.3765 10.7483C35.3765 10.5874 35.4713 10.5204 35.5728 10.4601L35.9925 10.105V9.74983H32.6417V10.1385L32.6282 10.1452Z" fill="#005B34"/>
<path d="M117.624 14.6482C116.162 13.8776 113.887 12.7853 115.282 11.1436C116.324 9.89055 119.086 10.2725 119.993 12.0751H120.223V9.91736C119.506 9.79004 117.658 9.56221 117.069 9.56221C115.505 9.56221 114.273 9.85035 113.332 10.3998C112.391 10.9761 111.938 11.7534 111.938 12.8122C111.938 14.2595 112.879 15.1575 114.408 15.8075C116.46 16.7054 118.538 17.2214 118.308 19.2852C118.145 20.5718 116.263 20.8935 115.255 20.7661C114.28 20.6388 113.203 20.2837 112.459 19.0909H112.134V21.4094C113.467 21.7311 114.537 21.9589 115.64 21.9589C117.367 21.9589 118.693 21.6708 119.668 21.061C120.643 20.4847 121.13 19.6136 121.13 18.4878C121.13 16.558 119.377 15.526 117.617 14.6616L117.624 14.6482Z" fill="#005B34"/>
<path d="M0.0676933 9.72303L0 9.79004L0.0338466 12.7518L0.358774 12.6848L1.33356 10.822H4.25791V20.7661C4.25791 20.8935 4.16314 20.927 4.02775 21.0208L3.37789 21.4094V21.7646H8.12319V21.4094L7.34472 21.0208C7.2161 20.9538 7.11456 20.8935 7.11456 20.7661V10.822H10.0389L11.1085 12.7518L11.4672 12.6848V9.79004L11.4334 9.72303H0.0676933Z" fill="#005B34"/>
<path d="M42.5791 14.6482C41.1169 13.8776 38.8424 12.7853 40.2098 11.1436C41.2523 9.89055 44.0413 10.2725 44.9551 12.0751H45.1853V9.91736C44.4406 9.79004 42.6197 9.56221 42.0308 9.56221C40.467 9.56221 39.235 9.85035 38.2941 10.3998C37.3532 10.9761 36.8658 11.7534 36.8658 12.8122C36.8658 14.2595 37.8405 15.1575 39.3366 15.8075C41.4147 16.7054 43.4997 17.2214 43.2357 19.2852C43.1071 20.5718 41.2184 20.8935 40.2098 20.7661C39.2012 20.6388 38.1316 20.2837 37.4141 19.0909H37.0891V21.4094C38.4227 21.7311 39.4923 21.9589 40.5957 21.9589C42.288 21.9589 43.6486 21.6708 44.5963 21.061C45.5711 20.4847 46.0585 19.6136 46.0585 18.4878C46.0585 16.558 44.3391 15.526 42.5791 14.6616V14.6482Z" fill="#005B34"/>
<path d="M80.3113 9.46839H80.1488C76.4799 9.56221 74.2663 12.008 74.2663 15.8678C74.2663 19.7275 76.3445 22.046 79.9864 22.046H80.1488C83.8584 21.9522 86.0314 19.3455 86.0314 15.4858C86.0314 11.6261 83.8855 9.46839 80.3113 9.46839ZM80.2165 21.1481H80.1488C77.9082 21.0811 77.2245 18.4141 77.2245 15.6131C77.2245 12.8122 77.7728 10.3663 80.0541 10.3663H80.1488C82.3895 10.4333 83.0393 12.906 83.0393 15.774C83.0393 18.6419 82.5181 21.1481 80.2098 21.1481H80.2165Z" fill="#005B34"/>
<path d="M68.6071 10.0112C68.8644 10.105 69.521 10.172 69.521 10.4936V20.143C69.521 21.979 69.6158 24.1635 67.6324 25.0011L67.7271 25.3898C69.3518 25.0011 71.4299 24.1367 71.8226 22.3006C72.0189 21.4295 72.1137 20.7862 72.1137 19.8883V10.4601C72.1475 10.172 72.926 10.105 73.1832 10.0112V9.62251H68.6004V10.0112H68.6071Z" fill="#005B34"/>
<path d="M59.4144 20.0491C59.1572 20.3373 58.4735 20.5651 57.7221 20.5651C57.5257 20.5651 57.3294 20.4981 57.1399 20.4378C56.6525 20.2435 56.226 19.7945 55.9688 19.2785C56.2937 19.0507 56.6864 18.7626 57.1399 18.3739C57.3362 18.2131 57.5596 18.0188 57.8236 17.7976C59.0285 16.7657 60.2944 14.9028 59.2519 14.159C58.7645 13.8039 57.9522 14.0317 57.1399 14.608C56.3276 15.2178 55.5153 16.1827 55.1226 17.3085C54.7977 18.1461 54.7029 18.9167 54.7639 19.56C54.6353 19.6538 53.6266 20.4579 52.5503 20.3641C51.3792 20.2368 51.6094 17.5296 52.1915 15.4724C52.7737 13.4152 54.2088 10.8689 54.5608 10.1988C54.9196 9.55551 54.7909 8.81841 54.3036 8.81841C53.7823 8.81841 52.8752 9.74983 51.7989 13.5493C50.6955 17.3487 50.2081 19.2785 50.7293 20.6589C51.2844 22.0728 53.2678 21.2084 53.5928 20.9806C53.9177 20.7527 54.4728 20.2703 54.7977 19.8548C54.9602 20.6589 55.4476 21.2084 56.2937 21.3357C56.5848 21.3692 56.8759 21.4027 57.1399 21.3692C58.2433 21.3022 59.0895 20.7594 59.4144 20.4713C59.8341 20.1497 59.7055 19.7945 59.4144 20.0558V20.0491ZM56.226 17.1878C56.4223 16.6384 56.7811 16.1291 57.1399 15.7405C57.3701 15.5126 57.5596 15.3518 57.7898 15.258C58.311 14.9698 58.6021 15.8343 58.2094 16.6116C58.047 16.9332 57.5934 17.3822 57.1399 17.7708C56.5239 18.3203 55.9079 18.7693 55.9079 18.7693C55.9079 18.7693 55.874 18.0925 56.2328 17.1945L56.226 17.1878Z" fill="#005B34"/>
<path d="M64.5794 16.4776C64.8366 16.2497 65.3579 15.7069 65.1616 14.675C64.9314 13.4554 62.5283 14.1925 61.2624 15.5126C59.9627 16.8327 60.2876 17.8914 61.0661 18.3136C61.8446 18.7291 63.0834 18.7626 63.7671 18.7291C64.4169 18.6956 64.7419 19.4394 63.6655 20.0826C62.6569 20.7259 61.4858 20.6321 61.1 20.277C60.7073 19.9553 60.4163 19.379 60.1929 19.9553C59.9627 20.5383 60.4839 21.0811 61.2624 21.2084C62.0409 21.3692 63.9566 21.1749 64.7419 19.9553C65.5203 18.7023 64.7757 17.9585 63.6046 17.8981C62.4335 17.8043 61.1 17.543 61.5873 16.4172C62.1086 15.2915 63.3745 15.0369 63.9566 15.0972C64.5117 15.1642 64.5117 15.8678 64.1868 16.3837C63.9905 16.6719 64.2545 16.7724 64.5794 16.4776Z" fill="#005B34"/>
<path d="M109.663 18.7358C109.108 17.3822 108.56 16.7121 107.192 15.8745C109.372 15.4858 110.381 14.1992 110.049 12.1756C109.69 9.92406 107.774 9.63592 105.723 9.63592H99.7122V9.99107L100.396 10.2189C100.558 10.2524 100.626 10.3462 100.626 10.507V20.7996C100.626 20.9605 100.531 21.0275 100.396 21.0878L99.7122 21.4094V21.7646H105.107L105.074 21.4094L104.099 21.1213C103.97 21.0543 103.869 20.9605 103.869 20.7661V16.2296H104.972C105.229 16.2296 105.365 16.6183 105.527 16.8059C105.595 16.8729 105.622 16.9332 105.69 17.0002C106.502 18.193 106.827 19.5399 107.477 20.6656C108.093 21.7579 108.742 21.7579 110.306 21.7579H111.477L111.443 21.4027C110.665 21.2419 110.211 19.9888 109.656 18.7291L109.663 18.7358ZM105.696 15.258C105.141 15.3853 104.525 15.4188 103.875 15.3853V10.4936C104.525 10.4266 105.141 10.4266 105.696 10.5539C106.766 10.8086 107.45 11.5189 107.483 12.839C107.551 14.3199 106.8 14.9966 105.696 15.2513V15.258Z" fill="#005B34"/>
</svg>
