<svg width="287" height="75" viewBox="0 0 287 75" fill="none" xmlns="http://www.w3.org/2000/svg">
<path d="M91.3961 46.558L90.4993 45.7744C92.8481 44.1049 94.6112 41.5012 94.3062 37.1978H95.6179C95.6484 38.4394 95.5324 39.5604 95.3128 40.5911C96.0022 42.5439 97.3017 44.2074 99.0465 45.3646L98.2412 46.2747C96.8014 45.2802 95.6301 43.8819 94.837 42.1581C94.0988 44.0085 92.9213 45.461 91.39 46.558H91.3961ZM103.512 42.6162H101.249V49.4088H100.01V36.4022H101.249V41.5313H103.512V42.6162Z" fill="#006737"/>
<path d="M111.797 42.4713C111.797 43.6225 110.931 44.5386 109.247 44.7194V46.0876C110.662 46.0333 112.114 45.9309 113.225 45.7862V46.7988C111.376 47.058 108.68 47.1966 106.636 47.1966H104.055V46.1418H106.624C107.045 46.1418 107.502 46.1418 107.996 46.1298V44.7194C106.264 44.5506 105.385 43.6345 105.385 42.4713C105.385 41.1754 106.465 40.205 108.6 40.205C110.736 40.205 111.803 41.1754 111.803 42.4713H111.797ZM104.531 39.6083V38.5958H112.548V39.6083H104.531ZM106.288 37.8122V36.7695H110.742V37.8122H106.288ZM110.54 42.4713C110.54 41.7902 109.979 41.1332 108.594 41.1332C107.209 41.1332 106.636 41.7902 106.636 42.4713C106.636 43.1523 107.215 43.8093 108.594 43.8093C109.973 43.8093 110.54 43.1704 110.54 42.4713ZM115.14 49.4086H113.902V36.4019H115.14V49.4086Z" fill="#006737"/>
<path d="M118.642 41.6576V36.4983H119.954V38.0232H125.707V36.4983H126.988V41.6576H123.444V43.1704H129.099V44.2252H116.556V43.1704H122.162V41.6576H118.642ZM125.823 49.4507V46.4854H118.368V45.4306H127.061V49.4507H125.823ZM125.707 39.0659H119.923V40.6028H125.707V39.0659Z" fill="#006737"/>
<path d="M135.047 42.0433C135.853 43.2849 136.981 44.5205 138.25 45.4186L137.329 46.3046C136.176 45.4366 135.212 44.2975 134.388 43.0559C133.278 44.5808 131.863 45.8887 130.38 46.7325L129.544 45.9068C132.613 44.2674 134.834 40.8078 135.084 38.5415C134.004 38.5837 132.949 38.5837 131.881 38.5837H130.325V37.541H132.65C133.876 37.541 135.145 37.541 136.499 37.5109C136.444 39.0478 135.908 40.6149 135.06 42.0433H135.047ZM139.275 36.4019H140.514V49.4086H139.275V36.4019Z" fill="#006737"/>
<path d="M143.222 42.8389V36.7816H144.479V38.6922H148.14V36.7816H149.378V39.2045H152.13V36.3959H153.368V43.3452H152.13V40.2834H149.378V42.8329H143.222V42.8389ZM148.14 39.7229H144.479V41.7902H148.14V39.7229ZM153.374 49.2097H145.126V44.1649H146.352V45.4728H152.148V44.0926H153.374V49.2097ZM152.148 48.1428V46.4914H146.352V48.1428H152.148Z" fill="#006737"/>
<path d="M155.735 40.2774C155.735 38.3667 157.205 36.9564 159.152 36.9564C161.098 36.9564 162.599 38.3667 162.599 40.2774C162.599 42.188 161.128 43.5381 159.152 43.5381C157.175 43.5381 155.735 42.1277 155.735 40.2774ZM157.059 40.2774C157.059 41.5431 157.907 42.4592 159.176 42.4592C160.445 42.4592 161.311 41.5491 161.311 40.2774C161.311 39.0056 160.433 38.0292 159.176 38.0292C157.919 38.0292 157.059 38.9574 157.059 40.2774ZM166.521 49.1554H158.011V45.1232H159.268V48.0886H166.521V49.1554ZM166.216 45.8043H164.99V36.4019H166.216V45.8043Z" fill="#006737"/>
<path d="M172.226 43.9841L171.347 43.1885C173.928 41.7359 175.154 39.5842 174.995 36.7213H176.295C176.307 37.5892 176.209 38.415 176.008 39.1744C176.887 40.8439 178.015 41.8685 179.614 42.7244L178.821 43.6104C177.423 42.857 176.283 41.7721 175.532 40.5064C174.825 42.0011 173.684 43.1825 172.232 43.9961L172.226 43.9841ZM182.609 49.1554H174.245V45.1654H175.502V48.0886H182.609V49.1554ZM178.394 40.3919V39.307H181.078V36.4019H182.316V45.8043H181.078V40.3919H178.394Z" fill="#006737"/>
<path d="M184.177 39.3914V38.3667H191.992V39.3914H184.177ZM188.069 44.7797C185.861 44.7797 184.854 43.6707 184.854 42.417C184.854 41.1634 185.861 40.0664 188.069 40.0664C190.278 40.0664 191.285 41.1754 191.285 42.417C191.285 43.6586 190.278 44.7797 188.069 44.7797ZM185.861 37.529V36.5043H190.315V37.529H185.861ZM188.069 43.7792C189.485 43.7792 190.046 43.0981 190.046 42.411C190.046 41.7239 189.497 41.0428 188.069 41.0428C186.642 41.0428 186.093 41.7239 186.093 42.411C186.093 43.0981 186.654 43.7792 188.069 43.7792ZM194.847 49.1554H186.483V46.0333H187.74V48.0826H194.847V49.1554ZM196.635 41.9469H194.561V46.4492H193.322V36.4079H194.561V40.868H196.635V41.9529V41.9469Z" fill="#006737"/>
<path d="M199.02 41.1332V36.7575H207.366V41.1332H203.822V42.8871H209.477V43.9419H196.934V42.8871H202.54V41.1332H199.02ZM206.201 49.4507V46.2744H198.746V45.2197H207.439V49.4507H206.201ZM206.103 40.0905V37.8424H200.295V40.0905H206.103Z" fill="#006737"/>
<path d="M215.096 42.0011C215.92 43.2548 217.042 44.5084 218.323 45.4186L217.402 46.3046C216.249 45.4366 215.285 44.2975 214.449 43.0559C213.394 44.5808 212.027 45.8887 210.539 46.7325L209.66 45.9068C212.735 44.2674 214.724 40.8078 214.968 38.5415C213.888 38.5837 212.833 38.5837 211.765 38.5837H210.411V37.541H212.589C213.815 37.541 215.084 37.541 216.438 37.5109C216.383 39.0358 215.889 40.5908 215.096 42.0011ZM222.466 42.5014H220.202V49.4086H218.964V36.4019H220.202V41.4165H222.466V42.5014Z" fill="#006737"/>
<path d="M226.803 38.5415C226.041 38.5958 225.113 38.5958 224.265 38.5958H223.399V37.5531H225.016C226.022 37.5531 227.023 37.5531 228.158 37.5229C228.042 39.0177 227.67 40.5124 227.09 41.9107C227.694 43.2066 228.634 44.3879 229.701 45.2558L228.719 46.0815C227.841 45.2679 227.078 44.2553 226.498 43.1342C225.748 44.5024 224.766 45.7259 223.6 46.6963L222.606 45.967C225.071 44.0142 226.468 41.4346 226.803 38.5295V38.5415ZM233.966 49.4086H232.727V42.3266H231.068V49.0771H229.854V36.5405H231.068V41.2719H232.727V36.4019H233.966V49.4086Z" fill="#006737"/>
<path d="M236.302 37.089H242.415V38.1437H237.571V42.4291H239.304C241.238 42.4291 242.94 42.1578 243.947 41.971V42.9655C242.849 43.2367 240.847 43.4657 239.133 43.4657H236.308V37.083L236.302 37.089ZM246.277 49.1554H237.986V45.3523H239.243V48.0886H246.277V49.1554ZM248.065 41.0067H245.99V45.9489H244.752V36.42H245.99V39.9218H248.065V41.0067Z" fill="#006737"/>
<path d="M96.2279 74.4819L93.4704 61.9454L90.7311 74.4819H87.6807L92.0733 55.1467H94.898L99.2905 74.4819H96.2279ZM104.8 74.5844H101.896V64.2357H98.3632V61.4271H101.896V55.0443H104.8V74.5844Z" fill="#221E1F"/>
<path d="M124.389 71.3415H111.553V72.3119H124.389V74.5841H108.832V69.1536H121.668V68.2013H108.832V66.0135H115.147V64.8984H107.618V62.6684H125.597V64.8984H118.069V66.0135H124.383V71.3415H124.389ZM120.832 55.1464C122.901 55.1464 124.554 56.4242 124.554 58.4493C124.554 60.4745 122.901 61.7342 120.832 61.7342H112.383C110.333 61.7342 108.661 60.4745 108.661 58.4493C108.661 56.4242 110.333 55.1464 112.383 55.1464H120.832ZM112.407 57.6055C111.907 57.6055 111.51 57.9551 111.51 58.4493C111.51 58.9436 111.907 59.2992 112.407 59.2992H120.814C121.314 59.2992 121.711 58.9496 121.711 58.4493C121.711 57.9491 121.314 57.6055 120.814 57.6055H112.407Z" fill="#221E1F"/>
<path d="M136.658 74.4817L133.754 61.8185L130.85 74.4817H127.775L132.332 55.1464H135.175L139.733 74.4817H136.658ZM144.937 74.5841H142.033V55.044H144.937V74.5841Z" fill="#221E1F"/>
<path d="M147.761 55.1464H157.523V57.937L156.626 65.6398H153.472L154.369 57.937H147.761V55.1464ZM163.648 74.5841H160.573L161.391 70.2445H149.159V67.8096H161.513V55.044H164.441V60.0224H166.576V62.4996H164.441V70.2445L163.648 74.5841Z" fill="#221E1F"/>
<path d="M178.638 55.1464V57.9973L175.856 60.143L178.741 62.373V65.8206L173.617 61.8728L168.346 65.923V62.4755L174.282 57.9913H168.346V55.1404H178.631L178.638 55.1464ZM181.23 67.3515C183.28 67.3515 184.952 68.9186 184.952 70.9678C184.952 73.0171 183.28 74.5841 181.23 74.5841H172.701C170.652 74.5841 168.98 72.9929 168.98 70.9678C168.98 68.9427 170.652 67.3515 172.701 67.3515H181.23ZM172.701 70.0577C172.201 70.0577 171.805 70.4675 171.805 70.9678C171.805 71.4681 172.201 71.8538 172.701 71.8538H181.23C181.712 71.8538 182.127 71.462 182.127 70.9678C182.127 70.4736 181.706 70.0577 181.23 70.0577H172.701ZM181.377 65.8025V55.0379H184.513V58.7748H186.648V61.5835H184.513V65.7965H181.377V65.8025Z" fill="#221E1F"/>
<path d="M196.891 60.0646V69.5635C196.891 72.5409 194.884 74.5841 192.395 74.5841C189.906 74.5841 187.899 72.5409 187.899 69.5635V60.0646C187.899 57.0872 189.906 55.044 192.395 55.044C194.884 55.044 196.891 57.0872 196.891 60.0646ZM193.963 60.0646C193.963 58.9315 193.42 58.0395 192.395 58.0395C191.37 58.0395 190.827 58.9255 190.827 60.0646V69.5635C190.827 70.7026 191.37 71.5886 192.395 71.5886C193.42 71.5886 193.963 70.7026 193.963 69.5635V60.0646ZM205.542 74.5841H202.638V64.7116H201.235V74.5841H198.41V55.044H201.235V61.9873H202.638V55.044H205.542V74.5841Z" fill="#221E1F"/>
<path d="M214.657 55.1464C217.189 55.1464 219.214 57.1716 219.214 59.6488V61.7161C219.214 64.2174 217.189 66.2184 214.657 66.2184H213.003C210.472 66.2184 208.446 64.2174 208.446 61.7161V59.6488C208.446 57.1716 210.472 55.1464 213.003 55.1464H214.657ZM212.296 71.7935H222.289V55.044H225.217V74.5841H209.367V68.2194H212.296V71.7935ZM213.009 57.9973C212.088 57.9973 211.338 58.7386 211.338 59.6488V61.7161C211.338 62.6262 212.088 63.3675 213.009 63.3675H214.663C215.584 63.3675 216.334 62.6262 216.334 61.7161V59.6488C216.334 58.7386 215.584 57.9973 214.663 57.9973H213.009Z" fill="#221E1F"/>
<path d="M235.564 64.7297V63.3253H229.396V55.044H232.264V56.822H241.817V55.044H244.66V63.3253H238.493V64.7297H246.021V67.1044H228.042V64.7297H235.57H235.564ZM244.911 68.4484V70.8834L244.117 74.5781H241.104L241.921 70.8834H228.957V68.4484H244.911ZM241.817 60.9084V59.1726H232.264V60.9084H241.817Z" fill="#221E1F"/>
<path d="M256.533 64.1089L260.504 74.4997H257.179L254.733 67.9301L251.64 74.4997H248.296L255.947 57.9551H248.626V55.1464H259.412V57.9551L256.526 64.1089H256.533ZM265.379 74.5841H262.493V55.044H265.379V74.5841Z" fill="#221E1F"/>
<path d="M275.183 60.4564V65.2058H282.211V55.044H284.865V60.1671H287V62.5659H284.865V67.8096H272.529V71.8357H285.158V74.5841H269.601V67.8096H268.179V65.2058H272.254V60.4564H275.183ZM280.137 63.0541H277.416V57.6839H269.369V55.1404H280.137V63.0541Z" fill="#221E1F"/>
<path d="M11.2011 53.7722C12.2077 54.0495 12.952 54.9656 12.952 56.0505C12.952 57.3584 11.8783 58.4192 10.5544 58.4192C10.2127 58.4192 9.8772 58.4011 9.54775 58.371C9.75518 58.4313 9.97481 58.4614 10.2005 58.4614C13.3791 58.4674 15.9475 61.0049 15.9536 64.145C15.9536 67.2792 13.3791 69.8226 10.2005 69.8287H3.00159C1.67772 69.8287 0.603979 70.8895 0.603979 72.1973C0.603979 73.5052 1.67772 74.566 3.00159 74.566H10.1944C16.0207 74.566 20.7427 69.901 20.7427 64.145C20.7427 58.7206 16.5515 54.2725 11.2011 53.7722Z" fill="#93C94A"/>
<path d="M12.9459 39.9459C12.9459 41.2538 11.8722 42.3146 10.5483 42.3146C10.4202 42.3146 10.2982 42.3206 10.1761 42.3326C10.2982 42.3507 10.4263 42.3628 10.5483 42.3628H17.7411C19.065 42.3628 20.1387 41.302 20.1387 39.9941C20.1387 38.6862 19.065 37.6254 17.7411 37.6254H11.0119C12.1162 37.8424 12.9459 38.7947 12.9459 39.9519V39.9459Z" fill="#93C94A"/>
<path d="M7.79682 56.0927C7.79682 54.7848 8.87057 53.724 10.1944 53.724C10.5361 53.724 10.8655 53.7421 11.2011 53.7722C10.9936 53.712 10.774 53.6818 10.5483 53.6818C7.36977 53.6818 4.80133 51.1384 4.79523 47.9982C4.79523 44.9846 7.17454 42.5255 10.17 42.3326C9.02309 42.1518 8.14457 41.1754 8.14457 39.9941C8.14457 38.6862 9.21831 37.6254 10.5422 37.6254H11.0058C10.8533 37.5953 10.7008 37.5832 10.5422 37.5832C4.72202 37.5772 0 42.2422 0 47.9982C0 53.4227 4.18515 57.8707 9.54165 58.371C8.53502 58.0877 7.79682 57.1776 7.79682 56.0927Z" fill="#915FA7"/>
<path d="M12.9459 56.0505C12.9459 54.9656 12.2077 54.0495 11.195 53.7722C10.8655 53.7421 10.53 53.724 10.1883 53.724C8.86446 53.724 7.79072 54.7848 7.79072 56.0927C7.79072 57.1776 8.52892 58.0877 9.53555 58.371C9.865 58.4011 10.2005 58.4192 10.5422 58.4192C11.8661 58.4192 12.9398 57.3584 12.9398 56.0505H12.9459Z" fill="white"/>
<path d="M12.9459 72.1974C12.9459 71.1125 12.2077 70.2024 11.195 69.9191C10.8655 69.8889 10.53 69.8709 10.1883 69.8709C8.86446 69.8709 7.79072 70.9316 7.79072 72.2395C7.79072 73.3244 8.52892 74.2346 9.53555 74.5178C9.865 74.548 10.2005 74.566 10.5422 74.566C11.8661 74.566 12.9398 73.5053 12.9398 72.1974H12.9459Z" fill="white"/>
<path d="M8.15067 39.9881C8.15067 41.1694 9.02919 42.1458 10.1761 42.3266C10.2982 42.3146 10.4263 42.3085 10.5483 42.3085C11.8722 42.3085 12.9459 41.2477 12.9459 39.9398C12.9459 38.7886 12.1162 37.8303 11.0119 37.6133H10.5483C9.22441 37.6133 8.15067 38.6741 8.15067 39.982V39.9881Z" fill="white"/>
<path d="M37.9724 74.6504C37.9724 74.6504 37.9533 74.6504 37.947 74.6504C37.9533 74.6504 37.966 74.6504 37.9724 74.6504Z" fill="#915FA7"/>
<path d="M35.769 71.7031L38.1239 62.59L32.0902 39.2648C31.7608 37.9991 30.4552 37.2336 29.174 37.5591C27.8929 37.8785 27.1181 39.1744 27.4414 40.4401L35.6897 72.3541C35.6897 72.1371 35.708 71.9201 35.7629 71.7031H35.769Z" fill="#915FA7"/>
<path d="M38.1544 74.6625C38.1971 74.6625 38.2337 74.6625 38.2764 74.6564C38.2276 74.6564 38.1788 74.6625 38.1239 74.6625C38.1361 74.6625 38.1422 74.6625 38.1544 74.6625Z" fill="#915FA7"/>
<path d="M38.3008 74.6504C38.4473 74.6384 38.5998 74.6203 38.7523 74.5841C39.8138 74.3189 40.5276 73.3847 40.552 72.3541L40.4178 72.8784C40.1616 73.8789 39.2892 74.566 38.3008 74.6504Z" fill="#915FA7"/>
<path d="M38.3008 74.6504C38.3008 74.6504 38.2828 74.6504 38.2764 74.6504C38.2828 74.6504 38.2945 74.6504 38.3008 74.6504Z" fill="#93C94A"/>
<path d="M47.0738 37.5591C45.7926 37.2336 44.487 37.9991 44.1576 39.2648L38.1239 62.59L40.4788 71.7031C40.5337 71.9201 40.5581 72.1371 40.552 72.3541L48.8003 40.4401C49.1298 39.1744 48.355 37.8785 47.0677 37.5591H47.0738Z" fill="#93C94A"/>
<path d="M38.0934 74.6625C38.0934 74.6625 38.1117 74.6625 38.1239 74.6625C38.0751 74.6625 38.0202 74.6625 37.9714 74.6564C38.0141 74.6564 38.0507 74.6625 38.0934 74.6625Z" fill="#93C94A"/>
<path d="M35.83 72.8784L35.6958 72.3541C35.7263 73.3847 36.434 74.3189 37.4955 74.5841C37.648 74.6203 37.7945 74.6444 37.947 74.6504C36.9587 74.566 36.0923 73.8789 35.83 72.8784Z" fill="#93C94A"/>
<path d="M40.4788 71.7031L38.1239 62.59L35.769 71.7031C35.7141 71.9201 35.6897 72.1371 35.6958 72.3541L35.83 72.8784C36.0862 73.8789 36.9587 74.566 37.947 74.6504C37.9533 74.6504 37.966 74.6504 37.9724 74.6504C38.0212 74.6504 38.0751 74.6564 38.1239 74.6564C38.1727 74.6564 38.2276 74.6564 38.2764 74.6504C38.2828 74.6504 38.2945 74.6504 38.3008 74.6504C39.2892 74.566 40.1555 73.8789 40.4178 72.8784L40.552 72.3541C40.552 72.1371 40.5337 71.9201 40.4788 71.7031Z" fill="#814C9E"/>
<path d="M57.7075 45.2016C59.0314 45.2016 60.1051 46.2624 60.1051 47.5703C60.1112 44.4301 62.6796 41.8987 65.8581 41.8866C64.5343 41.8866 63.4605 40.8258 63.4605 39.5179C63.4605 38.21 64.5221 37.1613 65.8398 37.1493C60.0197 37.1613 55.3099 41.8203 55.3099 47.5703C55.3099 46.2624 56.3836 45.2016 57.7075 45.2016Z" fill="#93C94A"/>
<path d="M74.0088 62.2103C72.6849 62.2103 71.6112 63.2711 71.6112 64.579C71.6051 67.7131 69.0367 70.2566 65.8581 70.2626C62.6857 70.2626 60.1112 67.7192 60.1051 64.585C60.1051 65.8929 59.0314 66.9477 57.7075 66.9477C56.3836 66.9477 55.316 65.8929 55.3099 64.591C55.316 70.341 60.038 75 65.8581 75C71.6783 75 76.4064 70.335 76.4064 64.579C76.4064 63.2711 75.3327 62.2103 74.0088 62.2103Z" fill="#93C94A"/>
<path d="M57.7075 62.2103C59.0314 62.2103 60.1051 63.2711 60.1051 64.579V47.5703C60.1051 48.8782 59.0314 49.9389 57.7075 49.9389C56.3836 49.9389 55.3099 48.8782 55.3099 47.5763V64.579C55.3099 64.579 55.3099 64.585 55.3099 64.591V64.579C55.3099 63.2711 56.3836 62.2103 57.7075 62.2103Z" fill="#915FA7"/>
<path d="M57.7075 49.9389C59.0314 49.9389 60.1051 48.8782 60.1051 47.5703C60.1051 46.2624 59.0314 45.2016 57.7075 45.2016C56.3836 45.2016 55.3099 46.2624 55.3099 47.5703C55.3099 48.8842 56.3836 49.9389 57.7075 49.9389Z" fill="white"/>
<path d="M57.7075 66.9477C59.0314 66.9477 60.1051 65.8869 60.1051 64.585C60.1051 63.2711 59.0314 62.2103 57.7075 62.2103C56.3836 62.2103 55.3099 63.2711 55.3099 64.579V64.591C55.3099 65.8929 56.3897 66.9477 57.7075 66.9477Z" fill="white"/>
<path d="M68.2558 39.5179C68.2558 40.8258 67.182 41.8866 65.8581 41.8866C69.0306 41.8927 71.6051 44.4301 71.6112 47.5703C71.6112 48.8782 72.6849 49.9389 74.0088 49.9389C75.3327 49.9389 76.4064 48.8782 76.4064 47.5703C76.4064 41.8143 71.6844 37.1493 65.8581 37.1493C65.852 37.1493 65.8459 37.1493 65.8398 37.1493C65.8398 37.1493 65.852 37.1493 65.8581 37.1493C67.182 37.1493 68.2558 38.21 68.2558 39.5179Z" fill="#915FA7"/>
<path d="M63.4544 39.5179C63.4544 40.8258 64.5282 41.8866 65.8521 41.8866C67.1759 41.8866 68.2497 40.8258 68.2497 39.5179C68.2497 38.21 67.1759 37.1493 65.8521 37.1493C65.8459 37.1493 65.8399 37.1493 65.8337 37.1493C64.516 37.1613 63.4544 38.2161 63.4544 39.5179Z" fill="white"/>
<path d="M63.4544 72.6313C63.4544 73.9392 64.5282 75 65.8521 75C67.1759 75 68.2497 73.9392 68.2497 72.6313C68.2497 71.3234 67.1759 70.2626 65.8521 70.2626C65.8459 70.2626 65.8399 70.2626 65.8337 70.2626C64.516 70.2747 63.4544 71.3294 63.4544 72.6313Z" fill="white"/>
<path d="M39.8748 6.69387C39.643 8.41764 38.0446 9.62911 36.2998 9.40008C34.5549 9.17104 33.3287 7.58589 33.5605 5.86212C33.7923 4.13834 35.3968 2.92687 37.1356 3.15591C38.8804 3.38494 40.1067 4.97009 39.8748 6.69387Z" fill="url(#paint0_linear_171_881)"/>
<path d="M49.5995 3.55973C49.3677 5.28351 47.7693 6.49497 46.0244 6.26594C44.2796 6.0369 43.0534 4.45175 43.2852 2.734C43.517 1.01023 45.1154 -0.201236 46.8603 0.0277967C48.6051 0.25683 49.8313 1.84198 49.5995 3.55973Z" fill="url(#paint1_linear_171_881)"/>
<path d="M38.7096 18.7061C38.7096 18.7061 35.3602 4.32518 25.0499 9.31569C25.0499 9.31569 13.6353 15.0355 29.5523 29.5731C29.5523 29.5731 40.0091 38.7103 37.1417 47.5341C37.1417 47.5341 41.577 38.1739 30.3637 24.1305C30.3637 24.1305 24.3849 16.699 27.0693 13.4745C27.0693 13.4745 28.5945 10.4729 34.1096 13.6553C34.1096 13.6553 36.1045 14.1917 38.7157 18.7L38.7096 18.7061Z" fill="#865F90"/>
<path d="M42.4128 15.9275C42.4128 15.9275 49.1847 -0.954635 59.8916 6.94098C59.8916 6.94098 69.6895 15.0717 50.8502 25.6614C50.8502 25.6614 38.5693 32.213 39.3319 41.4527C39.3319 41.4527 37.1661 31.339 51.3138 20.1827C51.3138 20.1827 58.8483 14.2881 56.9693 10.5452C56.9693 10.5452 56.1701 7.27851 50.0754 9.14091C50.0754 9.14091 47.3483 9.91239 42.4189 15.9335L42.4128 15.9275Z" fill="#89A74C"/>
<path d="M39.2037 20.3696C39.2037 20.7794 38.8621 21.0988 38.4534 21.0928C38.0446 21.0928 37.7152 20.7553 37.7213 20.3515L37.7518 18.1094C37.7518 17.7055 38.0934 17.3801 38.5022 17.3861C38.9109 17.3861 39.2404 17.7236 39.2343 18.1274L39.2037 20.3696Z" fill="#865F90"/>
<path d="M38.2825 34.4009C38.1788 34.4009 38.0995 34.3165 38.0995 34.214L38.2642 21.0928C38.2642 20.9904 38.3496 20.906 38.4534 20.912C38.5571 20.912 38.6364 20.9964 38.6364 21.0988L38.4717 34.2261C38.4717 34.3285 38.3862 34.4069 38.2825 34.4069V34.4009Z" fill="#865F90"/>
<defs>
<linearGradient id="paint0_linear_171_881" x1="1.25522" y1="32.5741" x2="231.027" y2="149.692" gradientUnits="userSpaceOnUse">
<stop stop-color="#F8E19C"/>
<stop offset="0.5" stop-color="#EEC14E"/>
<stop offset="1" stop-color="#E4A14D"/>
</linearGradient>
<linearGradient id="paint1_linear_171_881" x1="1.13519" y1="32.5091" x2="230.997" y2="149.561" gradientUnits="userSpaceOnUse">
<stop stop-color="#D97BAE"/>
<stop offset="0.5" stop-color="#D25DA3"/>
<stop offset="1" stop-color="#B15CA3"/>
</linearGradient>
</defs>
</svg>
